<svg xmlns="http://www.w3.org/2000/svg"><defs><font horiz-adv-x="0"><font-face ascent="1638" descent="-410" units-per-em="2048"/><missing-glyph horiz-adv-x="515"/><glyph d="M78 0v191h1085v-191h-1085zM78 716v199h443v448h198v-448h444v-199h-442v-444h-197v444h-446z" horiz-adv-x="1241" unicode="&#x2b;&#x2d;"/><glyph d="M194-3v290h291v-290h-291zM876-3v290h290v-290h-290zM1560-3v290h293v-290h-293z" horiz-adv-x="2054" unicode="&#x2e;&#x2e;&#x2e;"/><glyph d="M110 182h1096l3-182h-1097zM110 755v166l1098 494v-195l-841-384 841-379v-194z" horiz-adv-x="1321" unicode="&#x3c;&#x3d;"/><glyph d="M110 182h1096l3-182h-1097zM110 263l2 194 838 379-840 384 1 195 1097-494-2-166z" horiz-adv-x="1321" unicode="&#x3e;&#x3d;"/><glyph d="M108 619q0 90 23 173.5t66 155.5 103.5 132 133 101 157 65 176.5 24q88 0 171-24t155-65 131-101 101.5-132 64.5-155q25-84 25-174.5t-23.5-174-66-156-102.5-131.5-131.5-101.5-154.5-65.5q-85-23-173-23-92 0-175 23t-156 65.5-133 101.5-102.5 131.5-66 156-23.5 174.5zM287 624.5q0-97.5 38-184t102-151 151.5-103 186.5-38.5q65 0 125 18t112 49 95 74 73 96 47 113.5 17 126-16 126-47 112.5-74 94.5-95.5 73-112.5 47.5-125 17q-101 0-187-37t-150-100.5-102-149.5-38-183.5zM414 625q0 69 28.5 131t75.5 109 111 75 135 28q69 0 130.5-28t108-75 74-109 27.5-131q0-71-26.5-135t-73-110.5-108-74-132.5-27.5-135 27.5-111 74-75.5 110.5-28.5 135zM502 1788h200l-26-339h-155zM576 625q0-40 14.5-75t39-60 59.5-39q33-14 75-14 38 0 70.5 14t57 39 38.5 60 13 75q0 38-14 70.5t-38 57.5-56.5 39.5-69.5 14.5q-41 0-76-14.5t-60-39.5-39-57.5-14-70.5zM832 1788h204l-24-339h-157z" horiz-adv-x="1536" unicode="&#xe4f;&#x22;"/><glyph d="M65 203h121v469q0 25-4 51t-15.5 51-31.5 47.5-52 39.5q12 51 34 99.5t56 94.5 81.5 85.5 109 68 137.5 45 168 16.5q109 0 195-20t149.5-56.5 108-85 71.5-106.5 38.5-122.5 11.5-130.5v-1177h-243q-17 27-41 53t-59.5 45-84 31-115.5 12q-53 0-100.5-12t-91-34-83.5-55q-40-35-79-77l2 240q26 30 64 55t84 44 97.5 29.5 109.5 10.5q53 0 97.5-7.5t80-18.5 63.5-24q27-12 46-24l2 930q0 53-16.5 103.5t-54 91.5-99 66.5-153.5 26.5q-77 0-134-17t-96-43.5-62-57-29-55.5q18-18 34-41t27-50 18-59q5-33 5-66l5-669h-370zM947-679q0 35 13.5 65.5t36.5 54 54 37 66 13.5q34 0 64-13.5t53-37 36-53.5q15-31 15-66 0-34-13.5-64.5t-37-53.5-54-36.5-64.5-13.5q-36 0-66 13.5t-53 36.5-36.5 53.5-13.5 64.5z" horiz-adv-x="1360" unicode="&#xe0e;&#xe3a;"/><glyph d="M65 203h121v469q0 25-4 51t-15.5 51-31.5 47.5-52 39.5q12 51 34 99.5t56 94.5 81.5 85.5 109 68 137.5 45 168 16.5q109 0 195-20t149.5-56.5 108-85 71.5-106.5 38.5-122.5 11.5-130.5v-1177h-248q-5 21-14.5 47t-26 48-38.5 37-55 15q-29 0-51.5-15t-38-36.5-22-47.5-6.5-48h-210q0 17-4.5 42t-18 48.5-35.5 41.5-55 18q-26 0-45.5-14t-32-35.5-17.5-48.5-5-52h-199q0 89 24 153.5t64.5 106 90 60.5 100.5 19q74 0 131-29.5t94-84.5q20 27 46 47t53.5 33 55.5 19 52 6q55 0 93-16t67-40v924q0 53-16.5 103.5t-54 91.5-99 66.5-153.5 26.5q-77 0-134-17t-96-43.5-62-57-29-55.5q18-18 34-41t27-50 18-59q5-33 5-66l5-669h-370zM947-679q0 35 13.5 65.5t36.5 54 54 37 66 13.5q34 0 64-13.5t53-37 36-53.5q15-31 15-66 0-34-13.5-64.5t-37-53.5-54-36.5-64.5-13.5q-36 0-66 13.5t-53 36.5-36.5 53.5-13.5 64.5z" horiz-adv-x="1360" unicode="&#xe0f;&#xe3a;"/><glyph d="M65 203h121v469q0 25-4 51t-15.5 51-31.5 47.5-52 39.5q12 51 34 99.5t56 94.5 81.5 85.5 109 68 137.5 45 168 16.5q109 0 195-20t149.5-56.5 108-85 71.5-106.5 38.5-122.5 11.5-130.5v-1177h-243q-17 27-41 53t-59.5 45-84 31-115.5 12q-53 0-100.5-12t-91-34-83.5-55q-40-35-79-77l2 240q26 30 64 55t84 44 97.5 29.5 109.5 10.5q53 0 97.5-7.5t80-18.5 63.5-24q27-12 46-24l2 930q0 53-16.5 103.5t-54 91.5-99 66.5-153.5 26.5q-77 0-134-17t-96-43.5-62-57-29-55.5q18-18 34-41t27-50 18-59q5-33 5-66l5-669h-370zM901-506h342v-465h-234l3 274h-109z" horiz-adv-x="1360" unicode="&#xe0e;&#xe38;"/><glyph d="M65 203h121v469q0 25-4 51t-15.5 51-31.5 47.5-52 39.5q12 51 34 99.5t56 94.5 81.5 85.5 109 68 137.5 45 168 16.5q109 0 195-20t149.5-56.5 108-85 71.5-106.5 38.5-122.5 11.5-130.5v-1177h-248q-5 21-14.5 47t-26 48-38.5 37-55 15q-29 0-51.5-15t-38-36.5-22-47.5-6.5-48h-210q0 17-4.5 42t-18 48.5-35.5 41.5-55 18q-26 0-45.5-14t-32-35.5-17.5-48.5-5-52h-199q0 89 24 153.5t64.5 106 90 60.5 100.5 19q74 0 131-29.5t94-84.5q20 27 46 47t53.5 33 55.5 19 52 6q55 0 93-16t67-40v924q0 53-16.5 103.5t-54 91.5-99 66.5-153.5 26.5q-77 0-134-17t-96-43.5-62-57-29-55.5q18-18 34-41t27-50 18-59q5-33 5-66l5-669h-370zM901-506h342v-465h-234l3 274h-109z" horiz-adv-x="1360" unicode="&#xe0f;&#xe38;"/><glyph d="M65 203h121v469q0 25-4 51t-15.5 51-31.5 47.5-52 39.5q12 51 34 99.5t56 94.5 81.5 85.5 109 68 137.5 45 168 16.5q109 0 195-20t149.5-56.5 108-85 71.5-106.5 38.5-122.5 11.5-130.5v-1177h-243q-17 27-41 53t-59.5 45-84 31-115.5 12q-53 0-100.5-12t-91-34-83.5-55q-40-35-79-77l2 240q26 30 64 55t84 44 97.5 29.5 109.5 10.5q53 0 97.5-7.5t80-18.5 63.5-24q27-12 46-24l2 930q0 53-16.5 103.5t-54 91.5-99 66.5-153.5 26.5q-77 0-134-17t-96-43.5-62-57-29-55.5q18-18 34-41t27-50 18-59q5-33 5-66l5-669h-370zM459-506h346v-169q0-59 25-90t79-31q50 0 77 30 26 32 23 91l2 169h232v-169q0-65-17.5-122.5t-57-100.5-104-68.5-157.5-25.5q-87 0-150 21.5t-103.5 60-61.5 92.5-24 121h-108z" horiz-adv-x="1360" unicode="&#xe0e;&#xe39;"/><glyph d="M65 203h121v469q0 25-4 51t-15.5 51-31.5 47.5-52 39.5q12 51 34 99.5t56 94.5 81.5 85.5 109 68 137.5 45 168 16.5q109 0 195-20t149.5-56.5 108-85 71.5-106.5 38.5-122.5 11.5-130.5v-1177h-248q-5 21-14.5 47t-26 48-38.5 37-55 15q-29 0-51.5-15t-38-36.5-22-47.5-6.5-48h-210q0 17-4.5 42t-18 48.5-35.5 41.5-55 18q-26 0-45.5-14t-32-35.5-17.5-48.5-5-52h-199q0 89 24 153.5t64.5 106 90 60.5 100.5 19q74 0 131-29.5t94-84.5q20 27 46 47t53.5 33 55.5 19 52 6q55 0 93-16t67-40v924q0 53-16.5 103.5t-54 91.5-99 66.5-153.5 26.5q-77 0-134-17t-96-43.5-62-57-29-55.5q18-18 34-41t27-50 18-59q5-33 5-66l5-669h-370zM459-506h346v-169q0-59 25-90t79-31q50 0 77 30 26 32 23 91l2 169h232v-169q0-65-17.5-122.5t-57-100.5-104-68.5-157.5-25.5q-87 0-150 21.5t-103.5 60-61.5 92.5-24 121h-108z" horiz-adv-x="1360" unicode="&#xe0f;&#xe39;"/><glyph horiz-adv-x="515" unicode="&#x20;"/><glyph horiz-adv-x="515" unicode="&#x09;"/><glyph horiz-adv-x="515" unicode="&#xa0;"/><glyph d="M237 0v275h293v-275h-293zM249 1037v410h268v-410l-55-640h-157z" horiz-adv-x="766" unicode="&#x21;"/><glyph d="M210 919v528h175v-528h-175zM518 919v528h178l-2-528h-176z" horiz-adv-x="905" unicode="&#x22;"/><glyph d="M74 406l1 195h224l33 243h-205v193h233l59 410h200l-60-410h197l58 410h201l-56-410h179v-193h-204l-34-243h177v-195h-208l-56-406h-206l59 406h-191l-61-406h-201l56 406h-195zM503 601h193l32 243h-191z" horiz-adv-x="1215" unicode="&#x23;"/><glyph d="M49 485h246q2-122 62-197t161-96v449q-101 26-180.5 59.5t-134.5 79.5-83 109-28 151q0 92 34 168.5t91.5 132.5 135.5 92q76 35 165 44v139h179v-139q167-27 269-141 103-114 141-304h-243q-19 87-59.5 141.5t-107.5 74.5v-412q50-9 104-26.5t103-43.5 93.5-60 77-77 51.5-97q17-54 17-118 0-93-33-170.5t-92-136-140.5-94-180.5-43.5l2-168h-181l3 171q-104 14-186.5 53t-142.5 104-96.5 154-46.5 201zM348 1061.5q0-41.5 11-70.5t32.5-48 53.5-32.5 74-23.5l2 371q-39-9-71.5-25t-54.5-40.5-34.5-57-12.5-74zM699 184q41 5 76.5 23t61.5 44.5 40 63.5 14 85q0 41-15 72t-40 53.5-60.5 38.5-76.5 28v-408z" horiz-adv-x="1197" unicode="&#x24;"/><glyph d="M198 1032q0 82 18 159t58.5 135.5 107 94 166.5 35.5q102 0 170.5-34t109.5-91.5 58-133.5q17-75 17-161 0-81-19.5-157.5t-62.5-135.5-111-94.5-162-35.5q-95 0-161.5 32.5t-108 88.5-61 132.5-19.5 165.5zM406 1036q0-27 1-56.5t7-59 15-55.5 25.5-46 38.5-31.5 52-11.5q47 0 76.5 25t46 63.5 21 84.5 4.5 87q0 27-1.5 55t-6 57-15 54.5-26 46.5-40 33-56.5 12q-45 0-73-27t-43-65.5-20.5-83-5.5-82.5zM462-30l914 1507h240l-909-1507h-245zM1181 403q0 84 18 161.5t60 137 111 94 169.5 34.5 168-33 107-91 56.5-135 17-163q0-82-19.5-157.5t-62-134-108.5-93.5-159-35q-97 0-165.5 32.5t-111 89-62 132-19.5 161.5zM1391 406q0-26 1.5-54.5t7.5-57 15.5-54 25-45.5 38.5-32 54-12q48 0 76 24.5t43.5 62 20.5 83.5 5 87q0 27-1.5 56.5t-7 58-14.5 55-25.5 46.5-38.5 31.5-52 11.5q-32 0-55-11.5t-40-31.5-27.5-46.5-16.5-56.5-7.5-59.5-1.5-55.5z" horiz-adv-x="2085" unicode="&#x25;"/><glyph d="M71 388q0 86 25 151t69 115 104 91 128 79q-28 36-54 72t-47 76-33.5 84-12.5 92q0 64 23 122t69 101.5 112 69.5q67 26 153 26 74 0 143.5-20t122.5-60 86-99.5 33-136.5q0-63-21.5-118.5t-57-103-82.5-86-100-67.5l210-249q15 46 23 92 7 47 13 100h222q-8-47-13.5-85t-11.5-68-13-57-15-51-19-50-26-56l317-352h-302l-141 157q-37-46-84-79.5t-102-56-114-34-119-11.5q-106 0-183 22.5t-131 58-87.5 81.5-52.5 91.5-25 87-6 71.5zM311 391q0-49 21.5-88.5t56-66.5 79.5-42q47-15 94-15 88 0 157.5 35.5t119.5 100.5q-78 88-156.5 181t-152.5 176q-45-27-84.5-53.5t-69.5-60.5-47.5-74-17.5-93zM481 1143q0-26 9.5-51.5t26-52.5 37.5-54q20-29 44-56 27 20 56.5 41.5t53 46.5 39.5 56q17 31 17 70 0 25-11.5 48t-30 39-45 26.5-58.5 10.5q-27 0-51.5-7.5t-43.5-23-31-38.5-12-55z" horiz-adv-x="1354" unicode="&#x26;"/><glyph d="M210 919v528h175v-528h-175z" horiz-adv-x="599" unicode="&#x27;"/><glyph d="M90 558q0 124 20 249t61.5 246.5 102 238.5 143.5 224h203q-75-122-128.5-239t-87-235-49-238-13.5-246q0-127 14.5-247t48-237.5 87-236 127.5-240.5h-205q-72 113-132 227t-103 232.5-66 243.5-23 258z" horiz-adv-x="593" unicode="&#x28;"/><glyph d="M-28 1516h203q83-107 143.5-224t102-238.5 62-247 20.5-248.5q0-133-25-258t-68-243.5-103.5-232.5-133.5-227h-200q74 122 126.5 240.5t86 236 49.5 238.5q17 120 17 246t-16.5 246-50.5 238-86.5 235-126.5 239z" horiz-adv-x="593" unicode="&#x29;"/><glyph d="M41 1156l54 152 213-77-2 219h165v-219l205 77 63-152-218-76 133-182-136-90-127 184-128-184-139 90 128 182z" horiz-adv-x="781" unicode="&#x2a;"/><glyph d="M92 654h444v450h198v-450h447v-197h-445v-445h-197v445h-446z" horiz-adv-x="1272" unicode="&#x2b;"/><glyph d="M152 0v287h292v-238q0-64-18-125.5t-53.5-114-90-94-130.5-64.5v168q30 11 53.5 32.5t40 47.5 24.5 53 8 48h-126z" horiz-adv-x="599" unicode="&#x2c;"/><glyph d="M93 457v197h794l1-197h-795z" horiz-adv-x="981" unicode="&#x2d;"/><glyph d="M151-3l1 290h292l-1-290h-292z" horiz-adv-x="599" unicode="&#x2e;"/><glyph d="M-27-30l594 1510h229l-602-1510h-221z" horiz-adv-x="781" unicode="&#x2f;"/><glyph d="M53 725q0 59 3 122t11 126.5 24 125 42.5 116.5 64 102.5 91.5 81.5 123.5 53 161.5 19q91 0 161-19t123.5-53 92-81.5 64-102.5 41.5-116.5 24.5-125 11-126.5 2.5-122q0-83-5.5-171t-23-171-51.5-157.5-92-129.5-142-87.5-206-32.5q-121 0-206 32.5t-143.5 87.5-92.5 129.5-51 157.5-22.5 171-5.5 171zM305 725q0-50 1.5-109.5t9-118.5 24.5-113.5 47-97.5 76-69 111-26 111 26 75.5 69 46 97.5 24.5 113.5 9.5 118.5 1.5 109.5q0 49-2 107.5t-11 117.5-27 114.5-47.5 98.5-74 69-106.5 26-107-26-75.5-69-46.5-98.5-25-114.5-12-118-3-107z" horiz-adv-x="1151" unicode="&#x30;"/><glyph d="M141 955l3 214q78 5 146 16t120.5 39 89.5 80.5 55 141.5h213l2-1446h-240l-2 1018q-72-34-167-48t-220-15z" horiz-adv-x="1151" unicode="&#x31;"/><glyph d="M53 0q9 90 30 163.5t52 133.5 70 108 83.5 88.5 92.5 74.5 99 65q91 60 156.5 105.5t108 88.5 63.5 90.5 21 109.5q0 50-19.5 91.5t-52 70.5-77 44.5-92.5 15.5q-69 0-117-29.5t-79-78.5-45-112q-14-64-10-129h-242q-8 80 4 154t41 136 73.5 112.5 102 86.5 128.5 55.5 152 19.5q101 0 190.5-29t154.5-85 103.5-137.5 38.5-188.5q0-68-14.5-125t-41.5-105-62.5-88-76-72.5-84-61.5-85.5-54q-59-36-118-73t-109.5-74.5-87.5-76.5-52-78h722v-216h-1021z" horiz-adv-x="1151" unicode="&#x32;"/><glyph d="M59 477h249q0-69 16-123.5t47.5-92.5 80-58.5 112.5-20.5q62 0 114 17t89 47.5 57 74.5q20 43 20 99 0 58-18 101.5t-52 71-82 41.5-107 14h-19t-13.5-.5-16-1.5-27.5-1v199h53q48 0 89.5 14t71 40 46.5 63q17 39 17 87 0 98-55.5 149.5t-168.5 51.5q-62 0-105-23.5t-69.5-63.5-38.5-95-12-115h-248q3 114 34 208t90 161 146.5 105 202.5 38q103 0 189.5-26t150.5-78 101-131q36-78 36-184 0-45-13.5-86t-37-76.5-54.5-65.5-68-52q123-43 177-129 55-88 55-213 0-71-19-131.5t-51.5-111-78.5-89.5q-46-41-99-67-30-17-65-26.5t-71-15.5-73-7.5-76-1.5q-117 0-211 31.5t-159.5 95-100.5 157.5q-35 95-35 220z" horiz-adv-x="1151" unicode="&#x33;"/><glyph d="M40 303l1 212 662 931h215v-919h198v-224h-198v-303h-239v303h-639zM305 527h373v536z" horiz-adv-x="1151" unicode="&#x34;"/><glyph d="M56 445h243q6-54 26.5-100t54.5-81 81.5-54 106.5-19q57 0 107 18.5t87 57 58 94.5 21 133q0 62-21 115t-58 90.5-88.5 58-114.5 20.5q-44 0-82.5-5.5t-71-20.5-60-39.5-50.5-58.5h-211l132 792h801v-212h-606l-47-313q25 14 54.5 27.5t61 22.5 62.5 15 59 6q103 0 193-33t157-96.5 105.5-159.5 38.5-223q0-98-34-187.5t-101.5-158.5-168.5-110.5-237-41.5q-101 0-190 29.5t-157 88-108 145.5-43 200z" horiz-adv-x="1151" unicode="&#x35;"/><glyph d="M50 682q0 101 12 199.5t37 185.5 68 161 106 127.5 148 84.5 195 31q96 0 175-26t135.5-77.5 92-129.5 47.5-180h-243q-12 102-68 148t-153 46q-59 0-102.5-21.5t-77.5-56-56.5-79-37-92-21.5-93.5-8-81q30 34 67 60t79.5 44.5 88.5 28 92 9.5q115 0 203.5-38.5t149-104.5 91.5-155.5 31-190.5q0-56-9.5-115t-34-115.5-63.5-106.5-97-88-135-59.5-176-21.5q-115 0-200.5 31t-144.5 84-96.5 123-58.5 148.5-28.5 160.5-7.5 159zM323 470.5q0-59.5 19-111t54-88.5 84.5-58.5 114.5-21.5q62 0 111 21.5t81.5 59 49.5 88.5q15 51 15 108 0 59-15.5 110.5t-47 91-82 62.5-115.5 23-114.5-22.5-84.5-61-52.5-90-17.5-111z" horiz-adv-x="1151" unicode="&#x36;"/><glyph d="M73 1222v224h1009v-185q-127-124-229.5-275t-174-315.5-110-335.5-38.5-335h-270q0 112 18 224.5t52 223.5 81.5 217 106 204.5 125.5 187.5 141 165h-711z" horiz-adv-x="1151" unicode="&#x37;"/><glyph d="M41 437q0 117 58 208 58 89 163 142-37 24-63.5 56.5t-44.5 71-27 80-9 84.5q0 95 35.5 168t96.5 122.5 142.5 75.5 172.5 26q128 0 215-34t142-88.5 79.5-125 24.5-144.5q0-47-8.5-89.5t-24.5-78.5-44-67q-28-30-67-54 52-26 95-61.5t72.5-81.5 45.5-98.5 16-111.5q0-113-42.5-198t-115-144-168-89-202.5-30q-112 0-210 28.5t-172 86-117 145-43 201.5zM293 431q0-58 22-102.5t61.5-75.5 92-46.5 114.5-15.5q59 0 109.5 17t87.5 49.5 57.5 77 20.5 99.5q0 48-23.5 91t-62 74-89 49-104.5 18q-57 0-109.5-16.5t-91-46.5-62-74.5-23.5-97.5zM369 1070q0-47 17-83.5t46.5-61.5 68.5-37 82-12q42 0 77.5 13.5t60.5 38.5 40 60.5 15 81.5q0 44-15 79t-41.5 57-63.5 34-80 12q-39 0-76.5-11t-67-33.5-47.5-56.5-16-81z" horiz-adv-x="1151" unicode="&#x38;"/><glyph d="M50 965q0 56 10.5 115.5t35 115.5 63.5 105.5 97 87.5 135 60 174 22q88 0 157.5-17.5t123.5-50.5 94-75.5 68-94.5 46-110.5 28-119 14.5-121.5 4.5-118q0-101-11-198.5t-37-185.5-69-162-105-128-148-84-195-30q-98 0-175.5 25.5t-134.5 77-92.5 128.5-46.5 181h243q12-102 68-148 58-46 153-46 59 0 102.5 21.5t77 56 55.5 80 37 92.5 22 92q7 47 7 83-29-36-66-62.5t-80-44.5-89-26.5-90-8.5q-116 0-204.5 37t-149.5 103.5-92 155-31 192.5zM299 980q0-59 16.5-112t48-92 81-62 115-23 115.5 22.5 84 61.5 52 91 18 111-18.5 111-53.5 89-85 57.5-114 20.5q-62 0-110-22t-81.5-59-50.5-87.5-17-106.5z" horiz-adv-x="1151" unicode="&#x39;"/><glyph d="M154-4v291h290v-291h-290zM154 784v292h290v-292h-290z" horiz-adv-x="599" unicode="&#x3a;"/><glyph d="M152 0v287h292v-238q0-64-18-125.5t-53.5-114-90-94-130.5-64.5v168q30 11 53.5 32.5t40 47.5 24.5 53 8 48h-126zM152 1076h292v-292h-290z" horiz-adv-x="599" unicode="&#x3b;"/><glyph d="M121 648l1104 495v-203l-840-379 840-376v-200l-1102 492z" horiz-adv-x="1351" unicode="&#x3c;"/><glyph d="M95 255v190h1074v-190h-1074zM95 666v192h1074v-192h-1074z" horiz-adv-x="1263" unicode="&#x3d;"/><glyph d="M123-15v200l839 376-839 379v203l1102-495v-171z" horiz-adv-x="1351" unicode="&#x3e;"/><glyph d="M151 974q-3 118 30.5 218t98.5 172 157.5 112 207.5 40q104 0 189-29t146.5-84.5 96.5-135.5q36-80 36-182-2-65-20.5-116t-48-92-63.5-74-66-63q-30-27-58-54t-49.5-57.5-35-67.5-13.5-84l-1-110h-243l2 127q2 62 20.5 112t47 90.5 61.5 74.5q35 34 64 65 24 25 52 53.5t51 61 37 71 13 82.5q-6 44-22.5 81t-43.5 64-65.5 40-87.5 13q-67 0-114.5-26.5t-78.5-71-45-104.5q-12-61-12-126h-243zM488 0v281h293v-281h-293z" horiz-adv-x="1218" unicode="&#x3f;"/><glyph d="M102 752q0 106 28 203t79 181.5 124 153.5 160 117.5 186 75.5 208 27q97 0 188-21.5t171-61.5 146-97 113.5-126.5 73-152.5 25.5-175q0-86-24.5-157t-65.5-127-95-99-112-71-117-40-110-9q-38 3-73.5 22t-62.5 59q-47-35-102-61t-111-26q-59 0-108.5 23t-86 63-57 94-20.5 116 14.5 124.5 41.5 118.5 65.5 105 88 84.5 108 54.5 126.5 19q23 0 50-6t53.5-19 48.5-38q22-26 37-61 3 9 7.5 20.5t9.5 26 9 27.5 8 24h156l-159-524q-6-21-9-42.5t-.5-39.5 13.5-29q13-11 33-11 42 0 88 28.5t85 78.5 65 116.5 26 146.5q0 120-44.5 210.5t-118 152-170 92.5-202.5 31q-128 0-237.5-49t-190.5-132-126-195.5-45-239.5q0-84 21.5-162t60.5-144.5 95.5-120.5 124.5-93 145-60 163-21q68 0 131.5 6.5t123 25 113.5 53.5q52 34 100 88h195q-65-93-140.5-155t-160-100-176-53.5-189.5-15.5q-113 0-215 26.5t-190.5 75.5-160 118-123 154-79 184-27.5 209zM632 672q0-33 10.5-60t29-47 43.5-32 58-12q35 0 67.5 17t60.5 44.5 51 64.5 40 75.5 26 78.5 9 75q0 27-9 52t-24.5 46-37.5 34-50 13q-42 0-79-16t-67-43-54-62.5-41-74-25-78.5-8-75z" horiz-adv-x="1721" unicode="&#x40;"/><glyph d="M0 0l565 1447h285l577-1447h-293l-150 406h-564l-148-406h-272zM512 628h385l-195 532z" horiz-adv-x="1426" unicode="&#x41;"/><glyph d="M142 0v1447h622q65 0 128.5-7t120-25 104.5-47.5 82.5-72.5 54-102 19.5-136q0-39-12-81t-35.5-82-60.5-75-89-58q61-14 111-47t86.5-80.5 56.5-104.5 20-118q0-79-29-153t-90.5-131-156-92-229.5-35h-703zM403 216h441q59 0 105 16.5t77 43.5 47 62 16 73q0 61-21.5 102.5t-59 66.5-90 36.5-113.5 11.5h-402v-412zM403 847h346q74 0 125 17t81.5 45 43.5 64 13 75q0 46-17 80t-50 56-79 33-102 11h-361v-381z" horiz-adv-x="1426" unicode="&#x42;"/><glyph d="M68 716q0 107 21 205.5t62 183.5 102 154 141 118.5 179 76 217 26.5q122 0 227-31t188-93 138-156q57-94 78-219h-268q-18 74-52 126.5t-82 87.5-107.5 52-124.5 17q-80 0-145-21t-115-57-88-85.5-62.5-109-36-125-11.5-133.5q0-111 26.5-210.5t82.5-174 143.5-118.5 208.5-44q92 0 160 32t114 84.5 70 119.5q26 66 29 136h261q-15-138-62.5-246t-127.5-183.5-192.5-115.5-254.5-40q-182 0-317.5 57t-224 157-133 236-44.5 293z" horiz-adv-x="1503" unicode="&#x43;"/><glyph d="M142 0v1447h523q177 0 314-42.5t231.5-128.5 143.5-215 49-302q0-182-43-324t-133-238-229-147q-140-50-332-50h-524zM403 216h278q23 0 55 3t69 10.5 76.5 23 78 41.5 71.5 63.5 59 90 40 122 14 160.5q0 118-24.5 210.5t-79 156-142.5 97.5q-90 34-214 34h-281v-1012z" horiz-adv-x="1466" unicode="&#x44;"/><glyph d="M142 0v1447h1067l-1-219h-805v-370h713v-219h-713v-423h811v-216h-1072z" horiz-adv-x="1272" unicode="&#x45;"/><glyph d="M144 0v1447h1015v-219h-753l-2-370h645l-1-219h-644v-639h-260z" horiz-adv-x="1197" unicode="&#x46;"/><glyph d="M68 716q0 107 21 205.5t62 183.5 102 154 141 118.5 179 76 217 26.5q123 0 229-31t188-93 137-156q56-94 77-219h-268q-15 74-47 128t-79 88-108 50.5-132 16.5q-80 0-145-21t-115-57-88-85.5-62.5-109-36-125-11.5-133.5q0-74 10-144t32.5-130.5 58-110 85.5-86 115.5-56.5 149.5-20q92 0 166 33t126.5 86 80.5 122.5 31 145.5h-441v219h682v-792h-182l-32 192q-39-50-89-90t-106.5-69-117-44.5-118.5-15.5q-178 0-311 57t-222.5 157-134 236-44.5 293z" horiz-adv-x="1534" unicode="&#x47;"/><glyph d="M142 0v1447h261v-589h695v589h261v-1447h-261v639h-695v-639h-261z" horiz-adv-x="1503" unicode="&#x48;"/><glyph d="M163 0v1447h260v-1447h-260z" horiz-adv-x="587" unicode="&#x49;"/><glyph d="M24 420v58h265v-61q0-54 9.5-97t31-72.5 57.5-45.5 93-16q50 0 85.5 16t57.5 44.5 31 68.5 9 88l2 1044h261v-1053q0-54-8.5-105t-29.5-97.5-55-87-84-70.5-119-47q-71-17-159-17-222 0-336 114-111 111-111 325v11z" horiz-adv-x="1070" unicode="&#x4a;"/><glyph d="M142 0l2 1447h260v-646l662 646h341l-629-590 643-857h-314l-509 681-195-187v-494h-261z" horiz-adv-x="1429" unicode="&#x4b;"/><glyph d="M142 0v1447h261v-1231h704l3-216h-968z" horiz-adv-x="1136" unicode="&#x4c;"/><glyph d="M142 0v1447h324l434-1178 411 1178h347v-1447h-262v1014l-384-1014h-225l-384 1017v-1017h-261z" horiz-adv-x="1799" unicode="&#x4d;"/><glyph d="M142 0v1447h296l668-1080v1080h262v-1447h-301l-664 1070v-1070h-261z" horiz-adv-x="1509" unicode="&#x4e;"/><glyph d="M58 722q0 99 20 194.5t61.5 179.5 102 154 140.5 121 182 80 223 29q123 0 225-29t183.5-80 142.5-121 101.5-154 59.5-178.5 19-195.5q0-99-19-193t-59.5-177-102-152.5-143-119.5-183-78.5-224.5-28.5q-121 0-223 28.5t-183 78.5-141.5 119.5-101 152.5-60.5 177-20 193zM318 722q0-66 11-131.5t36.5-125 62.5-110 88.5-89 119.5-59.5 151-21q86 0 152.5 21t120 59.5 90.5 89 60.5 110 35.5 125.5 12 131q0 67-12 133.5t-35.5 126.5-61.5 112-90.5 89-120.5 59-151 22-151-22-119.5-59-88.5-89-62.5-112-36.5-126.5-11-133.5z" horiz-adv-x="1582" unicode="&#x4f;"/><glyph d="M142 0v1447h662q121 0 213.5-29.5t154.5-85.5 94.5-139 32.5-188q0-104-32.5-185t-94.5-136.5-155-85.5-215-30h-399v-568h-261zM403 784h336 15q139 0 210 55 75 58 78 166 0 109-77 166t-228 57h-334v-444z" horiz-adv-x="1366" unicode="&#x50;"/><glyph d="M58 722q0 99 20 194.5t61.5 179.5 102 154 140.5 121 182 80 223 29q123 0 225-29t183.5-80 142.5-121 101.5-154 59.5-178.5 19-195.5q0-94-17.5-183t-53-169-90.5-148-126-118l205-243h-273l-127 148q-56-18-118.5-27t-130.5-9q-121 0-223 28.5t-183 78.5-141.5 119.5-101 152.5-60.5 177-20 193zM318 722q0-66 11-131.5t36.5-125 62.5-110 88.5-89 119.5-59.5 151-21q48 0 89 6l-189 222h281l112-133q48 39 81 89t54.5 107 32 120 10.5 125q0 67-12 133.5t-35.5 126.5-61.5 112-90.5 89-120.5 59-151 22-151-22-119.5-59-88.5-89-62.5-112-36.5-126-11-134z" horiz-adv-x="1582" unicode="&#x51;"/><glyph d="M142 0v1447h703q114 0 203-26.5t150-77.5 93-124 32-167q0-81-23-144.5t-62-110.5-92.5-75.5-112.5-43.5q41-21 73-44.5t55-51.5 40-64q19-36 30-80l70-249q18-65 42.5-112t43.5-77h-268q-16 27-37 72.5t-42 116.5l-63 228q-11 34-28 66t-46.5 56.5-74 38.5-106.5 14h-319v-592h-261zM403 805h361q59 0 113.5 10.5t96 35.5 66.5 67q23 41 23 108 0 44-13.5 82t-41.5 64.5-72.5 41-103.5 14.5h-429v-423z" horiz-adv-x="1437" unicode="&#x52;"/><glyph d="M70 509h247q3-92 37-154t88.5-99 122.5-53.5 139-16.5q60 0 118.5 10t105 34.5 74.5 65.5 28 104q-1 56-27 94.5t-73.5 64.5-111 43.5-140.5 32.5q-65 12-131 27.5t-126 36-112.5 49.5-91 71-60.5 98.5-22 133.5q0 74 21.5 133t60 106.5 91.5 83 115 59 133 35.5q72 12 143 12 118 0 217-34t171.5-94.5 115.5-147.5q43-85 52-192h-249q-4 57-28.5 102.5t-66 78-97.5 52-127 19.5q-55 0-107-10.5t-92.5-35-65.5-63.5-25-97q0-47 28-79t77-54 114-38.5 136-29.5q68-13 133-29.5t125-38.5 110.5-54 87.5-78 58.5-108 21.5-145q0-77-24.5-140t-67-111.5-98.5-82.5-121-56.5-135.5-33-139.5-10.5q-134 0-248 30t-199.5 95-134.5 167-50 247z" horiz-adv-x="1348" unicode="&#x53;"/><glyph d="M15 1228v219h1136v-219h-439v-1228h-261v1228h-436z" horiz-adv-x="1166" unicode="&#x54;"/><glyph d="M144 545v902h260v-902q0-175 92.5-267t273.5-92q168 0 254 93 86 91 89 266v902h260v-902q0-139-41-247.5t-119.5-181-190.5-109.5q-113-37-255-37-148 0-263.5 35.5t-195.5 107-122 179.5-42 253z" horiz-adv-x="1515" unicode="&#x55;"/><glyph d="M-1 1447h284l379-1133 381 1133h277l-521-1447h-287z" horiz-adv-x="1321" unicode="&#x56;"/><glyph d="M-1 1447h267l264-1056 284 1056h281l287-1062 267 1062h265l-396-1447h-272l-291 1085-307-1085h-266z" horiz-adv-x="1910" unicode="&#x57;"/><glyph d="M0 0l503 746-478 701h315l326-509 337 509h298l-484-704 516-743h-318l-352 530-363-530h-300z" horiz-adv-x="1333" unicode="&#x58;"/><glyph d="M-1 1447h303l392-637 386 637h299l-556-864v-583h-261v580z" horiz-adv-x="1376" unicode="&#x59;"/><glyph d="M71 0v198l858 1030h-787v219h1122v-202l-850-1029h877v-216h-1220z" horiz-adv-x="1358" unicode="&#x5a;"/><glyph d="M129-403v1919h425v-197h-190v-1526h190l-2-196h-423z" horiz-adv-x="569" unicode="&#x5b;"/><glyph d="M-15 1480h230l590-1510h-223z" horiz-adv-x="781" unicode="&#x5c;"/><glyph d="M13 1319l2 197h422v-1919h-422l1 196h185v1526h-188z" horiz-adv-x="569" unicode="&#x5d;"/><glyph d="M77 558l456 903h198l453-903h-191l-363 721-349-721h-204z" horiz-adv-x="1263" unicode="&#x5e;"/><glyph d="M18-139h1036v-173h-1036v173z" horiz-adv-x="1070" unicode="&#x5f;"/><glyph d="M59 1516h281l184-307h-190z" horiz-adv-x="587" unicode="&#x60;"/><glyph d="M56 284q0 59 17 107.5t47.5 87 70.5 67 87.5 50 99 34 103.5 20.5q44 6 88 8t82.5 2 68-.5 44.5-2.5v65q0 39-18 70t-47.5 52.5-67.5 32.5-77 11q-86 0-139.5-32.5t-71.5-100.5h-248q9 92 50 157t106.5 107 149.5 62 179 20q50 0 103-7.5t101-24.5 89.5-43 71.5-64 47-90 19-117v-545q0-32 2-59t7.5-52 13.5-48.5 17-50.5h-246q-9 38-15 69.5t-10 65.5q-39-48-81-78t-88-48-91.5-25.5-93.5-7.5q-71 0-136 18t-117 56.5-84.5 96-32.5 137.5zM311 303q0-31 13-53t37-35.5 55-21 65-7.5q77 0 130.5 19.5t87.5 49 49.5 65 15.5 65.5v124q-22 2-47 2-17 0-37-1-48-2-97.5-10.5t-98.5-24-87.5-39-62-57-23.5-76.5z" horiz-adv-x="1133" unicode="&#x61;"/><glyph d="M115 0v1480h246v-506q30 35 65.5 62.5t76 44.5 84 26 85.5 9q87 0 159-22t129-60.5 99-92 70-117 43-134.5 15-145q0-119-31-222.5t-94-180.5-158.5-121.5-225.5-44.5q-42 0-83 7.5t-81 24-78.5 43-74.5 64.5v-115h-246zM352 545q0-68 15.5-132t51-114 92.5-81.5 139-31.5q78 0 131.5 32t85 84.5 44.5 118.5 13 134q0 64-16 126t-50.5 112.5-89.5 80.5-132 30q-53 0-93.5-14.5t-72.5-40.5-54-60-36-74-21-84q-7-45-7-86z" horiz-adv-x="1249" unicode="&#x62;"/><glyph d="M58 524q0 123 32.5 228.5t97 182.5 162 121.5 227.5 44.5q102 0 187.5-27.5t148-78.5 100.5-127 47-174h-249q-15 95-78 143-64 48-159 48-71 0-121-29.5t-83-80-48.5-115.5-15.5-136q0-64 17-124t51-106.5 86-74.5 117-28q56 0 97.5 15.5t70 42 43 63.5 17.5 80h255q-6-74-38.5-148.5t-93.5-134-146.5-96.5-198.5-37q-124 0-221 39.5t-164.5 111-103.5 173.5q-36 100-36 224z" horiz-adv-x="1112" unicode="&#x63;"/><glyph d="M62 545q0 74 15 145t43 134.5 70 117 99 92 129 60.5 159 22q42 0 85.5-9t84-26 77.5-44q34-28 64-63v506h246v-1480h-246v115q-36-38-74-64.5t-78-43-81.5-24-83.5-7.5q-130 0-225.5 44.5t-158.5 121.5-94 180.5-31 222.5zM326 555q0-68 12.5-134t44-118.5 85-84.5 131.5-32q83 0 139.5 31.5t92 81.5 51 114 15.5 132q0 41-6.5 85.5t-21 84.5-36.5 74-54 60-73 40.5-93 14.5q-77 0-132-30t-89.5-80.5-50-112.5-15.5-126z" horiz-adv-x="1249" unicode="&#x64;"/><glyph d="M56 542q0 127 38.5 230t108 176 167.5 113 216 40q92 0 167.5-25t131.5-69.5 97.5-105 65.5-131.5 33-152q7-52 7-106 0-29-2-58h-777q3-54 22.5-101.5t54-84 88-57 122.5-20.5q89 0 147.5 34t82.5 108h243q-18-86-59-152.5t-102-111.5-141-69-176-24q-137 0-238 41.5t-167 117-98 179.5q-32 103-32 228zM311 648h513v8q0 42-18 80-20 42-53.5 75.5t-79 53.5-96.5 20q-53 0-98-17.5t-80-49-57-74.5q-22-42-31-96z" horiz-adv-x="1133" unicode="&#x65;"/><glyph d="M36 847v229h164v152 12q0 67 20 118 23 55 64.5 93t103.5 57 142 19q29 0 64.5-6.5t68.5-19.5v-225q-34 18-66 23.5t-54 5.5q-47 0-73-19t-25-66v-144h197v-229h-195v-847h-247v847h-164z" horiz-adv-x="694" unicode="&#x66;"/><glyph d="M56 533q0 62 10.5 128.5t34 129.5 62 119 96.5 98.5 135 67.5 177 25q83 0 156-29 72-30 133-98v102h235v-986q0-115-31-211.5t-96-166.5-164.5-108.5-235.5-38.5q-97 0-181.5 25t-147.5 71.5-101 112.5q-37 66-43 149h245q3-41 25.5-71t56.5-48.5 75.5-26.5 82.5-8q77 0 131 28t87.5 72.5 47.5 100 14 108.5v52q-33-37-69-62t-73-40.5-75.5-21.5-80.5-6q-127 0-221.5 41.5t-158.5 114-95 170-31 207.5zM311 548q0-63 12.5-122t43-108 80.5-78.5 124-29.5q79 0 134.5 28t91 74 52.5 105.5 17 122.5q0 40-7 81.5t-21.5 80-37 72-53.5 57.5-71 39-88 15q-76 0-128-27.5t-85-74-48.5-107-15.5-128.5z" horiz-adv-x="1212" unicode="&#x67;"/><glyph d="M115 0v1480h249l-1-521q38 44 80 72.5t83 44.5 78.5 22 67.5 6q117 0 191.5-31t119-85 61-127.5 16.5-160.5v-700h-249v716q0 80-44.5 124.5t-130.5 44.5q-68 0-119.5-22t-85.5-60.5-51-89-17-106.5v-607h-248z" horiz-adv-x="1175" unicode="&#x68;"/><glyph d="M136 0v1076h249v-1076h-249zM136 1206v274h247v-274h-247z" horiz-adv-x="520" unicode="&#x69;"/><glyph d="M-28-203q21-3 35-3.5t25.5-2 22-1.5h20.5q18 0 30.5 6t20 19 9.5 34q1 21 1 50v1177h249v-1203q0-80-21-138.5t-58.5-95.5-90.5-55q-55-18-120-18-30 0-62.5 2.5t-59.5 8.5zM133 1206v274h247v-274h-247z" horiz-adv-x="520" unicode="&#x6a;"/><glyph d="M115 0v1480h248v-792l405 388h330l-435-401 453-675h-301l-337 503-117-106v-397h-246z" horiz-adv-x="1133" unicode="&#x6b;"/><glyph d="M136 0v1480h247v-1480h-247z" horiz-adv-x="519" unicode="&#x6c;"/><glyph d="M115 0v1076h237l3-120q56 76 131.5 109t170.5 33q45 0 89-9t82.5-29 72.5-53 61-85q27 44 65.5 77.5t81 55.5 88.5 32.5 88 10.5q85 0 155.5-19t121.5-59 77.5-103 26.5-150v-767h-247v709q0 40-8 72.5t-27 54.5-52.5 34-82.5 12q-56 0-99.5-15.5t-73.5-44.5q-32-28-48-70-14-35-13-79v-16-657h-248v691q0 42-7 76.5t-25.5 59.5-49.5 40-78.5 15-83-12-62.5-31-45.5-42.5-30.5-49-16.5-49-4.5-41.5l-1-657h-248z" horiz-adv-x="1781" unicode="&#x6d;"/><glyph d="M115 0v1076h239l-2-138q27 36 59 65.5t71 50 86.5 32.5 103.5 12q112 0 187-31t120-84.5 63.5-127.5 18.5-161v-694h-247v713q0 80-46.5 124.5t-134.5 44.5q-68 0-119-22t-84-60.5-50-89-17-106.5v-604h-248z" horiz-adv-x="1175" unicode="&#x6e;"/><glyph d="M55 535.5q0 118.5 34.5 222t104 180 172 120 239.5 43.5q136 0 237.5-43.5t171-120 103.5-179.5q34-104 34-222 0-80-14.5-151t-45.5-133.5-77-113.5-106.5-87-136-55.5-166.5-19.5q-136 0-239 43t-172.5 118.5-104 177.5-34.5 220.5zM309 536q0-86 23-149.5t63-107.5 94-66q53-22 115-22 59 0 112.5 22t92.5 66 62 108q23 63 23 149 0 83-22 148t-62 109.5-92.5 68-112.5 23.5q-62 0-115-23.5t-94-68-64-109.5-23-148z" horiz-adv-x="1209" unicode="&#x6f;"/><glyph d="M115-403v1479h246v-117q36 39 74.5 66t78.5 44 81 24.5 83 7.5q130 0 225.5-45t158.5-123 94-181.5 31-221.5q0-74-14-144.5t-42-133.5-70.5-116-100-92.5-129.5-60.5-159-21q-42 0-85.5 8t-84 25-76 43.5-65.5 62.5v-504h-246zM352 530q0-42 7-84.5t21-82.5 36-75.5 54-61 72.5-40 93.5-14.5q77 0 132 31t89.5 80 50.5 111.5 16 126.5q0 68-13.5 134.5t-44.5 118.5-84.5 83.5-131.5 31.5q-83 0-139.5-30t-92-80.5-51-115.5-15.5-133z" horiz-adv-x="1249" unicode="&#x70;"/><glyph d="M62 530q0 118 31 221.5t94 181.5 158.5 123 225.5 45q42 0 83.5-7.5t81.5-24.5 78-44 74-66v117h246v-1479h-246v504q-30-36-65.5-62.5t-76-43.5-84-25-85.5-8q-87 0-159 21t-129 60.5-99 92.5-70 116-43 133.5-15 144.5zM326 521q0-64 15.5-126.5t50-111.5 89.5-80 132-31q52 0 93 14.5t73 40 54 61 36.5 75.5 21 82.5 6.5 84.5q0 68-15.5 133t-51 115.5-92.5 80.5-139 30q-78 0-131.5-31.5t-85-83.5-44-118.5-12.5-134.5z" horiz-adv-x="1249" unicode="&#x71;"/><glyph d="M115 0v1076h237v-151q33 46 67 79t77 54.5 94.5 30.5 121.5 9v-243q-107 0-175-25.5t-107-74-53-118-14-157.5v-480h-248z" horiz-adv-x="729" unicode="&#x72;"/><glyph d="M50 370h249q0-53 22-88t54.5-56.5 72.5-30.5 79-9q44 0 85.5 5.5t72.5 18.5 50 36q20 22 20 56 0 32-18 55t-49 39.5-74 29-92 22.5q-47 9-98 22.5t-98.5 32-89.5 42-74 57.5-49.5 77-17.5 99.5 18.5 103.5 51 82.5 76 62.5 94 43 103.5 23.5 105 7.5q93-3 172.5-25t137-66 90-108 32.5-150h-248q-2 29-13.5 54.5t-34 44.5-52 31-68.5 13q-13 1-26 1-27 0-53-4-38-6-66.5-20t-44.5-34q-17-21-17-47.5t19.5-44.5 52-32 75.5-25 92-23q105-25 184-53t131.5-67.5 79-94 26.5-131.5q0-68-20-120t-53-90.5-79-64.5-100-41.5-112-21.5q-59-6-120-6-62 0-120.5 10.5t-111.5 31-97.5 52.5-77 75.5-52 100-19.5 124.5z" horiz-adv-x="1061" unicode="&#x73;"/><glyph d="M15 863v213h163v277h247v-277h197v-213h-197v-537q0-31 3-51t11-32 24.5-18 39.5-9h16.5t27 1 35 1.5 40.5 3.5v-219q-15-3-36-4.5t-46-3-51.5-2-51.5-.5q-63 0-111 14t-80.5 46.5-50 87-17.5 134.5v588h-163z" horiz-adv-x="674" unicode="&#x74;"/><glyph d="M115 382v694h248v-715q0-77 47-120.5t132-43.5q71 0 123.5 20.5t86.5 57.5 51 88 17 114v599h246v-1076h-240v123q-53-70-131.5-108.5t-175.5-38.5q-116 0-194 30.5t-124.5 84.5-66 129-19.5 162z" horiz-adv-x="1181" unicode="&#x75;"/><glyph d="M25 1076h277l257-767 249 767h264l-393-1076h-256z" horiz-adv-x="1102" unicode="&#x76;"/><glyph d="M25 1076h280l198-733 181 733h263l187-733 198 733h263l-340-1076h-257l-190 712-172-712h-266z" horiz-adv-x="1623" unicode="&#x77;"/><glyph d="M15 0l396 564-367 512h305l216-326 218 326h306l-370-497 406-579h-307l-253 386-253-386h-297z" horiz-adv-x="1139" unicode="&#x78;"/><glyph d="M19 1076h274l275-767 261 767h260l-457-1206q-33-80-66-138t-73-94-89-53-111-17q-33 0-71 3t-80 18v236q42-16 74.5-21t55.5-5q77 0 113 68l55 145z" horiz-adv-x="1111" unicode="&#x79;"/><glyph d="M89 176l595 679h-554v221h896l-2-167-601-690h598v-219h-929z" horiz-adv-x="1117" unicode="&#x7a;"/><glyph d="M77 480v148q35 0 66.5 18.5t53.5 50 35.5 74.5 13.5 93v376q0 65 20.5 117t57 87 83.5 53.5 101 18.5h152l-1-183h-85q-26 0-45.5-6.5t-31.5-22.5-16-40-4-58v-373q0-59-16.5-105.5t-41.5-82-53-59.5q-26-24-46-35 20-9 47-25.5t51.5-49 41.5-82.5q17-51 17-122l-2-373q3-62 23.5-91.5t75.5-29.5h85l-2-181h-151q-55 0-101.5 16.5t-82 50.5-56 86-20.5 120l3 373q0 53-14 97.5t-37 74.5-54.5 47.5-66.5 17.5z" horiz-adv-x="714" unicode="&#x7b;"/><glyph d="M139-437v2065h207v-2065h-207z" horiz-adv-x="483" unicode="&#x7c;"/><glyph d="M56-222h86q55 0 76 30 19 29 22 91l-2 373q0 71 17 121.5t42.5 83 51.5 49.5q27 16 48 25-21 11-47.5 35t-52 59.5-42.5 82-17 105.5l2 373q0 68-22.5 97.5t-75.5 29.5h-86v183h151q53 0 100.5-18.5t84-53.5 58-87 21.5-117l-2-376q0-49 13.5-92.5t36.5-75 54-50 66-18.5v-148q-35 0-66-17.5t-55-47.5-37-74.5-13-97.5l3-373q0-68-21-120t-56.5-86-83-50.5-100.5-16.5h-152z" horiz-adv-x="714" unicode="&#x7d;"/><glyph d="M127 388q-3 86 19.5 151t61 108 87 65 102.5 22q47 0 85.5-12t72.5-29.5 64.5-37.5 59-38 58.5-29 62-11q56 0 77 40t19 117h182q3-86-19-151t-59-108-87.5-65-100.5-22-89.5 11.5-72.5 28.5-63 37-58 38-58 29-64 11q-42 0-69.5-40.5t-25.5-114.5h-184z" horiz-adv-x="1206" unicode="&#x7e;"/><glyph d="M64 542q0 109 25.5 207.5t82 174.5 141 125 199.5 64l-3 195h163l3-192q81-9 152-37t125-77 89-121.5 44-167.5h-249q-6 43-21.5 75t-36 54-47.5 35.5-59 19.5l3-678q71 18 111 74t56 150h255q-39-199-140.5-310.5t-281.5-132.5v-222h-164l1 222q-112 12-196.5 56.5t-141 115.5-84.5 165.5-26 204.5zM312 542q-1-55 10.5-106t36-95 62.5-75.5 91-46.5l-1 672q-57-15-95.5-49.5t-61-81.5-32.5-103-10-115z" horiz-adv-x="1142" unicode="&#xa2;"/><glyph d="M73-30l4 211q52 17 95.5 49t76 72 49.5 86q16 47 16 97 0 17-1.5 37t-7.5 38.5-14 37-17 32.5h-185v154h95q-30 57-51 123.5t-21 147.5q0 65 19.5 123t53 104.5 80 83.5 102.5 62 120 38.5 130 13.5q122 0 218.5-35.5t163.5-105 101-174.5 34-246h-243q-3 84-20 150t-49.5 111-80.5 69.5-113 24.5q-57 0-104-17t-82-48-54-72.5-19-90.5q0-37 6.5-71.5t19-67 28-63 33.5-60.5h343v-154h-262q9-23 14-52.5t7-56.5q0-44-9.5-84t-26-76.5-38.5-69-47-60.5q19 6 36 7.5t38 1.5q47 0 93.5-9.5t89.5-21.5 84.5-21.5 82.5-9.5q39 0 76 3.5t74 13 72.5 26 70.5 42.5v-216q-38-23-77.5-37t-80-22.5-82-10.5-82.5-2q-48 0-104 9.5t-115 21.5-115.5 22-103.5 10q-42 0-82-2.5t-79-11.5-78.5-22.5-81.5-31.5z" horiz-adv-x="1201" unicode="&#xa3;"/><glyph d="M-4 1447h304l322-639 303 639h297l-358-669h172l1-183h-273l-24-44v-71h297l2-187h-296v-293h-258l-1 293h-292v187h290v71l-23 44h-267v183h163z" horiz-adv-x="1221" unicode="&#xa5;"/><glyph d="M47 731q0 107 28.5 206t78.5 183.5 121 154 157 119 185 77 203 27.5q105 0 203.5-27.5t184.5-77 155.5-119 120.5-154 78.5-183.5 27.5-206q0-109-27.5-210t-78.5-186-121.5-154-155.5-117.5-183.5-74-203.5-25.5q-107 0-204.5 25.5t-183.5 74-157 117.5-121 154-78.5 185-28.5 211zM226 731q0-133 44-246.5t122.5-196 188-129.5 237.5-47q83 0 159.5 21t143 61 121 94.5 93 123.5 59.5 149.5 21 169.5-21 169-59.5 148-91.5 122.5-119.5 93-143.5 59.5-160 21q-130 0-238-46t-187.5-128-124-194-44.5-245zM388 728q0 102 31 187t88.5 147.5 140 97 185.5 34.5q77 0 144.5-22t119-64 86-106 42.5-144h-162q-5 39-25 73t-49.5 60.5-68 41.5-82.5 15q-65 0-117-24t-87.5-66.5-53.5-100.5-18-126q0-62 19.5-121t55.5-103.5 88.5-72.5 118.5-28q41 0 78 15.5t65 40.5 46 58.5 24 68.5h165q-11-72-45-133.5t-84.5-106-114-69.5-136.5-25q-103 0-187.5 35.5t-144 99-90.5 149.5q-32 89-32 189z" horiz-adv-x="1648" unicode="&#xa9;"/><glyph d="M70 482v181l350 274v-209l-198-158 198-156v-211zM493 482v181l351 274v-209l-199-158 199-156v-211z" horiz-adv-x="951" unicode="&#xab;"/><glyph d="M93 457v197h794l1-197h-795z" horiz-adv-x="981" unicode="&#xad;"/><glyph d="M47 731q0 107 28.5 206t78.5 183.5 121 154 157 119 185 77 203 27.5q105 0 203.5-27.5t184.5-77 155.5-119 120.5-154 78.5-183.5 27.5-206q0-109-27.5-210t-78.5-186-121.5-154-155.5-117.5-183.5-74-203.5-25.5q-107 0-204.5 25.5t-183.5 74-157 117.5-121 154-78.5 185-28.5 211zM226 731q0-133 44-246.5t122.5-196 188-129.5 237.5-47q83 0 159.5 21t143 61 121 94.5 93 123.5 59.5 149.5 21 169.5-21 169-59.5 148-91.5 122.5-119.5 93-143.5 59.5-160 21q-130 0-238-46t-187.5-128-124-194-44.5-245zM506 323v823h392q65 0 115-18t82.5-50.5 49.5-77 17-97.5q0-42-12.5-76.5t-33.5-61-50-44-63-25.5q24-11 42-25t31-31.5 22-40 18-47.5l41-121q9-24 17.5-41t16.5-29l14-21q6-8 12-17h-193q-6 11-11 22.5t-10 24-11 27-12 34.5l-49 125q-15 39-45.5 62.5t-67.5 23.5h-146v-319h-166zM672 777h198-15q66 0 101.5 32t35.5 82q0 21-6 41.5t-19.5 35.5-32.5 25-47 10h-215v-226z" horiz-adv-x="1639" unicode="&#xae;"/><glyph d="M107 728v209l352-274v-181l-351-279v211l200 156zM530 728v209l352-274v-181l-351-279v211l200 156z" horiz-adv-x="951" unicode="&#xbb;"/><glyph d="M98 1279q46 3 86.5 11.5t73 26.5 55.5 49q21 31 33 80h156v-898h-179v603q-45-20-97-28-51-7-125-10zM370 0l823 1446h192l-824-1446h-191zM965 340l426 560h139l-1-548h121l2-164h-122v-188h-174l-2 188h-388zM1162 352h191l1 249z" horiz-adv-x="1727" unicode="&#xbc;"/><glyph d="M98 1279q46 3 86.5 11.5t73 26.5 55.5 49q21 31 33 80h156v-898h-179v603q-45-20-97-28-51-7-125-10zM308 0l823 1446h191l-825-1446h-189zM992 0q6 89 28 151t58 108 83 78q47 30 97 59.5t90 55 67 50.5 41.5 53 14.5 67q0 54-35.5 84.5t-94.5 30.5q-39 0-65.5-16.5t-43.5-44.5-25-63.5-8-73.5h-190q0 77 24 142t67 113 103.5 75.5 135.5 27.5q66 0 124-19.5t101-55 69-86.5 26-114q0-68-27.5-121t-70.5-95-93-74.5-96-59.5q-16-9-37-20t-41.5-25-41.5-31.5-37-38.5h434v-157h-657z" horiz-adv-x="1727" unicode="&#xbd;"/><glyph d="M107 861h192q1-43 9.5-74.5t26-51 45-29 65.5-9.5q30 0 58 8t51 23 36.5 37 14.5 50q0 36-14 58t-36 35-51 17-59 4h-34v153h21q25 0 49.5 7.5t44 21.5 31 33 11.5 44.5-11 44-28 31-39 18.5-46 6q-36 0-61-11.5t-39.5-32-20.5-49.5-6-64h-187q6 74 28.5 133t61 100.5 94.5 63 130 21.5q67 0 124-15.5t97.5-48 64-81.5 23.5-116q0-20-6.5-44.5t-19-47.5-32.5-43-48-33q77-30 110-79.5t36-119.5q0-71-29.5-125t-77.5-89.5-111-53-128-17.5q-71 0-133 20t-108 60-72.5 101-26.5 144zM488 0l823 1446h193l-825-1446h-191zM995 340l426 560h139v-548h121v-164h-121v-188h-175v188h-387zM1193 352h189v252z" horiz-adv-x="1727" unicode="&#xbe;"/><glyph d="M31 949l139 133 360-385 364 385 141-133-372-394 373-392-139-133-364 384-361-384-139 133 367 392z" horiz-adv-x="1061" unicode="&#xd7;"/><glyph d="M71 457v197h1086v-197h-1086zM459 148q0 33 13 61.5t34 51 49 35.5 58 13q32 0 60.5-13t50.5-35.5 34.5-51 12.5-61.5q0-30-12.5-55.5t-33.5-46.5-49-33.5-57-12.5q-31 0-60 12t-51.5 32-35.5 46.5-13 57.5zM459 961q0 32 13 60t34 49.5 49 35 58 13.5q32 0 60.5-13.5t50.5-35 35.5-50 13.5-59.5q0-30-13.5-59t-35-49.5-49-33-59.5-12.5q-31 0-59.5 12.5t-50 33-34.5 49.5-13 59z" horiz-adv-x="1232" unicode="&#xf7;"/><glyph d="M33 861q11 51 32.5 99.5t56.5 94.5 81.5 85.5 108 68 137.5 45.5q78 16 170 16 109 0 194-20t149.5-56.5 109-85 71-106.5 39-122.5 12.5-130.5v-749h-251v770q0 53-16.5 103.5t-55 91.5-100 66.5-152.5 26.5q-77 0-135-17t-98-43.5-62-57-28-55.5q18-18 35-41t29.5-50 19.5-59q5-33 5-66v-669h-249v672q0 25-4.5 51t-16 51-31.5 47q-19 23-51 40z" horiz-adv-x="1308" unicode="&#xe01;"/><glyph d="M27 1042v201h379l199-971 200 971h258l-276-1243h-367l-234 1042h-159z" horiz-adv-x="1151" unicode="&#xe02;"/><glyph d="M44 1243h237q0-23 4.5-45.5t15-38.5 26.5-26.5 37-10.5 37 9 28 25 18.5 38.5 6.5 48.5h243v-257q0-36-12-67t-34-60.5-55-61.5q-32-30-75-72-30-29-50.5-54.5t-34-50.5-19.5-52q-9-26-9-59l3-78q0-58 15-102.5t42.5-75.5 65-46.5 83.5-15.5q42 0 78 11t61 37.5 40 69.5q15 40 14 102v832h256v-849q0-110-37-190t-99.5-131.5-144-77-169.5-25.5q-92 0-175 27t-146.5 80-100.5 133-39 184v57q0 51 2.5 90t9 70 17.5 56.5 29.5 49 44 46.5 60.5 50q18 11 37 26.5t36 32.5 30.5 38 19.5 45q-21-15-52-24.5t-63-9.5q-21 0-50.5 4t-60.5 17.5-62.5 35.5-55 58-38.5 86-15 121z" horiz-adv-x="1181" unicode="&#xe03;"/><glyph d="M115 0v719q0 70 10.5 137.5t35 128.5 65 113.5 101.5 90.5 143 59.5 190 21.5q107 0 189.5-21.5t143.5-59.5 101.5-90.5 65-113.5 35-129.5 11.5-136.5v-719h-253v746q0 35-6 70.5t-20 70-37 64-55.5 51.5-76 34-99.5 12q-57 0-100.5-12t-76-34-54.5-51.5-36.5-64-21-70-6.5-70.5v-167q34 49 72 83t82 56 99.5 31 126.5 9v-219q-109 0-182.5-28.5t-116-82.5-62-130.5-19.5-173.5v-124h-249z" horiz-adv-x="1321" unicode="&#xe04;"/><glyph d="M115 0v731q0 61 7.5 120t25.5 114 46.5 103 73 87 105.5 66.5 141 39.5l149-163 145 163q83-12 145-38.5t108-65 76.5-87.5 49-103.5 25.5-114.5q8-59 8-121v-731h-254v755q0 32-5 70.5t-17 75-32.5 67-50.5 44.5l-154-160q-5-5-14-12t-27-7q-16 0-27 6-11 8-20 13l-162 160q-28-14-46.5-44t-29.5-65.5-15.5-74-4.5-73.5v-176q34 49 72 83t83.5 56 101 31 126.5 9l-1-219q-110 0-182.5-28.5t-116.5-82.5-63.5-130.5-19.5-173.5l3-124h-249z" horiz-adv-x="1333" unicode="&#xe05;"/><glyph d="M44 1243h237q0-23 4.5-45.5t15-38.5 26.5-26.5 37-10.5 37 9 28 25 18.5 38.5 6.5 48.5h242v-254q0-48-15-86.5t-40-71.5-57.5-62.5-68.5-59.5q-31-27-51-47.5t-32-44.5-16-55q-5-29-5-77 0-56 22.5-108.5t64-93 100.5-65 133-24.5q49 0 89.5 15.5t69 43.5 44 68 15.5 90v832h253v-809q0-102-21-187.5t-72.5-146-136-94-211.5-33.5q-117 0-208 38.5t-153 121.5l-2-133h-241v443q0 53 1.5 92t7.5 69.5 16 55 28 46 41.5 43.5 56.5 50q18 16 35.5 32t33 33 28 37 21.5 48q-23-12-48.5-18.5t-51.5-6.5q-21 0-50.5 4t-60.5 16-62.5 34-55 58-38.5 86-15 121z" horiz-adv-x="1318" unicode="&#xe06;"/><glyph d="M30 746h260l191-515q9-25 25-37 15-12 36-12 32 0 53 18t22 43v805h-176v195h423v-962q0-83-25-142t-69.5-96-103.5-55-127-18-118 16.5-87 47.5-62.5 75.5-46.5 97.5z" horiz-adv-x="978" unicode="&#xe07;"/><glyph d="M71 864q15 92 58 166t110 127.5 159.5 81.5 208.5 28q58 0 117-9t114.5-28 103-51.5 83-80 55.5-113.5 18-152q0-47-14.5-111.5t-37-136-52-149.5-60.5-154-63.5-148-60.5-134h-313l-200 551h-167v198h361l169-489q27 66 58 141.5t56 148.5 42 142q16 69 19 123 1 122-62 182.5t-188 60.5q-101 0-159-46-59-44-83-148h-272z" horiz-adv-x="1200" unicode="&#xe08;"/><glyph d="M83 844q9 84 44.5 160t102.5 135.5 168.5 95 240.5 35.5q110 0 194.5-21t146.5-58 102.5-88 65-111 35-128 11.5-136v-728h-239l-8 139q-66-89-160-129t-223-40q-130 0-217 35t-138.5 98.5-74 152.5-22.5 195v243h249v-266q0-51 17-93t47.5-72.5 74-46.5 96.5-16q88 0 153 27.5t108 77 63.5 116.5 20.5 146v185q0 53-14.5 106.5t-48.5 95.5-93.5 68-148.5 26q-80 0-133-18.5t-87-49-51-66-23-70.5h-259z" horiz-adv-x="1308" unicode="&#xe09;"/><glyph d="M47 1012l3 194q39 14 74.5 24t66.5 17.5 56 10.5 40 3q71 0 127.5-16.5t96.5-50.5 57.5-85.5 8.5-119.5q-6-34-17.5-64.5t-31.5-64-48-72.5q-30-39-66-91-19-27-28.5-49t-14-43.5-5.5-43.5q1-22-2-49l2-81q0-58 17-102.5t48-75.5 71-47q40-15 87-15 44 0 82.5 11t67.5 37.5 45 69.5q15 40 15 102l3 83q0 70-16 110.5t-46 61.5-72.5 27-96.5 7l-1 182q72 0 121 22t79.5 68 42.5 114q13 68 14 157h252q0-68-9.5-136t-35-127-67-106.5-103.5-77.5q45-13 76-34t51.5-46.5 32.5-54.5 18-58 7.5-57 1.5-52l-2-100q0-73-17-133t-48.5-107-75.5-81.5-95.5-58-108.5-34-116-10.5q-92 0-176.5 27t-150.5 80-106 133-40 184v100q0 48 3 83.5t9 63.5 15.5 50 24 43.5 32 44.5 42.5 51q18 24 32 42.5t24.5 35.5 18 34 10.5 38q3 18-1.5 33.5t-15 26.5-24.5 17q-16 7-33 7-21 0-40.5-3t-43-9.5-53-16-68.5-23.5z" horiz-adv-x="1169" unicode="&#xe0a;"/><glyph d="M21 1243h237q0-23 4-45.5t14.5-38.5 27-26.5 37-10.5 37 9 28 25 17.5 38.5 6 48.5h243v-257q0-36-9-67t-26.5-60-46-60.5-66.5-70.5q-30-29-46-66t-23.5-75.5-9-79.5-1.5-76q0-58 18-102.5t47.5-75.5 69.5-47q43-15 87-15t82.5 11 67 37.5 44.5 69.5q16 40 16 102v80q0 65-15.5 106t-44.5 64-69 30.5-87 8.5l-3 182q68 5 115.5 29t77 70 43 111 13.5 151h248q0-68-10-136t-34-127-65.5-106.5-104.5-77.5q66-20 104.5-57t57-80 23.5-88q3-44 3-80v-97q0-73-18-133t-49.5-107-75.5-81.5-95.5-58-109.5-34-117-10.5q-61 0-119.5 12t-110 35.5-96 59-77 83-50.5 106-18 128.5q0 74 1.5 133t15 108.5 41 95 79.5 90.5q10 11 24 25.5t27.5 34 25 38.5 17.5 39q-26-18-57.5-27.5t-63.5-9.5q-21 0-50.5 4t-60.5 17.5-62 35.5-55 58-38.5 86-14.5 121z" horiz-adv-x="1244" unicode="&#xe0b;"/><glyph d="M33 861q11 51 33.5 99.5t55.5 94.5 80 85.5 104.5 68 129.5 45 157 16.5q104 0 186-20t143-56.5 102.5-85 68-106.5 37.5-123 11-133l2-201q0-77 17.5-141t53-111 87.5-74.5 120-27.5q40 0 71.5 11t54 37.5 34.5 69.5q11 40 11 102v832h252v-809q0-110-20-196.5t-66-145.5-122-90.5-190-31.5q-53 0-98.5 12t-85.5 34-72.5 52-57.5 65l-1-133h-243v770q0 50-15 102t-49 92.5-91 66.5-140 27q-68 0-119.5-14.5t-88.5-40-59.5-56.5-29.5-62q46-33 67-90 19-58 19-129v-463h133v-203h-382v669q0 27-3.5 53.5t-14.5 51.5-31 47q-19 23-51 40z" horiz-adv-x="1961" unicode="&#xe0c;"/><glyph d="M33 847q11 50 32.5 101.5t55.5 99 80 87.5 104.5 70.5 130.5 47.5 157 17q104 0 186-21t143-58 102.5-88 68-111 38.5-128 12-136l-3-219q0-64 11.5-107.5t34.5-70 55-38.5 72-12q68 0 119.5 29t87 78.5 54 116 18.5 143.5v595h254l-2-1012q0-139-32-251t-96-189.5-163.5-119-235.5-41.5q-86 0-164.5 22t-140.5 68-105 115.5-55 164.5h236q12-41 35.5-72.5t54.5-52 66.5-31 69.5-10.5q82 0 137.5 28t88 72.5 45.5 99.5 12 108l1 80q-26-33-60-64t-74-53-84.5-36-94.5-14q-114 0-190.5 31.5t-122.5 92.5-65 150q-19 88-18 204l-1 219q0 53-15 105.5t-49 95-91 69-141 26.5q-68 0-120-15t-88-40-57.5-57.5-30.5-65.5q46-32 67.5-91.5t21.5-133.5v-442h133v-203h-383v648q0 27-4.5 54.5t-15.5 53-31 48.5q-20 25-51 43z" horiz-adv-x="1961" unicode="&#xe0d;"/><glyph d="M65 0v203h121v469q0 25-4 51t-15.5 51-31.5 47.5-52 39.5q12 51 34 99.5t56 94.5 81.5 85.5 109 68 137.5 45 168 16.5q109 0 195-20t150.5-56.5 108-85 71.5-106.5 40-122.5 12-130.5v-1177h-243q-17 27-42.5 53t-61 45-84 31-115.5 12q-53 0-100.5-12t-91-34-83.5-55q-40-35-79-77l2 240q26 30 64 55t84 44 97.5 29.5 109.5 10.5q53 0 98.5-7.5t81-18.5 63.5-24q28-12 47-24v930q0 53-16 103.5t-54 91.5-100 66.5-154 26.5q-77 0-134-17t-96-43.5-62-57-29-55.5q18-18 34-41t27-50 18-59q5-33 5-66v-669h-367z" horiz-adv-x="1360" unicode="&#xe0e;"/><glyph d="M65 0v203h121v469q0 25-4 51t-15.5 51-31.5 47.5-52 39.5q12 51 34 99.5t56 94.5 81.5 85.5 109 68 137.5 45 168 16.5q109 0 195-20t150.5-56.5 108-85 71.5-106.5 40-122.5 12-130.5v-1177h-248q-5 21-15.5 47t-27.5 48-39 37-55 15q-29 0-51.5-15t-38-36.5-22-47.5-6.5-48h-210q0 17-4.5 42t-18 48.5-35.5 41.5-55 18q-26 0-45.5-14t-32-35.5-17.5-48.5-5-52h-199q0 89 24 153.5t64.5 106 90 60.5 100.5 19q74 0 131-29.5t94-84.5q20 27 46 47t53.5 33 55.5 19 52 6q55 0 94-16t67-40v924q0 53-16 103.5t-54 91.5-100 66.5-154 26.5q-77 0-134-17t-96-43.5-62-57-29-55.5q18-18 34-41t27-50 18-59q5-33 5-66v-669h-367z" horiz-adv-x="1360" unicode="&#xe0f;"/><glyph d="M62 852q15 92 59.5 169t114 132 163.5 86q95 31 211 31 53 0 105-7.5t99-22.5q25 5 44.5 17.5t32 30 18.5 38.5 6 42h268q0-36-10-74.5t-29-74-50-64.5q-31-27-76-45 40-47 61-116t19-161q0-47-13-110t-36-135.5-53-150-61.5-154-64-149-60.5-134.5h-313l-201 555h-166v194h361l169-486q28 66 58.5 140t55.5 147 42 142q16 69 19 123 1 122-62 182.5t-188 60.5q-101 0-164-52.5t-87-153.5h-272zM135-437q-3 61 6.5 107t28.5 78.5 46 54.5 54 35 54 18 47 5q48 0 85.5-16.5t61.5-44.5q36 34 71.5 47.5t61.5 13.5q36 0 62.5-9.5t51.5-30.5v84h252v-342h-244q-6 54-28 80-23 27-61 27-18 0-31.5-8t-22-23-13-34-3.5-42h-143q0 21-5.5 41t-15 35-24.5 23-32 8q-20 0-33-9t-21-23.5-12.5-34-4.5-40.5h-188z" horiz-adv-x="1194" unicode="&#xe10;"/><glyph d="M44 1243h237q0-25 4.5-47t15-38.5 26.5-26 37-9.5q42 0 65.5 32.5t24.5 88.5h242l-2-89q47 34 92.5 57t85.5 36.5 75.5 19.5 61.5 6q63 0 100-19.5t57.5-55 28-85.5 8.5-113v-1000h-251l-2 921q0 23-.5 44.5t-4.5 37-10 24.5-16 9q-46 0-142-80.5t-240-246.5q-25-30-44-53t-34-42-24.5-38.5-16.5-40.5-9.5-47-2.5-60v-428h-249v403q0 47 .5 82.5t4.5 64.5 13 53.5 23.5 49.5 37 51.5 54.5 62.5q39 41 67 69t47 49 29.5 38 13.5 35q-12-6-26.5-13t-31-11.5-33.5-8.5-30-4q-21 0-50.5 4t-60.5 16-61.5 34.5-55 58-39.5 87-15 122.5z" horiz-adv-x="1318" unicode="&#xe11;"/><glyph d="M112 0v767q0 59 6 114.5t22.5 105.5 44.5 94 71.5 79.5 103.5 60.5 142 37l152-157 142 157q83-12 144.5-35.5t105-58.5 72.5-79.5 46-95.5 23-107 6-115v-222q0-77 18.5-141t54-111 87.5-75q50-27 118-27 42 0 74.5 11t54 37.5 32.5 69.5q11 40 11 102v832h254l-1-809q0-110-20-196.5t-66-145.5-123-90.5-189-31.5q-54 0-99.5 12t-85 34-71.5 52q-31 30-58 65v-133h-243v790q0 33-3 67t-11.5 65-25.5 55.5-47 37.5l-158-151q-3-4-15-10.5t-27-6.5-28 5q-13 6-19 12l-160 154q-25-15-41.5-40.5t-26-57-14-64.5-4.5-66l2-456q41 54 92 111.5t99 115.5h-89v188h361v-173l-477-576h-237z" horiz-adv-x="2012" unicode="&#xe12;"/><glyph d="M33 861q11 51 33.5 99.5t55.5 94.5 80 85.5 104.5 68 129.5 45 157 16.5q104 0 186-20t143-56.5 102.5-85 68-106.5 37-123 10.5-133v-335q0-62 12.5-103.5t35.5-68 54.5-37.5 71.5-11q68 0 120 27.5t87.5 74.5 53.5 112q17 63 17 140l2 698h252v-1243h-242l-6 133q-26-35-58.5-65t-72.5-52-85-34q-47-12-97-12-114 0-190.5 31.5t-122.5 90.5-64.5 145-18.5 197l-1 336q0 50-15 102t-49 92.5-91 66.5-140 27q-68 0-119-14t-88-39-59-56-31-64q46-33 66-90.5t20-128.5l3-463h133v-203h-382v669q0 27-4.5 53.5t-16 51.5-31.5 47q-19 23-51 40z" horiz-adv-x="1961" unicode="&#xe13;"/><glyph d="M115 0v743q0 67 10.5 131t35 123.5 65 109 102 85.5 145 57 193.5 21q108 0 191.5-21t144.5-57 102.5-85.5 67-109 37-123.5 11.5-131v-743h-252l-2 767q0 50-12.5 102.5t-46.5 94.5-91.5 68-149.5 26-151-26-93-68-47.5-94.5-13.5-102.5v-443l210 237h-97v191h376v-176l-498-576h-237z" horiz-adv-x="1333" unicode="&#xe14;"/><glyph d="M115 0v749q0 87 18 170.5t63 153.5 123 118.5 199 66.5l154-154 142 154q124-16 204-64t127.5-118 65-154 17.5-173v-749h-248v770q0 31-7.5 67t-21 70-34 63.5-48.5 44.5l-156-151q-7-6-16.5-11.5t-24.5-5.5q-16 0-29 5-13 6-18 12l-160 154q-31-15-51-43t-32-62-16.5-71.5-4.5-71.5v-443l210 234h-97v188h378v-173l-500-576h-237z" horiz-adv-x="1342" unicode="&#xe15;"/><glyph d="M33 861q11 51 32 99.5t53.5 94.5 78.5 85.5 106 68 135 45.5q77 16 169 16 109 0 193.5-20t146.5-56.5 105-85 69.5-106.5 37-122.5 10.5-130.5v-749h-248v770q0 53-15 103.5t-51.5 91.5-97.5 66.5-152 26.5q-77 0-132.5-17t-92.5-43.5-57.5-57.5-26.5-55q24-15 40-38.5t27-51 16.5-59.5 5.5-67v-466h133v-203h-382v672q0 25-4.5 51t-16 51-31.5 47q-19 23-51 40z" horiz-adv-x="1284" unicode="&#xe16;"/><glyph d="M115 0v1243h243v-151q65 89 160 135t223 46q131 0 218-35.5t139.5-99.5 73.5-152.5 21-195.5l1-790h-248v815q0 51-17 93t-47.5 71.5-73.5 46-96 16.5q-89 0-153.5-27.5t-107.5-77-63.5-116-20.5-146.5v-675h-252z" horiz-adv-x="1308" unicode="&#xe17;"/><glyph d="M112 364v261h249v-261q0-50 23.5-84t60.5-55 83-30.5 91-9.5q41 0 87 7.5t84.5 27.5 63.5 54.5 25 89.5q0 28-4.5 49.5t-16 39.5-34.5 34-60 32.5-90 33.5q-52 18-126 39-60 18-115.5 35.5t-104 38.5-89.5 47.5-69 60-43 74.5-13 95q1 56 22 102.5t54 82 78.5 62.5 97 44 106.5 25 111 8q111 0 206-22.5t163.5-72.5 108.5-128.5 40-188.5h-251q0 57-18.5 95.5t-52 63.5-79.5 36-105 11q-47 0-88.5-6.5t-73.5-20-50.5-35.5-18.5-52q0-21 18-40t46-35.5 63.5-29.5 70-23.5 65-18 51.5-13.5q71-19 133-38t112.5-43 90.5-54 66.5-70 40-93.5 13.5-124.5q0-69-19.5-124.5t-55-99.5-83-75-105-51-121-29-130.5-9q-68 0-131 9t-119 30-103.5 52-81.5 74-53.5 99-19.5 124z" horiz-adv-x="1241" unicode="&#xe18;"/><glyph d="M112 451v792h249v-815q0-51 17-93t47.5-72.5 74-46.5 96.5-16q88 0 153 27.5t108 77 63.5 116.5 20.5 146v676h253v-1243h-242l-5 151q-65-89-159.5-135t-223.5-46q-130 0-217 35t-138.5 98.5-74 152.5-22.5 195z" horiz-adv-x="1308" unicode="&#xe19;"/><glyph d="M114 524v719h250v-743q0-53 14-108t47.5-99 89-71.5 139.5-27.5q85 0 140.5 27.5t88.5 71.5 47 99 14 108v743h250v-725q0-70-10-137t-34.5-128-64.5-112.5-99.5-88.5-140.5-58-189-21-191 21-142.5 59.5-99 90-64 114-35 130.5-10.5 136z" horiz-adv-x="1308" unicode="&#xe1a;"/><glyph d="M112 524l3 719h249v-743q0-53 13.5-108t46.5-99 88.5-71.5 140.5-27.5q84 0 139.5 27.5t89 71.5 46.5 99 13 108v1285h252v-1267q0-70-10.5-137t-34-128-63.5-112.5-100-88.5-142-58-189-21q-108 0-190 21t-143 59.5-100.5 90-63.5 114-34.5 130.5-10.5 136z" horiz-adv-x="1308" unicode="&#xe1b;"/><glyph d="M112 352l2 891h413l-3-204h-163v-648q0-57 7.5-95t20-63.5 32.5-36.5 45-11q40 0 62.5 20.5t32 57 11.5 85.5 2 103v197h249v-197q0-56 3-104t14.5-84.5 34.5-56.5q22-21 63-21 25 0 43.5 11t32 36.5 19.5 63.5 6 95v852h249v-891q0-97-22.5-168.5t-64-117-99-68-130.5-22.5q-88 0-160 37t-113 105q-36-74-99.5-108t-161.5-34q-74 0-134 22.5t-102 68-66 117-24 168.5z" horiz-adv-x="1403" unicode="&#xe1c;"/><glyph d="M112 352l3 891h412l-3-204h-163v-648q0-57 7.5-95t20-63.5 32.5-36.5 45-11q40 0 62.5 20.5t32 57 11.5 85.5 2 103v197h249v-197q0-56 3-104t14.5-84.5 34.5-56.5q22-21 63-21 25 0 44.5 11t32 36.5 18.5 63.5 6 95v1394h249v-1433q0-97-22.5-168.5t-64-117-99-68-130.5-22.5q-88 0-160 37t-113 105q-36-74-99.5-108t-161.5-34q-74 0-134 22.5t-102 68-66 117-24 168.5z" horiz-adv-x="1403" unicode="&#xe1d;"/><glyph d="M36 1243h275l180-891 193 891h277l193-882 179 882h273l-315-1243h-273l-203 882-187-882h-276z" horiz-adv-x="1645" unicode="&#xe1e;"/><glyph d="M36 1243h275l180-891 193 891h277l193-882 270 1424h272l-405-1785h-273l-203 882-187-882h-276z" horiz-adv-x="1645" unicode="&#xe1f;"/><glyph d="M65 0v203h121v469q0 25-4 51t-15.5 51-31.5 47.5-52 39.5q12 51 34 99.5t56 94.5 81.5 85.5 109 68 137.5 45 168 16.5q109 0 195-20t150.5-56.5 108-85 71.5-106.5 40-122.5 12-130.5v-749h-251v770q0 53-16.5 103.5t-55 91.5-100.5 66.5-154 26.5q-77 0-134-17t-96-43.5-62-57-29-55.5q18-18 34-41t28-50 18-59q7-33 6-66v-669h-369z" horiz-adv-x="1360" unicode="&#xe20;"/><glyph d="M115 0v1243h252l-3-676q0-79 22-146t65-116.5 108.5-77 152.5-27.5q53 0 96.5 16t73.5 46.5 46 72 16 93.5v815h249v-792q0-106-21.5-195t-74-152.5-140-98.5-217.5-35q-127 0-220.5 46t-161.5 135v-151h-243z" horiz-adv-x="1308" unicode="&#xe21;"/><glyph d="M92 391q0 47 6.5 90t23 78.5 42.5 64.5q27 27 68 48-44 25-70.5 57t-41.5 67.5-20 71.5-5 69q0 61 16 106.5t43 79.5 63 57 75.5 37 80.5 20 78 6h188l-1-213h-136q-18 0-43-2t-49.5-13.5-41-33.5-16.5-60q0-42 13.5-68.5t35.5-42 51.5-22.5 64.5-10h119v-208h-121q-35-2-65.5-9t-52-25-32.5-51q-10-32-10-85 0-57 22.5-97t61-67 88-40.5 103.5-13.5q60 0 111.5 15.5t89.5 51 59.5 92 19.5 139.5v763h249v-806q0-114-42.5-201.5t-114-146.5-167.5-89-205-30q-68 0-133.5 10.5t-125.5 34-110.5 58-88 81.5-59 106.5-21.5 130.5z" horiz-adv-x="1275" unicode="&#xe22;"/><glyph d="M61 429h250q0-63 20.5-110t53-76.5 74-44 83.5-14.5q43 0 83.5 7t71.5 25 50.5 50.5 19.5 85.5q-2 34-21 63t-51 52-75 40-90 30q-48 12-99 24.5t-97.5 32-88.5 44.5-73 62-49 86-18 112q0 70 18.5 124.5t52 96 77 70.5 94.5 47 105 25 107 6q95-3 175-28t137.5-75.5 90.5-124.5 33-172h-252q-2 34-10 69t-26.5 63-50 46-82.5 19q-62 3-102.5-9.5t-64.5-33.5-32.5-49.5-8.5-59.5q0-30 18.5-53.5t51.5-43 76.5-34 91.5-26.5q103-28 183-62t135-78.5 82.5-101.5 27.5-134q0-79-18.5-138.5t-52-105-78.5-75.5-97-48.5-109.5-27-117.5-8.5q-65 0-127 11.5t-118 35-103.5 59.5-81.5 86.5-52 115.5-16 145z" horiz-adv-x="1102" unicode="&#xe23;"/><glyph d="M33 861q11 51 32 99.5t53.5 94.5 78.5 85.5 106 68 135 45.5q77 16 169 16 109 0 193.5-20t146.5-56.5 105-85 69.5-106.5 37-122.5 10.5-130.5v-1152h-248v1173q0 53-15 103.5t-51.5 91.5-97.5 66.5-152 26.5q-77 0-132.5-17t-92.5-43.5-57.5-57.5-26.5-55q24-15 40-38.5t27-51 16.5-59.5 5.5-67v-466h133v-203h-382v672q0 25-4.5 51t-16 51-31.5 47q-19 23-51 40z" horiz-adv-x="1284" unicode="&#xe24;"/><glyph d="M78 330q0 102 36.5 174.5t100 123 147 78.5 176 42 189 15.5 185.5-2.5v115q0 59-22.5 96t-58 55.5-80 24.5-88.5 6q-59 0-109.5-11.5t-87.5-39-59-73.5-27-113h-254q3 83 23.5 149t57.5 115 88 84.5 112 56 129 31 140 10.5q58 0 116.5-7.5t112.5-23.5 101.5-43.5 82-68.5 54.5-97 20-130v-897h-251v570q-24 3-62.5 4.5t-83.5 0-94.5-7-98.5-16.5-92.5-28-77-42-52.5-59-18-79q0-47 20-78t52-50.5 72.5-27.5 81.5-8q34 0 70.5 6t74.5 15v-197q-51-13-96.5-21.5t-95.5-8.5q-87 0-166.5 19.5t-138.5 61.5-94.5 110-34.5 166z" horiz-adv-x="1278" unicode="&#xe25;"/><glyph d="M65 0v203h121v469q0 25-4 51t-15.5 51-31.5 47.5-52 39.5q12 51 34 99.5t56 94.5 81.5 85.5 109 68 137.5 45 168 16.5q109 0 195-20t149.5-56.5 108-85 72-106.5 40-122.5 12.5-130.5v-1152h-251v1173q0 53-17 103.5t-55 91.5-100 66.5-154 26.5q-77 0-134-17t-96-43.5-62-57-29-55.5q18-18 34-41t28-50 18-59q7-33 6-66v-669h-369z" horiz-adv-x="1360" unicode="&#xe26;"/><glyph d="M80 802q3 104 40 191t99 149.5 149.5 96.5 193.5 34q134 0 233-47.5t163.5-132.5 96-205 31.5-266.5-31-266.5-96-205-163-131q-100-46-234-46-106 0-193.5 34t-149.5 96.5-97.5 148-40.5 191.5h252q4-69 22.5-118.5t49-80.5 70.5-46.5 86-15.5q62 0 111 26t83.5 80.5 54 137.5 19.5 195.5-19.5 197-53.5 138.5-83 80q-48 27-111 27-47 0-87-15.5t-69.5-46.5-49-81.5-24.5-118.5h-252z" horiz-adv-x="1163" unicode="&#xe27;"/><glyph d="M115 0v719q0 70 10.5 137.5t35 128.5 65 113.5 101.5 90.5 143 59.5 190 21.5q71 0 130-10 60-8 107-26 25 2 44.5 14.5t32 31 19 41.5 7.5 47h267q0-36-10.5-77.5t-31-79-53-68-77.5-48.5q30-38 50.5-82.5t34-92.5 20-99 6.5-102v-719h-251v746q0 35-7 70.5t-20 70-37 64-56.5 51.5-76 34-99.5 12q-85 0-142-27.5t-91.5-71-49.5-97.5-15-106v-167q34 49 72 83t83 56 100.5 31 126.5 9v-219q-110 0-182.5-28.5t-116.5-82.5-62-130.5-18-173.5v-124h-249z" horiz-adv-x="1321" unicode="&#xe28;"/><glyph d="M114 503v740h247v-761q0-53 12-105.5t43-95.5 87-69.5 148-26.5 148 26.5 87.5 69.5 42.5 95.5 11 105.5v97h-360v288h237v-89h124v465h252v-465h112l-1-199h-111v-76q0-66-9-132t-32-124.5-62-109-98.5-86.5-143-57-194.5-21q-112 0-196 21t-143.5 57-99 86.5-62.5 109-31 124.5-8 132z" horiz-adv-x="1308" unicode="&#xe29;"/><glyph d="M78 330q0 102 36.5 174.5t100 123 147 78.5 176 42 189 15.5 185.5-2.5v115q0 59-22.5 96t-57 55.5-78.5 24.5-88 6q-59 0-109.5-11t-88-38.5-60.5-72.5-26-112h-255q3 83 24.5 149t59.5 115 88 84.5 111 56 129.5 31 141.5 10.5q55 0 111-8 58-7 108-22 26 3 47 15t34.5 29.5 20.5 39.5q7 23 10 44h267q0-35-10-74.5t-30.5-76.5-54-67.5-77.5-45.5q24-41 40-93t16-114v-897h-251v570q-24 3-62.5 4.5t-83.5 0-94.5-7-98.5-16.5-92.5-28-77-42-52.5-59-18-79q0-47 20-78t52-50.5 72.5-27.5 81.5-8q34 0 70.5 6t74.5 15v-197q-51-13-96.5-21.5t-95.5-8.5q-87 0-166.5 19.5t-138.5 61.5-94.5 110-34.5 166z" horiz-adv-x="1278" unicode="&#xe2a;"/><glyph d="M115 0v1243h246v-436l509 436h363l-277-234q65-26 106-69t63.5-99.5 31.5-126 9-147.5v-567h-248v592q0 44-7.5 85.5t-25.5 77-46 61-68 34.5l-407-350v-500h-249z" horiz-adv-x="1281" unicode="&#xe2b;"/><glyph d="M30 1243h278l152-913 210 718h258l220-721q12 62 24 120.5t23 116.5 22 115.5 23 116.5q11 46 13 78t2 60q0 32-7.5 56.5t-25 41.5-47 26-71.5 9l2 176q59 3 106 15t82 35 55.5 59 26.5 88h285q-9-65-30-116t-51-88-69.5-61-83.5-35q32-29 51.5-65t27-76 4.5-84q0-43-12-88l-204-827h-276l-225 713-211-713h-276z" horiz-adv-x="1645" unicode="&#xe2c;"/><glyph d="M71 619v20.5 30.5 39h559v-197h-303q3-74 26.5-134.5t63.5-103.5 94-67.5 119-24.5q72 0 129.5 29t97.5 85 62 137.5 22 185.5q0 213-77 326t-234 113q-59 0-109-14t-88.5-43-63.5-70q-23-42-32-95h-263q21 99 64 180t111.5 138 162.5 88 218 31q104 0 186-23t145-65 107.5-101.5 72.5-132 41.5-157 13.5-175.5q0-86-13.5-167.5t-41.5-154-72.5-131.5-107.5-102-145-67-183-24q-103 0-184.5 24t-144.5 66-107.5 102-72.5 131-40.5 153-12.5 170z" horiz-adv-x="1260" unicode="&#xe2d;"/><glyph d="M71 622v87h559l3-194h-303q3-74 26-135.5t61.5-105 93-66.5 119.5-23q72 0 129.5 29t97.5 85 62 137.5 22 185.5q0 211-77 323.5t-234 112.5q-116 0-191-57t-102-165h-263q21 99 64 180.5t111 139.5 162.5 89 217.5 31q59 0 114-9t102-27q24 3 42.5 13.5t30 28 17.5 40 8 46.5h271q0-36-10.5-73t-31.5-72-50.5-63.5-70.5-46.5q35-44 62-100.5t44.5-118.5 27.5-132q11-69 11-140 0-86-13.5-167.5t-41.5-154-72.5-131.5-107.5-102-145-67-183-24q-103 0-184.5 24t-143.5 66-106.5 102-72.5 131-41.5 153-13.5 170z" horiz-adv-x="1260" unicode="&#xe2e;"/><glyph d="M86 888q0 67 17.5 119.5t48 91.5 72 66.5 88 44.5 96.5 25q51 8 98 8h200l-2-210h-199q-83 0-121-36t-39-112q0-35 11-71.5t39-64.5 76-46 122-18q160 0 244 58.5t84 182.5v317h248v-1243h-248v579q-60-51-142-75t-178-24q-127 0-223.5 28t-161.5 82-97.5 129.5-32.5 168.5z" horiz-adv-x="1284" unicode="&#xe2f;"/><glyph d="M112 194v283h230v-92h299v-191h-529zM112 810v285h231v-92h296v-193h-527z" horiz-adv-x="748" unicode="&#xe30;"/><glyph d="M-780 1433v299h229v-107h592l3-192h-824z" unicode="&#xe31;"/><glyph d="M33 833q0 71 17.5 130.5t48.5 107.5 75 85 95 61.5 107 37 115 12.5q97 0 179.5-26.5t142.5-80 95-134.5q33-82 33-193l2-833h-249l-1 790q1 134-51.5 196t-150.5 62q-85 0-138.5-53.5t-59.5-161.5h-260z" horiz-adv-x="1058" unicode="&#xe32;"/><glyph d="M-500 1646q0 49 17.5 91.5t48.5 74.5 73.5 51.5 91.5 19.5q47 0 90-19.5t75.5-51.5 52.5-74.5 20-91.5-19.5-92-52-75-76-51-91-19-89.5 19-74 51-49.5 75-17.5 92zM-349 1646q0-18 6.5-33t17.5-26.5 26-19 31-7.5q18 0 33.5 7.5t27.5 19 17.5 26.5 5.5 33-6.5 32.5-17.5 26.5-27.5 19.5-32.5 7.5q-18 0-32.5-7.5t-25.5-19.5-18-26.5-5-32.5zM33 833q0 71 17.5 130.5t48.5 107.5 75 85 95 61.5 107 37 115 12.5q97 0 179.5-26.5t143.5-80 95.5-135 33.5-192.5v-833h-249v790q2 134-51.5 196t-151.5 62q-85 0-138.5-53.5t-59.5-161.5h-260z" horiz-adv-x="1058" unicode="&#xe33;"/><glyph d="M-1200 1430l99 198h986v-198h-1085z" unicode="&#xe34;"/><glyph d="M-1200 1430l99 198h749v175h235l2-373h-1085z" unicode="&#xe35;"/><glyph d="M-1200 1430l99 198h580l-1 21q0 44 17 84t45.5 69.5 68 47.5 84 18 84-18 70-47.5 47.5-69.5 17-84q0-46-16-85.5t-46-69-69-47-83-17.5h-897zM-383 1649q0-15 6.5-30t17-24.5 24.5-15.5 28.5-6 29.5 6 25.5 15.5 17 24.5 6.5 30q0 35-23.5 57.5t-54.5 22.5q-15 0-30-6t-25-17-16-25.5-6-31.5z" unicode="&#xe36;"/><glyph d="M-1200 1430l99 198h429l-3 175h225l2-175h108v175h223l2-373h-1085z" unicode="&#xe37;"/><glyph d="M-456-334l3 192h341v-465h-234v273h-110z" unicode="&#xe38;"/><glyph d="M-900-334l3 192h346l-1-170q0-59 24.5-90.5t77.5-31.5q50 0 77 31.5t27 90.5l1 170h233v-170q0-65-18-122t-58-100-103.5-68.5-155.5-25.5q-89 0-152 21t-103.5 60-61.5 93q-23 54-26 120h-110z" unicode="&#xe39;"/><glyph d="M-423-272q0 35 13 65.5t36 53.5 53.5 36 65.5 13q34 0 65.5-13t54.5-36 36-53.5 12-65.5q0-34-12.5-64.5t-35-53.5-53-36.5-64.5-13.5q-35 0-66 13.5t-55 36.5-37 53.5-13 64.5z" unicode="&#xe3a;"/><glyph unicode="&#xe3e;"/><glyph d="M133 0v1447h450v143h231v-146q89-4 172-22.5t148-58.5 104-109q41-69 41-175.5t-38.5-181-120.5-126.5q54-22 94.5-57t68.5-78.5 42-95.5 14-111q0-53-13-105.5t-40.5-100.5-67.5-88-93-70.5-118.5-47.5-142.5-17h-50v-151h-231v151h-450zM391 1228l1-377h191v377h-192zM392 216h191v414h-191v-414zM814 216h21q59 0 105 15t77 44.5 47 69.5 16 93q0 56-22 93t-60.5 58.5-86 31-97.5 9.5v-414zM814 854q108 12 156 58t48 128q0 60-13 97t-40 57-65.5 25.5-85.5 8.5v-374z" horiz-adv-x="1408" unicode="&#xe3f;"/><glyph d="M139 0v1243h252v-1243h-252z" horiz-adv-x="529" unicode="&#xe40;"/><glyph d="M139 0v1243h252v-1243h-252zM558 0v1243h252v-1243h-252z" horiz-adv-x="948" unicode="&#xe41;"/><glyph d="M-9 1613l46 190h607l112-199h-389q30-35 44.5-78t14.5-89v-1234h130l2-203h-379v1430q0 43-15.5 77.5t-40.5 57.5-59 35.5-73 12.5z" horiz-adv-x="630" unicode="&#xe42;"/><glyph d="M-71 1474q0 98 29.5 170.5t78.5 120 113.5 71 133.5 23.5q62 0 120-15t103-46 72-80q28-49 28-120-2-38-14.5-67.5t-32.5-55.5-44.5-50.5-46.5-54.5q-16-19-25-43.5t-13.5-51-4.5-53v-50.5-969h130l2-203h-379l-1 1172q-2 50 2.5 90t16.5 75 33.5 67 56.5 67q9 9 24 22.5t29.5 29 25.5 31.5q13 16 13 31 0 13-6 26.5t-16.5 25.5-28 18-45.5 6q-30 0-53-13.5t-37.5-37-22-59-7.5-77.5h-234z" horiz-adv-x="630" unicode="&#xe43;"/><glyph d="M-152 1604l111 199h606l49-190q-38 0-73-12.5t-60-35.5-40-57-15-78v-1227h130l2-203h-379v1437q2 44 14 88 11 44 41 79h-386z" horiz-adv-x="630" unicode="&#xe44;"/><glyph d="M33 833q0 71 17.5 130.5t48.5 107.5 75 85 95 61.5 107 37 115 12.5q97 0 179-26.5t142.5-80 94.5-135.5q34-84 33-193v-1235h-249v1193q2 134-50 196t-150 62q-85 0-138.5-53.5t-59.5-161.5h-260z" horiz-adv-x="1058" unicode="&#xe45;"/><glyph d="M80 781q0 92 16 170.5t59 140 118 104.5q73 43 192 62l130-136 117 133q86-7 149-31t105-60 68-83.5 39-101 17.5-112.5 4.5-121v-1146h-253v1170q0 23-.5 48.5t-2 50.5-6 48.5-12 43-21 32.5-30.5 19l-131-139q-9-7-20.5-12.5t-23.5-5.5q-16 0-27.5 5.5t-16.5 12.5l-135 136q-50-32-71-91.5t-15-133.5q0-26 5-53t20-47.5 38.5-34 59.5-13.5h50l2-219h-52q-74 0-142 21t-120 65.5-81 112.5q-30 68-30 165z" horiz-adv-x="1212" unicode="&#xe46;"/><glyph d="M-1073 1718q0 76 26.5 129t72 88.5 106 52 125.5 16.5h601v-179h-580q-45 0-70.5-11t-39-27.5-17-35-3.5-33.5q0-9 2.5-23t10-27 21.5-22 38-9q39 0 58.5 25t18.5 76h170q-6-101 71-101 42 0 53 27 12 26 6 74h184q10-80-3-135t-43.5-89-75-49.5-94.5-15.5q-33 0-61 8t-50 23-40 32.5-30 38.5q-12-21-32.5-38.5t-45.5-32.5-54.5-23-62.5-8q-77 0-126.5 26t-80 65-43 86.5-12.5 91.5z" unicode="&#xe47;"/><glyph d="M-351 2306h231l2-363h-231z" unicode="&#xe48;"/><glyph d="M-690 2309h308l3-184q59 0 106.5 15t80 40 48.5 58q17 32 17 71h214q0-71-28.5-137.5t-90-118.5-154-83-217.5-31h-170v186h-114z" unicode="&#xe49;"/><glyph d="M-731 1939q-6 83 9 143.5t43 100.5 66.5 59 80 19 77-20.5 61.5-56.5q23 36 62 56.5t82 20.5q58 0 103.5-32.5t63.5-100.5q12 15 22.5 34.5t17.5 42 11.5 48.5 6.5 50h197q0-37-9-76.5t-26-78-40-73-50.5-62.5-58.5-48-63-26h-159q0 16-1.5 39.5t-6 45-14.5 37-30 15.5q-13 0-22-6.5t-15-17-8-25-2-29.5h-118q0 33-11.5 55.5t-31.5 22.5q-18 0-27.5-14t-15-35.5-6.5-44.5q-2-25-2-43h-186z" unicode="&#xe4a;"/><glyph d="M-521 2094l3 179h172v151h225v-151h174l-1-179h-176l3-155h-225l-2 155h-173z" unicode="&#xe4b;"/><glyph d="M-512 1797q-2 86 28.5 153t90 114.5 142 73.5 189.5 26v-187q-111 0-171-43t-57-137h-222z" unicode="&#xe4c;"/><glyph d="M-500 1646q0 49 17.5 91.5t48.5 74.5 73.5 51.5 91.5 19.5q47 0 90-19.5t75.5-51.5 52.5-74.5 20-91.5-19.5-92-52-75-76-51-91-19-89.5 19-74 51-49.5 75-17.5 92zM-349 1646q0-18 6.5-33t17.5-26.5 26-19 31-7.5q18 0 33.5 7.5t27.5 19 17.5 26.5 5.5 33-6.5 32.5-17.5 26.5-27.5 19.5-32.5 7.5q-18 0-32.5-7.5t-25.5-19.5-18-26.5-5-32.5z" unicode="&#xe4d;"/><glyph d="M-571 1433q0 59 13 113t40 97.5 68.5 76 98.5 47.5q9 43 35 79.5t69 63 104.5 40.5 142.5 14l1-191q-50 0-81.5-7.5t-49-23.5-24-38.5-6.5-51.5l3-51h-62q-40 0-64.5-11.5t-39-34-19-53.5-4.5-69h-225z" unicode="&#xe4e;"/><glyph d="M108 619q0 90 23 173.5t66 155.5 103.5 132 133 101 157 65 176.5 24q88 0 171-24t155-65 131-101 101.5-132 64.5-155q25-84 25-174.5t-23.5-174-66-156-102.5-131.5-131.5-101.5-154.5-65.5q-85-23-173-23-92 0-175 23t-156 65.5-133 101.5-102.5 131.5-66 156-23.5 174.5zM287 624.5q0-97.5 38-184t102-151 151.5-103 186.5-38.5q65 0 125 18t112 49 95 74 73 96 47 113.5 17 126-16 126-47 112.5-74 94.5-95.5 73-112.5 47.5-125 17q-101 0-187-37t-150-100.5-102-149.5-38-183.5zM414 625q0 69 28.5 131t75.5 109 111 75 135 28q69 0 130.5-28t108-75 74-109 27.5-131q0-71-26.5-135t-73-110.5-108-74-132.5-27.5-135 27.5-111 74-75.5 110.5-28.5 135zM576 625q0-40 14.5-75t39-60 59.5-39q33-14 75-14 38 0 70.5 14t57 39 38.5 60 13 75q0 38-14 70.5t-38 57.5-56.5 39.5-69.5 14.5q-41 0-76-14.5t-60-39.5-39-57.5-14-70.5z" horiz-adv-x="1536" unicode="&#xe4f;"/><glyph d="M87 542q0 133 40 237.5t115 174.5 184.5 107 245.5 37 245.5-37 185-107 117-174.5 41.5-237.5q0-153-47.5-260t-126.5-175.5-185-99.5-227-31q-80 0-155.5 13.5t-140.5 43-118.5 74-92.5 108-60.5 145-20.5 182.5zM334 530q0-76 24.5-138.5t68.5-110 106-73.5 140-26q77 0 140 26t106.5 73.5 68 110 24.5 138.5q0 98-27 166.5t-73 112-107.5 63-129.5 19.5-130.5-19.5-109-63-74-112-27.5-166.5z" horiz-adv-x="1348" unicode="&#xe50;"/><glyph d="M7 163l197 161q39-43 83.5-71t94-46 103.5-24.5 110-6.5q87 0 162 26t128 76.5 84 124.5 31 170q0 72-22 133t-63.5 105-104.5 68q-61 24-147 24-70 0-127.5-16.5t-98-44.5-63.5-64.5-23-74.5q0-36 15.5-69t54-56.5 99-34 152.5 1.5v-181q-47-12-85-15-36-3-69-3-86 0-163.5 24t-134.5 69-91 108-31 138q0 74 22 134t60.5 106.5 92 80 115.5 54 131 31.5q70 10 138 10 124 0 232.5-29.5t189-91.5 127-162 48.5-242q0-133-45.5-243.5t-129-189-205-121.5-273.5-43q-70 0-143 4.5t-150 23-153 55.5q-75 36-148 101z" horiz-adv-x="1339" unicode="&#xe51;"/><glyph d="M-9 1039l40 210q71 0 129-19t100-60.5 64-102.5 22-146l2-447q0-58 27.5-109t82-88 137.5-58.5 192-21.5q104 0 178.5 20t123 52.5 72 75.5 23.5 89v300q0 33-8 56.5t-22 41.5-33.5 29.5-43.5 17.5l-162-145-163 136q-18-1-34-9.5t-29-24.5-21-40q-8-23-8-56l3-68q0-30 1.5-61t9-55.5 23.5-40 46-15.5h93l-1-194h-116q-71 0-121 18.5t-83 48.5-52 67.5-28 77.5-12 79-4 69l-2 59q0 70 27 131.5t75.5 111 117.5 82.5q67 33 153 45l125-103 106 103q86-4 160-31.5t129.5-72.5 86.5-105q30-60 30-131v-284q0-86-21-155t-58.5-123-90-93-116.5-65-136.5-38-146.5-12h-121q-152 0-271.5 35.5t-200.5 102-122.5 161.5-41.5 210l1 391q-1 81-28 117.5t-83 36.5z" horiz-adv-x="1530" unicode="&#xe52;"/><glyph d="M95 491l1 82q-1 127 28.5 220.5t86.5 156 139 98 186 47.5l149-127 159 127q112-6 192.5-43t134-93 79.5-129q26-75 26-155v-675h-249v675q0 35-13.5 69t-34 59.5-47.5 41.5q-29 16-56 19l-192-158-187 158q-25-6-52.5-22t-49.5-50-37-86-15-130v-82q0-34 1-68.5t4.5-68 11-62.5 21.5-49.5 36.5-33 54.5-12.5q10 0 27.5.5t38.5 2 47 4.5 54 9l-3-207q-17-6-47-10.5t-64-7.5-66.5-4.5-55.5 1.5q-77 9-130.5 38t-87.5 69.5-52 91-26.5 102-10 104-1.5 98.5z" horiz-adv-x="1371" unicode="&#xe53;"/><glyph d="M95 592q0 124 41.5 214.5t118.5 151 186.5 89.5 245.5 29h208q42 0 68.5 12.5t42 35 21.5 52.5q6 32 6 67h255q0-44-7-89t-23-87.5-43.5-79.5-70.5-64.5-102-43-139-15.5h-238q-74 0-133.5-16t-101.5-45.5-64.5-75-22.5-102.5v-143q0-57 16.5-107.5t52-86.5 90-57 128.5-21h15q-32 33-54.5 77.5t-23.5 97.5q0 18 3 43.5t14.5 54.5 34.5 58 64.5 52 104 37.5 150.5 14.5v-208q-47 0-73.5-8.5t-39-19.5-15-23.5-2.5-21.5q0-31 12.5-58.5t33.5-49.5 46-34 49-12h336l3-210h-681q-101 0-178.5 20.5t-134.5 56-95.5 83-61 101-32.5 107.5q-10 55-9 106z" horiz-adv-x="1371" unicode="&#xe54;"/><glyph d="M95 480v118q0 104 28 181.5t79 133 121.5 91 153.5 57.5q-2 6-3 16 0 12-2 21 0 45 18.5 86t49.5 71 72.5 48.5 89.5 18.5q50 0 93-18.5t74-48.5 48-71q15-41 15-86 0-7 1-11l1-4v-1q29 6 47.5 21.5t30.5 36 17 46.5q4 28 4 57h255q0-44-7-90t-22.5-87.5-43.5-77.5-71-63.5-102-42.5-139-15h-227q-74 0-135-13t-105-42-68.5-74-25.5-110l3-143q0-56 16-106t51-88 89.5-59.5 128.5-21.5h15q-32 33-54.5 77.5t-23.5 97.5q0 18 3 43.5t14.5 54.5 34.5 58 64.5 52 104 37.5 150.5 14.5v-208q-47 0-73.5-8.5t-39-19.5-15-23.5-2.5-21.5q0-31 12.5-58.5t33.5-49.5 46-34 49-12h336l3-210h-681q-101 0-178 20.5t-134.5 57.5-95.5 84.5-61 101-33 108-10 108.5zM628 1098q0-35 20.5-57.5t53.5-22.5q37 0 56.5 22.5t19.5 57.5q2 36-18.5 56.5t-57.5 20.5q-33 0-53-20.5t-21-56.5z" horiz-adv-x="1371" unicode="&#xe55;"/><glyph d="M27 1082l198 115 121-194q33 15 74.5 31.5t89.5 28 105 20.5 122 12q110 3 194-16t148-54 106.5-84.5 69.5-108 38.5-124.5 11.5-132v-76q0-69-17-135t-50-125-84-106.5-118.5-81.5-151-52-184.5-15q-111 3-202.5 29.5t-157.5 75-102.5 115.5-36.5 150q0 79 27 136t75.5 93 117.5 53 155 17h102l3-189h-95q-41 0-68-10t-42.5-25.5-20.5-37.5-5-46q0-31 19-58.5t53-48 83-32.5 108-13q65-2 126.5 17.5t108.5 58 75.5 95.5 28.5 132l-1 73q0 80-19.5 140t-59.5 98.5-97 56-129 17.5q-58-1-116.5-11t-117.5-30.5-121-53-131-78.5z" horiz-adv-x="1391" unicode="&#xe56;"/><glyph d="M98 488v82q0 121 29.5 213t85.5 157 139 102.5 188 49.5l117-118 114 118q121-15 202-59t128-111.5 66.5-155.5 17.5-187l2-85q-2-25-4-56.5t-6.5-64.5-10.5-66-15-61q27 20 48 52t34 70.5 19.5 80.5 6.5 81l-1 391q0 82 23.5 143.5t65 101.5 99.5 60 129 20l35-210q-28 0-48-8t-32-26.5-17.5-48-5.5-71.5v-331q0-113-30-209t-92.5-169.5-158-120-227.5-61.5l-188 130q50 49 77 94t40 88 16 89 3 96v91q0 65-11 113t-29 82-40.5 55-49.5 29l-160-161-163 167q-23-6-49-25t-47.5-54.5-36.5-87.5-13-124l-2-79v-54.5t4.5-62.5 12.5-60.5 23-53 38-37 56-13.5q5 0 18.5 1t32 2.5 38.5 3.5 41 5l6-210q-17-5-41-10t-52.5-8-58.5-3q-32 0-58 6-74 15-124.5 44.5t-84.5 69.5-55 87.5-29.5 96-11.5 97.5-3 93z" horiz-adv-x="1628" unicode="&#xe57;"/><glyph d="M101 592q0 112 34.5 202t102.5 152.5 169.5 96 236.5 33.5h282q42 0 67 12.5t41.5 35 22.5 52.5q6 32 6 67h251q0-43-6-88.5t-22-88-42.5-81-69.5-66.5-101.5-44.5-137.5-16.5h-310q-71 0-124-20t-86-53-49.5-74.5-16.5-85.5l3-225q0-34 11-66t31-58 45-44q24-16 49-22l202 160 198-160q27 0 50.5 9.5t41.5 29.5 29 54q12 34 12 85 0 20-3.5 42.5t-14.5 41-30.5 32.5-48.5 17q-11 3-32 3h-42l1 192h90q71-3 123.5-19t89-40 58.5-55 34-66.5 16-73.5q5-37 5-74 0-99-25-174t-77-126-132-77-189-26l-151 122-154-122q-107 6-189 41.5t-137.5 92-83.5 129-25 152.5z" horiz-adv-x="1369" unicode="&#xe58;"/><glyph d="M96 485v88q0 129 21 226.5t69 162.5 126.5 99 193.5 34q21 0 47-.5t53-3 54-8.5 50-16q21-15 42-31 21-15 40-41l83 78q9 9 22 15.5t34 6.5h72q40 0 64 9t36.5 28 16.5 47q5 29 5 64h248q0-44-5.5-88t-19-84.5-37-74.5-63-59-96.5-40-134-15h-18q-8 0-20-6.5t-24-16-23.5-23-23.5-23.5l399-813h-260l-355 731q-36 74-82 112.5t-108 38.5q-34 0-63-14t-51-49-34-93.5-12-146.5v-111q0-27 3-57.5t10-59 18-56 27-47.5 40-32.5 55-12.5q16 0 44 2t59 8l34-204q-17-5-42.5-8.5t-54-6.5-59-4.5-54.5 1.5q-75 9-129 35t-89.5 64.5-58 86.5-32.5 100-14 105-4 103z" horiz-adv-x="1394" unicode="&#xe59;"/><glyph d="M86 888q0 67 17.5 119.5t48 91.5 72 66.5 88 44.5 96.5 25q51 8 98 8h198v-210h-199q-83 0-121-36t-39-112q0-35 11-71.5t39-64.5 76-46 122-18q160 0 244 58.5t84 182.5v317h248v-1243h-248v579q-60-51-142-75t-178-24q-127 0-223.5 28t-161.5 82-97.5 129.5-32.5 168.5zM1342 1243h249v-1243h-247z" horiz-adv-x="1706" unicode="&#xe5a;"/><glyph d="M120 645q0 70 15.5 141.5t46.5 139 77 126 106.5 103 134.5 69.5 162 25q82 0 149.5-20t119.5-54.5 90.5-82 63-104 35.5-118.5 12-124l-232-3q0 130-55.5 196.5t-159.5 72.5q-75 0-134.5-29.5t-99.5-81-61-121.5-21-150q0-74 28.5-144t79-124 121.5-86.5 157-32.5q83 0 149.5 26.5t116 74 84.5 114 57 143.5 32.5 164 11.5 178l162 90q34-35 65-73.5t58-75.5 50-72q25-35 43-63 19 27 42.5 62.5t49 71.5 49.5 71.5 47 63.5q20-32 44.5-68.5t47.5-72.5 43.5-69.5 37.5-61.5l93 130h398l157-243h-477q-20-26-42.5-60t-46-74-47-84-47.5-88q-46 96-88 171.5t-81 137.5q-40-59-88-159.5t-95-239.5q-45 129-89.5 227t-88.5 164q-12-91-42-173t-75.5-151.5-103-126-126.5-95.5-147.5-60.5-162.5-21.5q-101 0-186.5 26t-155.5 71-123 107-88.5 133-54 149.5-18.5 158.5z" horiz-adv-x="2664" unicode="&#xe5b;"/><glyph horiz-adv-x="1212" unicode="&#x2000;"/><glyph horiz-adv-x="2424" unicode="&#x2001;"/><glyph horiz-adv-x="1212" unicode="&#x2002;"/><glyph horiz-adv-x="2424" unicode="&#x2003;"/><glyph horiz-adv-x="808" unicode="&#x2004;"/><glyph horiz-adv-x="606" unicode="&#x2005;"/><glyph horiz-adv-x="404" unicode="&#x2006;"/><glyph horiz-adv-x="404" unicode="&#x2007;"/><glyph horiz-adv-x="303" unicode="&#x2008;"/><glyph horiz-adv-x="484" unicode="&#x2009;"/><glyph horiz-adv-x="134" unicode="&#x200a;"/><glyph unicode="&#x200b;"/><glyph d="M93 457v197h794l1-197h-795z" horiz-adv-x="981" unicode="&#x2010;"/><glyph d="M93 457v197h794l1-197h-795z" horiz-adv-x="981" unicode="&#x2011;"/><glyph d="M93 457v197h794l1-197h-795z" horiz-adv-x="981" unicode="&#x2012;"/><glyph d="M0 462v232h1220v-232h-1220z" horiz-adv-x="1219" unicode="&#x2013;"/><glyph d="M-1 694h1517v-232h-1516z" horiz-adv-x="1515" unicode="&#x2014;"/><glyph d="M160 918v266q0 70 16 131t51 107 88.5 73.5 125.5 27.5v-144q-33 0-55.5-15.5t-37.5-41.5-22.5-58.5-7.5-66.5h123v-279h-281z" horiz-adv-x="605" unicode="&#x2018;"/><glyph d="M161 897v142q33 0 56 16.5t37.5 41.5 22.5 58q7 35 7 67h-123v279h283v-265q0-71-17-132.5t-52-107.5-88-72.5-126-26.5z" horiz-adv-x="605" unicode="&#x2019;"/><glyph d="M138 918v266q0 70 17 131t51 107 87 73.5 127 27.5v-144q-32 0-56-15.5t-38.5-41.5-22-58.5-7.5-66.5h124v-279h-282zM524 918v266q0 70 16 131t51 107 88.5 73.5 125.5 27.5v-144q-32 0-55-15.5t-38-41.5-22.5-58.5-7.5-66.5h123v-279h-281z" horiz-adv-x="945" unicode="&#x201c;"/><glyph d="M138 897v142q32 0 55 16.5t38 41.5 22 58q7 35 7 67h-122v279h282v-265q0-71-17-132.5t-51.5-107.5-88-72.5-125.5-26.5zM524 897v142q32 0 54.5 16.5t37 41.5 22.5 58q7 35 7 67h-121v279h281v-265q0-71-16-132.5t-51.5-107.5-89-72.5-124.5-26.5z" horiz-adv-x="945" unicode="&#x201d;"/><glyph d="M56 636q0 66 27 125t73.5 104 109.5 72.5 132 27.5q71 0 134.5-27.5t111-72.5 75-104 27.5-125q0-69-26.5-130t-74-106-111-71-134.5-26-133.5 26-109.5 71-74 106-27 130z" horiz-adv-x="806" unicode="&#x2022;"/><glyph horiz-adv-x="484" unicode="&#x202f;"/><glyph horiz-adv-x="606" unicode="&#x205f;"/><glyph d="M44 784v179h199q29 113 88.5 208.5t145 163.5 200.5 107q113 38 255 38 123 0 229-31t188-93 137-156q56-94 77-219h-267q-14 74-46.5 128t-79.5 88-108.5 50.5-132.5 16.5q-84 0-151.5-23.5t-120-63.5-89.5-95-59-119h432v-179h-467q-2-11-2.5-24.5t-.5-26.5q0-18 1.5-36.5t1.5-36.5h467v-178h-432q24-65 61.5-119.5t90-93 120-61 151.5-22.5q89 0 155.5 28.5t113.5 77 72.5 115.5 31.5 144h261q-16-137-64.5-245t-129-182-193.5-112.5-261-38.5q-144 0-258 37t-199 104.5-141.5 161.5-82.5 206h-190v178h163v56 68h-166z" horiz-adv-x="1645" unicode="&#x20ac;"/><glyph d="M104 1447h722v-159h-267l-1-720h-188l3 720h-268zM949 568l1 879h255l237-581 229 581h257l-1-879h-192v588l-234-588h-125l-239 588v-588h-188z" horiz-adv-x="2036" unicode="&#x2122;"/><glyph d="M318 598l117 56q-3-26-4.5-56t6.5-59zM420 337l48 117q17-25 35-45.5t45-35.5zM441 858l121-43q-32-16-56-34-24-17-35-41zM630 847l60 118 53-115q-30 5-61 3.5t-52-6.5zM633 337q14-3 26.5-5.5t25-2 26 2.5 29.5 8l-52-115zM826 818l133 40-52-121q-18 25-39 45t-42 36zM827 370q27 15 46 34t36 41l32-111zM946 542q9 25 8 52.5t-8 56.5l114-56z" horiz-adv-x="1382" unicode="&#x25cc;"/><glyph d="M0 0v1077h1077v-1077h-1077z" horiz-adv-x="1075" unicode="&#x25fc;"/><glyph d="M62 852q15 92 59.5 169t114 132 163.5 86q95 31 211 31 53 0 105-7.5t99-22.5q25 5 44.5 17.5t32 30 18.5 38.5 6 42h268q0-36-10-74.5t-29-74-50-64.5q-31-27-76-45 40-47 61-116t19-161q0-47-13-110t-36-135.5-53-150-61.5-154-64-149-60.5-134.5h-313l-201 555h-166v194h361l169-486q28 66 58.5 140t55.5 147 42 142q16 69 19 123 1 122-62 182.5t-188 60.5q-101 0-164-52.5t-87-153.5h-272z" horiz-adv-x="1194" unicode="&#xf700;"/><glyph d="M-1347 1430l98 198h767v-198h-865z" unicode="&#xf701;"/><glyph d="M-1347 1430l98 198h530v175h237v-373h-865z" unicode="&#xf702;"/><glyph d="M-1347 1430l101 198h349l-1 21q0 44 17 84t46.5 69.5 68 47.5 85.5 18q45 0 85-18t70-47.5 47-69.5 17-84q0-46-16-85.5t-46-69-69.5-47-85.5-17.5h-668zM-759 1649q0-15 6.5-30t17.5-24.5 25-15.5 31-6q14 0 29 6t25.5 15.5 17 24.5 6.5 30q0 35-23.5 57.5t-54.5 22.5q-15 0-30.5-6t-26-17-17-25.5-6.5-31.5z" unicode="&#xf703;"/><glyph d="M-1347 1430l101 198h204l-3 175h225l2-175h112l-1 175h225v-373h-865z" unicode="&#xf704;"/><glyph d="M-787 1809h242l2-382h-241z" unicode="&#xf705;"/><glyph d="M-1137 1619v181h299v-181q60 0 102.5 15t69.5 40 40 57.5 13 68.5h219q0-71-26.5-136.5t-83.5-115.5-145-80.5-211-30.5h-176l1 182h-102z" unicode="&#xf706;"/><glyph d="M-1255 1440q-4 84 11.5 146.5t42 104 63.5 62 75 20.5q48 0 83.5-20.5t53.5-57.5q10 14 25.5 28.5t34.5 25.5 40.5 17.5 42.5 6.5q27 0 51.5-9.5t45.5-28 38.5-45 25.5-62.5q12 13 19.5 31.5t12 41 5.5 45.5q2 21 2 45h188q0-64-17-122.5t-46.5-105.5-69.5-80-91-43h-145q0 25-1.5 51.5t-6.5 49-14.5 36.5-24.5 14q-12 0-21-8t-14.5-22-9.5-34-4-41h-126q0 21-3 41t-7 34-13 22-21 8q-16 0-26-14t-15.5-36.5-7-49-3.5-51.5h-173z" unicode="&#xf707;"/><glyph d="M-1039 1764h173l2 151h228l-2-151h173v-179h-171v-155h-228v155h-172z" unicode="&#xf708;"/><glyph d="M-968 1433q0 85 31 153.5t90.5 115.5 143.5 72.5 191 25.5v-187q-113 0-172-43t-59-137h-225z" unicode="&#xf709;"/><glyph d="M-363 1809h242l3-382h-240z" unicode="&#xf70a;"/><glyph d="M-823 1622v184h312v-184q60 0 106.5 15t77.5 40 47 58q15 32 15 71h221q0-71-30-138t-91-118.5-153.5-82-217.5-30.5h-180v185h-107z" unicode="&#xf70b;"/><glyph d="M-977 1439q-4 84 11.5 146t45 103.5 68 61.5 79.5 20q49 0 87-20.5t54-56.5q12 15 28 28.5t36 25 42.5 17.5 43.5 6q26 0 52.5-9t50.5-27.5 41.5-45.5 28.5-63q12 13 20 32.5t12.5 41 6 45 1.5 45.5h195q0-63-18-122.5t-49-106-72-79.5q-42-31-92-42h-151q0 25-3 51t-9 48-16 37-25 15q-12 0-22.5-9t-17-22.5-10-32.5-3.5-42h-131q0 21-3 41t-8.5 33.5-14.5 22.5-21 9q-18 0-28-15t-17-37-9-49-4-50h-179z" unicode="&#xf70c;"/><glyph d="M-528 1588v185h176v154h231v-154h177v-185h-177v-158h-228v158h-179z" unicode="&#xf70d;"/><glyph d="M-514 1433q0 85 31.5 153.5t90 115.5 141.5 73q82 25 189 25l1-187q-112 0-171-43-61-43-61-137h-221z" unicode="&#xf70e;"/><glyph d="M33 847q11 50 32.5 101.5t55.5 99 80 87.5 104.5 70.5 130.5 47.5 157 17q104 0 186-21t143-58 102.5-88 68-111 38.5-128 12-136v-297q0-60 17.5-106.5t48.5-77.5 72.5-46.5 88.5-15.5q45 0 85 14t71 44.5 48.5 77 17.5 110.5v812h252v-835q0-74-18.5-136t-51-111-77-84.5-97-59-111.5-35.5-119-12q-94 0-181.5 28.5t-154 83-106.5 137.5-40 189v344q0 53-15 105.5t-49 95-91 69-141 26.5q-68 0-120-15t-88-40-57.5-57.5-30.5-65.5q46-32 67.5-91.5t21.5-133.5v-442h133v-203h-382v648q0 27-4.5 54.5t-16 53-31.5 48.5q-20 25-51 43z" horiz-adv-x="1961" unicode="&#xf70f;"/><glyph d="M-909 1433v299h230l-2-107h799v-192h-1027z" unicode="&#xf710;"/><glyph d="M-952 1646q0 49 18.5 91.5t50 74.5 74 51.5 93.5 19.5q47 0 90-19.5t75.5-51.5 51.5-74.5 19-91.5-19-92-51.5-75-75.5-51-90-19q-49 0-92 19t-75 51-50.5 75-18.5 92zM-799 1646q0-18 6-33t17.5-26.5 27.5-19.5q14-7 32-7 17 0 33 7.5t27.5 19 18.5 26.5 7 33-7.5 32.5-19.5 26.5-27 19.5-32 7.5q-18 0-33-7.5t-26.5-19.5-17.5-26.5-6-32.5z" unicode="&#xf711;"/><glyph d="M-1267 1715q0 76 25 129t68 88.5 100 52 119 16.5h564v-176h-547q-42 0-67-11t-37-27.5-15-35.5-3-36q0-9 1.5-23t9-27 21-22 36.5-9q74 0 71 104h160q-3-54 15-79t50-25q21 0 33.5 7.5t19.5 20.5 7.5 32.5-.5 43.5h174q8-80-5-135t-41.5-89-70-49.5-88.5-15.5q-32 0-58.5 8t-48 23-37 32.5-24.5 38.5q-12-21-31-38.5t-44-32.5-54-23-59-8q-71 0-117.5 25t-74.5 64.5-40 86-12 90.5z" unicode="&#xf712;"/><glyph d="M-713 1943v363h228l3-363h-231z" unicode="&#xf713;"/><glyph d="M-1051 2309h312l3-184q60 0 107 15t79 40 48 58q17 32 15 71h215q0-71-28.5-137.5t-89-118.5-152.5-83q-94-31-219-31h-171v186h-116z" unicode="&#xf714;"/><glyph d="M-1077 1939q-6 83 8 143.5t42.5 100.5 66.5 59q39 19 80.5 19t76.5-20q33-21 60-57 22 36 61.5 56.5t83.5 20.5q58 0 103-32.5t66-100.5q12 15 22 34.5t17.5 42 12 48.5 4.5 50h195q0-37-8.5-76.5t-25-78-39.5-73-50.5-62.5-58.5-48-63-26h-157q0 16-2.5 39.5t-7.5 45-15.5 37-27.5 15.5q-14 0-23-6.5t-14-17-8-25-3-29.5h-118q0 33-10.5 55.5t-32.5 22.5q-18 0-27.5-14t-15.5-35.5-7-44.5q-2-25-2-43h-183z" unicode="&#xf715;"/><glyph d="M-889 2094l1 179h176l2 151h220l2-151h173l-2-179h-171l1-155h-225l-1 155h-176z" unicode="&#xf716;"/><glyph d="M-710 1797q-2 86 28.5 153t89.5 114.5 142 73.5 188 26l2-187q-113 0-170.5-43t-56.5-137h-223z" unicode="&#xf717;"/><glyph d="M-456-506h344l-3-465h-234l3 274h-108z" unicode="&#xf718;"/><glyph d="M-901-506h345v-169q0-59 25-90t78-31q50 0 77 30 27 32 27 91v169h234v-169q0-65-18-122.5t-58-100.5-104.5-68.5-157.5-25.5q-87 0-150 21.5t-104.5 60-61.5 92.5q-18 54-21 121h-110z" unicode="&#xf719;"/><glyph d="M-423-648q0 35 14 65.5t37 53.5 54 36 66 13q34 0 64.5-13t53-36 35.5-53.5 13-65.5q0-34-13-64.5t-36-53.5-53.5-36-66-13-65 13-53.5 36-37 53.5-13 64.5z" unicode="&#xf71a;"/><glyph d="M30 1243h278l152-913 210 718h258l220-721q12 62 24 120.5t23 116.5 22 115.5 23 116.5q11 46 13 78t2 60q0 32-7.5 56.5t-25 41.5-47 26-71.5 9l2 176q59 3 106 15t82 35 55.5 59 26.5 88h285q-9-65-30-116t-51-88-69.5-61-83.5-35q32-29 51.5-65t27-76 4.5-84q0-43-12-88l-204-827h-276l-225 713-211-713h-276z" horiz-adv-x="1645" unicode="&#xf71d;"/><glyph d="M-995 1433q0 59 12 113t39.5 97.5 69.5 76 101 47.5q11 43 37 79.5t68.5 63 103.5 40.5 144 14l1-191q-50 0-82-7.5t-49.5-23.5-23.5-38.5-6-51.5v-51h-59q-40 0-66-11.5t-41-34-20-53.5-5-69h-224z"/><glyph d="M-953 1646q0 49 18.5 91.5t50.5 74.5 74.5 51.5 91.5 19.5q48 0 91.5-19.5t76-51.5 51.5-74.5 19-91.5-19-92-51.5-75-75.5-51-90-19q-49 0-92.5 19t-75 51-50.5 75-19 92zM-801 1646q0-18 7-33t18.5-26.5 26.5-19 33-7.5q17 0 32 7.5t27 19 19.5 26.5 7.5 33-7.5 32.5-19.5 26.5-27 19.5-32 7.5q-18 0-33-7.5t-26.5-19.5-18.5-26.5-7-32.5zM33 833q0 71 17.5 130.5t48.5 107.5 75 85 95 61.5 107 37 115 12.5q97 0 179-26.5t142.5-80 94.5-135 34-192.5v-833h-248v790q0 134-52 196t-150 62q-85 0-138.5-53.5t-59.5-161.5h-260z" horiz-adv-x="1058"/><glyph d="M-953 1646q0 49 18.5 91.5t50.5 74.5 74.5 51.5 91.5 19.5q48 0 91.5-19.5t76-51.5 51.5-74.5 19-91.5-19-92-51.5-75-75.5-51-90-19q-49 0-92.5 19t-75 51-50.5 75-19 92zM-801 1646q0-18 7-33t18.5-26.5 26.5-19 33-7.5q17 0 32 7.5t27 19 19.5 26.5 7.5 33-7.5 32.5-19.5 26.5-27 19.5-32 7.5q-18 0-33-7.5t-26.5-19.5-18.5-26.5-7-32.5zM33 833q0 71 17.5 130.5t48.5 107.5 75 85 95 61.5 107 37 115 12.5q97 0 179-26.5t142.5-80 94.5-135 34-192.5v-833h-248v790q0 134-52 196t-150 62q-85 0-138.5-53.5t-59.5-161.5h-260z" horiz-adv-x="1058"/><glyph d="M-1018 1430l100 198h803v-198h-903z"/><glyph d="M-1018 1430l100 198h569l-3 175h235l2-373h-903z"/><glyph d="M-1018 1430l100 198h397l-1 21q0 44 17 84t45.5 69.5 68 47.5 84 18 84-18 70-47.5 47.5-69.5 17-84q0-46-16-85.5t-46-69-69-47-83-17.5h-715zM-383 1649q0-15 6.5-30t17-24.5 24.5-15.5 28.5-6 29.5 6 25.5 15.5 17 24.5 6.5 30q0 35-23.5 57.5t-54.5 22.5q-15 0-30-6t-25-17-16-25.5-6-31.5z"/><glyph d="M-1018 1430l100 198h246l-3 175h225l2-175h108v175h223l2-373h-903z"/><glyph d="M-1601 1430l97 198h1073v-198h-1170z"/><glyph d="M-1601 1430l97 198h838l-3 175h237l1-373h-1170z"/><glyph d="M-1601 1430l100 198h663v21q0 44 17 84t46 69.5 69 47.5 84.5 18 85-18 69.5-47.5 46-69.5q15-40 15-84 0-46-15.5-85.5t-44-69-68.5-47-85-17.5h-982zM-699 1649q0-33 23-54.5t57-21.5q33 0 53.5 21.5t20.5 54.5q0 35-20.5 57.5t-53.5 22.5q-17 0-32-6t-25.5-17-16.5-25.5-6-31.5z"/><glyph d="M-1601 1430l100 198h509v175h224l1-175h113l-3 175h225l1-373h-1170z"/><glyph d="M-663 2306h228l3-363h-230z"/><glyph d="M-1021 2309h312l3-184q59 0 105.5 15t78.5 40 48 58q17 32 17 71h214q0-71-29.5-137.5t-90-118.5-152.5-83-216-31h-172v186h-115z"/><glyph d="M-1018 1939q-6 83 8.5 143.5t43 100.5 67 59 80 19 77-20.5 60.5-56.5q22 36 61 57 38 20 82 20 58 0 104-32.5t65-100.5q12 15 22.5 34.5t17.5 42 11.5 48.5 4.5 50h197q0-37-9-76.5t-26-78-39-73-50-62.5-59-48q-32-20-64-26h-157q0 16-1.5 39.5t-6.5 45-16 37.5q-11 15-29 15-14 0-22-6.5t-14-17-9-25-3-29.5h-118q0 33-10.5 55.5t-30.5 22.5q-18 0-28.5-14t-15.5-35.5-7-44.5q-1-25-1-43h-185z"/><glyph d="M-835 2094v179h176l2 151h220l-1-151h178l-3-179h-175l4-155h-223l-3 155h-175z"/><glyph d="M-1527 1430l100 198h1312v-198h-1412z"/><glyph d="M-1527 1430l100 198h1078l-3 175h235l2-373h-1412z"/><glyph d="M-1527 1430l100 198h906l-1 21q0 44 17 84t45.5 69.5 68 47.5 84 18 84-18 70-47.5 47.5-69.5 17-84q0-46-16-85.5t-46-69-69-47-83-17.5h-1224zM-383 1649q0-15 6.5-30t17-24.5 24.5-15.5 28.5-6 29.5 6 25.5 15.5 17 24.5 6.5 30q0 35-23.5 57.5t-54.5 22.5q-15 0-30-6t-25-17-16-25.5-6-31.5z"/><glyph d="M-1527 1430l100 198h755l-3 175h225l2-175h108v175h223l2-373h-1412z"/><glyph d="M-349 1791v364h231l-2-364h-229z"/><glyph d="M-690 1973l2 185h309v-185q59 1 106.5 16t80 40 50.5 57.5 18 71.5h213q0-71-29.5-137.5t-91-118.5-153.5-83-216-31h-173v185h-116z"/><glyph d="M-823 1788q-6 83 9 143.5t43 100.5 66.5 59 80 19 77-20.5 62.5-55.5q22 35 61 55.5t82 20.5q58 0 104-32.5t63-100.5q12 15 22.5 34.5t18 42 12 48.5 5.5 50h197q0-37-9-76.5t-26-77.5-40-73-50.5-63-58.5-48-63-26h-159q0 16-1.5 39.5t-5.5 45-14.5 37-29.5 15.5q-14 0-22.5-6.5t-14.5-17-8.5-25-2.5-29.5h-118q0 33-11 55.5t-32 22.5q-18 0-27.5-14t-14.5-35.5-7-44.5q-1-25-1-43h-187z"/><glyph d="M-521 2122h173l2 151h225l-3-151h176l1-179h-174v-155h-225v155h-172z"/><glyph d="M-744 1822l1 362h231l-3-362h-229z"/><glyph d="M-1080 2004v183h312v-183q59 1 107 15.5t80.5 39.5 49.5 58q17 32 17 70h212q0-71-29.5-137.5t-90-118-153.5-82.5q-94-30-218-30h-172v185h-115z"/><glyph d="M-1141 1819q-6 83 8 143t43 100 66.5 59 80.5 19q42 0 76.5-20.5t61.5-54.5q22 35 61.5 55t83.5 20q58 0 103-32.5t64-100.5q12 15 22.5 34t18 43 11.5 49q6 25 6 50h195q0-37-9-77t-25-77.5-39.5-72.5-50.5-63-58-47.5-63-26.5h-159q0 16-2 40t-6.5 44.5-15 37-28.5 16.5q-13 0-22.5-7t-15-18-7.5-25q-2-16-2-30h-118q0 32-11 56-13 24-34 24-18 0-26.5-15t-14.5-35.5-7.5-44.5-1.5-43h-185z"/><glyph d="M-921 2152h175l3 151h224l-2-151h172l3-179h-172l-1-154h-224v154h-176z"/><glyph d="M-704-334l2 192h342l-1-465h-234v273h-109z"/><glyph d="M-983-334l2 192h345v-170q-2-59 23-91 24-31 77-31 51 0 77.5 31.5t27.5 90.5l2 170h234l-2-170q-1-65-19-122t-57-100-103-68.5-157-25.5q-89 0-151 21t-103.5 60-62 93-25.5 120h-108z"/><glyph d="M-699-272q0 35 13.5 65.5t36.5 53.5 53.5 36 65.5 13q34 0 64.5-13t53.5-36 36-53.5 13-65.5q0-34-12.5-64.5t-34.5-53.5-53-36.5-64-13.5q-35 0-66.5 13.5t-55 36.5-37 53.5-13.5 64.5z"/><glyph d="M-675-334l3 192h343l-3-465h-233v273h-110z"/><glyph d="M-1135-334l1 192h347v-170q-2-59 22.5-90.5t77.5-31.5q51 0 77.5 31.5t26.5 90.5l3 170h232l-1-170q0-65-18-122t-57-100-103.5-68.5-156.5-25.5q-87 0-150 21t-104.5 60-62.5 93q-23 54-26 120h-108z"/><glyph d="M-651-272q0 35 13 65.5t37 53.5 54 36 66 13q34 0 65-13t53.5-36 35.5-53.5 13-65.5q0-34-13-64.5t-35.5-53.5-52-36.5-65-13.5-66.5 13.5-54 36.5-37 53.5-14 64.5z"/><glyph d="M-941 1433v299h231l-2-107h952v-192h-1181z"/><glyph d="M-725 1943v363h229l2-363h-231z"/><glyph d="M-1042 2309h311l3-184q59 0 106.5 15t80 40 48.5 58q16 32 13 71h217q0-71-29-137.5t-90-118.5-153.5-83-216.5-31h-172v186h-115z"/><glyph d="M-986 1939q-6 83 9 143.5t43 100.5 66.5 59 80 19 77-20.5 62.5-56.5q22 36 61 56.5t82 20.5q58 0 104-32.5t64-100.5q11 15 21.5 34.5t18 42 12 48.5 5.5 50h197q0-37-9-76.5t-26-78-40-73-50-62.5-58-48-64-26h-158q0 16-1.5 39.5t-6 45-15 37-29.5 15.5q-14 0-22.5-6.5t-14.5-17-8.5-25-2.5-29.5h-118q0 33-11 55.5t-32 22.5q-18 0-27.5-14t-14.5-35.5-7-44.5q-1-25-1-43h-187z"/><glyph d="M-900 2094l3 179h175v151h222l3-151h171v-179h-174l3-155h-225l-2 155h-176z"/><glyph d="M-693-334l3 192h341v-465h-234v273h-110z"/><glyph d="M-989-334l3 192h347l-2-170q0-59 24.5-90.5t77.5-31.5q51 0 77.5 31.5t26.5 90.5l1 170h233v-170q0-65-18-122t-58-100-103.5-68.5-155.5-25.5q-89 0-151.5 21t-103.5 60-62 93q-23 54-26 120h-110z"/><glyph d="M-682-272q0 35 13 65.5t36 53.5 54 36 67 13q34 0 64.5-13t52.5-36 35.5-53.5 13.5-65.5q0-34-12.5-64.5t-35-53.5-53-36.5-64.5-13.5q-35 0-66 13.5t-54 36.5-37 53.5-14 64.5z"/></font>
</defs>
</svg>
