<svg xmlns="http://www.w3.org/2000/svg"><defs><font horiz-adv-x="0"><font-face ascent="1638" descent="-410" units-per-em="2048"/><missing-glyph horiz-adv-x="508"/><glyph d="M106 17v100h809v-100h-809zM106 559v98h350v351h108v-351h351v-98h-351v-359h-108v359h-350z" horiz-adv-x="1016" unicode="&#x2b;&#x2d;"/><glyph d="M256 0v174h168v-174h-168zM934 0v174h170v-174h-170zM1614 0v174h165v-174h-165z" horiz-adv-x="2037" unicode="&#x2e;&#x2e;&#x2e;"/><glyph d="M103 46v93h817v-93h-817zM103 709v103l817 400v-103l-714-346 714-350v-103q-104 53-206 102t-203 98-202 97q-101 49-206 102z" horiz-adv-x="1032" unicode="&#x3c;&#x3d;"/><glyph d="M103 46v93h817v-93h-817zM103 310v103l712 350-712 346v103l817-400v-103q-206-103-409-200-202-96-408-199z" horiz-adv-x="1038" unicode="&#x3e;&#x3d;"/><glyph d="M108 595q0 83 21 159t60 142 93 120 120 93 142 60 159 21q84 0 159.5-21t141.5-60 120.5-93 93.5-120 59.5-142 20.5-159-20.5-159-59.5-142-93.5-120-120.5-93-141.5-60-159.5-21q-83 0-159 21t-142 60-120 93-93 120-60 142-21 159zM231 598q0-64 16.5-125.5t48-113.5 74.5-95 95-74.5 113-48 125-16.5 124.5 16.5 112.5 48 96 74.5 75.5 95 48 113.5 16.5 125.5-16.5 125-48 113-75.5 95-96 74.5-112.5 48-124.5 16.5-125-16.5-113-48-95-74.5-74.5-95-48-113-16.5-125zM398 598q0 64 24 118.5t65 95.5 96.5 65.5 119.5 24.5q63 0 118.5-24.5t96.5-65.5 65.5-95.5 24.5-118.5-24.5-119-65.5-96-96.5-65.5-118.5-24.5q-64 0-119.5 24.5t-96.5 65.5-65 96-24 119zM489 1690h145l-20-321h-105zM500 598q0-42 17-79t44-64 64-43.5 78-16.5q42 0 78 16.5t64 43.5 44.5 64 16.5 79q0 41-16.5 78t-44.5 64-64 44-78 17q-41 0-78-17t-64-44-44-64-17-78zM783 1690h146l-20-321h-106z" horiz-adv-x="1412" unicode="&#xe4f;&#x22;"/><glyph d="M39 0v97h117v754q0 55-15.5 97t-51.5 60q33 64 80.5 109t107 74 127 42.5 139.5 13.5q76 0 149.5-21.5t132.5-63.5 95-101.5 36-137.5v-1321h-128q-18 23-41 45t-52.5 41-69 30.5-90.5 11.5q-36 0-70.5-11t-67.5-29-62.5-41.5-57.5-50.5v132q24 20 51 38.5t59 34.5 69 26q38 10 79 10 51 0 91-10t72-23.5 57-30.5 42-31v1179q0 50-22.5 91.5t-62.5 73.5-93 50-116 18q-55 0-106-12.5t-93-34.5-75-52.5-49-66.5q9-11 18-28t17.5-36.5 12.5-41.5 4-42v-842h-233zM777-606.5q0 19.5 7.5 36.5t21.5 29.5 31 20.5q16 8 35.5 8t37-8 31-20.5 20-29.5 6.5-36.5-6.5-36.5-20-30.5-31-21.5-37-8-36 8-30.5 21.5-21.5 30.5-7.5 36.5z" horiz-adv-x="1100" unicode="&#xe0e;&#xe3a;"/><glyph d="M39 0v97h117v754q0 55-15.5 97t-51.5 60q33 64 80.5 109t107 74 127 42.5 139.5 13.5q76 0 149.5-21.5t132.5-63.5 95-101.5 36-137.5v-1321h-122q-8 27-23.5 50t-35 40-43 27.5-51.5 10.5q-26 0-50.5-13t-42.5-32-31-42q-12-21-16-41h-93q-5 17-15 39.5t-27.5 42-42 33-56.5 13.5q-28 0-51.5-11.5t-41-30.5-27.5-41-13-45h-106q3 49 22.5 90t50.5 71 70 46.5 85 16.5q29 0 57.5-6t54.5-20 49-37q21-23 38-56 17 33 37.5 56t44 38.5 47.5 21.5 49 6q47 0 89.5-17.5t74.5-53.5v1162q0 47-21 89.5t-60 75.5-93 52-120 19q-55 0-106-12.5t-93-34.5-75-52.5-49-66.5q9-11 18-28t17.5-36.5 12.5-41.5 4-42v-842h-233zM777-606.5q0 19.5 7.5 36.5t21.5 29.5 31 20.5q16 8 35.5 8t37-8 31-20.5 20-29.5 6.5-36.5-6.5-36.5-20-30.5-31-21.5-37-8-36 8-30.5 21.5-21.5 30.5-7.5 36.5z" horiz-adv-x="1100" unicode="&#xe0f;&#xe3a;"/><glyph d="M39 0v97h117v754q0 55-15.5 97t-51.5 60q33 64 80.5 109t107 74 127 42.5 139.5 13.5q76 0 149.5-21.5t132.5-63.5 95-101.5 36-137.5v-1321h-128q-18 23-41 45t-52.5 41-69 30.5-90.5 11.5q-36 0-70.5-11t-67.5-29-62.5-41.5-57.5-50.5v132q24 20 51 38.5t59 34.5 69 26q38 10 79 10 51 0 91-10t72-23.5 57-30.5 42-31v1179q0 50-22.5 91.5t-62.5 73.5-93 50-116 18q-55 0-106-12.5t-93-34.5-75-52.5-49-66.5q9-11 18-28t17.5-36.5 12.5-41.5 4-42v-842h-233zM751-527h205v-379h-114v278h-91v101z" horiz-adv-x="1100" unicode="&#xe0e;&#xe38;"/><glyph d="M39 0v97h117v754q0 55-15.5 97t-51.5 60q33 64 80.5 109t107 74 127 42.5 139.5 13.5q76 0 149.5-21.5t132.5-63.5 95-101.5 36-137.5v-1321h-122q-8 27-23.5 50t-35 40-43 27.5-51.5 10.5q-26 0-50.5-13t-42.5-32-31-42q-12-21-16-41h-93q-5 17-15 39.5t-27.5 42-42 33-56.5 13.5q-28 0-51.5-11.5t-41-30.5-27.5-41-13-45h-106q3 49 22.5 90t50.5 71 70 46.5 85 16.5q29 0 57.5-6t54.5-20 49-37q21-23 38-56 17 33 37.5 56t44 38.5 47.5 21.5 49 6q47 0 89.5-17.5t74.5-53.5v1162q0 47-21 89.5t-60 75.5-93 52-120 19q-55 0-106-12.5t-93-34.5-75-52.5-49-66.5q9-11 18-28t17.5-36.5 12.5-41.5 4-42v-842h-233zM751-527h205v-379h-114v278h-91v101z" horiz-adv-x="1100" unicode="&#xe0f;&#xe38;"/><glyph d="M39 0v97h117v754q0 55-15.5 97t-51.5 60q33 64 80.5 109t107 74 127 42.5 139.5 13.5q76 0 149.5-21.5t132.5-63.5 95-101.5 36-137.5v-1321h-128q-18 23-41 45t-52.5 41-69 30.5-90.5 11.5q-36 0-70.5-11t-67.5-29-62.5-41.5-57.5-50.5v132q24 20 51 38.5t59 34.5 69 26q38 10 79 10 51 0 91-10t72-23.5 57-30.5 42-31v1179q0 50-22.5 91.5t-62.5 73.5-93 50-116 18q-55 0-106-12.5t-93-34.5-75-52.5-49-66.5q9-11 18-28t17.5-36.5 12.5-41.5 4-42v-842h-233zM392-527h206v-185q0-139 122-139t122 139v185h114v-185q-1-44-13.5-85t-40.5-72.5-72.5-49.5-109.5-18-109.5 18-72.5 49.5-41 72.5-13 85v86h-92v99z" horiz-adv-x="1100" unicode="&#xe0e;&#xe39;"/><glyph d="M39 0v97h117v754q0 55-15.5 97t-51.5 60q33 64 80.5 109t107 74 127 42.5 139.5 13.5q76 0 149.5-21.5t132.5-63.5 95-101.5 36-137.5v-1321h-122q-8 27-23.5 50t-35 40-43 27.5-51.5 10.5q-26 0-50.5-13t-42.5-32-31-42q-12-21-16-41h-93q-5 17-15 39.5t-27.5 42-42 33-56.5 13.5q-28 0-51.5-11.5t-41-30.5-27.5-41-13-45h-106q3 49 22.5 90t50.5 71 70 46.5 85 16.5q29 0 57.5-6t54.5-20 49-37q21-23 38-56 17 33 37.5 56t44 38.5 47.5 21.5 49 6q47 0 89.5-17.5t74.5-53.5v1162q0 47-21 89.5t-60 75.5-93 52-120 19q-55 0-106-12.5t-93-34.5-75-52.5-49-66.5q9-11 18-28t17.5-36.5 12.5-41.5 4-42v-842h-233zM392-527h206v-185q0-139 122-139t122 139v185h114v-185q-1-44-13.5-85t-40.5-72.5-72.5-49.5-109.5-18-109.5 18-72.5 49.5-41 72.5-13 85v86h-92v99z" horiz-adv-x="1100" unicode="&#xe0f;&#xe39;"/><glyph horiz-adv-x="508" unicode="&#x20;"/><glyph horiz-adv-x="508" unicode="&#x09;"/><glyph horiz-adv-x="508" unicode="&#xa0;"/><glyph d="M270 0v142h140v-142h-140zM270 983v438h140v-438 3q-6-76-12-157t-12.5-163-12.5-164-12-157h-44l-47 641v-3z" horiz-adv-x="679" unicode="&#x21;"/><glyph d="M103 1019v402h79v-402h-79zM331 1019v402h79v-402h-79z" horiz-adv-x="508" unicode="&#x22;"/><glyph d="M108 481l28 92h209l76 244h-210l31 92h208l157 481h88l-154-481h190l153 481h92l-156-481h214l-29-92h-214l-79-244h214q-9-25-13-46t-11-46h-221l-153-481h-92l153 481h-185l-159-481h-88l157 481h-206zM436 573h187l78 244h-189z" horiz-adv-x="1135" unicode="&#x23;"/><glyph d="M63 423h119q0-75 12.5-135t44-104.5 84-71.5 133.5-33v598l-195 82q-47 19-81.5 51t-57 73-32 90-9.5 103q0 78 27.5 142t77.5 109.5 118.5 73.5 151.5 31v176h97v-176q82-7 148-34t112-73 71-110 25-145h-124q0 53-14.5 97.5t-43.5 78-73 54.5q-42 20-101 26v-556l64-25q104-39 170-79t103-87.5 50.5-101.5 13.5-120q0-86-28-155t-81-117.5-126.5-76-165.5-36.5v-175h-97v175q-200 10-297 123-96 111-96 328zM211 1065q0-84 42-136.5t120-84.5l83-32v514q-75-8-123.5-34t-75-62-36.5-79-10-86zM553 79q60 6 109.5 26t85.5 55 55.5 83.5 19.5 110.5q0 57-15.5 99.5t-42.5 74-66 53.5q-40 22-87 39l-59 18v-559z" horiz-adv-x="1016" unicode="&#x24;"/><glyph d="M172 1101q0 64 12 121t42 101.5 80 71 125 26.5q72 0 119.5-28.5t74-75.5 37.5-105 11-119q0-92-15.5-155.5t-46-101.5-78-55.5-108.5-17.5-109 17.5-80 56.5-48 103q-16 66-16 161zM284 1068q0-34 3.5-73.5t18-73.5 42-57 77.5-23q48 0 75.5 23t41.5 57 18 73.5 4 73.5q0 23-.5 53t-4.5 60-13 58.5-24.5 50.5-40.5 35.5-61 13.5q-34 0-57.5-13.5t-38.5-35.5-23.5-50.5-12.5-58.5-4-59v-54zM436 0l632 1421h111l-626-1421h-117zM937 341q0 63 11.5 119.5t41.5 99.5 80 69 125 26q74 0 121.5-27.5t74.5-73 38-103.5 11-117q0-95-19.5-159.5t-53.5-104-79-57.5q-45-16-98-16-53 2-99 19t-80.5 57.5-54 106-19.5 161.5zM1045 303q0-33 4.5-72t19.5-73 44.5-57 76.5-23 75 23 41.5 57 18 73 4.5 72q0 25-1 54t-4.5 60-12.5 58.5-25 50-39.5 35-59.5 12.5-59.5-12.5-40.5-35-25-50-12.5-58.5-4.5-60v-54z" horiz-adv-x="1611" unicode="&#x25;"/><glyph d="M168 384q0 80 26 141.5t70.5 111.5 105.5 91.5 130 84.5q-33 42-61 80t-48.5 76.5-33 79.5-12.5 89q0 56 18.5 107.5t54 89.5 87 62 115.5 24q61 0 114-19t92-53 61-84 22-111q0-59-23.5-109t-62-94.5-87-83.5-98.5-72l332-447q36 86 55 157 20 70 26 134h103q-6-44-15.5-91.5t-23-96.5-32-97-43.5-95l201-259h-148l-128 153q-74-90-165-134t-200-44q-97 0-177.5 29t-137 82-86.5 129q-31 74-31 169zM299 381q0-70 24.5-125.5t66.5-95.5 101-61 129-21q40 0 79.5 12.5t76 34.5 69.5 51.5 61 62.5l-363 502q-54-39-99-76t-77.5-78-50-90-17.5-116zM456 1159q0-37 8.5-71t23-64 33-58.5 38.5-55.5l30-41q39 29 75.5 58t64 62 44.5 72.5 17 92.5q0 36-11.5 68t-33 57-52.5 40-73 15q-39 0-69.5-15t-51.5-38.5-32-55.5-11-66z" horiz-adv-x="1358" unicode="&#x26;"/><glyph d="M214 1019v402h79v-402h-79z" horiz-adv-x="508" unicode="&#x27;"/><glyph d="M174 503q0 97 9 182t27 163 44.5 151.5 61 146 77.5 147.5 93 158h67q-28-54-57-111t-57-121.5-51.5-137-43-157-30-184-10.5-216.5q0-135 15-254.5t45.5-232 77.5-223.5 114-230h-70q-66 109-123 217.5t-99 221.5-66 232.5-24 247.5z" horiz-adv-x="679" unicode="&#x28;"/><glyph d="M122-416q67 117 114.5 229t78 224.5 44.5 232 14 254.5q0 117-10.5 216.5t-29.5 184-43.5 157-52 137-56 122-56.5 110.5h65q50-83 93.5-158t78-147.5 61.5-146 45-151.5 26.5-163 8.5-182q0-129-23.5-248t-66-232-100-222.5-123.5-216.5h-68z" horiz-adv-x="679" unicode="&#x29;"/><glyph d="M217 1194l22 60 236-92v250h78v-242l232 84 24-63-239-79 156-189-60-47-157 192-153-190-63 45 157 181z" horiz-adv-x="1016" unicode="&#x2a;"/><glyph d="M106 442v99h350v356h108v-356h351v-99h-351v-353h-108v353h-350z" horiz-adv-x="1016" unicode="&#x2b;"/><glyph d="M158-200q34 11 55 34t33.5 51.5 17 58.5 4.5 56h-101v179h175v-179q0-49-10-94t-32-81-57-64-85-40v79z" horiz-adv-x="508" unicode="&#x2c;"/><glyph d="M100 442v99h506v-99h-506z" horiz-adv-x="706" unicode="&#x2d;"/><glyph d="M174 0v174h165v-174h-165z" horiz-adv-x="508" unicode="&#x2e;"/><glyph d="M-8-51l492 1502h94l-497-1502h-89z" horiz-adv-x="565" unicode="&#x2f;"/><glyph d="M100 703v108.5t4 119.5 14 123 28 118.5 45 105.5 68 84.5 96.5 56.5 128.5 21q72 0 127.5-21t96-56.5 68-84.5 45-105.5 26.5-118.5 13.5-123 4.5-119.5v-108.5q0-80-3-164t-15-165-36-152.5-66-125.5-106-85.5-155-31.5q-92 0-156 31.5t-106.5 85.5-66.5 125.5-36.5 152.5-15.5 165-3 164zM225 728q0-72 1.5-147t8.5-146 22-134 44.5-111 74-75 108.5-27 108.5 27.5 73 75 43.5 110.5 22 134 7.5 146 .5 147q0 66-1 136t-9.5 137-24 128-44.5 106-72 72-104 27q-50 0-87-16.5t-64-46.5-46-71-30.5-88-18.5-98.5-10-101.5-3-97.5v-86.5z" horiz-adv-x="967" unicode="&#x30;"/><glyph d="M158 1054v98q78 0 136.5 14t101 44.5 69.5 81.5 38 129h92v-1421h-122v1134q-50-46-129.5-63t-185.5-17z" horiz-adv-x="964" unicode="&#x31;"/><glyph d="M97 0q0 58 7 113t24.5 108.5 49.5 105.5q30 51 83 101l292 267q41 40 70.5 80t49 82 29.5 91.5 10 110.5q0 59-12.5 109t-42 86-75 55.5-112.5 19.5q-50 0-87-14t-62.5-39.5-43-59.5-26.5-73-13-79.5-4-80.5h-126q-1 111 23.5 197t71 144.5 115 88.5 157.5 30q91 0 159.5-28.5t114-80 68.5-123 23-157.5q0-78-15.5-142t-44.5-119.5-72.5-104.5-95.5-94l-273-244q-47-46-77.5-106.5t-36.5-139.5h628v-104h-756z" horiz-adv-x="964" unicode="&#x32;"/><glyph d="M86 407h120q-4-62 6-118.5t41-99 83.5-68 133.5-25.5q67 0 115.5 21t80.5 57.5 47 87.5 15 111q0 97-20.5 160t-64.5 100-111.5 51-158.5 14v108q38 2 77 6.5t74 16 65.5 31.5 52.5 52.5 34.5 78.5 12.5 108q0 48-13 90.5t-40 74-70 50-105 18.5q-69 0-113-24t-69.5-62.5-36.5-89-14-102.5h-117q-1 83 20 154t64.5 123.5 110.5 82 158 29.5q81 0 145-24.5t109.5-69.5 71-109 25.5-143q0-53-11.5-102.5t-38-91-70.5-77.5-114-64q75-20 128-54.5t85-80.5 45.5-100 13.5-110q0-97-22-178t-70-138-123-88q-74-31-179-31-103 0-175.5 31t-117 87.5-64 135-16.5 171.5z" horiz-adv-x="964" unicode="&#x33;"/><glyph d="M75 364v131l553 926h117v-943h133v-114h-133v-364h-125v364h-545zM172 467h448v566l8 199-108-199z" horiz-adv-x="964" unicode="&#x34;"/><glyph d="M97 356h128q3-56 17-103t43-82 73.5-55 105.5-20q70 0 120 31t82 82.5 47 119.5q15 66 15 138 0 45-4.5 89t-16.5 84.5-33 76.5-50.5 62.5-70.5 41-94 14.5q-73 0-131-32-58-33-93-102h-113l81 720h598v-112h-498l-57-462q39 44 99.5 69.5t143.5 25.5q64 0 115.5-17t92-48.5 70-73 49-91.5 28.5-106 9-111q0-61-8-123.5t-27.5-119.5-49.5-106.5-73-85.5-99.5-57-128.5-21q-89 0-158.5 25.5t-116.5 74.5-72 118.5-23 155.5z" horiz-adv-x="964" unicode="&#x35;"/><glyph d="M100 642q0 86 1.5 179.5t12.5 181.5 36 166.5 69.5 138.5 114 94.5 169.5 34.5q284 0 331-311h-128q-8 58-27.5 97t-48 62.5-66 33.5-83.5 10q-64 0-108.5-27t-73.5-73.5-45-109.5-24-133.5-9-145.5q-1-76-1-145l22 50q22 42 54 72.5t68 48.5 75 27q36 9 73 9 93 0 161.5-35.5t113-96 65.5-139 21-164.5q0-111-28-200t-78-153-118-98-149-34q-94 0-159.5 28.5t-110.5 78.5-71 115.5-39.5 139-16.5 150.5q-3 76-3 148zM236 478q-4-108 14-182t53.5-118.5 85.5-63 109-18.5q50 0 88 16t65 43.5 45 65.5 28 78 14 81 4 79q0 64-11.5 123.5t-41 106-78.5 75-125 28.5q-50 0-86.5-14t-63.5-37.5-45.5-54.5-30-66.5-17-71.5-7.5-70z" horiz-adv-x="964" unicode="&#x36;"/><glyph d="M97 1309v112h783v-117q-100-141-184-298.5t-147-323.5-104.5-338.5-58.5-343.5h-144q22 172 66 344t110 338 153.5 324.5 197.5 302.5h-672z" horiz-adv-x="964" unicode="&#x37;"/><glyph d="M106 395q0 80 20.5 141.5t58 107 87.5 76.5 109 47q-64 20-108 53t-71 75-39.5 92.5-12.5 106.5q0 62 18 125t59 113 107 80.5 164 30.5q72 0 131.5-22.5t101.5-67 65.5-111 23.5-154.5q0-50-10.5-96.5t-34.5-88-64.5-76.5-98.5-60q64-19 111.5-56t79-85 45.5-102 14-110q0-92-18-172.5t-61.5-140-114-93.5-176.5-34q-103 0-176 27.5t-119.5 81-68.5 132-22 180.5zM234 404q0-63 12.5-122.5t43-103 80.5-70 125-26.5q54 0 98 21t75 62 47 100.5 16 138.5q0 60-13 115t-43 96.5-77.5 66-113.5 24.5q-64 0-111.5-25t-78-66.5-45.5-96.5-15-114zM278 1083q0-59 12.5-108t39-85.5 66.5-55.5 96-19 95 22 62.5 58 32.5 84q10 47 10 100 0 48-9.5 94.5t-32.5 83.5-61.5 58.5-96.5 21.5-98.5-18.5-66-52.5-37.5-81-12-102z" horiz-adv-x="964" unicode="&#x38;"/><glyph d="M100 951q0 111 28 201.5t78 153.5 118 97 149 34q94 0 160-29t110.5-77.5 70.5-114.5 39.5-139 16.5-151 3-149v-133.5t-5.5-136.5-15.5-133-29.5-123.5-48.5-108-70.5-85-100-55.5-133.5-20q-142 0-224 78.5t-107 234.5h128q8-59 27.5-99t48-63 67-33 82.5-10q64 0 108.5 27.5t73.5 74.5 45 109.5 24 133.5 9 144.5 1 144.5l-22-48q-22-42-54-72.5t-68-49.5-73.5-28-74.5-9q-61 0-112.5 16.5t-91.5 46-69.5 69.5-48.5 89-29 103-10 110zM231 960q0-63 12.5-122.5t41.5-106.5 77.5-75 123.5-28q74 0 122 30t76 76.5 39 101.5 14 106q4 109-13.5 182t-53 117.5-85.5 63-110 18.5q-50 0-87.5-16t-65-43.5-45.5-64.5-28-77.5-14-82-4-79.5z" horiz-adv-x="964" unicode="&#x39;"/><glyph d="M174 0v174h165v-174h-165zM174 877v174h165v-174h-165z" horiz-adv-x="508" unicode="&#x3a;"/><glyph d="M158-200q34 11 55 34t33.5 51.5 17 58.5 4.5 56h-101v179h175v-179q0-49-10-94t-32-81-57-64-85-40v79zM174 877v174h165v-174h-165z" horiz-adv-x="508" unicode="&#x3b;"/><glyph d="M103 439v104l817 430v-103l-712-378 712-375v-109z" horiz-adv-x="1016" unicode="&#x3c;"/><glyph d="M106 259v100h809v-100h-809zM106 626v100h809v-100h-809z" horiz-adv-x="1016" unicode="&#x3d;"/><glyph d="M103 8v109l712 375-712 378v103l817-430v-104z" horiz-adv-x="1016" unicode="&#x3e;"/><glyph d="M145 1019q0 53 9 105t29 98 50.5 85 75 66.5 100.5 44.5q58 16 128 16 83 0 154-25t121-69.5 79-109 29-144.5q0-67-15-120.5t-40-99-59-85.5q-33-42-72-80-43-45-76.5-84t-56.5-80.5-34-89-8-105.5h-132q0 44 3.5 79t9 64 16.5 54 28.5 51.5 41.5 54.5 58 64q35 37 69 77.5t61 85.5 44.5 94.5 17.5 106.5q0 47-15 94.5t-44.5 85-75 60.5-107.5 23q-75 0-125-27t-79.5-71.5-42-101.5-12.5-117h-130zM421 0v147h141v-147h-141z" horiz-adv-x="1016" unicode="&#x3f;"/><glyph d="M200 709q0 101 26 195t74 176 114.5 148.5 148.5 114.5 175 74 196 26q86 0 171-21t160.5-59 140.5-93 112-122.5 73.5-146 26.5-167.5q0-72-16-139t-46-128-73-111-97-87.5-119.5-57.5-139.5-20q-26 0-52.5 6t-47.5 21.5-34 41.5q-14 26-14 65-31-39-61.5-64t-60.5-40-60-21.5-60-6.5q-59 0-103.5 21.5t-75 58-46.5 85.5q-17 51-17 106 0 62 14.5 126.5t41.5 126 65.5 116.5 87.5 96 109 65.5 127 24.5q30 0 62-9t61.5-29 53.5-53q26-33 39-80l51 142h86l-192-560q-8-23-12.5-38t-7-27.5-4-23-1.5-18.5q0-17 9-28t22-16 30-7 31-2q52 0 99 22t85 58 68.5 83.5 51.5 99 32 104.5 11 100q0 78-23 145t-62.5 123-94.5 99.5-119.5 73-136.5 45.5q-70 16-145 16-89 0-171-23t-153-63.5-129-98-100-128-65-151-23-166.5q0-89 24-169.5t66-151 101-128 131-98 152.5-62.5 166.5-22q72 0 147 14t144.5 42.5 131 72 108.5 102.5h129q-54-84-129-146.5t-161-104-182-62.5q-93-21-188-21-104 0-199.5 26.5t-176.5 73.5-147 114-113.5 149-72.5 175.5-25 195.5zM600 573q0-42 10-78t30-65.5 50.5-46 72.5-16.5 78.5 21 67.5 50.5 54 63.5q23 35 36 60 17 33 35 72.5t32.5 82.5 24.5 87 10 84q0 34-11 62.5t-32 48.5-49.5 31.5-60.5 11.5q-53 0-99-22t-84.5-59.5-69.5-86-51.5-100-32-104.5-11.5-97z" horiz-adv-x="1815" unicode="&#x40;"/><glyph d="M54 0l430 1421h179l424-1421h-139l-120 420h-521l-117-420h-136zM336 525h470l-231 815h-5z" horiz-adv-x="1146" unicode="&#x41;"/><glyph d="M182 0v1421h424q96 0 165-25t113.5-69.5 64.5-107.5 20-139q0-58-7.5-108t-29.5-91-62-74.5-106-58.5q70-14 117.5-44.5t75-76 39.5-103 12-124.5q0-100-24.5-177t-76.5-128-132-75q-69-21-158-21-15 0-30 1h-405zM304 104h302q75 0 127 17t85 52 47.5 91 14.5 134q0 73-13.5 124t-38.5 84-59 50.5-73 25.5q-40 6-84 8-27 1-53 1h-35-220v-587zM304 792h185q56 0 103 4.5t86 15.5 69.5 30.5 51.5 51.5 32 78q10 42 10 98v10q-1 65-18 111t-57 74-104 39q-50 9-122 9-19 0-40-1h-196v-520z" horiz-adv-x="1130" unicode="&#x42;"/><glyph d="M125 726q0 80 5.5 165t23.5 165 50 151.5 84.5 124 128 84.5 178.5 32q100 0 176.5-32.5t128.5-89.5 79-134 29-168h-123q-2 66-19.5 124.5t-53.5 102.5-92.5 70-138.5 26q-58 0-102.5-18t-78-49.5-57-74.5-40.5-91-26-100-13.5-102-6-97.5-1.5-86.5q0-58 1.5-127.5t9.5-142 27-140.5 54.5-120.5 92.5-84.5 140-32q89 0 147.5 34.5t93 93 49 133.5 14.5 156h123q0-68-9-133t-30.5-123.5-54.5-106-79.5-83-106-55-133.5-19.5q-83 0-148.5 18t-114 51.5-83.5 78.5-58 100-36 116-20 125-9 130q-1 65-1 129z" horiz-adv-x="1132" unicode="&#x43;"/><glyph d="M182 0v1421h407q114 0 196-28t139-76.5 90.5-115.5 51.5-145.5 23.5-165.5 5.5-177q0-86-7.5-173t-27.5-166-55-147.5-87.5-119-126.5-79-174-28.5h-435zM304 104h305q100 0 169.5 35.5t112 112 61 197.5 18.5 292q0 71-3.5 140.5t-15 132-36 116.5-64 94.5-99.5 64-143 23.5h-305v-1208z" horiz-adv-x="1241" unicode="&#x44;"/><glyph d="M182 0v1421h733v-112h-611v-517h573v-108h-573v-577h613v-107h-735z" horiz-adv-x="1024" unicode="&#x45;"/><glyph d="M182 0v1421h683v-112h-561v-513h524v-109h-524v-687h-122z" horiz-adv-x="936" unicode="&#x46;"/><glyph d="M128 719q0 83 7 168.5t25 166 52 151.5 89 124 134 83.5 188 30.5q98 0 176.5-29.5t134.5-82 86.5-126.5 33.5-164h-128q-3 67-25.5 122t-61 95-93 62.5-123.5 22.5q-84 0-143-29.5t-100-76.5-65-111-37.5-133.5-17.5-142-4-137.5q0-42 1.5-90t7-100.5 16-105.5 27.5-101.5 42-91.5 60.5-75 82-50 107.5-18q59 0 106 21.5t84.5 58 65.5 87.5 46 108.5 27 120 9 123.5h-335v103h465v-703h-92l-11 243q-31-76-67-127.5t-81.5-82-99-43-117.5-12.5q-80 0-144 18t-112.5 51.5-83.5 78.5-58.5 98.5-39 114.5-22.5 125-9.5 128-2.5 127z" horiz-adv-x="1249" unicode="&#x47;"/><glyph d="M182 0v1421h122v-609h644v609h122v-1421h-122v703h-644v-703h-122z" horiz-adv-x="1252" unicode="&#x48;"/><glyph d="M222 0v1421h126v-1421h-126z" horiz-adv-x="568" unicode="&#x49;"/><glyph d="M68 367v50h122v-67q0-53 5-103t26-88.5 61-62.5 110-24q47 0 82 11.5t58.5 30.5 37.5 45.5 21 57 9.5 65.5 2.5 68v1071h123v-1085q0-108-24.5-179t-69-111-106.5-57-137-17q-43 0-82.5 5.5t-74.5 20.5-64 39-51 60q-17 29-26.5 63.5t-15 69-6.5 70.5q-1 34-1 67z" horiz-adv-x="907" unicode="&#x4a;"/><glyph d="M182 0v1421h122v-764l619 764h145l-476-594 503-827h-139l-444 734-202-239v-495h-128z" horiz-adv-x="1138" unicode="&#x4b;"/><glyph d="M179 0v1421h123v-1310h635v-111h-758z" horiz-adv-x="1010" unicode="&#x4c;"/><glyph d="M182 0v1421h213l356-1118 50-195h2l53 195 356 1118h214v-1421h-122v1187 156l-54-177-373-1166h-151l-373 1187-49 160v-165-1182h-122z" horiz-adv-x="1608" unicode="&#x4d;"/><glyph d="M182 0v1421h202l504-1174 68-175-2 175v1174h122v-1421h-206l-497 1151-71 186 2-189v-1148h-122z" horiz-adv-x="1257" unicode="&#x4e;"/><glyph d="M142 741q0 80 6 164.5t23.5 163.5 51 147 87.5 119.5 132 82 186 30.5q106 0 183-30.5t130-82 85-119.5 49.5-147 23-162.5 5.5-165.5q0-99-6.5-195t-24-182-50.5-158.5-86-126-130-82.5q-79-30-184-30-110 0-187 29.5t-131.5 83-85.5 126-48 158.5-23 182-6 195zM272 737q0-164 15-289.5t53-209.5 107-126q67-42 176-42 107 0 175.5 42t107.5 126 53 209.5 14 289.5q0 83-5.5 161.5t-21 146-42 123-65 96-93 62-126.5 21.5q-70 0-122-21.5t-91-62-64.5-96-41.5-123-22-145.5q-7-79-7-162z" horiz-adv-x="1249" unicode="&#x4f;"/><glyph d="M182 0v1421h393q106-3 190-25.5t144-67 92.5-116.5 32.5-176q0-95-22-162.5t-62.5-113.5-95.5-73-121-41-141-18-153-4h-132v-624h-125zM307 724h199q92 0 167 10.5t127 42.5 80.5 93 28.5 164q0 92-30.5 147.5t-83.5 86-125 39.5-156 9h-207v-592z" horiz-adv-x="1127" unicode="&#x50;"/><glyph d="M142 741q0 80 6 164.5t23.5 163.5 51 147 87.5 119.5 132 82 186 30.5q106 0 183-30.5t130-82 85-119.5 49.5-147 23-162.5 5.5-165.5q0-106-7-207.5t-28-191-60-164-100-124.5l178-186h-158l-123 129q-39-14-84.5-22t-98.5-8q-110 0-187 29.5t-131.5 83-85.5 126-48 158.5-22 182q-7 96-7 195zM272 737q0-164 15-289.5t53-209.5 107-126q67-42 176-42 53 0 101 11l-174 182h159l122-127q42 36 70 92t43.5 131 22 169.5 6.5 208.5q0 83-5.5 161.5t-21 146-42 123-65 96-93 62-126.5 21.5q-70 0-122-21.5t-91-62-64.5-96-41.5-123-22-145.5q-7-79-7-162z" horiz-adv-x="1244" unicode="&#x51;"/><glyph d="M182 0v1421h385q114 0 204.5-15.5t154.5-57 97-115.5 33-193q0-52-9.5-105.5t-35-102-69.5-89.5q-44-40-114-67 23-17 44.5-38t41.5-47.5 36.5-57.5 26.5-67l60-255q8-32 19.5-58.5t25-50.5 31-48.5 39.5-53.5h-146q-11 18-23.5 37t-23.5 40.5-20.5 45.5-16.5 52l-60 253q-17 57-43.5 96.5t-55.5 65.5-59 38q-31 11-56 11h-341v-639h-125zM307 751h324q22 0 52.5 2t64 11 66.5 28.5 58.5 51.5 41 80.5 15.5 116.5q-2 68-19.5 114t-45 76.5-63 46-74 22.5-77 8-72.5 1h-271v-558z" horiz-adv-x="1232" unicode="&#x52;"/><glyph d="M122 428h120q0-80 15-145.5t53-113 98-72.5q62-25 151-25 69 0 128 18t103 55 68.5 90.5 24.5 123.5q0 52-10.5 91t-33.5 67.5-57 50-81 41.5l-356 153q-48 21-86.5 55t-65 75-40.5 89-14 99q0 86 31.5 155t86 117.5 129.5 75 164 26.5q96 0 173.5-23.5t131.5-71 83-117 29-159.5h-122q0 58-17.5 107.5t-51.5 85-85.5 55.5-117.5 20q-63 0-109.5-12t-80.5-31-55.5-45.5-34-57-18-63.5-5.5-65q0-43 11-76.5t32-60.5 51.5-48.5 69.5-38.5l308-132q67-27 117.5-61t85-76.5 51.5-93.5 17-115q0-100-32.5-175t-92.5-126.5-144.5-78-187.5-26.5q-222 0-328 115-106 113-106 344z" horiz-adv-x="1132" unicode="&#x53;"/><glyph d="M51 1318v103h916v-103h-397v-1318h-122v1318h-397z" horiz-adv-x="1016" unicode="&#x54;"/><glyph d="M182 375v1046h125v-1040q0-31 5-64t17.5-67.5 34.5-64 57.5-53.5 85-37.5 116.5-13.5q66 0 116.5 13.5t85.5 36 58 51.5 35.5 62.5 18 67 5.5 63.5v1046h123v-1051q0-95-32-167t-90.5-122-139.5-77q-83-26-180-26-98 0-179 27t-139.5 77.5-90.5 125.5q-32 73-32 167z" horiz-adv-x="1246" unicode="&#x55;"/><glyph d="M60 1421h137l324-1126 54-203h6l50 203 325 1126h142l-441-1421h-162z" horiz-adv-x="1163" unicode="&#x56;"/><glyph d="M68 1421h140l216-1007 51-319h6l62 319 231 1007h171l211-1007 53-319h6l67 319 230 1007h139q-44-184-89.5-360.5t-90.5-351-89.5-350.5-88.5-359h-166l-207 977-61 355h-6l-63-355-228-977h-167z" horiz-adv-x="1719" unicode="&#x57;"/><glyph d="M68 0l432 731-414 690h142l345-591 339 591h144l-412-684 424-737h-153l-348 634-350-634h-149z" horiz-adv-x="1132" unicode="&#x58;"/><glyph d="M49 1421h133l391-770 389 770h136l-464-873v-548h-125v548z" horiz-adv-x="1152" unicode="&#x59;"/><glyph d="M74 0v108l771 1212h-739v101h856v-112l-772-1212h769v-97h-885z" horiz-adv-x="1046" unicode="&#x5a;"/><glyph d="M220-407v1858h321v-82h-193v-1689h193v-87h-321z" horiz-adv-x="679" unicode="&#x5b;"/><glyph d="M-46 1451h82l520-1451h-83z" horiz-adv-x="508" unicode="&#x5c;"/><glyph d="M139-320h195v1689h-195v82h322v-1858h-322v87z" horiz-adv-x="679" unicode="&#x5d;"/><glyph d="M153 655l311 788h89l314-788h-90l-268 671-267-671h-89z" horiz-adv-x="1016" unicode="&#x5e;"/><glyph d="M0-133h1016v-81h-1016v81z" horiz-adv-x="1016" unicode="&#x5f;"/><glyph d="M114 1462h171q40-64 81-120 40-58 82-119h-103q-61 61-117 121t-114 118z" horiz-adv-x="679" unicode="&#x60;"/><glyph d="M78 283.5q0 75.5 23.5 130t65 94.5 96 66 114 41.5 121 22.5 116.5 7v175q0 43-10 76.5t-32.5 56.5-57 34-84.5 11q-44 0-77-14t-57-37.5-37.5-55.5-16.5-67l-116 7q20 128 98 194t206 66q80 0 138-18.5t94-53.5 52-86q17-52 17-116v-620q0-19 4-44t10.5-52 14.5-53q10-26 18-48h-134q-3 7-5 18t-5.5 24.5-5.5 27-5 25.5q-29-34-61-55t-65-33.5-63.5-18-56.5-5.5q-67 0-122 19t-94 56.5-61 93.5-22 131.5zM197 286.5q0-52.5 15.5-91.5t40.5-65.5 57-38.5 67-12q25 0 52 5t53.5 17.5 50 30.5 41.5 43 29 58.5 11 75.5v251q-47 0-95.5-6t-96-19.5-87.5-33.5-70.5-50.5-49-71-18.5-93z" horiz-adv-x="902" unicode="&#x61;"/><glyph d="M168 0v1451h117v-525q26 55 59 88.5t68.5 50 71.5 21 69 4.5q67 0 118.5-21t89.5-57 64-85 41-103 21.5-111.5 6.5-112.5q0-77-5-152t-17.5-144.5-36-128-60-102.5-89-68-122.5-24q-37 0-76.5 5.5t-77 22.5-72.5 50-63 88v-147h-107zM275 509q0-45 4.5-93.5t14.5-97 28.5-93 47-79.5 67-55 93.5-20q69 0 115.5 31t74.5 92.5 39.5 153 11.5 211.5q0 39-2 87t-10 97-24 96.5-43.5 84-67.5 59-97 22.5q-56 0-96-24.5t-68-65.5-45.5-93-26.5-107-12.5-108.5-3.5-97.5z" horiz-adv-x="1016" unicode="&#x62;"/><glyph d="M106 524q0 65 5.5 132.5t19.5 131 40 118 68 95.5 101.5 65 140.5 24q78 0 135.5-26.5t97-71 61.5-104.5q23-60 26-128h-106q-3 46-17 90t-39 78-64.5 55.5-93.5 21.5q-50 0-86-15.5t-64-41-46-61.5-29-76.5-16.5-83.5-8.5-85-3-80.5v-72.5q0-39 3-84.5t10.5-91.5 23.5-89 43.5-76.5 68-53.5 98.5-20q62 0 103.5 24t68 64 39 91 15.5 106h108q-6-74-26-143t-58-121-97-83-142-31q-82 0-142 20.5t-102 57.5-68.5 87.5-41.5 112-20.5 129-5.5 136.5z" horiz-adv-x="902" unicode="&#x63;"/><glyph d="M120 600q0 55 6.5 112.5t22 111.5 40.5 103 63.5 85 90.5 57 118 21q34 0 71-4.5t73-21 68.5-50 54.5-88.5v525h117v-1451h-108v147q-28-55-62-88t-71.5-50-77.5-22.5-76-5.5q-71 0-123 24t-89.5 68-59.5 102.5-35.5 128-18 144.5-4.5 152zM242 559q0-120 11.5-211.5t40-153 74.5-92.5 116-31q53 0 93 20t68 55 46 79.5 28.5 93 14 97 3.5 93.5q0 43-3 97t-12.5 109-26.5 107-44.5 93-68 65.5-96.5 24.5-96-22.5-67.5-59-43.5-84-24-96.5-10.5-97-2.5-87z" horiz-adv-x="1013" unicode="&#x64;"/><glyph d="M106 532q0 56 5.5 119t19.5 125 37.5 118.5 62.5 99.5 93 68 129 25q81 0 136.5-23.5t93-65.5 58.5-96 30.5-115 13.5-125q5-64 5-124h-562v-49q0-39 3-84t9.5-91.5 22-89.5 40.5-76.5 62.5-53.5 93.5-20q57 0 98 21.5t68.5 57 39.5 80.5q11 39 11 80v12h104q-2-72-22.5-135.5t-61-109-100.5-71.5q-59-26-140-26-75 0-139.5 26.5t-111.5 89-73 168.5-26 265zM228 623h438v47q-2 35-4.5 73t-11 74-22.5 70.5-36.5 60-57 40-81.5 14.5q-49 0-84-18.5t-59.5-49-40-70.5-24.5-82.5-12-83.5q-4-42-5-75z" horiz-adv-x="902" unicode="&#x65;"/><glyph d="M49 984v92h159v139q0 65 17 111.5t48 76 75 41.5q44 13 97 13h27.5t30.5-3v-82q-39 0-71.5-6.5t-55.5-23.5-35-48q-13-32-13-79v-139h175v-92h-175v-984h-114v984h-165z" horiz-adv-x="565" unicode="&#x66;"/><glyph d="M111 550q0 56 6.5 118t21.5 122.5 41 115 65.5 96.5 94.5 66.5 127 24.5q38 0 75.5-7t73-26.5 66.5-54.5q30-35 55-90v161h116v-993q0-62-7.5-121t-25-110-46.5-93.5-70.5-71.5-98.5-45.5-132-16.5q-59 0-110.5 13.5t-93 43-70.5 71-43 97.5h111q19-70 73.5-104t129.5-34q64 0 109 17.5t75 46.5 46.5 67.5 24.5 79.5 10 82.5 2 77.5v82q-24-57-56.5-92t-70-55.5-77.5-27.5q-38-7-74-7-75 0-139 27.5t-110.5 92.5-72.5 174-26 273zM234 538q0-106 12.5-192t39.5-146.5 71.5-93 109.5-32.5q60 0 103.5 23t74.5 61.5 49 90 29 106 14 109.5q2 56 2 103 0 59-6.5 113t-20.5 103.5-36.5 90.5-50 70.5-64 46.5-77.5 17q-60 0-101.5-24t-69.5-62-44-88-23.5-102-9.5-103-2-91z" horiz-adv-x="1021" unicode="&#x67;"/><glyph d="M168 0v1451h117v-528q33 51 69.5 82.5t75 49.5 81 23.5 87.5 5.5q58 0 105.5-17.5t82-51.5 52.5-85.5 18-117.5v-812h-114v785q0 46-7 85t-27 68-55.5 45-88.5 16q-61 0-113-25.5t-89-68-57-96-20-107.5v-702h-117z" horiz-adv-x="1021" unicode="&#x68;"/><glyph d="M175 0v1076h117v-1076h-117zM175 1304v147h117v-147h-117z" horiz-adv-x="467" unicode="&#x69;"/><glyph d="M57-270q13-1 28-.5t29 5 26.5 12.5 20.5 22q9 17 13.5 33.5t6 35.5 1.5 39v42 1157h117v-1154q0-86-10.5-142.5t-38.5-89.5-74.5-46.5-118.5-13.5v100zM182 1304v147h117v-147h-117z" horiz-adv-x="472" unicode="&#x6a;"/><glyph d="M168 0v1451h114v-927l446 552h137l-341-413 361-663h-132l-305 578-166-194v-384h-114z" horiz-adv-x="921" unicode="&#x6b;"/><glyph d="M174 0v1451h117v-1451h-117z" horiz-adv-x="464" unicode="&#x6c;"/><glyph d="M168 0v1076h110v-174q29 56 63 92.5t72.5 57.5 79.5 29.5 85 8.5q95 0 159-51t94-145q56 105 135 150.5t188 45.5q65 0 115-17t84-53 52-92q18-55 18-136v-792h-116v790q0 50-8.5 88.5t-30 65-59.5 40.5q-36 14-94 14-53 0-101-27t-83.5-71-56.5-99.5-21-112.5v-688h-114v790q0 97-47.5 152.5t-142.5 55.5q-61 0-109.5-29t-83-75-53-99-18.5-101v-694h-117z" horiz-adv-x="1588" unicode="&#x6d;"/><glyph d="M168 0v1076h114v-161q31 52 64 86.5t70 54.5 80 28q43 9 91 9 61 0 111-17t86-51.5 55.5-86 19.5-118.5v-820h-114v803q0 99-44.5 148.5t-134.5 49.5q-61 0-113.5-26.5t-89-69.5-57.5-97.5-21-112.5v-695h-117z" horiz-adv-x="1024" unicode="&#x6e;"/><glyph d="M120 550q0 76 7.5 145t25 129.5 46.5 110 72 84.5 102 54.5 136 19.5q80 0 140-21t103-59.5 71.5-90.5 46-112.5 23.5-128 6-135.5q-2-167-30.5-276t-79-173.5-121-90-159.5-25.5q-57 0-107 11t-93.5 37.5-77.5 69.5-59 106-38 148.5-14 196.5zM236 541q0-103 14-190t45.5-149 83.5-96.5 130-34.5q79 0 132 34.5t84 96.5 44.5 148 13.5 191q0 125-19 213t-55 145-86 83-114 26q-63 0-113.5-26t-85.5-81.5-54.5-144.5-19.5-215z" horiz-adv-x="1016" unicode="&#x6f;"/><glyph d="M168-375v1451h107v-147q28 55 63 87.5t72.5 50 76 23 77.5 5.5q70 0 120.5-23t87.5-64 60.5-95 37.5-118 19-133.5 5-137.5q0-64-6.5-129.5t-22.5-125-41.5-111.5-63-89.5-89-60-118.5-22.5q-33 0-69 3.5t-71.5 19.5-68.5 46.5-59 86.5v-517h-117zM275 567q0-44 3.5-97.5t12.5-108.5 26.5-107 45.5-93 68-65.5 96-24.5q57 0 97 22t67.5 59 43.5 84.5 24 96.5 10 97 2 87q0 120-11.5 211.5t-39.5 152.5-74.5 92.5-115.5 31.5q-53 0-92.5-20t-68-55-47-79.5-28.5-93-14.5-98-4.5-92.5z" horiz-adv-x="1018" unicode="&#x70;"/><glyph d="M125 524q0 70 5.5 138.5t19.5 132.5 37.5 118 60 95 87.5 64 121 23q37 0 76-5.5t76.5-23 71.5-50 62-87.5v147h109v-1451h-117v517q-28-56-60-86.5t-66.5-46.5-71-19.5-69.5-3.5q-67 0-118.5 22.5t-89 60-63.5 89.5-41.5 111.5-22.5 124.5-7 130zM247 517q0-39 3-87t11.5-97 23.5-96.5 43-84.5 68-59 96-22 96 24.5 68 65.5 44.5 93 26.5 107 12.5 108.5 2.5 97.5q0 43-3.5 92.5t-14 98-28.5 93-45.5 79.5-67.5 55q-41 20-94 20-69 0-115-31.5t-74.5-92.5-40.5-152.5-12-211.5z" horiz-adv-x="1018" unicode="&#x71;"/><glyph d="M177 0v1076h108v-172q31 55 66 92.5t79 58.5 94 28q27 4 57 4 25 0 53-3v-111q-30 4-58 4-44 0-84-11-64-18-108.5-58.5t-68.5-101.5-24-139v-667h-114z" horiz-adv-x="674" unicode="&#x72;"/><glyph d="M83 288h105q2-50 18-90t47-68.5 76-43.5q46-15 105-15 54 0 97.5 14.5t75 41.5 49 68 17.5 93q0 53-21 87t-59 59.5-91.5 45.5-117.5 44-113.5 48-85 57-53.5 77.5-18 108.5q0 66 23 117.5t64 87.5 98 54.5 125 18.5q150 0 234-69 84-68 93-209h-113q0 50-16 86t-44.5 59.5-68 35.5-88.5 12q-44 0-78-13.5t-59-37-37.5-58-12.5-79.5q0-51 18-84.5t50-57 77.5-41 101.5-37.5q64-25 121-49t98.5-57 66.5-78.5 25-113.5q0-75-24-134.5t-70-101-113-63.5q-65-22-151-22-75 0-139 18t-111.5 55.5-74 95-26.5 138.5z" horiz-adv-x="902" unicode="&#x73;"/><glyph d="M49 984v92h154v293h117v-293h186v-92h-186v-796q0-17 1-32.5t9-26.5 25.5-17 48.5-6h96v-106h-144q-34 0-63 5.5t-48.5 23.5-30.5 51.5-11 89.5v814h-154z" horiz-adv-x="557" unicode="&#x74;"/><glyph d="M168 256v820h114v-804q0-50 8.5-86t30-61 57-37.5 89.5-12.5q56 0 102.5 25t79.5 66.5 52 96 19 111.5v702h117v-1076h-114v145q-31-48-63-80t-68-50-77.5-25-93.5-7q-58 0-104.5 17.5t-79.5 51.5-51 85.5-18 118.5z" horiz-adv-x="1004" unicode="&#x75;"/><glyph d="M51 1076h120l215-751 67-242 64 239 217 754h119l-332-1076h-140z" horiz-adv-x="907" unicode="&#x76;"/><glyph d="M68 1076h117l179-742 46-201 38 201 166 742h128l178-742 39-201 43 201 177 742h116l-276-1076h-128l-179 766-28 160-32-160-177-766h-130z" horiz-adv-x="1358" unicode="&#x77;"/><glyph d="M33 0l340 543-331 533h126l277-448 278 448h122l-336-533 344-543h-122l-286 456-287-456h-125z" horiz-adv-x="899" unicode="&#x78;"/><glyph d="M49 1076h119l221-751 61-219 59 219 225 751h119q-66-209-117.5-374t-92.5-294.5-71.5-224.5-53-164-37-115.5-25.5-76.5-17.5-46.5-11.5-27.5q-39-75-101-107t-144-32q-22 0-45 2-23 3-48 9v93q24-6 49.5-11.5t46.5-5.5q51 0 84.5 14t55 38.5 35 56.5 24.5 68l23 71z" horiz-adv-x="902" unicode="&#x79;"/><glyph d="M65 0v95l552 899h-525v82h634v-103l-555-887h557v-86h-663z" horiz-adv-x="793" unicode="&#x7a;"/><glyph d="M81 634q22 8 43 22t37 31q20 19 31.5 37t16.5 36 6.5 37.5 1.5 42.5v378q0 25 1.5 52t9.5 51.5 24 45.5q15 23 41 37 36 24 72 35 35 9 80 12-31-17-50.5-37.5t-30.5-44-15-53-4-64.5v-379q0-42-7-79.5t-28.5-68.5-60-54-99.5-37v-3q64-14 102.5-38t58.5-57.5 27-76 7-89.5v-356q0-33 4.5-62.5t16.5-53 33-43.5 54-37q-65 5-110.5 23.5t-73 51-40 81-12.5 112.5v332q0 28-1.5 52.5t-7 46.5-21 42.5-42.5 38.5q-16 11-32 20.5t-32 15.5z" horiz-adv-x="557" unicode="&#x7b;"/><glyph d="M208 0v1451h94v-1451h-94z" horiz-adv-x="508" unicode="&#x7c;"/><glyph d="M108-182q32 17 53 37t33 43.5 17.5 53 5.5 62.5v356q0 47 6 89.5t26.5 76 59.5 57.5 101 38v3q-61 14-99.5 37t-59 54-27.5 68.5-7 79.5v379q0 34-4.5 64t-15.5 53.5-30.5 44-49.5 37.5q43-3 78.5-14t71.5-33q26-14 42-36t24-46.5 10-51.5 2-52v-378q0-23 .5-42.5t5.5-37.5 16-36 31-37q16-16 38-30 23-15 45-23-17-6-33.5-15.5t-31.5-20.5q-28-18-42.5-38.5t-21-42.5-7-46.5-.5-52.5v-332q0-64-12.5-112.5t-40.5-81-73-51.5-111-23z" horiz-adv-x="557" unicode="&#x7d;"/><glyph d="M111 425q3 70 25 117t54 75 69.5 40.5 71.5 12.5q36 0 65-11t57-26.5 53-33.5 51.5-33.5 55.5-25.5 65-10q20 0 38 4.5t32 18.5 25 39 15 64h117q-3-54-21-98t-46.5-76-66-48.5-82.5-16.5q-41 0-78.5 11t-69.5 27-60 35-54.5 35.5-50 27-48.5 10.5q-11 0-28.5-6.5t-33.5-21.5-26.5-41.5-10.5-68.5h-118z" horiz-adv-x="1016" unicode="&#x7e;"/><glyph d="M153 719q0 55 4 113.5t15 115 32 106.5 54.5 90 82 66.5 115.5 34.5v176h90v-176q64-8 113.5-35t83.5-69.5 51.5-97.5 20.5-119h-101q-2 42-12.5 81.5t-30.5 71-51 53-74 29.5v-900q48 11 79.5 38.5t52 68 28.5 90.5 8 103h101q1-73-14.5-139t-48-119.5-84-88-122.5-42.5v-170h-90v170q-72 7-123.5 34t-85 67-52 93-28 111.5-12 121-2.5 122.5zM261 719q0-39 1-87t5.5-97 16-96 32-84.5 54.5-63.5q36-27 86-35v905q-47-9-80-35.5t-54.5-64.5-34-83-18-91.5-7-90.5-1.5-77z" horiz-adv-x="1016" unicode="&#xa2;"/><glyph d="M108 634v83h106q-19 36-34.5 73t-26.5 74.5-16.5 77-5.5 82.5q0 109 33 187t88 128 127.5 74 150.5 24q69 0 124.5-18t99.5-51.5 76-78 53.5-98.5 31.5-115q8-61 8-127h-120q0 41-6.5 84t-20 84.5-35 78.5-52 65-70 43.5-89.5 15.5q-55 0-105-18t-89-55.5-62.5-95.5-23.5-136q0-49 9-87t23.5-72.5 31.5-67 34-71.5h309v-83h-278q19-45 26.5-90.5t7.5-82.5q0-102-34-178.5t-95-129.5q18 8 49 13t62 4q35-2 69-12.5t70-23 75.5-23.5 85.5-11q25 0 54 3t60 10 62 20q30 14 58 34v-127q-24-18-52.5-29.5t-59-18.5-62.5-10.5-60-3.5q-33 0-61.5 4.5t-54.5 12.5-49.5 16-49 16-54 14-63.5 9q-34 3-67-2.5t-66-16-63.5-24-56.5-26.5v118q33 25 65.5 61t59 81 42 96.5 15.5 110.5q0 19-1.5 42.5t-7 49.5-12.5 50-15 44h-148z" horiz-adv-x="1016" unicode="&#xa3;"/><glyph d="M49 1421h133l391-770 389 770h136l-461-868h297v-80h-300v-159h300v-83h-300v-231h-125v231h-303v83h303v159h-303v80h300z" horiz-adv-x="1152" unicode="&#xa5;"/><glyph d="M100 689q0 88 22.5 168.5t64 151.5 99 128.5 128.5 99.5 152.5 64 167.5 22q87 0 168.5-22t152.5-64 128.5-99.5 98.5-128.5 64-152 23-168-23-168.5-64-152.5-98.5-128.5-128.5-98.5-151.5-64-169.5-23q-88 0-168.5 23t-151.5 64-128.5 98.5-99 128.5-64 152.5-22.5 168.5zM188 689q0-75 19.5-145t54.5-130.5 85.5-110.5 111.5-86 130.5-55.5 144.5-19.5 145 19.5 130.5 55.5 110.5 86 86.5 110.5 56 130.5 19.5 145-19.5 145-56 131-86.5 111-110.5 85.5-130.5 55-145 19.5-144.5-19.5-130.5-55-111.5-85.5-85.5-111-54.5-131-19.5-145zM427 692q0 79 21.5 146.5t61 117.5 96.5 78q56 28 128 28 47 0 89.5-16.5t76.5-48 59-76.5 38-101h-77q-8 40-26 71.5t-43 53.5-56 33.5-64 11.5q-55 0-98.5-24t-72.5-64-44.5-94.5-15.5-115.5q0-60 15.5-115.5t46-98 75-68.5 102.5-26q34 0 64.5 12.5t55 35.5 40.5 54q18 34 24 73h71q-8-59-31-104.5t-58-77-76.5-47.5-89.5-16q-72 0-129 28.5t-98 79.5-63 119q-22 71-22 151z" horiz-adv-x="1469" unicode="&#xa9;"/><glyph d="M190 550v107l274 263v-117l-208-203 208-202v-120zM556 550v107l272 263v-117l-211-203 211-205v-117z" horiz-adv-x="1016" unicode="&#xab;"/><glyph d="M100 442v99h506v-99h-506z" horiz-adv-x="706" unicode="&#xad;"/><glyph d="M100 689q0 88 22.5 168.5t64 151.5 99 128.5 128.5 99.5 152.5 64 167.5 22q87 0 168.5-22t152.5-64 128.5-99.5 98.5-128.5 64-152 23-168-23-168.5-64-152.5-98.5-128.5-128.5-98.5-151.5-64-169.5-23q-88 0-168.5 23t-151.5 64-128.5 98.5-99 128.5-64 152.5-22.5 168.5zM188 689q0-75 19.5-145t54.5-130.5 85.5-110.5 111.5-86 130.5-55.5 144.5-19.5 145 19.5 130.5 55.5 110.5 86 86.5 110.5 56 130.5 19.5 145-19.5 145-56 131-86.5 111-110.5 85.5-130.5 55-145 19.5-144.5-19.5-130.5-55-111.5-85.5-85.5-111-54.5-131-19.5-145zM509 331v717h283q20 0 38-1.5t37.5-5.5 39-11.5 38.5-21.5q17-11 30-28t22-37 14.5-42.5 4.5-44.5q0-47-16.5-82.5t-45-60-66-37-76.5-16.5l193-329h-88l-186 332h-147v-332h-75zM584 723h144q36 0 74 1.5t69 14 51 40.5q20 27 20 80 0 42-14.5 68.5t-38.5 39.5-55 16.5-63 3.5h-187v-264z" horiz-adv-x="1469" unicode="&#xae;"/><glyph d="M190 278v120l208 202-208 203v117l274-268v-109zM556 278v120l210 202-210 203v117l272-268v-109z" horiz-adv-x="1016" unicode="&#xbb;"/><glyph d="M86 1195v75q47 3 83.5 10t64 23 45.5 44q18 29 31 74h74v-825h-96v647q-20-14-44-24t-50-14.5-53-7-55-2.5zM296 0l863 1421h93l-857-1421h-99zM862 200v89l345 534h94v-553h74v-70h-74v-200h-92v200h-347zM937 270h272v433z" horiz-adv-x="1451" unicode="&#xbc;"/><glyph d="M86 1195v75q47 3 83.5 10t64 23 45.5 44q18 29 31 74h74v-825h-96v647q-20-14-44-24t-50-14.5-53-7-55-2.5zM195 0l861 1421h95l-858-1421h-98zM877 0q3 42 9 81t20 75 37.5 69.5 58.5 63.5l154 128q92 75 91 183 0 31-5 57.5t-19.5 44.5-39 29-64.5 11q-42 0-69-16.5t-41.5-42.5-21-58.5-6.5-65.5h-96v41q0 49 17.5 90t48 70.5 74 46 94.5 16.5q58 0 102-16.5t73-46 43.5-71 14.5-89.5q0-43-10-78.5t-29.5-66-47.5-58-61-54.5l-134-104q-19-17-33-37.5t-25-41.5-17-43q-8-22-11-42h377v-75h-484z" horiz-adv-x="1451" unicode="&#xbd;"/><glyph d="M54 823h88q-3-33 5.5-64t27-54.5 48.5-36.5 73-13q71 0 110 41t39 116q0 47-11 80.5t-35 53-63 28.5-94 9v82h25q28-2 55 1.5t48 19 33 43.5q13 27 13 78 0 31-6.5 57t-21.5 44-37.5 28.5-54.5 10.5q-39 0-65.5-12.5t-41.5-34-22-48.5q-9-27-9-57h-90q0 48 13.5 89.5t41 71.5 70.5 47.5 103 17.5q49 0 90-15t70-40.5 45-62.5 16-81q0-29-7-60t-25-58-47-47-71-30q44-8 77-27.5t55-47.5 33-61 11-68q0-53-14.5-96t-45-75-77.5-50-113-18q-64 0-109 18t-74 50-42.5 75.5-13.5 95.5zM322 0l862 1421h95l-858-1421h-99zM888 200v89l345 534h93v-553h75v-70h-75v-200h-90v200h-348zM962 270h274v433z" horiz-adv-x="1451" unicode="&#xbe;"/><glyph d="M131 92l336 372-336 381 75 67 326-371 330 371 72-70-336-378 336-372-78-75-324 369-326-367z" horiz-adv-x="1064" unicode="&#xd7;"/><glyph d="M106 442v99h809v-99h-809zM421 108q0 18 6.5 34t17.5 27.5 26 18.5 32 7q18 0 34-7t27-18.5 18-27.5 7-34q0-36-24-59-26-24-62-24t-59 23.5-23 59.5zM421 867.5q0 36.5 23 61.5t59 25q18 0 34-7t27-18.5 18-26.5 7-35q0-18-7-32.5t-18-25.5-26-17.5-35-6.5q-36 0-59 23t-23 59.5z" horiz-adv-x="1016" unicode="&#xf7;"/><glyph d="M86 1005q34 64 79 109t101 74.5 122.5 42.5 138.5 13q75 0 148-18.5t128.5-57 90.5-96 35-135.5v-937h-120v931q0 45-19.5 85t-55.5 71-89 49-118 18q-54 0-103-12.5t-89-35-70.5-53-50.5-66.5q11-10 19.5-26t15.5-35.5 11-41.5 4-44v-840h-119v848q0 53-12.5 95.5t-46.5 61.5z" horiz-adv-x="1073" unicode="&#xe01;"/><glyph d="M63 1138v91h233l193-1140h3l192 1140h119l-219-1229h-189l-205 1138h-127z" horiz-adv-x="924" unicode="&#xe02;"/><glyph d="M54 1229h91q2-22 11-41.5t25-33.5 39-22q22-7 52-7 28 0 52.5 8t43 22.5 31 34 19.5 39.5h106v-167q0-63-34-122t-92-117q-25-28-43.5-51t-31-47-19.5-52-8-61v-298q0-57 19-100.5t49.5-73 69.5-43.5 78-14q44 0 83 14t69.5 42 47.5 72q16 45 16 103v915h117v-922q0-78-29-138.5t-76.5-102-107-62.5-121-21-121 21-107.5 62.5-77 102-29 138.5v255q0 38 1 67.5t5.5 53 12 44.5 20 40.5 30.5 39.5q18 19 42 44 25 25 48 50t41 51.5 28.5 56 10.5 67.5v28q-18-20-39-31t-42-18-43-10-42-3q-12 0-31 3t-40 10-43 19.5-38.5 33.5-29 51.5-14.5 69.5z" horiz-adv-x="989" unicode="&#xe03;"/><glyph d="M145 0v926q0 78 30.5 136t83 99 125 62 157.5 21q83 0 156-21t126-62 83-100q31-57 31-135v-926h-117v923q0 44-15 84.5t-48 73-86.5 53-129.5 20.5q-78 0-131-17t-85.5-47.5-46.5-73.5-14-93v-414q29 58 65.5 97.5t78.5 62.5 93 31q49 8 108 3v-108q-79 11-142.5-7.5t-108.5-61-69.5-106.5-24.5-145v-275h-119z" horiz-adv-x="1081" unicode="&#xe04;"/><glyph d="M145 0v940q0 61 18 112.5t52.5 90.5 84.5 65 113 36l137-157 131 160q64-10 115-36.5t86-65.5 54.5-91.5 19.5-113.5v-940h-119v937q0 36-5.5 64.5t-20.5 53-37.5 44-59.5 34.5l-161-177-169 177q-34-17-57-37t-36.5-45-20-53-6.5-61v-428q29 58 65.5 97.5t78.5 62.5 93 31q49 8 108 3v-108q-79 11-142.5-7.5t-108.5-61-69.5-106.5-24.5-145v-275h-119z" horiz-adv-x="1100" unicode="&#xe05;"/><glyph d="M71 1229h90q3-22 12.5-41.5t25-33.5 39-21.5 53.5-7.5q27 0 51 8t42.5 22.5 31.5 34.5q15 19 20 39h105v-167q0-67-34-124.5t-91-114.5q-25-28-44-51t-31.5-47-19.5-52-7-61v-185q0-28 3-57t8.5-57.5 16.5-54.5q11-24 25-47 43-62 106.5-96t132.5-34q61 0 102 17t66 48 35.5 73 10.5 91v919h117v-933q0-75-22.5-132.5t-60.5-96.5-91.5-58.5-116.5-19.5q-52 0-97.5 7t-86.5 26.5-79 54-76 88.5v-165h-112v562q0 58 3.5 96t15 69.5 33 59.5 57.5 64q25 25 49 50t41 51.5 28.5 56 11.5 67.5v28q-18-20-39-31t-42.5-18-43.5-10q-23-3-42-3-14 0-32 3t-39 10-42.5 19.5-39 33.5-30 51.5-13.5 69.5z" horiz-adv-x="1081" unicode="&#xe06;"/><glyph d="M97 701h120l185-545q12-34 37-56t64-22q20 0 38.5 7.5t32 21.5 21.5 32.5 8 39.5v959h-142v91h262v-1021q0-50-17-91.5t-46-72-69.5-47-90.5-16.5q-41 0-74.5 10t-60.5 30.5-46 48-31 61.5z" horiz-adv-x="867" unicode="&#xe07;"/><glyph d="M108 906q5 73 30.5 134t73 107 115.5 71.5 157 25.5q44 0 88.5-7.5t86.5-27 76.5-51 58-79.5 34-111.5 3.5-150.5q-5-61-17.5-127.5t-31-136-40.5-142-46.5-142.5-48.5-138-47-131h-166l-184 612h-128v89h212l183-623q28 86 57 173.5t55 176.5 46 176.5 31 172.5q11 81 7 149.5t-30 117.5-75 76.5-127 27.5q-110 0-172-61t-73-181h-128z" horiz-adv-x="945" unicode="&#xe08;"/><glyph d="M128 962q5 71 41.5 124.5t90 89 121 53.5 136.5 18q74 0 143.5-17.5t123-53.5 86-94.5 32.5-139.5v-942h-110v185q-39-54-80.5-93t-86-62.5-90.5-35-96-11.5q-64 0-117.5 19.5t-93 58.5-61.5 96.5-22 133.5v410h119v-391q0-56 11-99t36-71.5 65.5-42.5 101.5-14q38 0 75.5 12.5t71.5 33.5 61 46q26 25 42 50 31 47 44 100t13 117v500q0 100-68 156-69 56-200 56-56 0-101.5-14t-79.5-39-56.5-60-32.5-79h-119z" horiz-adv-x="1046" unicode="&#xe09;"/><glyph d="M86 1133v87q61 12 105 15 43 3 65 3 92 0 142-48.5t50-135.5q0-42-12.5-74t-31-60-40.5-53-39-52q-16-24-24.5-46.5t-12.5-46.5-5-54.5-1-69.5v-270q0-60 17-106.5t46-78.5 68.5-48.5 87-16.5 89 16 70.5 47 46 78.5 17 108.5v267q0 53-7 87.5t-21 58-32.5 36.5-43 18.5-52.5 6.5-61 4v88q64 3 107.5 24.5t70 64.5 38.5 104 12 142h131q0-41-4.5-82t-15-79.5-27.5-74-45-64-65.5-48-90.5-28.5q49-5 85-20.5t61-37.5 41-48 24.5-53 11-52 2.5-44v-305q0-53-13.5-95t-37.5-77-57-60-70.5-41.5-79.5-25-84-8.5q-61 0-122 19t-108.5 57-78 95.5-30.5 135.5v305q0 58 4.5 97.5t14 70 27.5 57 46 60.5q19 19 36 39t30 40.5 21 40.5 8 42q0 31-8.5 50.5t-24 32-37 18-47.5 5.5q-43 0-80-5.5t-65-12.5z" horiz-adv-x="986" unicode="&#xe0a;"/><glyph d="M65 1229h91q2-22 11.5-41.5t25-33.5 39.5-21.5 53-7.5q28 0 51.5 8t42.5 22.5 31.5 34 19.5 39.5h105v-175q0-63-29-118t-88-113q-25-28-39.5-51t-22.5-47-13-52q-4-28-4-61v-284q0-60 17-106.5t46-78.5 69.5-48.5 87.5-16.5 87.5 16 70 47 46.5 78.5 17 108.5v267q0 53-8 87.5t-20.5 58-31.5 36.5-43 18.5-53 6.5-60 4v88q64 3 107 24.5t69.5 64.5 38 104 13.5 142h131q0-41-5.5-82t-15.5-79.5-28-74-45-64-65-48-88-28.5q48-5 83.5-20.5t60.5-37.5 40.5-48 23.5-53 11.5-52 3.5-44v-305q0-53-13.5-95t-38-77-57-60-71-41.5-79.5-25.5q-40-8-81.5-8t-83 8.5-78.5 25-69.5 41.5-56.5 60-37.5 78-13.5 94v269q0 58 2.5 98.5t11 72 26.5 59.5 47 59q25 26 46.5 51t38.5 51 26 55.5 9 67.5v28q-18-20-38.5-31t-42-18-42.5-10q-23-3-43-3-14 0-32 3t-38.5 10-42.5 19.5-39 33.5-29.5 51.5-14.5 69.5z" horiz-adv-x="1043" unicode="&#xe0b;"/><glyph d="M86 1005q34 61 79.5 106t101 74.5 119.5 44 131 14.5q79 0 151.5-20t126.5-59.5 87-96.5 33-131v-489q0-37 2.5-64.5t9.5-52.5 15.5-46 19.5-43 34-50 53.5-51.5 66-39 68.5-15.5q54 0 91 15.5t59.5 45.5 31.5 73.5 9 99.5v909h119v-927q0-75-20-133t-56-97-83.5-58.5-101.5-19.5q-42 0-84.5 10.5t-84 33.5-82 59-76.5 88v-185h-111v937q0 46-20 85.5t-57 68.5-88 46q-52 17-113 17-50 0-96.5-12.5t-87-35-71.5-53-51-66.5q11-10 21-26t17-35.5 11-41.5 4-44v-745h131v-95h-250v848q0 51-15 94-13 42-44 63z" horiz-adv-x="1638" unicode="&#xe0c;"/><glyph d="M86 1008q34 64 79.5 109t102 74 121 42.5 132.5 13.5q79 0 151-20t126-58.5 86.5-96 32.5-132.5v-598q0-56 12.5-103t37.5-81 64-53 91-19q58 0 107.5 26.5t85.5 69.5 57 97.5 21 109.5v844h117v-1150q0-101-19.5-186.5t-64-148-117-97.5-176.5-35q-60 0-114 14t-98.5 44-76.5 75-43 106h108q8-38 32-66t54.5-46 65-27 69.5-9q75 0 127 25.5t83 66 44.5 92 13.5 101.5v176q-36-54-71.5-88t-72-53-76.5-26q-41-7-83-7-53 0-105.5 17.5t-95.5 53.5-69.5 91-26.5 132v649q0 47-20 87.5t-57 69.5-87 45.5-113 16.5q-50 0-97-12.5t-87.5-34.5-71.5-52.5-51-66.5q11-11 19.5-28t15.5-36.5 11-41.5 4-42v-745h131v-97h-250v851q0 53-12.5 95t-46.5 62z" horiz-adv-x="1654" unicode="&#xe0d;"/><glyph d="M39 0v97h117v754q0 55-15.5 97t-51.5 60q33 64 80.5 109t107 74 127 42.5 139.5 13.5q76 0 149.5-21.5t132.5-63.5 95-101.5 36-137.5v-1321h-128q-18 23-41 45t-52.5 41-69 30.5-90.5 11.5q-36 0-70.5-11t-67.5-29-62.5-41.5-57.5-50.5v132q24 20 51 38.5t59 34.5 69 26q38 10 79 10 51 0 91-10t72-23.5 57-30.5 42-31v1179q0 50-22.5 91.5t-62.5 73.5-93 50-116 18q-55 0-106-12.5t-93-34.5-75-52.5-49-66.5q9-11 18-28t17.5-36.5 12.5-41.5 4-42v-842h-233z" horiz-adv-x="1100" unicode="&#xe0e;"/><glyph d="M39 0v97h117v754q0 55-15.5 97t-51.5 60q33 64 80.5 109t107 74 127 42.5 139.5 13.5q76 0 149.5-21.5t132.5-63.5 95-101.5 36-137.5v-1321h-122q-8 27-23.5 50t-35 40-43 27.5-51.5 10.5q-26 0-50.5-13t-42.5-32-31-42q-12-21-16-41h-93q-5 17-15 39.5t-27.5 42-42 33-56.5 13.5q-28 0-51.5-11.5t-41-30.5-27.5-41-13-45h-106q3 49 22.5 90t50.5 71 70 46.5 85 16.5q29 0 57.5-6t54.5-20 49-37q21-23 38-56 17 33 37.5 56t44 38.5 47.5 21.5 49 6q47 0 88.5-16t75.5-55v1162q0 47-21 89.5t-60 75.5-93 52-120 19q-55 0-106-12.5t-93-34.5-75-52.5-49-66.5q9-11 18-28t17.5-36.5 12.5-41.5 4-42v-842h-233z" horiz-adv-x="1100" unicode="&#xe0f;"/><glyph d="M100-375q0 50 15.5 86t39.5 59.5 55 35.5q29 12 60 12 44 0 86-21.5t62-57.5q10 19 25.5 33.5t34 25 39.5 15.5q22 5 42 5 41 0 73-17.5t57-45.5v100h96v-230h-101q-6 19-15.5 38t-25 33.5-33.5 23-40 8.5-43-9.5-37-24-26.5-32.5-13.5-37h-66q-3 19-10.5 38.5t-21 33.5-31 23.5-39.5 9.5q-25 0-41.5-9.5t-27-25-14.5-33.5-4-37h-95zM108 906q5 73 30.5 134t73 107 115.5 71.5 157 25.5q50 0 98.5-9t93.5-34q30 6 53 17.5t39 26 25.5 30 15.5 32.5h136q-4-23-18.5-45t-40.5-43-62.5-37.5-86.5-27.5q25-24 44.5-56.5t32.5-74.5 18-93.5-.5-112.5-18-127.5-31-136-40.5-142-46.5-142.5-48.5-138-47-131h-166l-189 623h-123v78h212l183-623q28 86 57 173.5t55 176.5 46 176.5 31 172.5q11 81 7 149.5t-30 117.5-75 76.5-127 27.5q-110 0-172-61t-73-181h-128z" horiz-adv-x="936" unicode="&#xe10;"/><glyph d="M65 1229h91q2-22 11.5-41.5t25-33.5 39.5-21.5 53-7.5q28 0 51.5 8t42.5 22.5 31.5 34 19.5 39.5h105v-170q46 49 86.5 84.5t79 58.5 75 34 75.5 11q32 0 56-9t41-31.5 25-59 8-91.5v-1056h-119v1048q0 17-1 33.5t-5.5 32-16 25-27.5 9.5q-28 0-67-27.5t-83.5-71-89.5-98-84.5-109.5-71-105-46.5-85q-17-33-24.5-63t-11-55-3.5-46v-40-448h-117v413 55t1.5 52 7 50 16.5 47q10 22 24 50t30.5 58.5 34.5 62.5 36 63q20 36 33.5 66.5t21.5 59.5 9.5 59-1.5 68q-18-20-38.5-31t-42-18-42.5-10q-23-3-43-3-14 0-32 3t-38.5 10-42.5 19.5-39 33.5-29.5 51.5-14.5 69.5z" horiz-adv-x="1127" unicode="&#xe11;"/><glyph d="M145 0v926q0 61 20.5 111.5t57.5 90.5 88 65q50 25 113 36l143-153 136 157q64-10 117-36.5t90-65 57-91.5 20-114v-478q0-37 4-64.5t10.5-52.5 15.5-46 20-43 33.5-50 53-51.5 65-39 69.5-15.5q54 0 91.5 15.5t60 45.5 32 73.5 9.5 99.5v909h117v-927q0-75-20-133t-55.5-97-83.5-58.5-102-19.5q-42 0-84.5 10.5t-84 33.5-81.5 59-78 88v-185h-112v923q0 75-34 122-35 48-99 74l-167-177-169 177q-34-14-59-32t-41.5-41.5-25-53.5-8.5-66v-779l314 467h-157v87h257v-101l-406-600h-127z" horiz-adv-x="1713" unicode="&#xe12;"/><glyph d="M89 1005q33 61 79 106t101.5 73.5 119.5 42.5 132 14q79 0 151-20t126-60.5 87-99.5q32-57 32-135v-609q0-53 8.5-96t29.5-73.5 55.5-46 87.5-15.5q33 0 69.5 14.5t67 37.5 55.5 51 36 53q22 43 36.5 93.5t14.5 117.5v776h120v-1229h-113v195q-36-53-76-92t-82-62.5-83.5-35-83.5-11.5q-55 0-103 19.5t-83.5 58-55 96-19.5 134.5v618q0 56-20 99t-57 72-87 44.5-113 15.5q-50 0-97-12.5t-87.5-35-71.5-53-51-66.5q11-10 19.5-26t15.5-35 11-41.5 4-44.5v-742h131v-95h-250v845q0 25-3 50t-10 46-17 38q-9 16-26 26z" horiz-adv-x="1641" unicode="&#xe13;"/><glyph d="M145 0v912q0 78 31.5 139t87.5 104 131 66 161 23 161-23 132-66 89-105q32-60 32-138v-912h-119v906q0 53-17 97.5t-53 78-91.5 53-133.5 19.5-133-19.5-90.5-52.5-52-78-16.5-98v-759l314 467h-157v87h257v-101l-406-600h-127z" horiz-adv-x="1116" unicode="&#xe14;"/><glyph d="M145 0v937q0 61 20.5 112.5t57.5 90.5 87.5 65.5 113.5 35.5l143-154 136 157q64-10 117-36t90-65 57-92 20-114v-937h-120v920q0 38-5.5 69t-20.5 57.5-40 48-64 38.5l-170-177q-3 0-3-1t3-1l-3 2-162 177q-73-32-105-86-33-52-33-127v-773l314 467h-157v87h257v-101l-406-600h-127z" horiz-adv-x="1132" unicode="&#xe15;"/><glyph d="M86 1005q34 64 79 109t101 74.5 121.5 42.5 139.5 13q75 0 148-18.5t128.5-57 90.5-96 35-135.5v-937h-120v931q0 45-19.5 85t-55.5 71-89 49-118 18q-54 0-103-12.5t-89-35-70.5-53-50.5-66.5q11-10 19.5-26t15.5-35.5 11-41.5 4-44v-745h131v-95h-250v848q0 53-12.5 95.5t-46.5 61.5z" horiz-adv-x="1073" unicode="&#xe16;"/><glyph d="M145 0v1229h116v-195q70 106 161.5 158t200.5 52q64 0 119.5-18.5t97-57.5 65.5-97 24-134v-937h-120v929q0 52-13 94t-40.5 71-70.5 44.5-104 15.5q-65 0-123-30t-101-79.5-68-113.5-25-130v-801h-119z" horiz-adv-x="1073" unicode="&#xe17;"/><glyph d="M139 978.5q0 58.5 24.5 108t69.5 86 108 57 143 20.5q86 0 154-17.5t116.5-54.5 76.5-93 31-131h-120q-5 95-66.5 148.5t-177.5 53.5q-56 0-99-13.5t-73.5-36-47.5-53-17-63.5q0-45 20.5-75.5t52.5-52.5 71.5-39 78.5-31q100-36 175-68t123.5-69.5 73-87.5 24.5-122v-157q0-78-31.5-134.5t-83-94-118-55.5-135.5-18q-70 0-135.5 19.5t-117 58.5-83 98.5-31.5 141.5v283h119v-270q0-56 16.5-100.5t48-75 78-45.5 105.5-15q120 0 185.5 63.5t65.5 186.5v111q0 39-13 69t-35.5 53-51.5 41-62.5 32-68.5 25q-34 14-68 25-69 25-129 51t-103 59.5-68 78-25 103z" horiz-adv-x="1024" unicode="&#xe18;"/><glyph d="M145 293v936h119v-927q0-53 12.5-95.5t40.5-71 71-43 104-14.5q42 0 81 14t73.5 39 64.5 59.5 51.5 73.5 33.5 81.5 12 84.5v799h119l2-1229h-117l-2 197q-69-105-160-158t-201-53q-64 0-119.5 19.5t-96.5 57.5-64.5 96-23.5 134z" horiz-adv-x="1073" unicode="&#xe19;"/><glyph d="M145 328v901h119v-898q0-56 21-102t57-77.5 86-48.5 110-17 110 17 85.5 48.5 55.5 77.5 20 102v898h120v-901q0-81-33-143.5t-87-106-125-66.5-146-23q-78 0-148 23t-124.5 66.5-87.5 106-33 143.5z" horiz-adv-x="1073" unicode="&#xe1a;"/><glyph d="M145 328v901h119v-898q0-56 21-102t57-77.5 86-48.5 110-17 110 17 85.5 48.5 55.5 77.5 20 102v1354h120v-1357q0-81-33-143.5t-87-106-125-66.5-146-23q-78 0-148 23t-124.5 66.5-87.5 106-33 143.5z" horiz-adv-x="1073" unicode="&#xe1b;"/><glyph d="M145 256v973h250v-91h-131v-879q0-51 7.5-84t22.5-54 35.5-29.5 48.5-8.5q39 0 67 21t44.5 58 24 86 7.5 108v347h120v-347q0-59 9-108t27.5-86 47-58 67.5-21q23 0 41 8.5t31.5 29.5 21.5 55q8 32 8 83v970h122v-973q0-73-14-124t-41-83-68.5-47.5-97.5-15.5q-72 0-127.5 44.5t-86.5 137.5q-11-47-33.5-81t-49.5-56.5-58-33.5-65-11q-59 0-103 15.5t-72 48.5-42 84q-13 49-13 122z" horiz-adv-x="1160" unicode="&#xe1c;"/><glyph d="M145 256v973h250v-91h-131v-879q0-51 7.5-84t22.5-54 35.5-29.5 48.5-8.5q39 0 67 21t44.5 58 24 86 7.5 108v347h120v-347q0-59 9-108t27.5-86 47-58 67.5-21q23 0 41 8.5t31.5 29.5 21.5 55q8 32 8 83v1423h122v-1426q0-73-14-124t-41-83-68.5-47.5-97.5-15.5q-72 0-127.5 44.5t-86.5 137.5q-11-47-33.5-81t-49.5-56.5-58-33.5-65-11q-59 0-103 15.5t-72 48.5-42 84q-13 49-13 122z" horiz-adv-x="1160" unicode="&#xe1d;"/><glyph d="M106 1229h130l120-795 46-317 54 310 153 802h133l157-802 55-307 45 314 120 795h128q-25-156-52-309t-53.5-306-53-305.5-51.5-308.5h-152q-44 232-86.5 462t-86.5 464l-34 199-34-199-177-926h-147z" horiz-adv-x="1352" unicode="&#xe1e;"/><glyph d="M106 1229h130l120-795 46-317 54 310 153 802h133l157-802 55-307 45 314 194 1251h127q-13-78-28.5-174.5t-34.5-206-39-227-40-236-40-236-38.5-226.5-35-205-27.5-174h-152q-44 232-86.5 462t-86.5 464l-34 199-34-199-177-926h-147z" horiz-adv-x="1349" unicode="&#xe1f;"/><glyph d="M39 0v92h117v756q0 51-14 93.5t-45 63.5q34 61 78.5 106t99 74.5 119.5 44 136 14.5q75 0 146.5-19.5t127-59.5 89-102 33.5-146v-917h-120v912q0 118-71.5 180t-204.5 62q-55 0-102-12.5t-86.5-35-69-53-47.5-66.5q11-10 19.5-26t15.5-35.5 9.5-41.5 2.5-44v-840h-233z" horiz-adv-x="1070" unicode="&#xe20;"/><glyph d="M145 0v1229h119v-799q0-48 15.5-98t42.5-93q23-36 54-65t67.5-51 75-33.5 76.5-11.5q56 0 96 15t66.5 44.5 39 71 12.5 93.5v927h120v-936q0-78-25.5-135t-67.5-95-101-57.5-129-19.5q-108 0-194.5 53t-150.5 158v-197h-116z" horiz-adv-x="1073" unicode="&#xe21;"/><glyph d="M117 336q0 31 2.5 63t11 64 25 64 44 59.5 67.5 50 97 39.5q-80 22-129 54.5t-74 72-33 81.5-8 81q0 52 13.5 92.5t37.5 69.5 55 48.5 65 32 69 17 67 4.5h105v-93h-84q-17 0-38-2.5t-44.5-8-46-16.5-40.5-30.5-29-48-11-68.5q0-67 21.5-112t55.5-72 77-39.5 85-15.5h54v-92h-54q-29 0-58-5t-56.5-18-50-34.5-40-54.5-27.5-77-10-102.5 16-108 50-84 88-54.5q52-19 127-19 72 0 123.5 20t83.5 56 46.5 85 14.5 104v890h117v-901q0-78-25-142t-74.5-109-120-69.5-165.5-24.5q-87 0-160 21.5t-126.5 65.5-83.5 110.5-30 155.5z" horiz-adv-x="1046" unicode="&#xe22;"/><glyph d="M81 331h101q3-56 19-102t45-77.5 72-50 100-18.5q53 0 95.5 17t72.5 47.5 46 77 16 106.5q0 58-19.5 98.5t-55.5 69.5-87 51q-52 23-113.5 50.5t-109.5 54.5-82 64-52 88.5-18 123.5q0 75 21.5 135t61.5 100.5 94 61.5q54 22 121 22 144 0 226-78.5t89-240.5h-110q0 56-15 97.5t-42 69.5-65.5 42-85.5 14q-42 0-75.5-14.5t-57-43-36-68.5-12.5-90q0-58 18-96.5t48.5-66 75-47 97.5-41.5q61-28 115.5-56t95.5-65.5 64.5-90 23.5-127.5q0-87-23-155t-67.5-115-108.5-72-146-25q-72 0-134 20t-107 63-70.5 109-25.5 158z" horiz-adv-x="870" unicode="&#xe23;"/><glyph d="M86 1005q34 64 79 109t101 74.5 121.5 42.5 139.5 13q75 0 148-18.5t128.5-57 90.5-96 35-135.5v-1335h-120v1329q0 45-19.5 85t-55.5 71-89 49-118 18q-54 0-103-12.5t-89-35-70.5-53-50.5-66.5q11-10 19.5-26t15.5-35.5 11-41.5 4-44v-745h131v-95h-250v848q0 53-12.5 95.5t-46.5 61.5z" horiz-adv-x="1073" unicode="&#xe24;"/><glyph d="M100 317q0 92 32 158.5t87 114 125 76.5 146.5 45 153 19.5 141.5.5v192q0 61-19.5 104t-54.5 71-84 42-110 14q-62 0-109-17t-80-46-51-72-24-96h-122q5 83 38.5 144.5t87 100.5 124.5 57.5 154 18.5q99 0 168.5-27t114-71.5 64.5-101.5 20-118v-926h-117v634q-54 3-116.5 0t-125.5-14-121.5-34-104-60-71.5-88.5-26-120.5q0-50 16-92t47-72.5 75-46.5q45-17 101-17 14 0 28.5 3t30.5 5v-90q-22-10-46-12.5t-45-2.5q-85 0-147 24t-102 68-59 103.5-19 129.5z" horiz-adv-x="1046" unicode="&#xe25;"/><glyph d="M39 0v92h117v756q0 51-14 93.5t-45 63.5q34 61 78.5 106t99 74.5 119.5 44 136 14.5q75 0 146.5-19.5t127-59.5 89-102 33.5-146v-1315h-120v1310q0 118-71.5 180t-204.5 62q-55 0-102-12.5t-86.5-35-69-53-47.5-66.5q11-10 19.5-26t15.5-35.5 9.5-41.5 2.5-44v-840h-233z" horiz-adv-x="1070" unicode="&#xe26;"/><glyph d="M92 842q3 81 25 154.5t65 129.5 107 88.5 147 32.5q81 0 149-31.5t117-104.5 76.5-196 27.5-306q0-64-6-135t-21.5-142-42-134-66.5-111.5-96.5-77-131.5-28.5-131.5 22-96 62.5-64.5 93.5q-25 52-36 113h128q8-38 23.5-73.5t40.5-63.5 58.5-44.5 77.5-16.5q47 0 82 20t61.5 54.5 43 85 27.5 110 15.5 126.5 4.5 139q0 53-1.5 114t-8.5 121-22.5 116-42.5 98.5-67 68.5q-39 27-98 27-61 0-104.5-29.5t-70.5-74.5-38.5-100-11.5-108h-119z" horiz-adv-x="924" unicode="&#xe27;"/><glyph d="M145 0v926q0 78 30.5 136t83 99 125 62 157.5 21q58 0 110-10.5t97-29.5q36 3 64.5 15.5t48.5 30.5 31.5 38.5 16.5 37.5h133q-4-24-18.5-48t-41.5-47.5-66.5-42-92.5-26.5q53-42 83.5-100t30.5-136v-926h-117v923q0 44-15 84.5t-48 73-86.5 53-129.5 20.5q-78 0-131-17t-85.5-47.5-46.5-73.5-14-93v-414q29 58 65.5 97.5t78.5 62.5 93 31q49 8 108 3v-108q-79 11-142.5-7.5t-108.5-61-69.5-106.5-24.5-145v-275h-119z" horiz-adv-x="1084" unicode="&#xe28;"/><glyph d="M145 328v901h119v-898q0-56 21-102t57-77.5 86-48.5 110-17 110 17 85.5 48.5 55.5 77.5 20 102v278h-328v200h111v-111h217v531h120v-531h111v-89h-111v-281q0-81-33-143.5t-87-106-125-66.5-146-23q-78 0-148 23t-124.5 66.5-87.5 106-33 143.5z" horiz-adv-x="1073" unicode="&#xe29;"/><glyph d="M100 317q0 92 32 158.5t87 114 125 76.5 146.5 45 153 19.5 141.5.5v192q0 61-19.5 104t-54.5 71-84 42-110 14q-64 0-110.5-17t-79-46-50.5-72-24-96h-122q5 83 38.5 144.5t86.5 100.5 123.5 57.5 154.5 18.5q62 0 111.5-12t85.5-28q36 3 62.5 16t45.5 30.5 30.5 38 14.5 37.5h135q-4-24-19.5-48t-42-47.5-66.5-42-95-26.5q34-28 54-58.5t32-61.5 16-61 4-55v-926h-117v634q-54 3-116.5 0t-125.5-14-121.5-34-104-60-71.5-88.5-26-120.5q0-50 16-92t47-72.5 75-46.5q45-17 101-17 14 0 28.5 3t30.5 5v-90q-22-10-46-12.5t-45-2.5q-85 0-147 24t-102 68-59 103.5-19 129.5z" horiz-adv-x="1046" unicode="&#xe2a;"/><glyph d="M147 0v1229h120v-534l528 534h128l-222-224q68-28 112.5-67.5t70-90.5 36.5-111 11-130v-606h-119v628q0 50-12 97.5t-35 87.5-57.5 71-81.5 47l-359-364v-567h-120z" horiz-adv-x="1084" unicode="&#xe2b;"/><glyph d="M108 1229h123l125-1132h5l203 908h120l201-908h6l103 748q4 31 7 64t2 63-7 57-22 48-43 34q-27 14-66 16l-9 74q53 3 100.5 18t82 40 55.5 60 25 79h139q-8-50-29.5-90t-57-70-83.5-50-104-29q56-16 86.5-47t41.5-68.5 9.5-77.5-5.5-78l-143-888h-161l-186 865h-6l-184-865h-164z" horiz-adv-x="1292" unicode="&#xe2c;"/><glyph d="M133 663v38h351v-92h-220q0-117 14.5-215.5t46-170 84-112 132.5-40.5q82 0 136 39.5t86 112.5 44.5 175 12.5 228q0 140-16 239.5t-50 162.5-87 93-126 30q-48 0-87.5-13t-71.5-41-55-72-36-105h-133q37 159 132.5 241.5t250.5 82.5q105 0 182.5-39t128-114.5 75-187.5 24.5-258q0-186-29.5-314t-82-206.5-129-112.5-169.5-34q-61 0-114.5 14t-99.5 46.5-81.5 85.5-60 128.5-38.5 177.5-14 233z" horiz-adv-x="1086" unicode="&#xe2d;"/><glyph d="M133 663v38h351v-92h-220q0-117 14.5-215.5t46-170 84-112 132.5-40.5q82 0 136 39.5t86 110.5 44.5 168 12.5 214q0 149-16.5 252.5t-51.5 169-87.5 96-123.5 30.5q-48 0-87.5-13t-71.5-41-55-72-36-105h-133q37 159 132.5 241.5t250.5 82.5q61 0 110.5-14t90.5-37q34 2 61 16t45.5 33 30 40.5 15.5 37.5h135q-5-23-21-49t-43.5-49.5-69.5-43-94-27.5q77-72 113.5-196t36.5-292q0-131-12.5-233t-37.5-178.5-61.5-129-81.5-84.5-100-46-117-14q-61 0-114.5 14t-99.5 46.5-81.5 85.5-60 128.5-38.5 177.5-14 233z" horiz-adv-x="1086" unicode="&#xe2e;"/><glyph d="M120 964.5q0 72.5 27.5 123t71.5 82 95.5 45.5 98.5 14h119v-84h-84q-17 0-38-2.5t-44.5-9.5-46-19.5-40.5-32-29-49.5-11-70q0-39 11-78t39-69.5 75-50 120-19.5 129.5 15.5 94.5 46 57.5 79 19.5 113.5v230h117v-1229h-117v777q-27-36-61.5-60.5t-73-39-80.5-21.5-84-7q-91 0-159 23t-114 64-70 99q-23 57-23 129.5z" horiz-adv-x="1046" unicode="&#xe2f;"/><glyph d="M136 208v184h117v-90h297v-94h-414zM136 842v187h117v-92h297v-95h-414z" horiz-adv-x="660" unicode="&#xe30;"/><glyph d="M-628 1432v192h104v-95h570v-97h-674z" unicode="&#xe31;"/><glyph d="M28 959q5 70 35 122.5t76 89 104.5 55 120.5 18.5q64 0 124-18.5t107-57.5 75-100.5 28-141.5v-926h-120v915q0 61-15 105.5t-43 73.5-68.5 44.5-87.5 15.5q-42 0-78-14t-63.5-39-46.5-61q-20-36-26-81h-122z" horiz-adv-x="842" unicode="&#xe32;"/><glyph d="M-392 1589q0 36 12.5 66.5t36 53.5 54 37 64.5 14q36 0 66.5-14t54-37 37-54 13.5-66-13.5-65.5-37-53.5-54-36-66.5-13q-34 0-64.5 13t-54 36-36 53.5-12.5 65.5zM-304 1588.5q0-16.5 6-31t17-25.5 25-16.5 31-5.5 32 5.5 26 16.5 18 26 7 31-7 31-18 26-26 18-32 7-31-7-25-18-17-26-6-31.5zM28 959q5 70 35 122.5t76 89 104.5 55 120.5 18.5q64 0 124-18.5t107-57.5 75-100.5 28-141.5v-926h-120v915q0 61-15 105.5t-43 73.5-68.5 44.5-87.5 15.5q-42 0-78-14t-63.5-39-46.5-61q-20-36-26-81h-122z" horiz-adv-x="842" unicode="&#xe33;"/><glyph d="M-912 1432l50 97h717v-97h-767z" unicode="&#xe34;"/><glyph d="M-912 1432l50 97h612v185h105v-282h-767z" unicode="&#xe35;"/><glyph d="M-912 1432l50 97h473q-9 19-11 33t-2 17q0 31 12 57t33 47 47 33 57 12 57-12 46.5-33 32-47 11.5-57-11.5-57-32-46.5-47.5-31.5q-25-12-56-12h-11-648zM-328 1576q0-14 6-27.5t16.5-23.5 24.5-15q14-6 28-6 15 0 28.5 5.5t23 15.5 16 23.5 6.5 27.5q0 16-6.5 29.5t-16 24-23.5 16-28 5.5-28-5.5-24.5-16-16.5-24-6-29.5z" unicode="&#xe36;"/><glyph d="M-912 1432l50 97h353v185h105v-185h154v185h105v-282h-767z" unicode="&#xe37;"/><glyph d="M-348-149h206v-407h-114v302h-92v105z" unicode="&#xe38;"/><glyph d="M-709-149h206v-185q0-139 122-139t122 139v185h114v-185q-1-44-14-85t-41-72.5-72.5-49.5-108.5-18q-65 0-110.5 18t-73 49.5-40 72.5-12.5 85v92h-92v93z" unicode="&#xe39;"/><glyph d="M-320-261.5q0 19.5 8.5 37.5t21 30.5 29.5 20.5q19 8 38.5 8t36-8 30.5-20.5 21-30.5 7-37.5-7-37-21-30.5-30.5-20-36-7-37.5 7-30.5 20-21 30.5-8.5 37z" unicode="&#xe3a;"/><glyph unicode="&#xe3e;"/><glyph d="M179 0v1421h327v225h92v-225q97 2 166.5-23t113.5-70.5 65-109.5q22-64 24-139 3-57-6.5-106t-37.5-90-78-74-125-58q83-14 138-44.5t88-75 46-100.5 13-120q3-208-98-311.5t-309-99.5v-227h-92v227h-327zM302 97h204v592h-204v-592zM302 792h204v528h-204v-528zM598 97q78 0 130.5 18t86 54.5 48 93.5 14.5 135q0 62-9.5 107t-28.5 77-45.5 53-57 32-66.5 16.5-72 5.5v-592zM598 795q55 6 99.5 22t74.5 45.5 44.5 79 14.5 121.5q-1 63-12 108t-38.5 76.5-72 48-110.5 20.5v-521z" horiz-adv-x="1152" unicode="&#xe3f;"/><glyph d="M156 0v1229h116v-1229h-116z" horiz-adv-x="429" unicode="&#xe40;"/><glyph d="M156 0v1229h116v-1229h-116zM503 0v1229h117v-1229h-117z" horiz-adv-x="777" unicode="&#xe41;"/><glyph d="M31 1632l20 90h511l44-87h-418q36-23 61.5-52.5t41-62.5 22.5-66 7-64v-1298h128v-92h-248v1387q0 53-14 95.5t-36 73.5-53 50q-30 20-66 26z" horiz-adv-x="517" unicode="&#xe42;"/><glyph d="M-46 1504q4 65 29 112.5t64 78.5 90 46.5 105 15.5q50 0 96-12t80.5-35 55.5-58q21-37 21-84 0-31-4.5-53t-15.5-45-31.5-47.5-54.5-56.5q-23-25-36.5-46.5t-21-43.5-9.5-45.5-2-51.5v-1087h128v-92h-248v1159q0 45 5.5 79.5t18 65 30.5 57 45 51.5q17 14 34 32t31.5 37.5 24 39 9.5 39.5q0 26-11.5 47.5t-32 36-50 22.5-62.5 8q-31 0-59.5-8.5t-52.5-28-41-53-24-80.5h-111z" horiz-adv-x="517" unicode="&#xe43;"/><glyph d="M-83 1635l47 87h503l19-90q-36-6-66.5-25.5t-52.5-50.5-34.5-73.5-12.5-95.5v-1295h128v-92h-248v1390q0 31 7 64t23.5 66 43 62.5 62.5 52.5h-419z" horiz-adv-x="517" unicode="&#xe44;"/><glyph d="M28 959q5 70 35 122.5t76 89 104.5 55 120.5 18.5q64 0 124-18.5t107-57.5 75-100.5 28-141.5v-1324h-120v1313q0 61-15 105.5t-43 73.5-68.5 44.5-87.5 15.5q-42 0-78-14t-63.5-39-46.5-61q-20-36-26-81h-122z" horiz-adv-x="842" unicode="&#xe45;"/><glyph d="M95 894q-5 65 4 123.5t38.5 105.5 81 79 129.5 45l119-125 111 128q59-6 99-23.5t68.5-44 45.5-61 26-73.5 11.5-82 2.5-86v-1275h-117v1294q0 34-2.5 74t-15 75.5-36 62-65.5 34.5l-128-134-131 134q-39-15-64-39.5t-38.5-55-18.5-66-4-72.5q0-31 8.5-59.5t26-50 44-35.5 63.5-14v-101q-39 0-82.5 14.5t-80.5 44.5-63.5 75-31.5 108z" horiz-adv-x="975" unicode="&#xe46;"/><glyph d="M-856 1640q0 46 9.5 81t26.5 60 39 41 46.5 25.5 50 13.5 47.5 4h481v-89h-470q-58 0-88.5-36t-30.5-101q0-28 5.5-51t16.5-39.5 28-26.5 39-10q25 0 43 11.5t30.5 30.5 18 47 5.5 61h88q0-30 5.5-57t17.5-48 30-33 45-12 43 12 24.5 33 10.5 48v57h100q3-69-9.5-115t-36-73-55.5-37.5-67-10.5q-30 0-56 10t-46 25-33 35q-14 19-18 41-5-25-18.5-44.5t-33-34.5-44.5-23.5-54-8.5q-48 0-84.5 17t-59.5 44.5-34.5 67-11.5 85.5z" unicode="&#xe47;"/><glyph d="M-247 1853v263h100v-263h-100z" unicode="&#xe48;"/><glyph d="M-612 2038v80h196v-178q64 0 110 12.5t77.5 36.5 49.5 56 23 73h114q-4-51-29.5-97.5t-71.5-82.5-111-58q-64-20-148-23h-107v181h-103z" unicode="&#xe49;"/><glyph d="M-737 1857q0 61 12.5 102t32 65.5 45.5 35 55 10.5q25 0 46-9t36-24.5 26-35 17-40.5q4 20 16 40t28.5 35.5 39.5 24.5q22 9 49 9 25 0 47.5-8t37.5-26 25-47 10-74q22 9 43 25.5t37 40 26.5 51.5 10.5 61h94q-3-39-16.5-77.5t-38.5-70.5-57-56-70-32h-100q-1 18-4 40.5t-11.5 42.5-21 34-34.5 14q-19 0-34.5-12.5t-25-32-14.5-42.5q-6-22-6-44h-64q-2 22-7 44.5t-14 42-22 31.5q-16 13-35 13-25 0-39.5-14t-21.5-35-8.5-43-1.5-39h-88z" unicode="&#xe4a;"/><glyph d="M-418 2013v80h173v150h98v-150h175v-80h-175v-160h-98v160h-173z" unicode="&#xe4b;"/><glyph d="M-345 1699q3 50 27.5 95.5t68 82 105 58.5 138.5 26v-82q-102-5-159-54t-63-126h-117z" unicode="&#xe4c;"/><glyph d="M-392 1589q0 36 12.5 66.5t36 53.5 54 37 64.5 14q36 0 66.5-14t54-37 37-54 13.5-66-13.5-65.5-37-53.5-54-36-66.5-13q-34 0-64.5 13t-54 36-36 53.5-12.5 65.5zM-304 1588.5q0-16.5 6-31t17-25.5 25-16.5 31-5.5 32 5.5 26 16.5 18 26 7 31-7 31-18 26-26 18-32 7-31-7-25-18-17-26-6-31.5z" unicode="&#xe4d;"/><glyph d="M-459 1457q3 40 17 80.5t40.5 73.5 66.5 57.5 96 32.5q5 41 27 75t58.5 59 87.5 41 115 20v-86q-98-4-144-46-47-40-47-129h-5q-53 0-89-14t-58.5-37.5-33.5-55.5-14-71h-117z" unicode="&#xe4e;"/><glyph d="M108 595q0 83 21 159t60 142 93 120 120 93 142 60 159 21q84 0 159.5-21t141.5-60 120.5-93 93.5-120 59.5-142 20.5-159-20.5-159-59.5-142-93.5-120-120.5-93-141.5-60-159.5-21q-83 0-159 21t-142 60-120 93-93 120-60 142-21 159zM231 598q0-64 16.5-125.5t48-113.5 74.5-95 95-74.5 113-48 125-16.5 124.5 16.5 112.5 48 96 74.5 75.5 95 48 113.5 16.5 125.5-16.5 125-48 113-75.5 95-96 74.5-112.5 48-124.5 16.5-125-16.5-113-48-95-74.5-74.5-95-48-113-16.5-125zM398 598q0 64 24 118.5t65 95.5 96.5 65.5 119.5 24.5q63 0 118.5-24.5t96.5-65.5 65.5-95.5 24.5-118.5-24.5-119-65.5-96-96.5-65.5-118.5-24.5q-64 0-119.5 24.5t-96.5 65.5-65 96-24 119zM500 598q0-42 17-79t44-64 64-43.5 78-16.5q42 0 78 16.5t64 43.5 44.5 64 16.5 79q0 41-16.5 78t-44.5 64-64 44-78 17q-41 0-78-17t-64-44-44-64-17-78z" horiz-adv-x="1412" unicode="&#xe4f;"/><glyph d="M117 542q0 129 32 228.5t91.5 168.5 148.5 104.5 203 35.5 203-36.5 149.5-104.5 92.5-166.5 32-223.5q0-109-16.5-192.5t-47.5-146-74-105.5-95.5-70.5-114.5-39-129-11.5q-100 0-187 28t-151 93.5-100.5 172.5-36.5 265zM234 531q0-104 24-188t70-144 113-93q65-32 151-32t153 32.5 113 92.5 70 144.5 24 190.5q0 125-27 212t-75.5 140.5-114.5 76.5q-68 24-143 24t-140.5-23.5-114-78-76-141.5-27.5-213z" horiz-adv-x="1188" unicode="&#xe50;"/><glyph d="M95 136q25 24 45 41.5t42 39.5q26-39 65-66t86.5-44.5 99.5-25.5q53-7 106-7 92 0 163 34t121 99 75 158.5 25 212.5q0 93-20 169t-62.5 130-108.5 83.5-157 29.5q-72 0-130.5-22.5t-100-61.5-63.5-87.5-22-101.5q0-33 5.5-64.5t16.5-60 31-50.5 50-37.5 72-20.5q44-6 100 0v-86q-22-5-44.5-5.5t-41.5-.5q-69 0-128 23.5t-102.5 64-68.5 96-25 122.5q0 101 38 174t102 119 144.5 68 166.5 22q103 0 191.5-28.5t154-88.5 103-155.5 37.5-227.5q0-128-33-237t-98-189-162-124.5-225-44.5q-58 0-118.5 5.5t-119 21-112.5 45.5q-54 28-98 78z" horiz-adv-x="1177" unicode="&#xe51;"/><glyph d="M44 1141l16 97q43-1 78.5-19t60.5-53 38-87.5 13-124.5v-501q0-78 27-145.5t82-116.5 140-77 200-28q113 0 188.5 26.5t121.5 71.5 65.5 105.5 19.5 126.5v348q0 48-12 82.5t-32 60.5-48 42q-26 16-60 24l-139-136-139 129q-27-3-52-17.5t-43.5-39.5-28.5-61-10-82v-128q0-44 2.5-85t14.5-74 37-52.5 69-19.5h35v-93h-54q-53 0-89 16t-61 42.5-40.5 60.5-24 69.5-10.5 69.5-2 59v117q0 67 18 124t52.5 100 84.5 70 114 37l127-125 121 125q64-5 116.5-27.5t91-63 59.5-96 21-125.5v-346q0-111-36-193t-98-135.5-144.5-78.5-177.5-25h-100q-128 0-225 33.5t-164 94.5-101 147-34 191v460q0 55-4 96t-14.5 68-27 42.5-42.5 19.5z" horiz-adv-x="1359" unicode="&#xe52;"/><glyph d="M125 461v128q0 120 21 206t62.5 146 103 93.5 140.5 44.5l148-148 164 150q83-8 143-40.5t99-83.5 58-116 19-140v-701h-121v701q0 61-15.5 109t-42 82-61 52-76.5 21l-167-149-151 149q-31 0-67-17.5t-66-60-49.5-114.5-19.5-181v-128-77.5t4.5-83.5 14-81 27.5-68.5 49-47 75-17.5q17 0 44.5 1.5t51.5 4.5v-98q-14-3-34-4t-41-2.5-42-1.5-35 3q-58 8-99 34.5t-66.5 64-40.5 84.5-21 97-7.5 99-1.5 90z" horiz-adv-x="1207" unicode="&#xe53;"/><glyph d="M114 445v158q0 117 37 202t105 141 164.5 83 213.5 27h130q56 0 93 12t59 35 32.5 55 11.5 71h130q-3-50-19-98t-51.5-87-95-63.5-151.5-24.5h-159q-87 0-157.5-21.5t-119-62.5-75-100.5-26.5-137.5v-181q0-78 19.5-143t62-114 108.5-75 158-26h103q-34 22-62.5 47t-50 55.5-34 68-12.5 82.5q0 13 1.5 34t10 43.5 23.5 46 42 42 67 32 98 16.5v-92q-42-6-68-22.5t-38.5-37.5-17-43-4.5-39q0-31 11-61.5t29.5-55.5 41-47 45.5-37.5 45.5-23.5 37.5-8h238v-95h-534q-88 0-155 19.5t-116 52-82 76.5-52.5 94-28 101.5-8.5 101.5z" horiz-adv-x="1205" unicode="&#xe54;"/><glyph d="M114 445v158q0 92 23.5 168t71 132 116 91 159.5 47q-20 25-28 53.5t-8 46.5q0 36 13 68t35 55 52 37 65 14q36 0 66-14t53-37 36-55 13-68q0-21-5.5-41t-20.5-44q69 0 109 11.5t61.5 34.5 27.5 55.5 7 75.5h130q-3-50-19-99.5t-51.5-89-95-64-151.5-24.5h-159q-87 0-157.5-21.5t-119-62.5-75-99.5-26.5-134.5v-185q0-78 19.5-143t62-114 108.5-75 158-26h103q-34 22-62.5 47t-50 57-34 69.5-12.5 81.5q0 14 1.5 35t10 43 23.5 46 42 42.5 67 32 98 15.5v-94q-42-6-68-22.5t-38.5-37.5-17.5-42q-4-20-4-37 0-31 11-61.5t29.5-57 41-48 45.5-37.5 45.5-24 37.5-8h238v-95h-534q-88 0-155 19.5t-116 52-82 76.5-52.5 94-28 101.5-8.5 101.5zM528 1141q0-19 7-36.5t18-30 26.5-19.5 33.5-7q19 0 36.5 7t29.5 19.5 18 29 6 37.5q0 20-6 37t-18 29.5-28.5 20.5-37.5 8q-17 0-33-8t-27-20.5-18-29.5-7-37z" horiz-adv-x="1207" unicode="&#xe55;"/><glyph d="M79 1104l91 61 119-211q22 15 58.5 35t85 39 108 32 128.5 16q89 3 156-15.5t117-52.5 84.5-81 54.5-103.5 28.5-117.5 8.5-122v-150q0-91-28.5-172t-88-142.5-149.5-97.5-214-36q-96 0-171 26t-128 71-80 103.5-27 124.5q0 67 21 116.5t59 81.5 92.5 48 119.5 16h38v-95h-30q-50 0-84-11t-54.5-32-30-50-9.5-68q0-50 22-93t60.5-73.5 90-49 112.5-18.5q71-1 136 22t113.5 67.5 77 110.5 28.5 151v144q0 98-23 172t-64.5 123.5-101.5 74.5-134 25q-114 0-217.5-40.5t-206.5-120.5z" horiz-adv-x="1224" unicode="&#xe56;"/><glyph d="M145 456v125q0 114 20.5 201.5t62.5 148.5 101.5 97.5 136.5 47.5l126-152 131 149q90-12 149-52t95.5-101 50-144.5 13.5-183.5v-131q0-44-.5-88.5t-7-86-17.5-82-33-79.5q39 27 69.5 62t54 74 39 81 26 82 15.5 77.5 5 68.5v381q0 72 13.5 125t39.5 87.5 61.5 52.5 79.5 20l13-98q-25-4-42.5-19t-27.5-42.5-14-68.5-4-96v-320q0-62-11-126t-32-124.5-53-116-74.5-101.5-96-80-117.5-52l-98 79q36 44 55.5 88t27 90.5 8 97.5.5 109v136q0 96-13 164t-38 112-61 65.5-81 25.5l-125-139-125 142q-33 0-68.5-20t-65-65.5-48-117.5-18.5-175v-123q0-31 1.5-71t7-81 16.5-80 30.5-68.5 48.5-47.5 71-18h13.5 16.5 18t16 2q0-30 1.5-50.5t1.5-43.5q-14-4-33.5-7.5t-41.5-3.5q-64 0-111.5 23t-79.5 61-51.5 86-29.5 99.5-13.5 102-3.5 92.5z" horiz-adv-x="1435" unicode="&#xe57;"/><glyph d="M140 370v233q0 106 28.5 190t84.5 142.5 139 89.5 195 31h233q53 0 86.5 12t53 35 28.5 55q7 32 10 71h128q-3-50-17.5-99t-48-89-88.5-65-141-25h-262q-84 0-142.5-26.5t-95-69.5-52.5-101q-16-59-16-120v-264q0-56 16-104.5t43-83.5 62.5-55 74.5-20l155 146 166-146q43 0 76.5 12t57 39.5 34.5 77.5 11 125q0 31-2.5 65.5t-15 64-36.5 49-65 19.5h-31v90h28q54 0 92-12.5t66-34 44-49.5 25-60.5 12-66.5 3-67q0-92-15.5-160t-51.5-114.5-93-71-139-24.5l-166 147-155-147q-81 7-140.5 39.5t-99.5 84-59.5 117.5-19.5 140z" horiz-adv-x="1213" unicode="&#xe58;"/><glyph d="M143 453v109q0 123 12.5 218.5t46 160.5 91.5 99q57 33 149 33 47 0 84.5-9t68.5-29 56-54q27-33 50-82 0 56 12.5 88t33 47 45.5 18.5 50 3.5h85q52 0 83.5 12.5t50 35.5 25.5 55q7 31 9 70h124q-1-32-6.5-65t-18-62.5-33.5-57-51.5-46.5-74-30.5-100.5-11.5h-37q-39 0-64-3.5t-40.5-22-21-57.5-5.5-110l267-763h-126l-269 771q-19 46-37 83.5t-41.5 64-52.5 40.5q-30 14-69 14-44 0-77.5-20t-54.5-67.5-31.5-124.5-10.5-191v-134q0-34 1-74t5-78 14-73.5 28.5-62 47-41.5 71.5-15h24t25 3l18-95q-11-3-25.5-5.5t-31.5-4-35 0-34 3.5q-55 10-93 36t-63 60.5-40.5 79-22.5 92-9 96-2 95.5z" horiz-adv-x="1232" unicode="&#xe59;"/><glyph d="M120 964.5q0 72.5 27.5 123t71.5 82 95.5 45.5 98.5 14h119v-84h-84q-17 0-38-2.5t-44.5-9.5-46-19.5-40.5-32-29-49.5-11-70q0-39 11-78t39-69.5 75-50 120-19.5 129.5 15.5 94.5 46 57.5 79 19.5 113.5v230h117v-1229h-117v777q-27-36-61.5-60.5t-73-39-80.5-21.5-84-7q-91 0-159 23t-114 64-70 99q-23 57-23 129.5zM1133 0v1229h117v-1229h-117z" horiz-adv-x="1396" unicode="&#xe5a;"/><glyph d="M120 634q0 62 13.5 127t42 126 69.5 114 95.5 92.5 119.5 62.5 143 23q106 0 181-32t124.5-85 73.5-122.5 29-141.5q-32 0-54.5-1.5t-50.5-1.5q-2 64-23 113.5t-57 83.5-86 53q-51 20-112 23-91 0-162-35.5t-120.5-96-75-142.5-25.5-174q0-58 13.5-115t41.5-107 67-92 89-72.5 110-48 129-17.5q95 0 170 27t132.5 76.5 98.5 117.5 66 149.5 37.5 172 12.5 186.5l95 51q30-36 61.5-79t60-89 52-91 42.5-83q20 32 42 70t47 78 51.5 78 50.5 70q22-33 46.5-72t46.5-78 42.5-74.5 35.5-63.5q14 20 32 47.5t37.5 55 35.5 50.5 26 36h364l78-116h-423q-47-67-83.5-121t-66.5-107q-17 32-36.5 66.5t-41.5 70.5-45 71.5-45 66.5q-23-29-48-64t-50.5-74.5-49-83.5-43.5-88q-19 46-45.5 96t-57 98.5-63.5 96-65 88.5q0-105-20.5-202.5t-59.5-181.5-94.5-153-123.5-117-146-74-164-26q-92 0-170 23.5t-140.5 64.5-110.5 98-80.5 121.5-49 136-16.5 141.5z" horiz-adv-x="2575" unicode="&#xe5b;"/><glyph horiz-adv-x="1121" unicode="&#x2000;"/><glyph horiz-adv-x="2243" unicode="&#x2001;"/><glyph horiz-adv-x="1121" unicode="&#x2002;"/><glyph horiz-adv-x="2243" unicode="&#x2003;"/><glyph horiz-adv-x="747" unicode="&#x2004;"/><glyph horiz-adv-x="560" unicode="&#x2005;"/><glyph horiz-adv-x="373" unicode="&#x2006;"/><glyph horiz-adv-x="373" unicode="&#x2007;"/><glyph horiz-adv-x="280" unicode="&#x2008;"/><glyph horiz-adv-x="448" unicode="&#x2009;"/><glyph horiz-adv-x="124" unicode="&#x200a;"/><glyph unicode="&#x200b;"/><glyph d="M100 442v99h506v-99h-506z" horiz-adv-x="706" unicode="&#x2010;"/><glyph d="M100 442v99h506v-99h-506z" horiz-adv-x="706" unicode="&#x2011;"/><glyph d="M100 442v99h506v-99h-506z" horiz-adv-x="706" unicode="&#x2012;"/><glyph d="M0 550v102h1086v-102h-1086z" horiz-adv-x="1085" unicode="&#x2013;"/><glyph d="M0 550v102h1482v-102h-1482z" horiz-adv-x="1481" unicode="&#x2014;"/><glyph d="M145 1019v179q0 45 9 88t29 80.5 50.5 66.5 76.5 42v-79q-31-13-49-36t-27-51.5-11.5-59.5-2.5-59h90v-171h-165z" horiz-adv-x="451" unicode="&#x2018;"/><glyph d="M145 984v79q30 13 48 36.5t28 51.5 12.5 60 2.5 59h-91v170h165v-179q0-45-9-88t-28.5-80.5-50.5-65.5q-33-29-77-43z" horiz-adv-x="451" unicode="&#x2019;"/><glyph d="M142 1019v179q0 45 9 88t29 80.5 50.5 66.5 76.5 42v-79q-30-13-48.5-36t-27.5-51.5-11.5-59.5-2.5-59h90v-171h-165zM486 1019v179q0 45 8.5 88t28.5 80.5 51.5 66.5 76.5 42v-79q-31-13-49-36t-27-51.5-12-59.5-3-59h91v-171h-165z" horiz-adv-x="793" unicode="&#x201c;"/><glyph d="M143 984v79q31 13 49 36.5t27 51.5 12 60 3 59h-91v170h166v-179q0-45-9-88t-29.5-80.5-51-66-76.5-42.5zM486 984v79q31 13 49 36.5t28 51.5 12.5 60 2.5 59h-92v170h166v-179q0-45-9-88t-28.5-80.5-50.5-65.5q-33-29-78-43z" horiz-adv-x="793" unicode="&#x201d;"/><glyph d="M95 567q0 53 22 101t60 85 90 57q50 21 108 21 59 0 110.5-20.5t90-57.5 61.5-85 23-101q0-55-23-104.5t-61.5-86.5-90-58.5-110.5-21.5q-58 0-109 21.5t-89 58.5-60 86.5-22 104.5z" horiz-adv-x="750" unicode="&#x2022;"/><glyph horiz-adv-x="448" unicode="&#x202f;"/><glyph horiz-adv-x="560" unicode="&#x205f;"/><glyph d="M0 573v91h182v55 39.5t1 40.5h-183v91h189q6 68 18.5 135.5t35 127 57.5 111 84.5 89 116 58.5 151.5 21q100 0 176-32t128.5-87.5 79.5-132 29-165.5h-123q-2 64-19.5 122t-53 101.5-92.5 69-139 25.5q-61 0-107-19t-80-50.5-57.5-75.5-39-93.5-23.5-101.5q-9-53-13-103h408v-91h-412v-41-37-57h412v-91h-412q3-56 8.5-114.5t19.5-112.5 36-102.5 57.5-85 85-57 117.5-20.5q89 0 147.5 34t93 91.5 49 132 14.5 154.5h123q0-101-22.5-194t-72.5-164-128.5-114-189.5-43q-97 0-168 23.5t-122 65-84 98-52.5 122.5-28.5 139q-11 73-14 147h-183z" horiz-adv-x="1166" unicode="&#x20ac;"/><glyph d="M17 1340v81h539v-81h-225v-685h-89v685h-225zM709 655v766h122l253-633 253 633h123v-766h-78v682l-278-682h-42l-272 689v-689h-81z" horiz-adv-x="1551" unicode="&#x2122;"/><glyph d="M334 584l90 44q-3-22-3-47 0-24 3-43zM430 336l34 94q27-38 63-66zM448 834l90-33q-43-25-68-62zM634 840l50 91 42-89q-20 3-39 3-28 0-53-5zM641 320q23-6 46-6 19 0 36 6l-39-86zM834 801l103 33-38-97q-26 39-65 64zM837 361q35 24 60 57l26-82zM948 543q3 14 3 38 0 22-3 45l86-45z" horiz-adv-x="1366" unicode="&#x25cc;"/><glyph d="M0 0v1077h1077v-1077h-1077z" horiz-adv-x="1077" unicode="&#x25fc;"/><glyph d="M108 906q5 73 30.5 134t73 107 115.5 71.5 157 25.5q48 0 98-10 49-8 94-33 30 6 53.5 17.5t39.5 26 25 30.5 15 32h136q-4-23-18.5-45t-40.5-43-62.5-37.5-85.5-27.5q25-25 44.5-57t32-73 17.5-92.5-1-114.5q-5-61-17.5-127.5t-31-136-40.5-142-46.5-142.5-48.5-138-47-131h-166l-189 623h-123v78h212l183-623q28 86 57 173.5t55 176.5 46 176.5 31 172.5q11 81 7 149.5t-30 117.5-75 76.5-127 27.5q-110 0-172-61t-73-181h-128z" horiz-adv-x="936" unicode="&#xf700;"/><glyph d="M-1034 1432l50 97h560v-97h-610z" unicode="&#xf701;"/><glyph d="M-1034 1432l50 97h454v185h106v-282h-610z" unicode="&#xf702;"/><glyph d="M-1034 1432l50 97h292q-9 19-10 33t-1 17q0 31 11.5 57t32 47 47.5 33q25 12 56 12t57-12 47-33 33-47 12-57-12-57-33-46.5-47-32-57-11.5h-11-467zM-628 1576q0-14 5.5-27.5t15-23.5 23.5-15.5 28-5.5q15 0 29 5.5t24.5 15.5 16 23.5 5.5 27.5q0 16-5.5 29.5t-16 24-23.5 16-30 5.5q-14 0-28-5.5t-23.5-16-15-24-5.5-29.5z" unicode="&#xf703;"/><glyph d="M-1034 1432l50 97h210v185h104v-185h140v185h106v-282h-610z" unicode="&#xf704;"/><glyph d="M-550 1434v285h114v-285h-114z" unicode="&#xf705;"/><glyph d="M-923 1600v85h203v-175q61 0 107 12.5t77 36 48.5 55.5 20.5 71h119q-2-52-28-98.5t-72.5-83.5-112-59.5-148.5-22.5h-111v179h-103z" unicode="&#xf706;"/><glyph d="M-1029 1421q3 61 15 102.5t30.5 67.5 43 37.5 52.5 11.5q22 0 41-9.5t34-25 25.5-35.5 16.5-41q2 22 12.5 42.5t27.5 35 39 24 46 9.5q22 0 42-8t37-25.5 26.5-47.5 10.5-73q18 8 36.5 25.5t32 41 23.5 51.5 11 58h93q-2-38-16-77t-36.5-72.5-53-58.5-66.5-33h-94q-2 18-5.5 41t-10.5 42-19.5 33-30.5 14q-19 0-33-12.5t-23-32-14.5-41.5-5.5-44h-61q-2 19-6 42.5t-13 43-22.5 32-32.5 12.5q-22 0-35.5-14.5t-20.5-34.5-8-42.5-1-38.5h-87z" unicode="&#xf707;"/><glyph d="M-853 1579v81h175v147h100v-147h180v-81h-180v-158h-100v158h-175z" unicode="&#xf708;"/><glyph d="M-760 1415q2 53 27 103t70.5 90.5 111.5 65.5q67 26 153 32v-82q-55-3-98-21t-72.5-46-46-65-19.5-77h-126z" unicode="&#xf709;"/><glyph d="M-264 1426v296h119v-296h-119z" unicode="&#xf70a;"/><glyph d="M-626 1605v80h210v-175q62 0 108.5 12.5t76 35 45.5 55.5 18 72h126q-2-53-25-99.5t-67-82-110.5-56.5-157.5-21h-125v179h-99z" unicode="&#xf70b;"/><glyph d="M-865 1426q3 74 17 124.5t36 82.5 53 46 64 14q26 0 50.5-11t42.5-29 29-42 14-49h6q5 25 17.5 49t31.5 42 44 29 56 11q27 0 50-12.5t42-36 29.5-57 12.5-72.5q23 8 43.5 27.5t38.5 46 29.5 60 13.5 68.5h112q-3-45-20-91.5t-44-87-63.5-71-78.5-41.5h-111q0 22-3 50t-10.5 53-22 42.5-41.5 17.5q-25 0-42-16t-28.5-39.5-15.5-53-4-54.5h-72q-3 25-8.5 54.5t-17 53-28 39.5-38.5 16q-27 0-42.5-17.5t-24-43-10.5-54-2-48.5h-105z" unicode="&#xf70c;"/><glyph d="M-439 1594v85h178v149h114v-149h175v-85h-175v-160h-114v160h-178z" unicode="&#xf70d;"/><glyph d="M-402 1423q3 56 28.5 108t74.5 92.5 118.5 66 161.5 29.5v-87q-59 0-105.5-17t-78.5-46-49.5-66.5-17.5-79.5h-132z" unicode="&#xf70e;"/><glyph d="M86 1005q34 64 79.5 109t102 74.5 121 42.5 132.5 13q79 0 151-21.5t126-63 86.5-100 32.5-133.5v-609q0-111 58.5-172.5t175.5-61.5q119 0 180.5 61.5t61.5 172.5v912h117v-930q0-78-30-135t-79.5-95-113.5-57.5-133.5-19.5-134.5 19.5-114 58-78 96.5-29 133v618q0 56-20 99t-57 73.5-87 47.5-113 17q-50 0-97-12.5t-87.5-35-71.5-53-51-66.5q11-10 19.5-26t15.5-35.5 11-41.5 4-44v-751h131v-89h-250v848q0 53-12.5 95.5t-46.5 61.5z" horiz-adv-x="1656" unicode="&#xf70f;"/><glyph d="M-748 1432v192h104v-95h747v-97h-851z" unicode="&#xf710;"/><glyph d="M-763 1589q0 36 13 66.5t37 53.5 54.5 37 63.5 14q36 0 66.5-14t54.5-37 37-54 13-66-13-65.5-37-53.5-54.5-36-66.5-13q-33 0-63.5 13t-54.5 36-37 53.5-13 65.5zM-676 1588.5q0-16.5 7-31t18.5-25.5 25-16.5 30.5-5.5 32 5.5 26.5 16.5 18 26 6.5 31-6.5 31-18 26-26.5 18-32 7-30.5-7-25-18-18.5-26-7-31.5z" unicode="&#xf711;"/><glyph d="M-1042 1640q0 46 9.5 81t25.5 60 38 41 46.5 25.5 49.5 13.5 50 4h480v-89h-470q-59 0-90-36t-31-101q0-28 5.5-51t16.5-39.5 29-26.5 41-10q25 0 43 11.5t29 30.5 17.5 47 6.5 61h87q0-30 5.5-57t16.5-48 30.5-33 47.5-12q27 0 43 12t24 33 9.5 48 1.5 57h100q3-69-11-115t-37-73-54-37.5-67-10.5q-31 0-57.5 10t-46 25-31.5 35q-13 19-18 41-6-25-19-44.5t-32-34.5-44.5-23.5-54.5-8.5q-49 0-84.5 17t-59 44.5-34.5 67-11 85.5z" unicode="&#xf712;"/><glyph d="M-524 1853v263h100v-263h-100z" unicode="&#xf713;"/><glyph d="M-837 2038v80h196v-178q64 0 109.5 12.5t76.5 36.5 48.5 56 22.5 73h117q-4-51-29.5-97.5t-71.5-82.5-110-58q-64-20-148-23h-108v181h-103z" unicode="&#xf714;"/><glyph d="M-915 1857q0 61 12.5 102t33 65.5 46 35 54.5 10.5q25 0 45.5-9t37-24.5 27-35 15.5-40.5q5 20 16 40t29 35.5 40 24.5 50 9q25 0 46.5-8t37.5-26 24.5-47 11.5-74q22 9 41.5 25.5t36 40 26.5 51.5 13 61h93q-3-39-17.5-77.5t-38.5-70.5-56.5-56-69.5-32h-100q-2 18-5.5 40.5t-10.5 42.5-21 34-34 14-34.5-12.5-24-32-15.5-42.5q-6-22-6-44h-66q-2 22-6 44.5t-13 42-23 32-33 12.5q-25 0-40.5-14t-22.5-35-8.5-43-1.5-39h-89z" unicode="&#xf715;"/><glyph d="M-695 2013v80h174v150h97v-150h177v-80h-177v-160h-97v160h-174z" unicode="&#xf716;"/><glyph d="M-567 1699q3 50 27 95.5t68 82 105 58.5 139 26v-82q-103-5-160-54t-62-126h-117z" unicode="&#xf717;"/><glyph d="M-348-527h206v-407h-114v303h-92v104z" unicode="&#xf718;"/><glyph d="M-709-527h206v-185q0-139 122-139t122 139v185h114v-185q-1-44-14-85t-41-72.5-72.5-49.5-108.5-18q-65 0-110.5 18t-73 49.5-40 72.5-12.5 85v92h-92v93z" unicode="&#xf719;"/><glyph d="M-320-607.5q0 19.5 8.5 37t21 30.5 29.5 21q19 7 38.5 7t36-7.5 30.5-20.5 21-30.5 7-37-7-37-21-30.5-30.5-20.5-36-7.5-37.5 7.5-30.5 20.5-21 30.5-8.5 37z" unicode="&#xf71a;"/><glyph d="M81 1229h122l119-1140h17l196 916h122l194-916h19l95 756q4 31 7.5 64t2 63-8 57-22 48-42 34.5-65.5 15.5l-9 74q53 3 99.5 18t82 40 56.5 60 24 79h139q-9-50-30.5-90t-57-70-82.5-50-103-29q56-16 86-47t41.5-68.5 10.5-77.5-7-78l-133-888h-177l-149 701-28 169h-8l-33-169-146-701h-174z" horiz-adv-x="1195" unicode="&#xf71d;"/><glyph d="M-723 1440q3 40 16 80t40.5 73 67.5 58 96 34q5 40 26 74t58 59 87.5 40.5 114.5 20.5v-86q-97-4-143.5-46.5t-46.5-128.5h-6q-53 0-88.5-14t-58-37.5-33-55.5-13.5-71h-117z"/><glyph d="M-763 1589q0 36 13 66.5t37 53.5 54.5 37 63.5 14q36 0 66.5-14t54.5-37 37-54 13-66-13-65.5-37-53.5-54.5-36-66.5-13q-33 0-63.5 13t-54.5 36-37 53.5-13 65.5zM-676 1588.5q0-16.5 7-31t18.5-25.5 25-16.5 30.5-5.5 32 5.5 26.5 16.5 18 26 6.5 31-6.5 31-18 26-26.5 18-32 7-30.5-7-25-18-18.5-26-7-31.5zM57 959q6 70 35.5 122.5t75.5 89 104.5 55 119.5 18.5q64 0 124.5-18.5t107-57.5 74.5-100.5 28-141.5v-926h-120v915q0 61-15.5 105.5t-43 73.5-67.5 44q-41 16-88 16-42 0-77.5-14t-64-39-46.5-61-25-81h-122z" horiz-adv-x="870"/><glyph d="M-763 1589q0 36 13 66.5t37 53.5 54.5 37 63.5 14q36 0 66.5-14t54.5-37 37-54 13-66-13-65.5-37-53.5-54.5-36-66.5-13q-33 0-63.5 13t-54.5 36-37 53.5-13 65.5zM-676 1588.5q0-16.5 7-31t18.5-25.5 25-16.5 30.5-5.5 32 5.5 26.5 16.5 18 26 6.5 31-6.5 31-18 26-26.5 18-32 7-30.5-7-25-18-18.5-26-7-31.5zM57 959q6 70 35.5 122.5t75.5 89 104.5 55 119.5 18.5q64 0 124.5-18.5t107-57.5 74.5-100.5 28-141.5v-926h-120v915q0 61-15.5 105.5t-43 73.5-67.5 44q-41 16-88 16-42 0-77.5-14t-64-39-46.5-61-25-81h-122z" horiz-adv-x="870"/><glyph d="M-798 1432l50 97h603v-97h-653z"/><glyph d="M-798 1432l50 97h498v185h105v-282h-653z"/><glyph d="M-798 1432l50 97h359q-9 19-11 33t-2 17q0 31 12 57t33 47 47 33 57 12 57-12 46.5-33 32-47 11.5-57-11.5-57-32-46.5-47.5-31.5q-25-12-56-12h-11-534zM-328 1576q0-14 6-27.5t16.5-23.5 24.5-15q14-6 28-6 15 0 28.5 5.5t23 15.5 16 23.5 6.5 27.5q0 16-6.5 29.5t-16 24-23.5 16-28 5.5-28-5.5-24.5-16-16.5-24-6-29.5z"/><glyph d="M-798 1432l50 97h239v185h105v-185h154v185h105v-282h-653z"/><glyph d="M-1204 1432l48 97h789v-97h-837z"/><glyph d="M-1204 1432l48 97h683v185h106v-282h-837z"/><glyph d="M-1204 1432l48 97h550q-8 19-9.5 33t-1.5 17q0 31 11 57t32 47 47.5 33 56.5 12q31 0 57.5-12t47-33 32-47 11.5-57-11.5-57-32-46.5-47-32-57.5-11.5h-11-723zM-543 1576q0-14 6-27.5t15.5-23.5 23.5-15.5 28-5.5q15 0 28.5 5.5t24 15.5 16.5 23.5 6 27.5q0 16-6 29.5t-16.5 24-24 16-28.5 5.5q-14 0-28-5.5t-23.5-16-15.5-24-6-29.5z"/><glyph d="M-1204 1432l48 97h425v185h105v-185h153v185h106v-282h-837z"/><glyph d="M-467 1853v263h100v-263h-100z"/><glyph d="M-780 2038v80h196v-178q64 0 110 12.5t76.5 36.5 47 56 22.5 73h117q-4-51-29-97.5t-70.5-82.5-110.5-58q-65-20-149-23h-108v181h-102z"/><glyph d="M-801 1857q0 61 12.5 102t33 65.5 46 35 54.5 10.5q25 0 45.5-9t37-24.5 27-35 15.5-40.5q5 20 16 40t29 35.5 40 24.5 50 9q25 0 46.5-8t37.5-26 24.5-47 11.5-74q22 9 41.5 25.5t36 40 26.5 51.5 13 61h93q-3-39-17.5-77.5t-38.5-70.5-56.5-56-69.5-32h-101q-1 18-4.5 40.5t-10.5 42.5-21 34-34 14-34.5-12.5-24-32-15.5-42.5q-6-22-6-44h-66q-2 22-6 44.5t-13 42-23 32-35 12.5q-25 0-39.5-14t-21.5-35-8.5-43-1.5-39h-89z"/><glyph d="M-638 2013v80h174v150h97v-150h177v-80h-177v-160h-97v160h-174z"/><glyph d="M-1168 1432l49 97h974v-97h-1023z"/><glyph d="M-1168 1432l49 97h869v185h105v-282h-1023z"/><glyph d="M-1168 1432l49 97h730q-9 19-11 33t-2 17q0 31 12 57t33 47 47 33 57 12 57-12 46.5-33 32-47 11.5-57-11.5-57-32-46.5-47.5-31.5q-25-12-56-12h-11-904zM-328 1576q0-14 6-27.5t16.5-23.5 24.5-15q14-6 28-6 15 0 28.5 5.5t23 15.5 16 23.5 6.5 27.5q0 16-6.5 29.5t-16 24-23.5 16-28 5.5-28-5.5-24.5-16-16.5-24-6-29.5z"/><glyph d="M-1168 1432l49 97h610v185h105v-185h154v185h105v-282h-1023z"/><glyph d="M-247 1711v263h100v-263h-100z"/><glyph d="M-612 1893v81h196v-178q64 0 110 12.5t77.5 35.5 49.5 55.5 23 74.5h114q-4-52-29.5-98.5t-71.5-82.5-110.5-58.5-148.5-23.5h-107v182h-103z"/><glyph d="M-737 1711q0 61 12.5 102t32 66 45.5 35 55 10q25 0 46-9t36-24.5 26-34.5q11-21 17-41 4 20 16 40t28.5 35.5 39.5 24.5q22 9 49 9 25 0 47.5-7t37.5-25 25-47.5 10-73.5q22 8 43 25t37 39.5 26.5 51 10.5 60.5h94q-3-39-16.5-77t-38.5-70.5-57-56.5-70-32h-100q-1 18-4 40.5t-11.5 43-21 34-34.5 13.5q-19 0-34.5-12.5t-25-31.5-14.5-42q-6-24-6-45h-64q-2 22-7 45t-14 42-22 31q-16 13-35 13-25 0-39.5-14t-21.5-34-8.5-43-1.5-40h-88z"/><glyph d="M-418 1871v79h173v152h98v-152h175v-79h-175v-160h-98v160h-173z"/><glyph d="M-524 1711v263h100v-263h-100z"/><glyph d="M-845 1896v81h196v-178q64 0 109 12.5t76.5 35.5 48.5 55.5 23 74.5h117q-4-52-30-98.5t-72-82.5-109.5-58.5-147.5-23.5h-108v182h-103z"/><glyph d="M-942 1714q0 61 12.5 102t32 66 45.5 35 54 10q25 0 46-8.5t37-22.5 26.5-32 15.5-39q4 20 16.5 38.5t30 32.5 40 22.5 48.5 8.5q25 0 46.5-7t37.5-25.5 25-47.5 11-73q22 8 42 24.5t37 39.5 26.5 51.5 10.5 60.5h94q-3-39-17-77t-38.5-71-57-56.5-68.5-31.5h-100q-2 18-5.5 40t-11 43-20.5 34.5-36 13.5q-19 0-33-12.5t-22.5-31.5-12.5-42.5-4-44.5h-78q-1 22-4.5 45t-12 42-21 31.5-33.5 12.5q-25 0-39.5-14t-21.5-34.5-8-43-1-39.5h-89z"/><glyph d="M-695 1871v79h174v152h97v-152h177v-79h-177v-160h-97v160h-174z"/><glyph d="M-517-150h203v-406h-113v304h-90v102z"/><glyph d="M-737-150h205v-184q0-139 122-140 122 1 122 140v184h114v-184q-1-44-13.5-85.5t-40.5-72.5-72.5-49-109.5-18-109.5 18-72.5 49-40 72q-13 42-14 86v91h-91v93z"/><glyph d="M-517-261.5q0 19.5 7 37t20 30.5 30.5 20 37 7 37.5-7 30.5-20 20-30.5 7.5-37-7.5-37.5-20-30.5-30.5-20-37.5-7.5-37 7.5-30.5 20-20 30.5-7 37.5z"/><glyph d="M-509-150h205v-406h-114v304h-91v102z"/><glyph d="M-873-150h203v-184q0-139 124-140 122 1 122 140v184h114v-184q-1-44-13.5-85.5t-40.5-72.5-72.5-49-110-18-110 18-72 49-40.5 72q-12 42-14 86v91h-90v93z"/><glyph d="M-489-261.5q0 19.5 7 37t20 30.5 30.5 20 37 7 37.5-7 30.5-20 20-30.5 7.5-37-7.5-37.5-20-30.5-30.5-20-37.5-7.5-37 7.5-30.5 20-20 30.5-7 37.5z"/><glyph d="M-748 1432v192h104v-95h747v-97h-851z"/><glyph d="M-524 1853v263h100v-263h-100z"/><glyph d="M-809 2038v80h197v-178q64 0 109.5 12.5t76.5 36.5 48 56 22 73h117q-4-51-30-97.5t-71-82.5-110-58q-64-20-148-23h-108v181h-103z"/><glyph d="M-771 1857q0 61 12.5 102t32.5 65.5 45 35 55 10.5q26 0 46-9t36-24.5 27-35 17-40.5q4 20 15 40t28.5 35.5 39.5 24.5 50 9q25 0 47.5-8t37.5-26 24-47 11-74q22 9 42 25.5t36 40 26.5 51.5 11.5 61h95q-3-39-17.5-77.5t-39-70.5-56.5-56-71-32h-100q-1 18-4 40.5t-10.5 42.5-20.5 34q-12 14-34 14-20 0-35-12.5t-25-32-15-42.5q-6-22-6-44h-65q-2 22-6 44.5t-13.5 42-23.5 32-34 12.5q-25 0-40-14t-22-35-8.5-43-1.5-39h-87z"/><glyph d="M-695 2013v80h174v150h97v-150h177v-80h-177v-160h-97v160h-174z"/><glyph d="M-1011 1432l49 97h817v-97h-866z"/><glyph d="M-1011 1432l49 97h712v185h105v-282h-866z"/><glyph d="M-1011 1432l49 97h573q-9 19-11 33t-2 17q0 31 12 57t33 47 47 33 57 12 57-12 46.5-33 32-47 11.5-57-11.5-57-32-46.5-47.5-31.5q-25-12-56-12h-11-747zM-328 1576q0-14 6-27.5t16.5-23.5 24.5-15q14-6 28-6 15 0 28.5 5.5t23 15.5 16 23.5 6.5 27.5q0 16-6.5 29.5t-16 24-23.5 16-28 5.5-28-5.5-24.5-16-16.5-24-6-29.5z"/><glyph d="M-1011 1432l49 97h453v185h105v-185h154v185h105v-282h-866z"/><glyph d="M-635 1853v263h100v-263h-100z"/><glyph d="M-806 2013v80h174v150h97v-150h176v-80h-176v-160h-97v160h-174z"/><glyph d="M-549-149h204v-407h-114v302h-90v105z"/><glyph d="M-785-149h204v-185q0-139 122-139 123 0 123 139v185h114v-185q-2-44-13.5-85t-39.5-72.5-72.5-49.5-111.5-18q-65 0-109 18t-71.5 49.5-40.5 72.5q-15 41-15 85v92h-90v93z"/><glyph d="M-500-261.5q0 19.5 8 37.5t20.5 30.5 30.5 20.5 37.5 8 36.5-8 31-20.5 20.5-30.5 6.5-37.5-6.5-37-20.5-30.5-31-20-36.5-7-37.5 7-30.5 20-20.5 30.5-8 37z"/></font>
</defs>
</svg>
