<svg xmlns="http://www.w3.org/2000/svg"><defs><font horiz-adv-x="0"><font-face ascent="1638" descent="-410" units-per-em="2048"/><missing-glyph horiz-adv-x="511"/><glyph d="M94 0v121h1047v-121h-1047zM94 644v120h463v462h121v-462h463v-120h-463v-460h-121v460h-463z" horiz-adv-x="1233" unicode="&#x2b;&#x2d;"/><glyph d="M250 0v229h187v-229h-187zM936 0v229h184v-229h-184zM1620 0v229h187v-229h-187z" horiz-adv-x="2056" unicode="&#x2e;&#x2e;&#x2e;"/><glyph d="M88 21v117h1056v-117h-1056zM88 753v123l1056 479v-126l-906-413 906-416v-124z" horiz-adv-x="1233" unicode="&#x3c;&#x3d;"/><glyph d="M91 21v117h1056v-117h-1056zM91 276v124l909 416-909 413v126l1056-479v-123z" horiz-adv-x="1236" unicode="&#x3e;&#x3d;"/><glyph d="M97 617q0 89 23 171t64.5 154 100.5 131 131 100 154.5 64.5 170.5 23.5 170.5-23.5 154.5-64.5 130.5-100 100-131 65-154 23.5-171q0-88-23.5-170t-65-154.5-100-131-130.5-100.5-154.5-64.5-170.5-22.5-170.5 22.5-154.5 64.5-131 100.5-100.5 131-64.5 154.5-23 170zM235 617q0-70 17.5-135t51-120.5 79.5-102 102-79.5 120.5-50.5 135.5-17.5q70 0 135 17.5t121 50.5 102 79.5 79 102 51 120.5 18 135q0 71-18 135.5t-51 120.5-79 102.5-102 79.5-121 50.5-135 17.5q-71 0-135.5-17.5t-120.5-50.5-102-79.5-79.5-102.5-51-120.5-17.5-135.5zM379 617q0 74 29 140t78 114.5 114.5 78 140.5 29.5q73 0 139.5-29.5t115-78 77.5-114.5 29-140q0-75-29-140t-77.5-114.5-115-78-139.5-28.5q-75 0-140.5 28.5t-114.5 78-78 114.5-29 140zM506 617q0-48 18-91.5t50-75 75-50 92-18.5q48 0 91 18.5t74.5 50 50.5 75 19 91.5q0 49-19 91.5t-50.5 74-74.5 51-91 19.5q-49 0-92-19.5t-75-51-50-74-18-91.5zM538 1755h137l-25-304h-90zM816 1755h138l-21-304h-92z" horiz-adv-x="1490" unicode="&#xe4f;&#x22;"/><glyph d="M44 57v111h131v491q0 32-3 65t-13.5 62.5-30 53.5-53.5 42q18 71 58 139t106.5 122 161 86 222.5 32q106 0 187-19.5t139.5-55 98.5-83.5 64-106 33.5-122 9.5-131v-1023h-164q-19 29-51 52.5t-73.5 41-91 28-105.5 10.5-110-14.5-99.5-36.5-81-48.5-51.5-51.5v148q15 12 47 32t78.5 39 102.5 33 114 14q62 0 112.5-9.5t92-25 73.5-35 57-39.5v911q0 44-6.5 89t-23.5 85.5-44.5 76.5-70.5 61.5-101.5 42-135.5 16.5q-100 0-170.5-26.5t-117.5-66.5-73-84q-24-44-33-79 50-29 73-88t23-141v-599h-281zM936-523q0 25 10 47t27.5 39 39.5 27 47 10 47-10 38-27 25.5-40 9.5-46q0-25-9.5-47t-25.5-39-38-26-47-9-47 9-39.5 26-27.5 39-10 47z" horiz-adv-x="1290" unicode="&#xe0e;&#xe3a;"/><glyph d="M44 57v111h131v491q0 32-3 65t-13.5 62.5-30 53.5-53.5 42q18 71 58 139t106.5 122 161 86 222.5 32q106 0 187-19.5t139.5-55 98.5-83.5 64-106 33.5-122 9.5-131v-1032h-155q-14 29-30 55.5t-37.5 45.5-50.5 31-69 12q-38 0-65.5-13.5t-46.5-34-29-45.5-16-51h-139q-8 26-19 52t-29.5 47-45 34.5-61.5 13.5q-30 0-52-13.5t-38-34-26.5-47-13.5-52.5h-132q6 62 27 109t55 79 78 50q46 18 96 18 34 0 67-7.5t63-25 55.5-47 46.5-72.5q19 44 46.5 74.5t57.5 46.5 61.5 23.5 59.5 7.5q62 0 108-25t84-78v905q0 44-6.5 89t-23.5 85.5-44.5 76.5-70.5 61.5-101.5 42-135.5 16.5q-100 0-170.5-26.5t-117.5-66.5-73-84q-24-44-33-79 50-29 73-88t23-141v-599h-281zM936-523q0 25 10 47t27.5 39 39.5 27 47 10 47-10 38-27 25.5-40 9.5-46q0-25-9.5-47t-25.5-39-38-26-47-9-47 9-39.5 26-27.5 39-10 47z" horiz-adv-x="1290" unicode="&#xe0f;&#xe3a;"/><glyph d="M94 57v111h129v491q0 47-4 83t-16 63-31 47-49 33q15 71 55 138.5t106 120.5 157 85 209 32q100 0 177-19.5t133.5-55 95-83.5 61-106 32-122 9.5-131v-1023h-164q-19 29-51 52.5t-73.5 41-91 28-103.5 10.5q-56 0-111-14.5t-101-36.5-80-49q-33-26-51-51v148q13 12 46.5 32t79 39 101 33 116.5 14 111-9.5 91.5-25 73.5-35 57-39.5v911q0 65-16 131t-57 119-110 86-175 35q-88 0-154.5-22t-113.5-58-73.5-82.5-35.5-93.5q47-27 73.5-81t26.5-148v-599h-279zM908-417h250v-405h-141v305h-109v100z" horiz-adv-x="1290" unicode="&#xe0e;&#xe38;"/><glyph d="M44 57v111h131v491q0 32-3 65t-13.5 62.5-30 53.5-53.5 42q18 71 58 139t106.5 122 161 86 222.5 32q106 0 187-19.5t139.5-55 98.5-83.5 64-106 33.5-122 9.5-131v-1032h-155q-14 29-30 55.5t-37.5 45.5-50.5 31-69 12q-38 0-65.5-13.5t-46.5-34-29-45.5-16-51h-139q-8 26-19 52t-29.5 47-45 34.5-61.5 13.5q-30 0-52-13.5t-38-34-26.5-47-13.5-52.5h-132q6 62 27 109t55 79 78 50q46 18 96 18 34 0 67-7.5t63-25 55.5-47 46.5-72.5q19 44 46.5 74.5t57.5 46.5 61.5 23.5 59.5 7.5q62 0 108-25t84-78v905q0 44-6.5 89t-23.5 85.5-44.5 76.5-70.5 61.5-101.5 42-135.5 16.5q-100 0-170.5-26.5t-117.5-66.5-73-84q-24-44-33-79 50-29 73-88t23-141v-599h-281zM908-417h250v-405h-141v305h-109v100z" horiz-adv-x="1290" unicode="&#xe0f;&#xe38;"/><glyph d="M44 57v111h131v491q0 32-3 65t-13.5 62.5-30 53.5-53.5 42q18 71 58 139t106.5 122 161 86 222.5 32q106 0 187-19.5t139.5-55 98.5-83.5 64-106 33.5-122 9.5-131v-1023h-164q-19 29-51 52.5t-73.5 41-91 28-105.5 10.5-110-14.5-99.5-36.5-81-48.5-51.5-51.5v148q15 12 47 32t78.5 39 102.5 33 114 14q62 0 112.5-9.5t92-25 73.5-35 57-39.5v911q0 44-6.5 89t-23.5 85.5-44.5 76.5-70.5 61.5-101.5 42-135.5 16.5q-100 0-170.5-26.5t-117.5-66.5-73-84q-24-44-33-79 50-29 73-88t23-141v-599h-281zM434-417h255v-127q0-91 39-136.5t125-45.5q82 0 118.5 45.5t36.5 136.5v127h144v-127q0-56-15-107.5t-51-89-93.5-59.5-140-22-141 19-94.5 56.5-53 95-17 134.5h-113v100z" horiz-adv-x="1290" unicode="&#xe0e;&#xe39;"/><glyph d="M44 57v111h131v491q0 32-3 65t-13.5 62.5-30 53.5-53.5 42q18 71 58 139t106.5 122 161 86 222.5 32q106 0 187-19.5t139.5-55 98.5-83.5 64-106 33.5-122 9.5-131v-1032h-155q-14 29-30 55.5t-37.5 45.5-50.5 31-69 12q-38 0-65.5-13.5t-46.5-34-29-45.5-16-51h-139q-8 26-19 52t-29.5 47-45 34.5-61.5 13.5q-30 0-52-13.5t-38-34-26.5-47-13.5-52.5h-132q6 62 27 109t55 79 78 50q46 18 96 18 34 0 67-7.5t63-25 55.5-47 46.5-72.5q19 44 46.5 74.5t57.5 46.5 61.5 23.5 59.5 7.5q62 0 108-25t84-78v905q0 44-6.5 89t-23.5 85.5-44.5 76.5-70.5 61.5-101.5 42-135.5 16.5q-100 0-170.5-26.5t-117.5-66.5-73-84q-24-44-33-79 50-29 73-88t23-141v-599h-281zM437-417h255v-127q0-91 39-136.5t125-45.5q82 0 118.5 45.5t36.5 136.5v127h144v-127q0-56-15-107.5t-51-89-93.5-59.5-140-22-140.5 19-94 56.5-53 95-17 134.5h-114v100z" horiz-adv-x="1290" unicode="&#xe0f;&#xe39;"/><glyph horiz-adv-x="511" unicode="&#x20;"/><glyph horiz-adv-x="511" unicode="&#x09;"/><glyph horiz-adv-x="511" unicode="&#xa0;"/><glyph d="M218 0v223h182v-223h-182zM232 963v475h153v-475l-29-610h-91z" horiz-adv-x="617" unicode="&#x21;"/><glyph d="M175 964v474h135v-474h-135zM448 964v474h137v-474h-137z" horiz-adv-x="761" unicode="&#x22;"/><glyph d="M66 454v106h238l47 325h-225v101h239l61 450h118l-66-450h281l61 450h115l-62-450h216v-101h-229l-47-325h213v-106h-225l-66-454h-115l64 454h-278l-62-454h-115l62 454h-225zM417 560h281l49 325h-281z" horiz-adv-x="1143" unicode="&#x23;"/><glyph d="M54 467h142q0-82 25.5-146.5t69.5-112.5 104-79q58-31 128-44v574q-88 17-166 46t-138 75-94 116.5-34 175.5q0 89 34 161t94 123.5 138 80.5q78 30 166 33v156h91v-156q97-6 177.5-39t137-88 87.5-130 31-166h-141q-2 67-25 121.5t-61 94-91 62.5q-53 24-115 27v-576q58-12 115-27t110-38 98.5-54 79.5-72 54-95.5 20-121.5q0-65-19-119.5t-53-98.5-79.5-78-98-56-110.5-34.5-117-13.5v-171h-91v171q-226 31-343 153-117 120-126 346zM232 1057q0-65 25-109.5t66.5-74 94-48 105.5-31.5v558q-56-3-108.5-22t-93-55.5-65-91-24.5-126.5zM609 79q41 2 83.5 10t80.5 22.5 71.5 38 57.5 54.5 38 72.5 14 91.5q0 44-15.5 78.5t-40.5 63-59.5 50.5-72.5 38-78.5 29.5-78.5 22.5v-571z" horiz-adv-x="1143" unicode="&#x24;"/><glyph d="M135 1048q0 82 20 153.5t61 123 104.5 81 149.5 29.5q87 0 149.5-29.5t102-81 59.5-122 20-154.5q0-82-20-153.5t-59.5-123-102.5-80.5-149-29-149.5 29-104.5 80.5-61 122-20 154.5zM256 1045q0-47 10-97t33.5-90.5 65-67 105.5-26.5q62 0 102.5 26.5t65 67 34 90 9.5 98-11 99-36 92.5-65 68.5-99 26.5q-60 0-102-26.5t-67-68.5-35-92.5-10-99.5zM382-71l917 1509h115l-914-1509h-118zM1038 359q0 82 19 152.5t60 122 104.5 81 150.5 29.5q86 0 148.5-29.5t103-81 59.5-122 19-152.5q0-83-19-154t-59.5-123.5-103-81-148.5-28.5q-87 0-150.5 28.5t-104.5 81-60 122.5q-19 72-19 155zM1158 356q0-47 9.5-97t34-91.5 65.5-67 105-25.5q61 0 101.5 25.5t65.5 67 34 90.5q9 51 9 98 0 48-10.5 99t-35.5 92-65.5 67.5-98.5 26.5q-61 0-102-26.5t-66-67.5-35.5-92.5-10.5-98.5z" horiz-adv-x="1827" unicode="&#x25;"/><glyph d="M75 382q0 53 15.5 98t42 84.5 61 74 73.5 64 80 54.5 81 49q-38 50-70 92.5t-55.5 84.5-36.5 83.5-13 88.5q0 68 26.5 124t70.5 95.5 104 61.5 131 22q68 0 128-22t105-61.5 71-94.5q25-57 25-125 0-67-23.5-121.5t-63-100-91-84-104.5-71.5q79-92 155-180.5t155-180.5q14 31 20.5 61.5t9.5 61 3.5 61.5.5 61h141q0-24-4.5-64.5t-14-89.5-26.5-101.5-40-99.5l259-307h-183l-150 182q-41-45-89.5-84t-104-68-116-44-125.5-15q-97 0-179 26.5t-141.5 77.5-93.5 129-34 178zM218 370.5q0-61.5 23.5-113t64.5-89 98.5-58 124.5-20.5q49 0 101 18t98.5 47.5 84 63.5 57.5 66l-367 429q-49-28-99.5-61t-92-75.5-67.5-94-26-113zM394 1155q0-33 14.5-67.5t37.5-70 51.5-71.5 56.5-73q38 24 77 52.5t71 63 51 76.5q20 40 20 90 0 43-15.5 77t-41 56.5-59.5 34.5-72 12-73.5-12-61-34.5-41-55.5-15.5-78z" horiz-adv-x="1255" unicode="&#x26;"/><glyph d="M218 964v474h141v-474h-141z" horiz-adv-x="571" unicode="&#x27;"/><glyph d="M100 547q0 132 20 260t57.5 247 91 230.5 119.5 214.5h121q-71-111-122.5-231.5t-84-247-47-257.5-14.5-263q0-112 19-229t54.5-231.5 85.5-224 109-206.5h-121q-68 112-122 222t-91 223.5-56 235.5-19 257z" horiz-adv-x="496" unicode="&#x28;"/><glyph d="M-15-391q71 112 122.5 231t84.5 244 48.5 255.5 15.5 266.5q0 111-19 227.5t-54.5 232.5-85.5 225.5-112 207.5h121q69-113 122.5-222.5t92-223.5 57.5-235 19-258q0-132-20-259.5t-57.5-246.5-92-230.5-121.5-214.5h-121z" horiz-adv-x="496" unicode="&#x29;"/><glyph d="M49 1173l29 91 238-85v253h90v-253l238 85 31-91-238-78 151-195-79-61-150 199-150-199-80 61 150 201z" horiz-adv-x="721" unicode="&#x2a;"/><glyph d="M94 462v120h463v459h121v-459h463v-120h-463v-462h-121v462h-463z" horiz-adv-x="1233" unicode="&#x2b;"/><glyph d="M193 0v229h186v-226q0-46-8.5-91.5t-30.5-85-57.5-69.5-89.5-45v106q26 11 43 30.5t27 43.5 13 52 3 56h-86z" horiz-adv-x="571" unicode="&#x2c;"/><glyph d="M94 457v128h676v-128h-676z" horiz-adv-x="864" unicode="&#x2d;"/><glyph d="M193 0v229h186v-229h-186z" horiz-adv-x="571" unicode="&#x2e;"/><glyph d="M-26-29l608 1499h118l-603-1499h-123z" horiz-adv-x="683" unicode="&#x2f;"/><glyph d="M56 717q0 86 9 174t31 170.5 59.5 156 94.5 127.5 136.5 86.5 185.5 32.5 186-32.5 137.5-86.5 94-127.5 58.5-156 31-170.5 9-174q0-85-9-173t-31-172-58.5-156.5-94-128-137.5-86-186-30.5-185.5 30.5-136.5 86-94.5 128-59.5 156.5-31 172-9 173zM197 717q0-61 6-132t20.5-140.5 41-133.5 67.5-112.5 100-78 140-29.5 139.5 29.5 100 78 68 112.5 40 133.5 19 140.5 5.5 132q0 62-5.5 132.5t-19 139.5-40 133-68 113.5-100 79-139.5 29.5q-80 0-139.5-29.5t-100.5-79-67.5-113.5-41-133-20.5-139.5-6-132.5z" horiz-adv-x="1143" unicode="&#x30;"/><glyph d="M193 1028v126q51 3 98 8t88 16 76 30 62 49.5 47.5 74.5 32.5 106h120v-1438h-142v1117q-34-26-75-42.5t-88-26.5-102.5-14.5-116.5-5.5z" horiz-adv-x="1143" unicode="&#x31;"/><glyph d="M69 0q2 76 18 141t45.5 119.5 68.5 101.5 85 88 98.5 77.5 106.5 72.5q41 26 85 54t88.5 59 82.5 64.5 67.5 74 47 88.5 17.5 105q0 68-25 122.5t-68.5 92-101.5 57-121 19.5q-87 0-148-33t-100-89-55.5-128.5-15.5-152.5h-141q-3 114 25 209.5t86 166 147 109.5 208 39q95 0 177.5-27.5t144.5-79 95.5-128.5 33.5-177q0-91-31-164.5t-83.5-134.5-121.5-112q-67-52-140-95-87-52-157-100t-121-97-83.5-100.5-44.5-109.5h788v-132h-957z" horiz-adv-x="1143" unicode="&#x32;"/><glyph d="M63 467h143q-3-85 19-155.5t67-120.5 111.5-76.5 153.5-26.5q71 0 135.5 20.5t115 60.5 80.5 98q29 56 29 133 0 73-25 129t-69 91.5-104 53-131 17.5h-79v120h79q49-1 98.5 15t90 49 65.5 83 25 117q0 70-25 120t-67.5 82.5-98.5 48-119 15.5q-79 0-140-27.5t-102.5-76-62-115.5-17.5-146h-141q0 103 33 192t92.5 154.5 145 102 189.5 36.5q59 0 115-10t106.5-29.5 93-50 73.5-72 49-93.5q17-51 17-115 0-56-14.5-107.5t-42.5-95.5-67.5-78-89.5-53q67-13 116.5-42.5t82.5-74.5 50-103 17-128.5-18.5-130.5-52-108.5-79.5-87-101.5-63.5-119-38-129.5-13q-113 0-208 33.5t-162 97-100 156.5q-34 95-27 212z" horiz-adv-x="1143" unicode="&#x33;"/><glyph d="M50 341v135l679 962h127v-976h214v-121h-214v-341h-133v341h-673zM185 462h538v761z" horiz-adv-x="1143" unicode="&#x34;"/><glyph d="M74 406h141q1-74 28-134t73-101.5 107.5-63.5 133.5-22q82 0 147.5 31t112 84 70.5 123q24 71 24 147 0 80-26.5 147.5t-75 117-116 78-146.5 28.5q-47 0-91-12t-85.5-34-76.5-54-62-74h-120l123 771h747v-134h-644l-70-463q27 29 62 51t73 37.5 78.5 23.5 81.5 8q112 0 202.5-38t155-104 99-159 34.5-201q0-71-18.5-136.5t-51.5-120.5-79.5-99-102-75-120.5-47-135-16q-102 0-188 30.5t-148.5 88-98.5 138.5-38 184z" horiz-adv-x="1143" unicode="&#x35;"/><glyph d="M75 679q0 43 2 98.5t11 119 25 129.5 42.5 128.5 65 118.5 91.5 97 122 65.5 158 24.5q192 0 302-89 109-89 135-274h-141q-7 53-29.5 97.5t-58.5 77-86 50-110 17.5q-78 0-136.5-27t-103-74-72-109-44.5-129.5-24-137.5q-6-68-6-133 20 40 58.5 79t91 69.5 113 50 123.5 19.5q106 0 192-35.5t147.5-98.5 95.5-153.5 34-200.5q0-102-36.5-190t-101.5-153.5-154.5-102.5-196.5-37q-139 0-235 51t-157 143.5-89 221.5q-28 131-28 287zM244 462q0-65 20-131t62-117.5 108.5-84 160.5-32.5q77 0 138 28.5t105 78 67.5 115.5 23.5 140q0 78-23.5 144.5t-67 116.5-104.5 78-134 28q-83 0-148-28t-111.5-76.5-71.5-116-25-143.5z" horiz-adv-x="1143" unicode="&#x36;"/><glyph d="M100 1304v134h935v-115q-44-47-104.5-117.5t-125-164.5-128-207.5-112.5-245.5-80-279-31-309h-153q0 185 37.5 354t109.5 329.5 178 314 244 306.5h-770z" horiz-adv-x="1143" unicode="&#x37;"/><glyph d="M62 403q3 69 23.5 130t56.5 109.5 86.5 82.5 115.5 48q-53 19-91 51t-63 73-37 91-12 106q0 91 37 158.5t97 113 136.5 68.5 157.5 23q82 0 159.5-23t137.5-68.5 97-113 37-158.5q0-56-12-106t-37-92-63-73.5-91-52.5q64-16 117-48.5t90-79.5 56-107q19-62 19-132 0-109-41-191.5t-110.5-137.5-162-82-193.5-27q-103 0-195 27t-162.5 82-111.5 137.5-41 191.5zM203 402.5q0-79.5 30-139.5t81-100 117.5-59 140.5-19q75 0 141 19t116 59 79 99q30 58 30 141 0 76-31 135t-81 97-116 57-138 19q-74 0-140.5-18t-116.5-57-81-96.5-31-137zM282 1094q0-72 24.5-123t65-82.5 92.5-45.5 108-12q57-2 109.5 12.5t91 47 62 82.5 23.5 121q0 58-20.5 104t-58.5 76.5-91 47-116 16.5q-59 0-111-16.5t-92-47-63.5-76.5-23.5-104z" horiz-adv-x="1143" unicode="&#x38;"/><glyph d="M71 976q0 102 36 190.5t101 153.5 155 102.5 196 37.5q138 0 235-51t157-143.5 88-222 28-286.5q0-43-2-98.5t-11-119-24.5-129.5-42-129-64.5-118.5-91-97-123-65.5q-71-24-159-24-191 0-301.5 88.5t-135.5 275.5h141q8-55 30-99t58.5-76.5 86.5-49.5q47-18 109-18 78 0 137.5 27t103 73.5 72 108.5 44.5 129.5 23.5 138 7.5 133.5q-20-40-59-79.5t-91.5-70.5-113.5-50q-62-19-124-19-106 0-191 35.5t-147 99-95.5 154-33.5 199.5zM215 976q0-78 23.5-145t66-117 104-77.5 135.5-27.5q82 0 147 27.5t112 77 72 116.5 25 145q0 64-21 129.5t-62.5 117.5-108.5 84.5-161 32.5q-77 0-138-28.5t-104-78.5-66.5-116-23.5-140z" horiz-adv-x="1143" unicode="&#x39;"/><glyph d="M193 0v229h186v-229h-186zM193 794v229h186v-229h-186z" horiz-adv-x="571" unicode="&#x3a;"/><glyph d="M193 0v229h186v-226q0-46-8.5-91.5t-30.5-85-57.5-69.5-89.5-45v106q26 11 43 30.5t27 43.5 13 52 3 56h-86zM193 794v229h186v-229h-186z" horiz-adv-x="571" unicode="&#x3b;"/><glyph d="M88 460v122l1056 471v-127l-906-406 906-405v-127z" horiz-adv-x="1233" unicode="&#x3c;"/><glyph d="M94 256v123h1047v-123h-1047zM94 662v120h1047v-120h-1047z" horiz-adv-x="1233" unicode="&#x3d;"/><glyph d="M88-12v127l906 405-906 406v127l1056-471v-122z" horiz-adv-x="1233" unicode="&#x3e;"/><glyph d="M109 973q-6 118 24 210.5t91 156.5 151 98.5 203 34.5q88 0 165-26t134.5-74.5 91.5-118 34-159.5q0-56-16.5-103.5t-43-90.5-61.5-80q-35-39-72-74-44-41-74-73t-49.5-59-29.5-52-15-55-7-68q-1-37-3-90h-141q-3 91 11.5 158.5t43.5 123.5 72.5 103 100.5 100q25 23 50 54t45.5 63.5 33.5 67.5 13 71q0 57-20.5 105t-57 83-91 55.5-120.5 20.5q-82 0-143-29t-101.5-79-59.5-121q-21-71-18-153h-141zM470 0v223h183v-223h-183z" horiz-adv-x="1103" unicode="&#x3f;"/><glyph d="M91 716q0 109 26.5 206.5t75 181.5 117.5 152 154.5 116 183.5 74q99 27 205 27 100 0 191-20.5t169-60.5 141-95.5 107-126 68.5-154.5 24.5-178q0-82-20-157t-54.5-140-81-119-100.5-92.5-111.5-59-114.5-20.5q-28 0-50 11.5t-37 33-22 50-5 64.5q-30-36-65-65t-71.5-49-74.5-31-80-11q-64 0-115.5 23.5t-87 63-54.5 94-19 116.5q0 69 16 140t45.5 136 73.5 122 98.5 100 120.5 67 140 24q85 0 137-39 54-39 80-120l45 121h120l-195-587q-12-32-18.5-61.5t-5-51.5 11.5-35 34-13q39 0 79.5 21t79 57 70.5 84.5 57 103 39 113.5 14 116q0 81-21 151.5t-59.5 128-92 103-117.5 76.5-137.5 47-149.5 16q-95 0-180-23.5t-157-67-128.5-103.5-97-133-61-158-20.5-176q0-90 22-172.5t63-153.5 100-130 131-101 155-65q84-22 175-22 74 0 146 14.5t135 44 117 71.5q55 40 91 96h123q-44-78-108.5-138t-142.5-102-170-64q-91-22-191-22-111 0-211 26.5t-185.5 75-154.5 116-116.5 151-73.5 181-26 201.5zM532 562q0-50 13.5-85.5t33-59 45.5-35.5 55-12q50 0 96.5 23t85.5 60.5 71 86 54 100 34 103 12 95.5q0 32-6 65t-23.5 59-48.5 41.5-78 15.5q-51 0-96-20.5t-83-56-69-82-51.5-96.5-32.5-102.5-12-99.5z" horiz-adv-x="1643" unicode="&#x40;"/><glyph d="M-18 0l590 1438h169l572-1438h-166l-177 447h-645l-178-447h-165zM370 573h547l-267 699z" horiz-adv-x="1293" unicode="&#x41;"/><glyph d="M147 0v1438h600q61 0 121.5-8.5t115-26 100-46 78-71 51.5-100 19-131.5q0-45-15-90t-44-84.5-70.5-69.5-94.5-48q65-13 118-45.5t89.5-78 57.5-104.5 21-125q0-35-7-79t-26.5-89.5-58-89-98.5-77.5-148.5-54.5-208.5-20.5h-600zM301 129h446q51 0 100.5 6t93.5 18.5 80.5 34 64.5 53 43 75 15 99.5q0 67-28 117t-79.5 84.5-125 51.5-164.5 17h-446v-556zM301 814h446q84 0 146.5 18t103.5 50 61.5 76.5 20.5 96.5q0 124-84 188.5t-248 64.5h-446v-494z" horiz-adv-x="1372" unicode="&#x42;"/><glyph d="M78 717q0 99 19 193t56.5 177 95.5 153 135.5 120.5 173.5 78.5q95 28 212 28 71 0 139.5-14t130.5-41 116.5-67 97.5-92.5 70.5-119 36.5-144.5h-150q-19 83-61 147.5t-100 109.5-129 68.5-151 23.5q-97 0-174-25t-137.5-68-103.5-101.5-71-127.5-41-145q-14-77-14-154 0-78 13.5-153.5t41.5-144.5 71-128 103.5-102 138.5-68q76-24 173-24 68 0 125.5 17.5t105 48.5 85 72 65.5 91 44 103 22 109h152q-12-123-58.5-227.5t-123-179.5-181.5-118q-106-42-236-42-117 0-212.5 27.5t-173 77.5-135.5 120-95.5 153-56.5 177-19 191z" horiz-adv-x="1447" unicode="&#x43;"/><glyph d="M147 0v1438h509q167-5 293.5-52t211-136 127-222.5 42.5-310.5q0-355-169.5-533t-504.5-184h-509zM301 129h346q125 0 223.5 31t166.5 101.5 104 182.5 36 273q0 159-39.5 272t-111.5 184.5-172.5 104.5-221.5 33l-331-1v-1181z" horiz-adv-x="1408" unicode="&#x44;"/><glyph d="M147 0v1438h1014v-130h-860v-494h790v-129h-790v-556h869v-129h-1023z" horiz-adv-x="1218" unicode="&#x45;"/><glyph d="M147 0v1438h933v-130h-779v-494h675v-129h-675v-685h-154z" horiz-adv-x="1103" unicode="&#x46;"/><glyph d="M78 717q0 99 18.5 193t56.5 177 95.5 153 134 120.5 173.5 78.5 213 28q117 0 221-34t184.5-97 135-157 75.5-215h-153q-5 41-21.5 85.5t-45.5 85.5-68 78-89 64.5-110 44-129 16.5q-97 0-174.5-25t-137.5-68-102.5-101.5-70.5-127.5-41-145q-14-77-14-154 0-78 13.5-153.5t41.5-144.5 70.5-128 102.5-102 138-67.5 174-24.5q114 0 206 39.5t158.5 109 100.5 164.5q33 91 33 195v12h-494v130h629v-747h-105l-17 243q-38-68-94-118.5t-122.5-84.5-142.5-51.5-152-17.5q-118 0-214 27.5t-172.5 77.5-134 120-95.5 153-56.5 177-18.5 191z" horiz-adv-x="1522" unicode="&#x47;"/><glyph d="M147 0v1438h154v-619h846v619h152v-1438h-152v688h-846v-688h-154z" horiz-adv-x="1447" unicode="&#x48;"/><glyph d="M153 0v1438h151v-1438h-151z" horiz-adv-x="457" unicode="&#x49;"/><glyph d="M41 456v20h155v-25q0-26 .5-63.5t8-76.5 22-77 44-68.5 74.5-49.5q43-19 111-19 79 0 130.5 25t79.5 70.5 38 109.5 10 140v996h150v-998q0-111-19-197.5t-65-147-125-92.5-199-32q-83 0-146 18t-108.5 51.5-76.5 78-49.5 98-26.5 114-8 125.5z" horiz-adv-x="1011" unicode="&#x4a;"/><glyph d="M147 0v1438h154v-765l834 765h203l-663-597 692-841h-197l-607 741-262-250v-491h-154z" horiz-adv-x="1333" unicode="&#x4b;"/><glyph d="M147 0v1438h154v-1309h769v-129h-923z" horiz-adv-x="1067" unicode="&#x4c;"/><glyph d="M144 0v1438h232l482-1238 477 1238h233v-1438h-151v1266l-494-1266h-132l-497 1266v-1266h-150z" horiz-adv-x="1712" unicode="&#x4d;"/><glyph d="M144 0v1438h188l818-1241v1241h149v-1438h-173l-832 1252v-1252h-150z" horiz-adv-x="1447" unicode="&#x4e;"/><glyph d="M69 717q0 99 19 193t57.5 177 96.5 153 134.5 120.5 172.5 78.5 212 28q117 0 213-28t172.5-78.5 134.5-120.5 96.5-153 57.5-176.5 19-193.5q0-98-19-191.5t-57.5-176.5-96.5-153-134.5-120-172.5-77.5-213-27.5q-114 0-211 27.5t-173.5 77.5-134.5 120-96.5 153-57.5 176.5-19 191.5zM223 717q0-78 13.5-153.5t40.5-144.5 70.5-128 104-102 136.5-67.5 173-24.5 174.5 24.5 137 67.5 103 102 70.5 128 40 145.5 13 153-13 153-40 145.5-70.5 127.5-103 101.5-137 68-174.5 25-173-25-136.5-68-104-101.5-70.5-127.5-40.5-145.5-13.5-153.5z" horiz-adv-x="1522" unicode="&#x4f;"/><glyph d="M147 0v1438h647q100 0 180.5-28t139-81 90-131 31.5-175q0-98-31.5-175.5t-90-129-139-79-180.5-27.5h-493v-612h-154zM301 741h460q72 0 132 16t102.5 51.5 66 88.5 23.5 126q0 74-23.5 126.5t-66 88-102.5 53-132 17.5h-460v-567z" horiz-adv-x="1293" unicode="&#x50;"/><glyph d="M69 717q0 99 19 193t57.5 177 96.5 153 134.5 120.5 172.5 78.5 212 28q117 0 213-28t172.5-78.5 134.5-120.5 96.5-153 57.5-176.5 19-193.5q0-95-18.5-185.5t-54.5-172-90-150.5q-53-71-127-121l196-226h-184l-137 159q-61-24-129.5-37t-148.5-13q-114 0-211 27.5t-173.5 77.5-134.5 120-96.5 153-57.5 176.5-19 191.5zM223 717q0-78 13.5-153.5t40.5-144.5 70.5-128 104-102 136.5-67.5 173-24.5q53 0 100 7 47 8 89 22l-247 286h185l188-221q59 44 101.5 103t69.5 126.5 39.5 144 12.5 152.5q0 77-13 153.5t-40 145.5-70.5 127.5-103 101.5-137 68-174.5 25-173-25-136.5-68-104-101.5-70.5-127.5-40-145q-14-77-14-154z" horiz-adv-x="1522" unicode="&#x51;"/><glyph d="M147 0v1438h669q91 0 172.5-23t143.5-69.5 98.5-118.5 36.5-170q0-71-22.5-136t-64.5-117.5-101.5-88.5-133.5-48q35-14 63-41.5t49.5-60.5 37-66 24.5-57l89-245q14-38 25-66t22.5-50 23.5-41 23-40h-169q-13 18-24.5 40t-22.5 45.5-21 50-17 51.5l-81 226q-11 35-32.5 72.5t-54.5 69.5-81 51q-46 20-114 20h-384v-626h-154zM301 754h475q68 0 129 18.5t107 53.5 74 86.5 28 116.5-19 115.5-58 86.5-97 56.5-136 20.5h-503v-554z" horiz-adv-x="1364" unicode="&#x52;"/><glyph d="M76 500h150q0-9-1-17-1-101 33-172 36-77 99-125t150-68.5 185-20.5q39 0 80.5 7.5t84.5 21.5 81 36.5 67.5 55 46.5 73 17 91.5q0 38-12.5 70.5t-34.5 58.5-51.5 45.5-62 34.5-67.5 26-68 18l-300 68q-66 14-127 39t-108 67-75 102.5-28 145.5q0 35 9 79t29.5 90 57.5 89 92.5 77 134.5 54.5 183 20.5q110 0 209.5-32.5t173.5-92.5 117-149q44-88 44-202h-153q-3 82-35.5 146.5t-85.5 109-122 68-145 23.5q-71 0-135.5-15t-113-48-78-86.5-29.5-131.5q0-49 17.5-84t47-60 69.5-41 84-27l329-81q53-11 101.5-27.5t92-39 79.5-51.5 61-67 39-86q15-49 15-108 0-17-3-45t-11.5-60.5-25-68-44.5-70-69.5-65-100-54-134.5-37.5-176-14q-131 0-240.5 32t-188.5 97-120 165q-35 89-35 205 0 15 1 30z" horiz-adv-x="1293" unicode="&#x53;"/><glyph d="M12 1308v130h1108v-130h-479v-1308h-151v1308h-478z" horiz-adv-x="1131" unicode="&#x54;"/><glyph d="M132 553v885h153v-885-8q-1-115 27-199 28-86 81.5-142t131.5-81.5 179-25.5q100 0 178.5 25.5t132.5 81 81 142 27 207.5v885h153v-885q0-125-31-231.5t-100-184.5-178-122-263-44-263 44-178 122-100 185-31 231z" horiz-adv-x="1408" unicode="&#x55;"/><glyph d="M12 1438h164l465-1265 464 1265h165l-544-1438h-170z" horiz-adv-x="1281" unicode="&#x56;"/><glyph d="M12 1438h164l331-1229 349 1229h185l354-1229 328 1229h154l-407-1438h-159l-366 1255-360-1255h-165z" horiz-adv-x="1888" unicode="&#x57;"/><glyph d="M-3 0l517 747-479 691h180l394-585 405 585h171l-484-694 522-744h-185l-429 629-441-629h-171z" horiz-adv-x="1227" unicode="&#x58;"/><glyph d="M12 1438h181l463-732 458 732h181l-564-862v-576h-155v576z" horiz-adv-x="1305" unicode="&#x59;"/><glyph d="M15 0v129l936 1179h-869v130h1044v-130l-936-1179h936v-129h-1111z" horiz-adv-x="1180" unicode="&#x5a;"/><glyph d="M150-394v1896h344v-120h-203v-1655h203v-121h-344z" horiz-adv-x="496" unicode="&#x5b;"/><glyph d="M-16 1470h117l610-1499h-123z" horiz-adv-x="683" unicode="&#x5c;"/><glyph d="M3-273h203v1655h-203v120h344v-1896h-344v121z" horiz-adv-x="496" unicode="&#x5d;"/><glyph d="M78 517l485 921h107l485-921h-129l-412 774-402-774h-134z" horiz-adv-x="1233" unicode="&#x5e;"/><glyph d="M0-141h1026v-115h-1026v115z" horiz-adv-x="1026" unicode="&#x5f;"/><glyph d="M-72 1502h176l215-295h-113z" horiz-adv-x="379" unicode="&#x60;"/><glyph d="M66 285q0 88 34.5 151.5t90.5 104.5 131 64 154.5 33 159.5 11h23q68 0 129-5v106q0 60-21.5 103.5t-57.5 71.5-83 41.5-98 13.5q-68 0-118.5-16.5t-86-47.5-53-76.5-17.5-101.5h-141q0 84 29.5 151.5t83.5 115.5 130.5 73.5 169.5 25.5q45 0 93-6.5t93-21.5 84.5-41.5 70.5-65 48-92.5 17-126v-558q0-24 2-51t6.5-53.5 9-49.5 9.5-39h-139q-12 38-17 75.5t-8 81.5q-35-47-71.5-83t-78-58.5-94.5-33.5-119-11q-72 0-138.5 18t-116.5 57-80 99q-30 58-30 140zM209 294q0-47 19-85t50-64.5 70.5-40 82.5-13.5q70 0 135.5 22t114 64.5 78 103 29.5 136.5v118q-33 2-72 2-18-1-40-1-62-2-127-9t-126-23-109-43-76.5-67.5-28.5-99.5z" horiz-adv-x="1065" unicode="&#x61;"/><glyph d="M126 0v1470h144v-585q25 51 62.5 90t83.5 65.5 98.5 40 107.5 13.5q117 0 205.5-43t146.5-118 87.5-177.5 29.5-221.5q0-121-29.5-223t-88.5-178.5-147-119-204-42.5q-59 0-113.5 14t-100.5 41-84.5 65-64.5 87v-178h-133zM268 532q0-54 8-108t25-103 44-91 66-73 92-48.5 119-17.5q57 0 104 17.5t83 48.5 62.5 73 43.5 91 26 103 9 108q0 87-19.5 165.5t-59 139-101 97-148.5 36.5q-68 0-120-17.5t-91-48.5-66-72-44-90.5-25-103-8-106.5z" horiz-adv-x="1174" unicode="&#x62;"/><glyph d="M76 532q0 115 32.5 217t96.5 178 157.5 120 216.5 44q85 0 159.5-23.5t131-69 93.5-114.5q37-67 47-158h-141q-15 56-38 101t-58 75.5-83.5 47.5-110.5 17q-92 0-160-36.5t-112.5-97-66.5-138.5-22-163q0-84 22-163t66.5-141.5 113-101 159.5-38.5q59 0 110.5 22t91 62 64 95.5 30.5 120.5h142q-12-97-48.5-175t-94-132.5-131.5-83.5q-76-29-164-29-82 0-151 20.5t-125 57-98 89-70.5 115-43.5 134.5-15 148z" horiz-adv-x="1101" unicode="&#x63;"/><glyph d="M85 534q0 120 29 222t87 177 146 118 206 43q56 0 108-13.5t97.5-40 83-64.5 61.5-91v585h145v-1470h-132v178q-27-49-64.5-87t-84.5-65-101-41-113-14q-118 0-205.5 42.5t-145.5 119-87.5 179.5-29.5 222zM226 532q0-54 7.5-108t25-103 44-91 63.5-73 82.5-48.5 104.5-17.5q67 0 118.5 17.5t91.5 48.5 67 73 44 91 24.5 102 7.5 109q0 55-7.5 107.5t-24.5 102-44 90.5-67 72-91.5 48.5-118.5 17.5q-87 0-148.5-36.5t-101.5-97-58.5-139-18.5-165.5z" horiz-adv-x="1174" unicode="&#x64;"/><glyph d="M76 535q0 69 13.5 136.5t40 129.5 66 115 93.5 92 122 61 152 22q85 0 154-23.5t123-63.5 92-95.5 63-122 35-140.5q8-57 9-115 0-17-1-34h-820q0-74 22.5-146t66-130 106.5-94 150-36q68 0 121.5 19t92.5 51.5 64.5 78 39.5 97.5h142q-19-78-56.5-145t-93.5-116.5-133.5-77-176.5-27.5q-82 0-150.5 22t-122 60-94 92.5-67 116-39.5 131.5q-14 72-14 142zM218 617h677q-3 72-26.5 136t-66.5 111-103.5 75-135.5 28q-76 0-135.5-28t-104-76.5-71-111.5-34.5-134z" horiz-adv-x="1126" unicode="&#x65;"/><glyph d="M12 951v121h181v89q0 77 12.5 136.5t43 100 79 62.5 122.5 22q38 0 66.5-3t55.5-9v-123q-30 5-51 8t-51 3q-50 0-77.5-16t-39.5-44-15-64.5-3-78.5v-83h209v-121h-209v-951h-142v951h-181z" horiz-adv-x="557" unicode="&#x66;"/><glyph d="M85 563q0 74 15 142t43 128.5 69 110.5 94 86 117.5 55.5 139.5 19.5q53 0 102-13t91-38 77-59q34-34 61-78v155h141v-959q-2-114-33.5-210t-91-165.5-147-108.5-200.5-39q-53 0-103.5 9.5t-98.5 28-89 45.5-72.5 64.5-51.5 84-25 102.5h142q11-56 40.5-96t70-65 89-37.5 98.5-12.5q74 0 135 27.5t105 78 67.5 125 23.5 166.5v97q-27-47-63.5-83t-80.5-61-91-38-96-13q-126 0-216.5 43t-148.5 118-85.5 176-27.5 214zM226 547q0-80 21-154t62-132 105-93.5 149-35.5q82 0 143 35.5t104 93.5 63 133q21 73 21 153 0 51-7.5 103.5t-25 101-44 90-63.5 72.5-84 49.5-107 18.5q-59 0-107.5-17.5t-86-47-64.5-70.5-44.5-89.5-26-101.5-8.5-109z" horiz-adv-x="1161" unicode="&#x67;"/><glyph d="M126 0v1470h142v-566q33 47 76 82.5t89 59.5 94.5 36.5 95.5 12.5q103 0 173.5-28.5t112.5-84.5 60.5-137 18.5-183v-662h-141v659q0 73-12 132t-40 98.5-72 61-111 21.5q-77 0-138.5-29.5t-107.5-80.5-71-118.5-27-143.5v-600h-142z" horiz-adv-x="1114" unicode="&#x68;"/><glyph d="M144 0v1072h141v-1072h-141zM144 1252v218h141v-218h-141z" horiz-adv-x="430" unicode="&#x69;"/><glyph d="M-41-268q13-1 26.5-1.5t24.5-.5h19 9q36 0 56.5 9.5t32 28.5 14.5 46 3 63v1195h141v-1194q0-59-8.5-109t-33.5-86-68-55-107-19h-28t-31 1.5-29 2.5q-12 0-21 2v117zM144 1254v216h141v-216h-141z" horiz-adv-x="430" unicode="&#x6a;"/><glyph d="M126 0v1470h142v-907l570 509h191l-463-402 488-670h-178l-417 575-191-169v-406h-142z" horiz-adv-x="1062" unicode="&#x6b;"/><glyph d="M144 0v1470h141v-1470h-141z" horiz-adv-x="430" unicode="&#x6c;"/><glyph d="M126 0v1072h133l1-168q53 93 137.5 142t196.5 49q101 0 177-46t120-152q25 50 61 88t80 62.5 92.5 36 98.5 11.5q171 0 261-94.5t90-284.5v-716h-141v710q0 65-12.5 113.5t-39 81.5-69.5 50-104 17q-85 0-141-32t-89-83-47-119.5-14-142.5v-595h-141v706q0 53-9.5 101.5t-33.5 85-62.5 58-94.5 21.5q-85 0-143-29t-94-79-53-120q-18-71-18-155v-589h-142z" horiz-adv-x="1700" unicode="&#x6d;"/><glyph d="M126 0v1072h133l1-161q30 50 67.5 87t82 60.5 94 35 102.5 11.5q114 0 189-29t120.5-83 65-131 19.5-173v-689h-142v667q0 68-11.5 125.5t-41 100-80.5 65.5q-49 24-128 24-77 0-137-27t-101-75-65-112.5-26-141.5v-626h-142z" horiz-adv-x="1126" unicode="&#x6e;"/><glyph d="M69 525q0 76 14.5 147.5t44 134.5 72.5 114.5 98.5 88.5 124 57.5 149.5 20.5 149-20.5 124-57.5 99.5-88.5 72-114.5 43.5-134.5 15-147.5q0-115-33.5-217t-97-178.5-157-120.5-215.5-44q-121 0-214 44t-158 120.5-98 178-33 217.5zM212 525q0-88 22-168.5t67.5-140.5 113-95.5 157.5-35.5q91 0 158 35.5t111.5 95.5 67 139.5 22.5 169.5q0 88-22.5 168t-67 140.5-111.5 95.5-158 35-158-35-112.5-95.5-67.5-140-22-168.5z" horiz-adv-x="1143" unicode="&#x6f;"/><glyph d="M126-398v1468h133v-176q26 48 64.5 85t84.5 62 100.5 37.5 113.5 12.5q117 0 204.5-43t146.5-117.5 88-177.5q30-100 30-218t-29.5-219-87.5-176-146.5-118.5-205.5-43.5q-56 0-108 12.5t-98 39-82.5 64.5-63.5 91v-583h-144zM268 539q0-54 8-107t25-102 44-91 66-73 92-48 119-17q87 0 148.5 36t101 97 59 140 19.5 163q0 52-9 104.5t-26 101-43.5 89.5-62.5 72-83 48.5-104 17.5q-68 0-120-16t-91-46-66-70.5-44-89-25-101.5-8-108z" horiz-adv-x="1174" unicode="&#x70;"/><glyph d="M85 535q0 118 29.5 219.5t87.5 176 145.5 117.5 205.5 43q59 0 113-12.5t101-37.5 85.5-62.5 63.5-84.5v176h132v-1468h-145v583q-25-53-62-91t-82.5-64.5-97.5-39-108-12.5q-118 0-206 43.5t-146 118.5-87 176-29 219zM226 537q0-84 18.5-163t58.5-140 101.5-97 148.5-36q67 0 118.5 17t91.5 48 67 73 44 91 24.5 102 7.5 107q0 55-7.5 108t-24.5 101.5-44 89-67 70.5-91.5 46-118.5 16q-58 0-104-17.5t-83-48.5-63.5-72-44-89.5-25-101-7.5-104.5z" horiz-adv-x="1174" unicode="&#x71;"/><glyph d="M126 0v1072h136v-203q29 56 64.5 96t78 66.5 93.5 40.5q49 13 111 16 11 0 25-1 13-2 25-2v-150q-17 3-33.5 4.5t-33.5 2.5h-10q-64 0-120-24-60-26-102-73.5t-67-112.5-25-141v-591h-142z" horiz-adv-x="676" unicode="&#x72;"/><glyph d="M63 356h143q4-65 28.5-115t64-84 92.5-50 115-16q41 0 89.5 9t90.5 31 69 58.5 27 91.5q0 44-16 75t-45.5 50.5-68 33-80.5 22.5l-157 36q-62 15-116.5 36.5t-95.5 56.5-64.5 85-23.5 121q0 53 16 96t45.5 76.5 69 57 83.5 38.5 91 22 94 7q78 0 148-23.5t121.5-69 81.5-112 30-150.5h-141q-3 62-23.5 105.5t-55 71.5-80.5 41q-45 13-98 13-40 0-82.5-8.5t-78-29.5-58-54-22.5-81q0-47 22-77.5t54.5-49.5 69.5-30q39-11 71-18l159-40q65-15 119.5-37t92.5-56.5 58.5-83 20.5-115.5q0-59-17.5-105.5t-48.5-81.5-72-60-88-41.5-98-23.5-99-7q-91 0-167.5 22t-134 69-92.5 120q-35 74-43 174z" horiz-adv-x="990" unicode="&#x73;"/><glyph d="M3 951v121h184v272h141v-272h216v-121h-216v-707q0-31 3.5-55t15.5-42 32.5-28 52.5-13q30 0 55 1 25 0 57 8v-115q-9-3-24.5-4.5t-32.5-3.5-33.5-3-28.5-1q-68 2-113.5 13.5t-72.5 39.5-39.5 74.5-12.5 116.5v719h-184z" horiz-adv-x="577" unicode="&#x74;"/><glyph d="M126 379v693h142v-696q2-70 17-124.5t45-90 77-53 113-17.5q78 0 139 35.5t102.5 94 63.5 133.5 22 155v563h141v-1072h-131l-4 171q-62-96-147.5-148t-205.5-52q-100 0-170.5 27.5t-116 82-66.5 129.5-21 169z" horiz-adv-x="1114" unicode="&#x75;"/><glyph d="M0 1072h159l317-916 310 916h150l-386-1072h-150z" horiz-adv-x="942" unicode="&#x76;"/><glyph d="M13 1072h155l255-885 262 885h141l268-888 250 888h154l-328-1072h-154l-263 873-258-873h-154z" horiz-adv-x="1514" unicode="&#x77;"/><glyph d="M3 0l406 564-371 508h168l291-394 288 394h165l-372-505 413-567h-172l-328 453-326-453h-162z" horiz-adv-x="990" unicode="&#x78;"/><glyph d="M3 1072h154l334-888 306 888h150l-453-1231q-27-70-53-115t-60-70.5-76-36.5q-40-10-96-10-25 0-49.5 4.5t-41.5 8.5v121q10-3 19.5-6t20-4.5 22-2 26.5-.5q42 0 69.5 11.5t45 32 29.5 51.5 26 66l44 118z" horiz-adv-x="951" unicode="&#x79;"/><glyph d="M35 0v115l674 836h-624v121h809v-99l-682-852h682v-121h-859z" horiz-adv-x="956" unicode="&#x7a;"/><glyph d="M165 491v121q44 0 73.5 27.5t45.5 73.5 22.5 104.5 6.5 118.5v305q0 58 12.5 106.5t36 82.5 58 51.5 80.5 17.5h109v-120h-49q-29 0-49-17.5t-33-45.5-18.5-65-5.5-78v-285q2-72-13-128.5t-37-98-45.5-68.5-39.5-42q15-10 38.5-34.5t45.5-64.5 37.5-99 13.5-135v-287q0-40 5.5-76.5t18.5-64.5 33-44 49-16h49v-121h-109q-46 0-80.5 17.5t-58 50.5-36 81-12.5 110v300q0 58-6.5 117t-22.5 104.5-45.5 73.5-73.5 28z" horiz-adv-x="683" unicode="&#x7b;"/><glyph d="M168-29v1499h120v-1499h-120z" horiz-adv-x="457" unicode="&#x7c;"/><glyph d="M75-270h48q30 0 50.5 16t33.5 44 19 64.5 6 76.5v287q-1 76 13 133.5t35 99 44 67.5 38 36q-15 10-38 34.5t-44 65-36 98.5-12 136v285q0 40-6 77.5t-19 65.5-33.5 45.5-50.5 17.5h-48v120h109q47 0 81.5-17.5t59.5-51.5 36.5-82.5 11.5-106.5v-305q0-61 6-118.5t22-102.5 45.5-73 73.5-28v-120q-45 0-74-28t-45-73.5-22-103-6-118.5v-303q0-122-48.5-190.5t-140.5-68.5h-109v121z" horiz-adv-x="683" unicode="&#x7d;"/><glyph d="M148 429q3 74 29 122.5t64 78.5 82 43q45 12 83 12 42 0 76.5-10.5t67-26.5 62-34.5 60.5-34.5 66-27 76-11q22 0 45 5t41.5 19 32.5 40 17 67h130q-4-58-24.5-105t-54.5-79-78-50.5-97-18.5q-50 0-92.5 11t-81 28-70.5 36.5-63 36-59.5 28-56.5 11.5q-15 0-33.5-5.5t-35-22-28.5-43.5q-12-26-12-70h-146z" horiz-adv-x="1228" unicode="&#x7e;"/><glyph d="M115 532q0 106 28 201.5t82 170 135 122 187 60.5v187h101v-185q80-5 148-29t120.5-69.5 85.5-112 45-151.5h-141q-14 53-35 95t-53 73-73.5 49-96.5 21v-876q53 6 99.5 31t80 64.5 56 91 27.5 113.5h142q-12-93-46-168.5t-85.5-129-121-85-152.5-37.5v-209h-101v212q-106 11-187 61t-135 125-82 172-28 203zM256 532q0-75 17.5-147.5t53-133 90.5-102.5q56-40 130-55v867q-75-13-130-53.5t-90.5-99-53-130-17.5-146.5z" horiz-adv-x="1143" unicode="&#xa2;"/><glyph d="M88-19v119q38 26 77 63t69.5 82.5 49.5 98.5 19 112q0 20-3 45t-8 51.5-13 50.5q-9 23-20 44h-171v87h124q-46 74-73 149t-27 164q0 110 39.5 190t104 131.5 149.5 75.5q86 23 177 23 81 0 145.5-17.5t115.5-51.5 87.5-80 60-101.5 35.5-118 10-128.5h-142q0 41-6 85.5t-21.5 87-39.5 80-59.5 66-81 44.5-104.5 16q-63 0-122.5-19t-105-57-73-97-27.5-138q0-50 10.5-90t27.5-74.5 36-68 40-71.5h355v-87h-317q20-46 29-92t9-85q0-105-39.5-182.5t-110.5-130.5q10 5 25 8t32 5 36 2.5 36 .5q42-1 81.5-12t82-24.5 89.5-23.5 100-10q30 0 64.5 3t70.5 10 72 20.5 68 34.5v-130q-28-17-61.5-29.5t-70-20-73-10.5-70.5-3q-60 0-105.5 9.5t-89 23-89 25-107.5 17.5q-38 3-77.5-3.5t-78-17.5-73.5-24.5-68-26.5z" horiz-adv-x="1143" unicode="&#xa3;"/><glyph d="M0 1438h159l410-727 413 727h156l-437-732h219v-100h-276q-2-2-2.5-3.5t-.5-4.5q-2-4-3-7v-118h282v-104h-282v-369h-141v369h-277v104h277v118l-12 15h-265v100h214z" horiz-adv-x="1143" unicode="&#xa5;"/><glyph d="M51 735q0 109 27.5 208t76 185 118.5 155 155.5 119 185 76.5 208.5 26.5 209.5-26.5 185.5-76.5 154.5-119 119.5-155 76-185 26-208-26-209-76-185-119.5-155-154.5-119-185-75.5-210-26.5q-109 0-208.5 26.5t-185 75.5-155.5 119-118.5 155-76 185-27.5 209zM184 735q0-91 22-174t62.5-156 97.5-131.5 127.5-100.5 154-65 174.5-23 174 23 154.5 65 129.5 100.5 99 131.5 63 156 22 174q0 90-22 173t-63 155-99 130.5-129.5 101.5-154.5 66.5-174 23.5-174.5-23.5-154-66.5-127.5-101.5-97.5-130.5-62.5-156-22-172zM426 723q0 97 27.5 182.5t80.5 150 131.5 103 181.5 38.5q70 0 132-21t108-60.5 77-101.5q30-61 41-142h-126q-12 48-31 86.5t-47.5 65.5-67.5 41q-36 14-86 14-74 0-128.5-30t-89.5-80-52.5-114-17.5-132q0-67 17.5-132t52.5-115 89.5-80.5 128.5-30.5q47 0 87.5 19t71 51 50.5 78 24 99h131q-10-84-40-150.5t-77-113.5-110.5-72-136.5-25q-103 0-181.5 37.5t-131.5 102.5-80.5 150-27.5 182z" horiz-adv-x="1643" unicode="&#xa9;"/><glyph d="M118 497v138l294 259v-160l-194-168 194-168v-163zM448 497v138l293 259v-160l-194-168 194-168v-163z" horiz-adv-x="876" unicode="&#xab;"/><glyph d="M94 457v128h676v-128h-676z" horiz-adv-x="864" unicode="&#xad;"/><glyph d="M51 735q0 109 27.5 208t76 185 118.5 155 155.5 119 185 76.5 208.5 26.5 209.5-26.5 185.5-76.5 154.5-119 119.5-155 76-185 26-208-26-209-76-185-119.5-155-154.5-119-185-75.5-210-26.5q-109 0-208.5 26.5t-185 75.5-155.5 119-118.5 155-76 185-27.5 209zM184 735q0-91 22-174t62.5-156 97.5-131.5 127.5-100.5 154-65 174.5-23 174 23 154.5 65 129.5 100.5 99 131.5 63 156 22 174q0 90-22 173t-63 155-99 130.5-129.5 101.5-154.5 66.5-174 23.5-174.5-23.5-154-66.5-127.5-101.5-97.5-130.5-62.5-156-22-172zM538 285v898h347q76 0 132-19.5t91.5-54 52-81 16.5-98-19-91-48.5-67.5-64-44.5-63.5-21.5q26-12 44-31t31-39 22-40 15-34l47-142q16-47 36-77.5t43-57.5h-135q-7 8-14 21t-14 27-13 27-9 24l-57 166q-9 26-23 49.5t-37 41.5-57.5 27.5-87.5 9.5h-114v-393h-121zM659 782h138q48 0 95 6t83 21.5 59 44 23 77.5q0 44-14 72.5t-41 44.5-64.5 23-84.5 7h-194v-296z" horiz-adv-x="1643" unicode="&#xae;"/><glyph d="M132 235v163l194 168-194 168v160l294-259v-138zM463 235v163l194 168-194 168v160l293-259v-138z" horiz-adv-x="876" unicode="&#xbb;"/><glyph d="M91 1141v103q53 3 97 10t76.5 27 54.5 57.5 34 99.5h101v-868h-116v635q-44-35-107-48t-140-16zM301 0l872 1438h121l-869-1438h-124zM886 179v94l436 594h105v-591h139v-97h-139v-179h-117v179h-424zM1010 276h300v422z" horiz-adv-x="1715" unicode="&#xbc;"/><glyph d="M91 1141v103q53 3 97 10t76.5 27 54.5 57.5 34 99.5h101v-868h-116v635q-44-35-107-48t-140-16zM301 0l876 1438h120l-872-1438h-124zM979 0q0 74 24.5 130.5t63 102 88.5 81.5 103 68q36 21 78.5 44.5t79 53 61 67 24.5 87.5q0 35-14 64.5t-39 49-61 30.5-80 11q-55 0-91.5-22.5t-58.5-55.5-31-73.5-9-75.5h-113q-1 70 16.5 130.5t54 103 96 66.5 142.5 24q67 0 123-15t95.5-47.5 62-81 22.5-116.5q0-54-21.5-97.5t-54.5-80-75-64.5-83-49q-65-34-110.5-64.5t-76.5-59.5-51-57q-18-28-33-57h506v-97h-638z" horiz-adv-x="1715" unicode="&#xbd;"/><glyph d="M106 863h112q0-47 13-85.5t39.5-65.5 63-43 86.5-16q42 0 79.5 11.5t65 32 44.5 51.5 17 71q0 34-14.5 61t-39 46-57.5 29.5-70 10.5h-51v94h47q29 0 58.5 8t51.5 25.5 36 44 14 64.5q0 36-14 63t-39 44.5-58 27.5q-34 10-70 10-47 0-80.5-16.5t-57-43.5-35.5-61.5-12-73.5h-110q0 61 20 112.5t56.5 90.5 92.5 61 126 22q59 0 112-13.5t93.5-41.5 64-70.5 23.5-104.5q0-29-8-58.5t-23.5-55-38.5-46-55-32.5q32-9 60-27.5t48-43.5 31-57 11-71q0-60-24.5-107.5t-66-81.5-100.5-51.5-127-17.5q-76 0-134 22t-98 61-60 95q-22 57-22 126zM454 0l876 1438h121l-873-1438h-124zM970 179v94l435 594h106v-591h138v-97h-138v-179h-117v179h-424zM1094 276h300v422z" horiz-adv-x="1715" unicode="&#xbe;"/><glyph d="M29 97l399 420-399 422 86 84 394-420 397 420 85-84-400-422 400-420-85-82-397 419-394-419z" horiz-adv-x="1020" unicode="&#xd7;"/><glyph d="M94 459v123h1039v-123h-1039zM494 109q0 26 9 48t25 37.5 38 25 48 9.5q25 0 46.5-9.5t38.5-25 26.5-37.5 9.5-48q0-24-9.5-46t-25.5-38-37.5-26.5-45.5-10.5q-26 0-49.5 9.5t-39.5 26-25 38.5-9 47zM494 923q0 27 9 50.5t25 39.5 38 25 48 9q25 0 46.5-9t38.5-26 26.5-39.5 9.5-49.5q0-23-9.5-44.5t-25.5-38.5-37.5-26.5-45.5-9.5q-26 0-49.5 9.5t-39.5 26-25 37.5-9 46z" horiz-adv-x="1233" unicode="&#xf7;"/><glyph d="M51 882q18 71 58.5 139t106.5 122 160 86 224 32q106 0 186.5-19.5t139.5-55 98.5-83.5 63-106 34-122 10.5-131v-744h-150v770q0 44-7.5 89t-23.5 85.5-44 76.5-70.5 61.5-101.5 42-135 16.5q-66 0-120-12t-96.5-32.5-73.5-47-53-56-34-57.5q-11-28-17-51 50-29 72.5-88t22.5-141v-656h-151v659q0 32-3 65t-12.5 62.5-29.5 53.5-54 42z" horiz-adv-x="1267" unicode="&#xe01;"/><glyph d="M21 1132v103h292l231-1120h3l232 1120h163l-283-1235h-228l-250 1132h-160z" horiz-adv-x="1031" unicode="&#xe02;"/><glyph d="M44 1235h134q4-27 16-52t31-44 44-29 56-10q65 0 105 36.5t49 98.5h138v-227q0-29-11.5-57.5t-33.5-58-53-61-68-67.5q-35-35-60-66.5t-41-63-24-66-10-77.5v-74q0-76 20-135t56.5-100 86.5-61.5 109-20.5q57 0 105 14t81.5 48.5 53.5 92.5q19 57 19 145v835h150v-859q0-103-31-180t-85.5-127-129.5-74-163-24-165.5 27-135.5 79-91.5 127-33.5 172v52q0 50 3 89t10 68 17.5 54 28 47.5 39.5 44.5 53 48.5 61 54 54.5 57 39 63.5 14.5 72v65q-6-15-19-32t-35-31-56-22.5-81-8.5q-32 0-72 10t-76 36.5-63 72.5q-27 48-36 119z" horiz-adv-x="1131" unicode="&#xe03;"/><glyph d="M135 0v735q0 66 9 131t32.5 123 61 108 95 86.5 136 57 181.5 20.5 180.5-20.5 134.5-57 94.5-86.5 61-108 32-123.5 8.5-130.5v-735h-150v764q0 44-7 89t-23.5 87-44.5 78.5-67.5 63-94 43-125 16.5-125-16.5-94.5-43-67.5-63-45-78.5-25-87-7.5-89v-294-3q35 77 83 124t103 73.5 116 36.5q63 10 124 10v-120q-108 0-189-35.5t-133-99.5-78-154-26-202v-100h-150z" horiz-adv-x="1296" unicode="&#xe04;"/><glyph d="M135 0v782q0 85 15 163t53 140.5 105 105.5q68 44 171 61l177-174 166 174q106-14 174-58t108.5-107.5 56.5-141.5 16-163v-782h-151v782q0 43-4.5 91.5t-22 93-51.5 84.5-90 66l-202-197q-6-6-9 0l-202 197q-54-23-85.5-63t-48-85.5-21.5-94-5-92.5v-312-3q40 68 83.5 113.5t94 75 111.5 42.5 137 13v-120q-102 0-181.5-35.5t-134-99.5-82.5-154-28-202v-100h-150z" horiz-adv-x="1312" unicode="&#xe05;"/><glyph d="M26 1235h133q4-27 16.5-52t31-44 44-29 56.5-10q63 0 104 36 42 37 51 99h138v-227q-3-41-15-74.5t-32.5-64.5-48.5-62-64-66q-24-24-44-41.5t-36-35-28-35-19-40-11-50-4-66.5q0-72 27.5-140t77.5-121 122-84 164-31q72 0 125 20.5t88.5 59 53 94 17.5 123.5v841h150v-818q0-98-21.5-180.5t-69-142-124-93-188.5-33.5q-64 0-127.5 12.5t-120 39.5-103.5 70q-49 42-81 103v3q0-50-3-98t-3-98h-138v428q0 47 1.5 81.5t4.5 62.5 12 50 24 42.5 39 43.5q22 23 57 51 44 38 78 67.5t56 61 31 67.5 7 86v34q-9-15-25.5-30t-40-26-50-16.5-56.5-5.5q-34 0-74 10t-78.5 36.5-66.5 72.5q-28 48-37 119z" horiz-adv-x="1258" unicode="&#xe06;"/><glyph d="M38 709h158l180-528q16-46 51-69.5t73-23.5q31 0 54.5 10.5t39 28 24 41 8.5 50.5v911h-184v106h331v-976q0-80-20.5-134t-57-89.5-86.5-50-112-14.5q-59 0-104.5 14.5t-78 43-56 69-40.5 92.5z" horiz-adv-x="908" unicode="&#xe07;"/><glyph d="M63 914q9 77 43.5 141t95 108.5 148.5 69.5 204 25q124 0 208.5-33.5t136-92.5 73.5-135.5 19-161.5q-2-47-14.5-107.5t-33-129.5-47.5-143-58.5-151.5-65.5-153.5-68-150h-198l-215 600h-159v104h274l203-589q26 61 52.5 126t51.5 131 47 129 38 123.5 26.5 113.5 13.5 97q3 63-12.5 118t-51 96.5-93.5 65-143 23.5q-143 0-220-58-77-60-89-166h-166z" horiz-adv-x="1089" unicode="&#xe08;"/><glyph d="M112 917q11 68 45 129.5t96.5 108 154.5 73.5 218 27q106 0 187-19.5t138-55 96-83 62-106 32-122 9-131.5v-738h-139l-6 196q-35-62-85.5-105.5t-110-71.5-125-39.5-133.5-11.5q-122 0-202.5 33t-128 92.5-66.5 142.5q-19 82-19 181v239h150v-262q0-68 20.5-122t59-94 93-60.5 124.5-20.5q107 0 186 31t130.5 88 76.5 136.5 25 176.5v235q0 68-17 134t-59 119-115 85.5-183 32.5q-94 0-157-20.5t-104.5-53-62-70.5-29.5-74h-161z" horiz-adv-x="1284" unicode="&#xe09;"/><glyph d="M63 1111v96q21 9 49 17t55 14.5 50.5 10 38.5 3.5q117 0 176.5-58.5t55.5-170.5q-3-20-7.5-36.5t-12.5-32.5-19.5-33-28.5-38.5-40-50.5-52-68q-24-33-36.5-59t-17-50-4.5-50q-2-26-2-61v-119q0-77 22-136.5t60-100.5 89.5-61.5 111.5-20.5q59 0 109 15.5t87 51.5 57.5 93 20.5 140v100q0 64-8.5 110t-23 76-38 47-53 25-64.5 10-78 2h-40v115h40q79 3 136 28t92 70.5 51.5 107 16.5 138.5h149q-2-40-6.5-82t-16.5-81.5-31-76.5-48.5-66-71.5-52q-43-21-102-33 59-8 100-29t68.5-50 43-63.5 23.5-69 10-67.5 2-59v-124q0-103-35-180t-94-127-135.5-74.5-160.5-24.5q-85 0-163.5 26.5t-139 77.5-97 126.5-36.5 175.5v138q0 47 2 82.5t7 62 14 48 22 41 32 41.5q20 22 43 52 24 26 41.5 45t30.5 37 22 35.5 15 40.5q12 75-20 109-30 33-104 33-47 0-85-11-38-10-72-25z" horiz-adv-x="1089" unicode="&#xe0a;"/><glyph d="M18 1235h132q4-27 13.5-52t24.5-44 38-29q21-10 53-10 33 0 56.5 9.5t39.5 27 26 42.5q11 26 14 56h139v-227q0-29-8-57t-25.5-56.5-44.5-60.5q-29-31-64-70-36-35-61-66.5t-41-63-25-66-9-77.5v-66q0-77 22-136.5t60.5-100.5 90-61.5 111.5-20.5q59 0 109 15.5t86.5 51.5 58 93 21.5 140v100q0 64-9 110t-23.5 76-37.5 47-52 25-65 10-79 2v115q79 3 135.5 28t92 70.5 51.5 107 16 138.5h150q-3-40-7-82t-16-81.5-31-76.5-48.5-66-72.5-52q-42-21-101-33 59-8 100-29t68-50 42.5-63.5 23.5-69 10.5-67.5 2.5-59v-124q0-103-35.5-180t-94-127-135-74.5-160.5-24.5q-56 0-110.5 12t-103 35-89.5 57.5-71 79-46.5 100.5-16.5 122v46q0 50 3 87.5t10.5 67.5 19.5 53.5 28 46.5 39 45q21 22 50.5 51t56 57 46 57 30.5 62 11 71v65q-2-9-14-24.5t-33.5-31-51.5-27-71-11.5q-32 0-69 10t-70 36.5-57 72.5q-25 48-33 119z" horiz-adv-x="1098" unicode="&#xe0b;"/><glyph d="M51 882q12 47 34 93.5t54 88 74.5 78.5 98.5 64 123.5 42.5 149.5 15.5q100 0 175.5-19.5t132.5-55 95-83.5 61.5-106 34-122 10.5-131v-241q0-86 21-159.5t64.5-127.5 106.5-85 147-31q62 0 107 22t73 61.5 41 94 13 119.5v835h151v-810q0-93-16.5-175t-57-144-109-97-171.5-35q-57 0-111 10t-101 36.5-88 68.5-76 104l-8-193h-138v773q0 44-6.5 89t-22.5 85.5-43.5 76.5-67 61.5-93 42-124.5 16.5q-91 1-158.5-23t-114-63-72-86-34.5-90q29-15 47.5-38.5t29.5-53.5 14.5-64.5 3.5-75.5v-538h139v-112h-290v653q0 32-1.5 63t-11 59-29.5 54.5-57 52.5z" horiz-adv-x="1953" unicode="&#xe0c;"/><glyph d="M51 882q12 47 34 93.5t54 88 74.5 78.5 98.5 64 123.5 42.5 149.5 15.5q100 0 175.5-19.5t132.5-55 95-83.5 61.5-106 34-122 10.5-131v-241q0-65 13-119.5t41-94 73-61.5 106-22q84 0 147.5 30.5t106.5 85 64.5 128 21.5 159.5v623h151v-928q0-88-8-155.5t-21-119-31-89-35-64.5q-35-52-79.5-86t-94.5-55.5-105.5-30-116.5-8.5q-76 0-146.5 18t-127 56.5-97.5 94.5q-42 56-56 132h160q26-100 94.5-146.5t169.5-46.5q65 0 117.5 15.5t90.5 42 65 63.5 44 78 24.5 86.5 7.5 91.5v114q-35-61-76.5-104t-88.5-68.5-100-36.5-111-11q-103 0-171.5 36t-109 97.5-57.5 144-17 173.5v244q0 44-6.5 89t-22.5 85.5-43.5 76.5-67 61.5-93 42-124.5 16.5q-91 1-158.5-23t-114-63-72-86-34.5-90q29-15 47.5-38.5t29.5-53.5 14.5-64.5 3.5-75.5v-538h139v-112h-290v653q0 32-1.5 63t-11 59-29.5 54.5-57 52.5z" horiz-adv-x="1953" unicode="&#xe0d;"/><glyph d="M44 0v112h131v547q0 32-3 65t-13.5 62.5-30 53.5-53.5 42q18 71 58 139t106.5 122 161 86 222.5 32q106 0 187-19.5t139.5-55 98.5-83.5 64-106 33.5-122 9.5-131v-1144h-164q-19 30-51 53.5t-73.5 41-91 27.5-105.5 10-110-14.5-99.5-36.5-81-48.5-51.5-49.5v147q15 11 47 31t78.5 39 102.5 33 114 14q62 0 112.5-9.5t92-25 73.5-34.5 57-40v1032q0 44-6.5 89t-23.5 85.5-44.5 76.5-70.5 61.5-101.5 42-135.5 16.5q-100 0-170.5-26.5t-117.5-66.5-73-84q-24-44-33-79 50-29 73-88t23-141v-656h-281z" horiz-adv-x="1290" unicode="&#xe0e;"/><glyph d="M44 0v112h131v547q0 32-3 65t-13.5 62.5-30 53.5-53.5 42q18 71 58 139t106.5 122 161 86 222.5 32q106 0 187-19.5t139.5-55 98.5-83.5 64-106 33.5-122 9.5-131v-1144h-155q-14 31-30 56.5t-37.5 45.5-50.5 31-69 11q-38 0-65.5-13t-46.5-33.5-29-46.5q-10-24-16-51h-139q-8 27-19 52.5t-29.5 47-45 34.5-61.5 13q-30 0-52-12.5t-38-33-27-46.5q-10-25-13-55h-132q6 62 27 109t55 79.5 78 49.5q46 18 96 18 34 0 67-7.5t63-25 55.5-47 46.5-70.5q19 44 46.5 73.5t57.5 45.5 61.5 23.5 59.5 7.5q62 0 108-25t84-78v1017q0 44-6.5 89t-23.5 85.5-44.5 76.5-70.5 61.5-101.5 42-135.5 16.5q-100 0-170.5-26.5t-117.5-66.5-73-84q-24-44-33-79 50-29 73-88t23-141v-656h-281z" horiz-adv-x="1290" unicode="&#xe0f;"/><glyph d="M35-388q0 57 18.5 102t48.5 76.5 71.5 48.5 88.5 17q23 0 49.5-5t51.5-18.5 47-36 35-61.5q14 39 37.5 62.5t50 36.5 53 17.5 43.5 4.5q24-2 46.5-8.5t44-18 39-29.5 29.5-41v135h143v-282h-149q-12 28-23.5 52t-29.5 43.5-42 29.5-58 10q-26 0-46.5-10t-36-29.5-24-43.5-8.5-52h-141q0 26-5.5 51t-19 44.5-34 31-49.5 11.5q-27 0-46-13t-32.5-34-19-44.5-5.5-46.5h-127zM63 914q9 77 43.5 141t95 108.5 148.5 69.5 204 25q50 0 95-5.5t83-17.5q41 3 72.5 15.5t54.5 30.5 37.5 42 17.5 50h166q-4-26-18.5-54t-42.5-54.5-69.5-49.5-99.5-38q39-29 66.5-66.5t44.5-81.5 23.5-94 6.5-100q-2-47-14.5-107.5t-33-129.5-47.5-143-58.5-151.5-65.5-153.5-68-150h-198l-215 600h-159v104h274l203-589q26 61 52.5 126t51.5 131 47 129 38 123.5 26.5 113.5 13.5 97q3 63-12.5 118t-51 96.5-93.5 65-143 23.5q-143 0-220-58-77-60-89-166h-166z" horiz-adv-x="1103" unicode="&#xe10;"/><glyph d="M41 1235h140q3-27 13-52t28-44 42-29 58-10q31 0 57.5 9.5t45.5 27 31 42.5q14 26 17 56h139v-178q67 59 120 96.5t95.5 59.5 75 30.5 58.5 8.5q47 0 79.5-14.5t53-44 29.5-75 9-107.5v-1011h-150v1011 48.5t-3.5 30-11 16.5-22.5 5q-23 0-57.5-16t-75-44-85.5-64.5-92-79.5-92-90q-43-47-84-91-30-35-53.5-61.5t-39.5-50-27-45.5-17.5-48.5-9-59-2.5-76.5v-385h-151v373q0 46 1.5 81.5t5 64 11.5 53.5 22 50 36 51q21 27 53 62t58.5 62.5 47.5 51.5 35.5 46 24 49.5 14.5 60.5 5 75q-14-26-37.5-41.5t-49.5-24.5-52-11q-28-3-49-3-19 0-42 4t-48.5 14.5-50.5 27.5-46.5 42.5-35.5 61.5q-15 38-21 85z" horiz-adv-x="1267" unicode="&#xe11;"/><glyph d="M135 0v759q0 55 6.5 109.5t22 105.5 41.5 95.5 65 81.5 92 62.5 123 38.5l168-174 160 174q106-17 174-65.5t108-115 56-147 16-165.5v-253q0-86 22-159.5t65-127.5 106.5-85 147.5-31q62 0 106 22t73.5 61.5 42.5 94 13 119.5v835h150v-810q0-93-16-175t-57-144-110-97-172-35q-58 0-110 10t-100 36.5-89.5 68.5-77.5 104l-6-193h-138v782q0 57-8.5 108.5t-29.5 93.5-54.5 74.5-80.5 52.5l-188-191q-3-3 1-2 5-1 2 2l-208 191q-47-22-78.5-55t-50.5-74-28-91-9-109v-601l338 416h-135v104h303v-98l-490-603h-166z" horiz-adv-x="2028" unicode="&#xe12;"/><glyph d="M51 882q12 47 34 93.5t54 88 74.5 78.5 98.5 64 123.5 42.5 149.5 15.5q100 0 175.5-19.5t132.5-55 95-83.5 61.5-106 34-122 10.5-131v-347q0-65 13-119.5t41-94 73-61.5 106-22q84 0 147.5 31t106.5 85 64.5 127.5 21.5 159.5v729h151v-1235h-138l-7 193q-35-62-76.5-104t-88.5-68.5-100-36.5-111-10q-103 0-171.5 35t-109 97-57.5 144-17 175v348q0 44-6.5 89t-22.5 85.5-43.5 76.5-67 61.5-93 42-124.5 16.5q-91 1-158.5-23t-114-63-72-86-34.5-90q29-15 47.5-38.5t29.5-53.5 14.5-64.5 3.5-75.5v-538h139v-112h-290v653q0 32-1.5 63t-11 59-29.5 54.5-57 52.5z" horiz-adv-x="1953" unicode="&#xe13;"/><glyph d="M135 0v732q0 71 10.5 137t34 124 62.5 107.5 97 84.5 136 54 178 19q101 0 179.5-19t136-54 95.5-84.5 62.5-107.5 34.5-125q9-65 9-136v-732h-150v753q0 47-6 94.5t-22.5 91-44 79.5-68.5 63-97 42-129.5 15-129.5-15-97-42-67.5-63-42.5-79.5-23.5-91-7.5-94.5v-572l347 422h-141v98h303v-98l-496-603h-163z" horiz-adv-x="1306" unicode="&#xe14;"/><glyph d="M135 0v759q0 55 6.5 109.5t22 105.5 41.5 95.5 65 81.5 92 62.5 123 38.5l179-174 174 174q106-17 173.5-65.5t108-115 56.5-147 16-165.5v-759h-151v782q0 57-9 108.5t-29.5 93.5-53.5 74.5-82 52.5l-200-191q-5-6-8 0l-208 191q-47-22-78.5-55t-50.5-74-28-91-9-109v-601l353 422h-138v98h304v-98l-503-603h-166z" horiz-adv-x="1327" unicode="&#xe15;"/><glyph d="M60 882q18 71 58.5 139t106 122 158.5 86 220 32q104 0 184-19.5t138-55 97-83.5 62.5-106 34-122 10.5-131v-744h-150v770q0 44-7.5 89t-23.5 85.5-44 76.5-69 61.5-99 42.5q-57 16-133 16-97 0-167.5-26.5t-117-66.5-72.5-84-31-79q50-29 72.5-88t22.5-141v-547h138v-109h-289v659q0 32-3 65t-12.5 62.5-29.5 53.5-54 42z" horiz-adv-x="1264" unicode="&#xe16;"/><glyph d="M135 0v1235h150v-203q44 70 94 115t106 69.5 116.5 33 127.5 8.5q112 0 190.5-32t128.5-91 73-142 23-183v-810h-150v810q0 156-72 237.5t-221 81.5q-107 0-185-34t-129.5-91-76.5-136.5-25-169.5v-698h-150z" horiz-adv-x="1278" unicode="&#xe17;"/><glyph d="M118 347v228h150v-228q0-72 28.5-121.5t73.5-78.5 102-41 116-12q35 0 72 3.5t72 13.5 67.5 27.5 56 44 38 64 14.5 87.5q0 29-4 55t-16 49.5-37 46-66 45.5-103 48-150 51q-90 27-166 56t-132 67.5-87.5 88.5-28.5 117q0 53 19 94.5t50 75 72 58.5 88 41.5 97 23.5 97 7q100 0 185-20.5t150-63 103-108.5 44-158h-159q-6 62-31 106t-64.5 72-92.5 42-116 16q-59 1-111-12t-91-37.5-62-58-23-72.5q0-33 19.5-62t49.5-51 68-41 76.5-32.5 73.5-24.5 60-18q124-35 208.5-70.5t137.5-80.5 76-103q24-61 24-143 0-97-39-164.5t-105-111-153-63.5-181-20q-97 0-182.5 21t-149 65-101 113-37.5 169z" horiz-adv-x="1164" unicode="&#xe18;"/><glyph d="M135 425v810h150v-810q0-156 72-237.5t221-81.5q107 0 185.5 33t129.5 91 76 137q25 77 25 168v700h150v-1235h-150v201q-44-70-94-115t-105.5-69-116.5-32.5-127-8.5q-111 0-190 32.5t-129 91.5-73.5 141-23.5 184z" horiz-adv-x="1278" unicode="&#xe19;"/><glyph d="M135 500v735h150v-762q0-44 7.5-90t23-88 42-79.5 65.5-65.5 93-43.5 124.5-15.5 123.5 15.5 93 43.5 66.5 65.5 41.5 79.5 22 88 7 90v762h150v-735q0-68-9-132.5t-31-123.5-59-109-92.5-85-132-55.5-179.5-20.5-181 20.5-134.5 55.5-93 85-58 109-30.5 123.5-9 132.5z" horiz-adv-x="1278" unicode="&#xe1a;"/><glyph d="M135 500v735h150v-762q0-44 7.5-90t23.5-88 42.5-79.5 67-65.5 94-43.5 124-15.5 123.5 15.5 93 43.5 66.5 65.5 42.5 79.5 23.5 88 7.5 90v1303h150v-1276q0-68-9-132.5t-31-123.5-59-109-93.5-85-133.5-55.5-180-20.5q-105 0-182 20.5t-134.5 55.5-94 85-58.5 109-31 123.5-9 132.5z" horiz-adv-x="1284" unicode="&#xe1b;"/><glyph d="M135 335v900h319v-106h-169v-770q0-77 11-128.5t31-82 50-42.5 68-12q50 0 82 23.5t49.5 64.5 25 100 7.5 127v191h150v-191q0-69 7-127.5t27-99.5 53-64.5 85-23.5q38 0 65 12t46 42.5 28.5 82 9.5 128.5v876h152v-900q0-91-20.5-158.5t-56-111.5-85.5-65-106-21q-38 0-77.5 5.5t-76.5 24.5-70.5 56.5-58.5 99.5q-19-62-48.5-99t-65-56-75-25-80.5-6q-59 0-110.5 21t-88.5 65-57 111q-21 68-21 159z" horiz-adv-x="1367" unicode="&#xe1c;"/><glyph d="M135 335v900h319v-106h-169v-770q0-77 11-128.5t31-82 50-42.5 68-12q50 0 82 23.5t49.5 64.5 25 100 7.5 127v191h150v-191q0-69 7-127.5t27-99.5 53-64.5 85-23.5q38 0 65 12t46 42.5 28.5 82 9.5 128.5v1417h152v-1441q0-91-20.5-158.5t-56-111.5-85.5-65-106-21q-38 0-77.5 5.5t-76.5 24.5-70.5 56.5-58.5 99.5q-19-62-48.5-99t-65-56-75-25-80.5-6q-59 0-110.5 21t-88.5 65-57 111q-21 68-21 159z" horiz-adv-x="1367" unicode="&#xe1d;"/><glyph d="M60 1235h163l205-1064 247 1064h183l242-1064 219 1064h163l-287-1235h-184l-241 1060-250-1060h-182z" horiz-adv-x="1540" unicode="&#xe1e;"/><glyph d="M60 1235h163l205-1064 247 1064h183l242-1064 342 1605h163l-410-1776h-184l-241 1060-250-1060h-182z" horiz-adv-x="1540" unicode="&#xe1f;"/><glyph d="M44 0v112h131v547q0 32-3 65t-13.5 62.5-30 53.5-53.5 42q18 71 58 139t106.5 122 161 86 222.5 32q106 0 187-19.5t139.5-55 98.5-83.5 64-106 33.5-122 9.5-131v-744h-150v770q0 44-6.5 89t-23.5 85.5-44.5 76.5-70.5 61.5-101.5 42-135.5 16.5q-100 0-170.5-26.5t-117.5-66.5-73-84q-24-44-33-79 50-29 73-88t23-141v-656h-281z" horiz-adv-x="1290" unicode="&#xe20;"/><glyph d="M135 0v1235h150v-700q0-91 25-169t76.5-136 129.5-91 185-33q150 0 221.5 81.5t71.5 237.5v810h150v-810q0-100-23-183t-73-142-128.5-91.5-190.5-32.5q-66 0-127 8.5t-117 32.5-106 68-94 116v-201h-150z" horiz-adv-x="1278" unicode="&#xe21;"/><glyph d="M100 373q0 50 9 96.5t31 86 61.5 71.5 102.5 51q-72 23-113 57.5t-60 73-23.5 78-4.5 74.5q0 56 13 97.5t37.5 71.5 56 50 67 31.5 72 17.5 68.5 6h140v-115h-84q-17 0-39-.5t-45.5-6-47-15.5-41.5-28.5-29.5-47-11.5-71.5q0-54 17-92.5t47-65 71-39.5 91-16h72v-118h-72q-50-3-92.5-18t-72-45.5-45.5-73.5-16-101q0-73 28-129t75.5-91.5 110-53 130.5-17.5q76 0 139.5 19t109 64 70.5 117q26 74 26 176v768h149v-810q0-112-39-196.5t-106-141-156.5-85-192.5-28.5q-65 0-126.5 10t-117.5 31.5-104 54.5-82.5 77-53.5 100.5-19 125.5z" horiz-adv-x="1230" unicode="&#xe22;"/><glyph d="M53 420h150q4-76 30.5-135.5t69-99 98.5-59.5 121-20q29 0 62 4.5t65.5 16 62.5 29 53 43.5 36 60 13 76q0 52-17.5 86.5t-48.5 57-71 36.5q-42 14-86 26l-165 41q-64 16-122.5 41t-101.5 64-69 96.5-26 136.5q0 62 18.5 110.5t49.5 85 72 63 88 43 97 24.5 100 8q82 0 155-26t128-76.5 87.5-124.5 32.5-171h-150q-3 73-25 124.5t-59 85.5-85.5 48.5-103.5 14.5q-42 0-87.5-11t-82-36-60.5-65q-25-41-25-97 0-53 23-86.5t56.5-55.5 75-34 75.5-21l169-44q67-17 124.5-43.5t98.5-65 63-93 22-132.5q0-66-19-119t-51.5-93-76.5-69-94-46.5-103-26.5-104-9q-97 0-178.5 25t-142 79.5-97 137-45.5 196.5z" horiz-adv-x="1037" unicode="&#xe23;"/><glyph d="M51 882q18 71 58.5 139t106 122 158.5 86 220 32q104 0 183.5-19.5t137.5-55 98-83.5 63.5-106 33.5-122 10-131v-1144h-150v1170q0 44-7 89t-23.5 85.5-44.5 76.5-69 61.5-99 42.5q-57 16-133 16-97 0-167.5-26.5t-117-66.5-72-84-31.5-79q50-29 72.5-88t22.5-141v-547h139v-109h-290v659q0 32-3 65t-12.5 62.5-29.5 53.5-54 42z" horiz-adv-x="1255" unicode="&#xe24;"/><glyph d="M72 318q0 79 27 140.5t74 107.5 110.5 76.5 133.5 49.5 144 29.5 143 13.5 129.5 1.5 105.5-4.5v159q0 56-12.5 97t-34.5 69-51.5 45.5-64.5 26.5-73.5 12-76.5 3q-73 0-134-12t-106.5-40-73.5-77q-30-49-36-124h-153q9 103 53 173.5t115 114 160.5 61.5 189.5 18q53 0 107.5-5.5t104.5-22 93-41.5 75-64 51-91 19-123v-911h-152v616q-29 3-75.5 5t-102 .5-116-8.5-119.5-20.5-112.5-36-94-54.5-64-76-23.5-100q0-73 25-120t65-75 90-38q53-11 102-11 28 0 56 1.5t50 7.5v-103q-38-9-72-13t-75-4q-82 0-155 19t-128 61.5-86.5 108.5-31.5 158z" horiz-adv-x="1224" unicode="&#xe25;"/><glyph d="M44 0v112h131v547q0 32-3 65t-13.5 62.5-30 53.5-53.5 42q18 71 58 139t106.5 122 161 86 222.5 32q106 0 187-19.5t139.5-55 98.5-83.5 64-106 33.5-122 9.5-131v-1144h-150v1170q0 44-6.5 89t-23.5 85.5-44.5 76.5-70.5 61.5-101.5 42-135.5 16.5q-100 0-170.5-26.5t-117.5-66.5-73-84q-24-44-33-79 50-29 73-88t23-141v-656h-281z" horiz-adv-x="1290" unicode="&#xe26;"/><glyph d="M60 385h158q10-73 37-129t67-93 88.5-56 101.5-19q75 0 136 31t103.5 97 66 167.5 23.5 239.5-23.5 236.5-66 162-103 93-136.5 29.5q-56 0-104.5-19.5t-88.5-56-66.5-91-34.5-127.5h-158q9 91 45 166.5t95 130 138 84.5 174 30q123 0 215.5-44t153-127 90-201.5 29.5-265.5-30.5-266.5-91.5-205-152-131.5-214-46q-95 0-174 29t-138 83.5-95.5 130.5-44.5 168z" horiz-adv-x="1074" unicode="&#xe27;"/><glyph d="M135 0v735q0 66 9 131t32.5 123 61 108 95 86.5 136 57 181.5 20.5q54 0 102-5.5t92-17.5q38 0 69 11.5t53.5 30.5 38 43.5 21.5 49.5h166q-4-26-19-54t-41.5-54.5-66-48-95.5-36.5q56-38 93-87t59-107 30.5-122 8.5-129v-735h-150v764q0 44-7 89t-23.5 87-44.5 78.5-67.5 63-94 43-125 16.5-125-16.5-94.5-43-67.5-63-45-78.5-25-87-7.5-89v-297q35 77 83 124t103 73.5 116 36.5q63 10 124 10v-120q-108 0-189-35.5t-133-99.5-78-154-26-202v-100h-150z" horiz-adv-x="1296" unicode="&#xe28;"/><glyph d="M135 500v735h147v-762q0-44 6-89.5t21.5-88 41-79.5 67-64 97.5-42q55-16 132-16 75 0 131.5 15.5t96 42.5 64.5 64 40 79.5 21 87.5q5 46 5 90v162h-379v203h147v-97h232v494h150v-494h118v-106h-118v-135q0-66-8-131t-29-123-58-108-93.5-86-135-56-184.5-20-185.5 20-136 56-93 86-58 108-30.5 123-9 131z" horiz-adv-x="1290" unicode="&#xe29;"/><glyph d="M72 318q0 79 27 140.5t74 107.5 110.5 76.5 133.5 49.5 144 29.5 143 13.5 129.5 1.5 105.5-4.5v159q0 56-12.5 97t-34.5 69-51.5 45.5-64.5 26.5-73.5 12-76.5 3q-73 0-134-12t-106.5-40-73.5-77q-30-49-36-124h-153q9 103 53 173.5t115 114 160.5 61.5 189.5 18q47 0 94-4t93-16q38 0 69.5 11.5t54.5 30.5 38 43.5 21 49.5h166q-4-26-18.5-54t-41-54.5-66.5-48-93-36.5q30-19 53.5-45.5t41-59.5 28-73.5 10.5-90.5v-911h-152v616q-29 3-75.5 5t-102 .5-116-8.5-119.5-20.5-112.5-36-94-54.5-64-76-23.5-100q0-73 25-120t65-75 90-38q53-11 102-11 28 0 56 1.5t50 7.5v-103q-38-9-72-13t-75-4q-82 0-155 19t-128 61.5-86.5 108.5-31.5 158z" horiz-adv-x="1224" unicode="&#xe2a;"/><glyph d="M135 0v1235h150v-551l635 551h209l-282-235q85-27 136.5-71t79.5-100.5 36.5-126.5 8.5-148v-554h-150v582q0 59-10 113.5t-35 98.5-67.5 73.5-107.5 38.5l-453-397v-509h-150z" horiz-adv-x="1243" unicode="&#xe2b;"/><glyph d="M60 1235h163l205-1003 283 837h124l262-837 144 599q9 35 16 71t8.5 70.5-3.5 66-23.5 56.5-52.5 42.5-86 23.5v80q58 4 105 16.5t82.5 36 59 60.5 32.5 88h184q-12-53-38-97t-62.5-77-82-53.5-92.5-25.5q50-19 78-55.5t39-81 7-92-16-90.5l-235-870h-123l-268 850-294-850h-123z" horiz-adv-x="1525" unicode="&#xe2c;"/><glyph d="M82 620v42h496v-105h-343q0-106 28-192t77.5-147.5 117.5-95.5 151-34q86 0 156 35.5t118.5 103.5 75 167.5 26.5 225.5q0 521-379 521-65 0-124-18t-106.5-51-80.5-79-48-102h-153q24 82 66.5 149.5t105.5 117.5 148.5 78 191.5 28q147 0 248.5-48.5t164.5-134.5 91-204 28-257q0-86-12.5-168t-40-154-69-132-101-104-136-67.5-170.5-23.5q-97 0-173.5 23.5t-135.5 66.5-100 102.5-67.5 132.5-38.5 154.5-12 169.5z" horiz-adv-x="1221" unicode="&#xe2d;"/><glyph d="M82 620v42h496v-105h-343q0-106 28-192t77.5-147.5 117.5-95.5 151-34q86 0 156 35.5t118.5 103.5 75 167.5 26.5 225.5q0 521-379 521-65 0-124-18t-106.5-51-80.5-79-48-102h-153q24 82 66.5 149.5t105.5 117.5 148.5 78 191.5 28q57 0 106-8 49-6 95-21 35 3 64 15.5t48 30.5 32 41 19 48h171q-6-26-19.5-54t-39-53-64.5-48.5-95-41.5q56-41 97-98.5t67.5-128.5 38.5-153 12-173q0-86-12.5-168t-40-154-69-132-101-104-136-67.5-170.5-23.5q-97 0-173.5 23.5t-135.5 66.5-100 102.5-67.5 132.5-38.5 154.5-12 169.5z" horiz-adv-x="1228" unicode="&#xe2e;"/><glyph d="M82 903q0 61 16.5 109.5t44.5 85.5 66 63.5 80.5 42.5 88 23.5 89.5 7.5h147v-115h-147q-117 0-173-53t-56-167q0-50 13.5-99.5t48.5-88.5 96-62.5 155-23.5q97 0 170.5 19t123 57.5 75 100 25.5 145.5v287h152v-1235h-152v684q-34-49-78-82t-94.5-53-104.5-28.5-105-8.5q-121 0-210.5 27.5t-149.5 79-90.5 123.5-30.5 161z" horiz-adv-x="1230" unicode="&#xe2f;"/><glyph d="M118 218v194h138v-90h313v-104h-451zM118 864v199h138v-90h313v-109h-451z" horiz-adv-x="667" unicode="&#xe30;"/><glyph d="M-744 1461v215h138v-108h630v-107h-768z" unicode="&#xe31;"/><glyph d="M44 914q3 86 41 150.5t98 107 135.5 63 154.5 20.5q89 0 165-23.5t132-73.5 87-125 31-177v-856h-150v813q0 85-17.5 147.5t-51.5 102-82.5 59-113.5 19.5q-56 0-101.5-15t-80-43-55.5-70.5-27-98.5h-165z" horiz-adv-x="1023" unicode="&#xe32;"/><glyph d="M-416 1646q0 42 14.5 78.5t40.5 62.5 60.5 41 74.5 15q41 0 77-15t61.5-41 41.5-62q15-37 15-79 0-39-15.5-73.5t-41-60.5-61.5-40.5-77-14.5q-40 0-74.5 14.5t-60.5 40.5-40.5 60.5-14.5 73.5zM-315 1646q0-17 7.5-33.5t19.5-28 28-18 34-6.5q20 0 37 6.5t29.5 18 20 28 7.5 33.5q0 21-7.5 38.5t-20 29.5-29.5 19-37 7q-18 0-34-7t-28-19-19.5-29.5-7.5-38.5zM44 914q3 86 41 150.5t98 107 135.5 63 154.5 20.5q89 0 165-23.5t132-73.5 87-125 31-177v-856h-150v813q0 85-17.5 147.5t-51.5 102-82.5 59-113.5 19.5q-56 0-101.5-15t-80-43-55.5-70.5-27-98.5h-165z" horiz-adv-x="1023" unicode="&#xe33;"/><glyph d="M-1135 1461l55 107h945v-107h-1000z" unicode="&#xe34;"/><glyph d="M-1135 1461l55 107h807v193h138v-300h-1000z" unicode="&#xe35;"/><glyph d="M-1150 1461l53 107h606q-9 17-15 39t-6 45q0 41 15 76.5t41.5 62 61.5 42.5 75 16q41 0 77-16t62.5-42.5 41.5-62 15-76.5-15-75.5-41.5-60-61.5-40.5-78-15h-831zM-412 1652q0-19 7.5-36t19.5-29.5 29.5-19.5 36.5-7 36 7 29.5 19.5 20 30.5 7.5 35q0 19-7.5 36t-20 30.5-29.5 20.5-36 7-36.5-7-29.5-20.5-19.5-30.5-7.5-36z" unicode="&#xe36;"/><glyph d="M-1135 1461l55 107h492v193h137v-193h181v193h135v-300h-1000z" unicode="&#xe37;"/><glyph d="M-385-159h250v-404h-141v304h-109v100z" unicode="&#xe38;"/><glyph d="M-856-159h256v-126q0-91 40-136.5t123-45.5 120.5 45.5 37.5 136.5v126h144v-126q0-56-16.5-107.5t-51.5-89-92.5-59.5-141.5-22q-82 0-140 19t-95 57.5-53 95-16 132.5h-115v100z" unicode="&#xe39;"/><glyph d="M-362-265q0 25 10.5 47t26.5 39 39 27.5 48 10.5 47-10.5 38-27.5 25.5-39 9.5-47-9.5-47-25.5-38-38-25.5-47-9.5-48 9.5-39 25.5-26.5 38-10.5 47z" unicode="&#xe3a;"/><glyph unicode="&#xe3e;"/><glyph d="M147 0v1438h431v138h136v-138h47q62 0 122.5-7.5t113.5-25 97.5-44 77.5-66.5 51-92.5 18-122.5q0-54-16.5-104t-47-92.5-73.5-74-96-49.5q65-13 118-44t89.5-76.5 57.5-103.5 21-124q0-36-6-80t-24.5-89.5-53.5-89.5-95-78-146.5-54.5-207.5-20.5h-47v-150h-136v150h-431zM301 129h277v553h-277v-553zM301 811h277v497h-277v-497zM714 129h47q77-1 146 12t122 46 84 89 31 139q0 135-100 201t-283 66h-47v-553zM714 811h47q84 0 145 19.5t101.5 50 60.5 74 20 93.5q0 260-327 260h-47v-497z" horiz-adv-x="1399" unicode="&#xe3f;"/><glyph d="M178 0v1235h147v-1235h-147z" horiz-adv-x="502" unicode="&#xe40;"/><glyph d="M135 0v1235h147v-1235h-147zM509 0v1235h147v-1235h-147z" horiz-adv-x="790" unicode="&#xe41;"/><glyph d="M26 1652l31 109h555l55-106h-458q38-16 66-41t47-56.5 29.5-65.5 10.5-69v-1317h135v-106h-285v1417q0 53-15 95t-39 70.5-57 46-75 23.5z" horiz-adv-x="568" unicode="&#xe42;"/><glyph d="M-51 1514q2 78 29.5 133t71 89.5 98.5 51 117 16.5q60 0 111.5-12t89.5-37.5 59.5-67 21.5-99.5q0-24-6-41.5t-17.5-36-29.5-39.5q-18-22-40-48-38-47-58-79.5t-27-62-7-61.5v-79-1035h135v-106h-285v1141q0 48 6.5 88.5t19.5 74.5 34 64 50 59q18 21 34.5 39.5t30 37.5 22 39.5 8.5 44.5q0 20-5.5 41.5t-22 38.5-46.5 28-78 11q-42 0-72.5-14t-52.5-39-35.5-61-16.5-79h-139z" horiz-adv-x="568" unicode="&#xe43;"/><glyph d="M-100 1655l59 106h553l32-109q-38-6-71-22t-57.5-44-39-67.5-14.5-91.5v-1321h132v-106h-282v1433q0 63 38 122t112 100h-462z" horiz-adv-x="568" unicode="&#xe44;"/><glyph d="M29 914q3 86 41.5 150.5t98 107 135 63 155.5 20.5q88 0 164.5-23.5t131.5-73.5 86.5-125 31.5-177v-1256h-150v1213q0 85-17.5 147.5t-51.5 102-83 59.5q-48 19-112 19-112 0-182.5-57.5t-83.5-169.5h-164z" horiz-adv-x="993" unicode="&#xe45;"/><glyph d="M75 794q-4 82 8.5 156.5t50 135.5 102 103.5 164.5 60.5l163-153 148 153q74-6 127-29t88-57 56-78 31-94.5 13-105.5q3-57 3-113v-1173h-150v1201q0 27-.5 59t-6 65-14 64-25 56-43 42.5-61.5 23.5l-160-157q-3-3-8-2t-7 2l-169 160q-50-20-82.5-50.5t-50.5-69-25-84.5-4-97v3q0-40 13.5-78t37.5-68.5 59-48.5 79-18h97v-115h-97q-142 0-229 76.5t-108 229.5z" horiz-adv-x="1149" unicode="&#xe46;"/><glyph d="M-994 1686q0 65 23.5 109.5t62.5 74 91 42.5q53 14 108 14h600v-109l-591 1q-41 0-71-9.5t-50-27-28.5-42-8.5-53.5q0-23 7-46.5t19.5-42 32.5-29.5 45-11q22 0 44 8t40.5 23.5 32.5 38 20 50.5h91q10-54 46-87t89-33q21 0 36 9.5t27 27 18.5 41 6.5 51.5h125q0-50-14-93.5t-40.5-75-66-50-92.5-18.5q-32 0-58.5 7.5t-48.5 21-41.5 32.5-33.5 39q-31-42-79-71t-109-29q-59 0-102.5 21t-72 53-43.5 75-15 88z" unicode="&#xe47;"/><glyph d="M-273 1920v314h138v-314h-138z" unicode="&#xe48;"/><glyph d="M-670 2111v98h225v-183q85 0 142.5 16.5t94.5 42.5 57 59 30 65h147q-2-26-16-57.5t-38.5-64-61-62-84.5-53-109-38-134-14.5h-149v191h-104z" unicode="&#xe49;"/><glyph d="M-698 1920q-6 62 8 109t39 78.5 57 47 64.5 15.5 57.5-8 44-23.5 31-35.5 18-44q4 24 16.5 44t31.5 35.5 42.5 23.5 50.5 8q29 0 55.5-9t47-26.5 34-47 19.5-70.5q23 3 48 17.5t45 39.5 32.5 59 10.5 76h139q0-61-24.5-113.5t-62.5-90.5-84-61q-46-24-85-24h-115q-3 25-6.5 50t-11.5 44.5-22 32-35 12.5q-19 0-33-12.5t-23-31.5-12.5-44-3.5-51h-109q0 26-4 52t-14 45.5-23 30.5-31 11q-20 0-35-12.5t-23-32-10-44-1-50.5h-123z" unicode="&#xe4a;"/><glyph d="M-465 2083v100h186v160h144v-160h189v-100h-189v-163h-144v163h-186z" unicode="&#xe4b;"/><glyph d="M-417 1785q8 70 37.5 121.5t78 87 117.5 54.5 155 23v-95q-105-6-169-54.5t-75-136.5h-144z" unicode="&#xe4c;"/><glyph d="M-416 1646q0 42 14.5 78.5t40.5 62.5 60.5 41 74.5 15q41 0 77-15t61.5-41 41.5-62q15-37 15-79 0-39-15.5-73.5t-41-60.5-61.5-40.5-77-14.5q-40 0-74.5 14.5t-60.5 40.5-40.5 60.5-14.5 73.5zM-315 1646q0-17 7.5-33.5t19.5-28 28-18 34-6.5q20 0 37 6.5t29.5 18 20 28 7.5 33.5q0 21-7.5 38.5t-20 29.5-29.5 19-37 7q-18 0-34-7t-28-19-19.5-29.5-7.5-38.5z" unicode="&#xe4d;"/><glyph d="M-451 1461q0 50 11 92.5t36 76.5 66 59 100 40q6 41 25 75t53 58.5 81 41 108 22.5v-99q-45-3-75-14t-49.5-33-27.5-55q-9-35-9-79v-3h-15q-53 0-84.5-13t-50-37.5-25.5-57.5q-8-33-9-74h-135z" unicode="&#xe4e;"/><glyph d="M97 617q0 89 23 171t64.5 154 100.5 131 131 100 154.5 64.5 170.5 23.5 170.5-23.5 154.5-64.5 130.5-100 100-131 65-154 23.5-171q0-88-23.5-170t-65-154.5-100-131-130.5-100.5-154.5-64.5-170.5-22.5-170.5 22.5-154.5 64.5-131 100.5-100.5 131-64.5 154.5-23 170zM235 617q0-70 17.5-135t51-120.5 79.5-102 102-79.5 120.5-50.5 135.5-17.5q70 0 135 17.5t121 50.5 102 79.5 79 102 51 120.5 18 135q0 71-18 135.5t-51 120.5-79 102.5-102 79.5-121 50.5-135 17.5q-71 0-135.5-17.5t-120.5-50.5-102-79.5-79.5-102.5-51-120.5-17.5-135.5zM379 617q0 74 29 140t78 114.5 114.5 78 140.5 29.5q73 0 139.5-29.5t115-78 77.5-114.5 29-140q0-75-29-140t-77.5-114.5-115-78-139.5-28.5q-75 0-140.5 28.5t-114.5 78-78 114.5-29 140zM506 617q0-48 18-91.5t50-75 75-50 92-18.5q48 0 91 18.5t74.5 50 50.5 75 19 91.5q0 49-19 91.5t-50.5 74-74.5 51-91 19.5q-49 0-92-19.5t-75-51-50-74-18-91.5z" horiz-adv-x="1480" unicode="&#xe4f;"/><glyph d="M91 572q0 116 38.5 211.5t110.5 163 176 104.5 237 37q131 0 235-37t176-104.5 111-163 39-211.5q0-113-20.5-200.5t-57-154-88-112-113.5-74-134-40.5-148-12q-78 0-149.5 12.5t-134 41.5-114 74.5-88 111.5-56.5 153.5-20 199.5zM232 526q0-97 30.5-176.5t85.5-136.5 133-89.5 172-32.5 172 32.5 132 89.5 84.5 136.5 30.5 176.5q0 122-34.5 208t-92 139-132.5 78-160 25q-84 0-160-25t-134.5-78-92.5-138-34-209z" horiz-adv-x="1303" unicode="&#xe50;"/><glyph d="M75 106l100 109q47-31 93.5-54t97.5-37 108.5-20.5 125.5-6.5q109 0 197 29.5t151 89 97.5 148.5 34.5 208q0 92-22.5 167t-72 127.5-125.5 81-182 28.5q-86 0-155.5-21.5t-119-57.5-76-83-26.5-100q0-47 17-94t55.5-80.5 101-51.5 154.5-9v-88q-32-6-55.5-7.5t-50.5-1.5q-79 0-149.5 22t-123 63.5-82.5 98.5-30 129q0 71 21.5 127.5t59 100.5 88 75.5 110 51.5 124.5 30.5 129 10.5q80 0 153.5-12.5t136.5-38.5 116-67 89.5-98.5 57.5-132.5 21-167q0-133-43-242.5t-123.5-187-199.5-120.5-272-43q-50 0-116.5 1.5t-137 13.5-141.5 37-136 72z" horiz-adv-x="1345" unicode="&#xe51;"/><glyph d="M29 1129l25 118q50-3 90.5-24t70-59 45.5-92.5 16-126.5v-491q0-76 32.5-141.5t97-113.5 163-75 228.5-27q123 0 211.5 26.5t142.5 70.5 79 101q25 55 25 117v332q0 50-14 88t-38 64.5-57 44-71 26.5l-161-151-158 135q-28 0-57-12.5t-52.5-36-38-60-14.5-86.5v-100q0-47 1.5-91.5t14-79 41-55.5 81.5-21h47v-96h-68q-61 0-105 17t-73.5 45-46 64-25 73.5-11.5 73.5q-3 34-5 64v85q0 63 23 119.5t65.5 103 102 78 131.5 44.5l144-122 136 127q76-6 140.5-32.5t112-67.5 73.5-95.5 26-119.5v-319q0-82-19-149t-55-119-86-91-109.5-64-128.5-37-140-12h-111q-147 0-262.5 35.5t-194 101-120 157.5-41.5 203v427q0 53-5 94t-17 68-31.5 42.5-49.5 21.5z" horiz-adv-x="1508" unicode="&#xe52;"/><glyph d="M112 482v93q0 123 26.5 213.5t78 152.5 124 97 165.5 47l169-154 183 157q99-9 170.5-44.5t119-89 70.5-122 23-143.5v-689h-147v689q0 55-17 102.5t-46.5 83-70 56-87.5 20.5l-203-160-185 160q-20 0-45-8t-50-25.5-48.5-45.5-42-69.5-29.5-97-11-127.5v-93q0-44 .5-89t5.5-86.5 17-78.5 32.5-64 54.5-42.5 82-15.5h49t69 6v-115q-18-3-42-6t-49-4.5-50-1.5-43 3q-67 9-114.5 37t-78 67.5-47 89-23.5 101-8.5 102-1.5 94.5z" horiz-adv-x="1375" unicode="&#xe53;"/><glyph d="M112 465v129q0 122 39.5 211t113 147.5 178 87.5 235.5 29h219q56 0 94 12.5t61.5 36 34 55.5 13.5 74h152q-1-56-16.5-110t-53.5-95-105-66q-69-25-171-25h-253q-91 0-163.5-21.5t-123.5-62.5-79-101-28-137v-156q0-76 20.5-142t64.5-114 113-75 163-27h144q-32 17-60 42t-48.5 56.5-32 70-11.5 84.5q0 14 1 35.5t9.5 45.5 25 49 47.5 45.5 76.5 34 113.5 16.5v-112q-56-3-84-18.5t-40.5-36.5-13-43-.5-37q0-34 11.5-64t30.5-56.5 43-47 47.5-35.5 45.5-22 39-7h288v-115h-661q-94 0-167.5 20.5t-126.5 55-88.5 81-57.5 98-30 104.5q-9 56-9 106z" horiz-adv-x="1362" unicode="&#xe54;"/><glyph d="M112 465v132q0 110 30 192.5t85 139 133 88 172 40.5q-4 4-9.5 13t-9.5 20.5-7 25.5-3 28q0 39 14.5 73.5t40.5 61 60.5 41.5 73.5 15q40 0 74.5-15t60.5-41.5 40.5-61 14.5-73.5q0-22-4.5-43t-19.5-38q74 3 119.5 15.5t72 36 37 57 13.5 75.5h152q-1-56-16.5-110.5t-53.5-95.5-105-67q-69-26-171-26h-239q-83 0-157.5-17t-130.5-55-88-99-32-148v-156q0-76 20.5-140.5t64.5-112.5 113-75 163-27h144q-23 14-50.5 36t-50 52.5-37 71-14.5 90.5q0 14 1 36t9.5 45.5 25 48.5 47.5 45.5 76.5 35.5 113.5 18v-112q-56-3-84-19t-40.5-38-13-44-.5-37q0-29 11.5-58.5t30.5-54.5 43-47 47.5-37 45.5-23.5 39-8.5h288v-118h-661q-94 0-167.5 20.5t-126.5 55-88.5 81-57.5 98-30 104.5q-9 56-9 106zM594 1143.5q0-20.5 7.5-38t20.5-31 31.5-22 38.5-8.5q21 0 39.5 8.5t31.5 22 20.5 31 7.5 38-7.5 38.5-20.5 31.5-31.5 22-39.5 8.5q-20 0-38.5-8.5t-31.5-22-20.5-31.5-7.5-38.5z" horiz-adv-x="1362" unicode="&#xe55;"/><glyph d="M66 1105l102 65 126-206q32 15 80 34t105.5 37.5 120.5 31.5q64 15 129 18 103 3 184-15.5t141-53 101.5-83 66.5-106.5 35-123.5 10-131.5v-81q-6-68-25-132.5t-52-122-81-106-109.5-82-139.5-51.5-171-15q-102 3-188 29.5t-148 73-96 108-34 135.5q0 70 23.5 122.5t68 84.5 106 48.5 139.5 16.5h52v-94h-43q-62 0-101-14t-61-38.5-30.5-59.5-8.5-75q0-47 24-86.5t68-70 106.5-48 137.5-17.5q80-1 154.5 23t132 74 92.5 123q34 74 34 168v81q0 103-25.5 179.5t-75 125.5-119.5 72q-71 24-159 21-68-1-131-13t-122.5-33-117.5-52-117-72z" horiz-adv-x="1359" unicode="&#xe56;"/><glyph d="M112 470v102q0 117 26.5 207.5t76.5 154 122.5 101.5 165.5 53l135-152 144 149q107-15 178.5-56t114-106 60-151.5 17.5-189.5v-106q0-45-3.5-93t-14.5-95-33-95q-22-46-57-93 92 29 149 72t86 98 39 118q9 62 9 129v428q0 72 16.5 126.5t46 92.5 69.5 59 90 24l25-118q-29-6-49-21.5t-31.5-42.5-16.5-68q-4-41-4-94v-362q0-118-23.5-212.5t-76.5-164.5-139.5-115.5-216.5-66.5l-123 96q41 47 64.5 92t34 92 11.5 97q1 53 1 111v112q0 88-16 153.5t-44 110.5-64.5 71.5-79.5 33.5l-163-163-153 163q-38-3-77.5-25.5t-73-68.5-54.5-115.5-21-166.5v-99q0-31 1.5-69.5t7-80 17.5-79.5 34-68.5 56-48.5 84-18h13.5 21.5 23q9 1 18 3l3-115q-13-3-31.5-6t-39-4.5-41-1.5-38.5 3q-62 15-107.5 44.5t-75.5 69-48.5 85-28.5 94-13 96.5q-3 49-3 90z" horiz-adv-x="1577" unicode="&#xe57;"/><glyph d="M112 385v212q0 109 32 196.5t97 148.5 161 94 224 33h288q56 0 94.5 12.5t61 34.5 33.5 54 14 74h150q0-39-7.5-75.5t-22-70.5-39.5-62-63-49-89.5-33-122.5-12h-320q-91 0-156-26.5t-107-69.5-61.5-100.5-19.5-116.5v-244q0-53 19-99t51.5-82 72-58.5 80.5-24.5l185 158 200-158q44 0 82.5 12.5t66.5 41 43.5 76 15.5 119.5q0 33-5.5 69.5t-20 66-42.5 49.5-74 20h-39v95h39q62 0 107-11.5t76.5-33.5 51.5-51.5 30-63.5 14.5-69 4.5-71q0-92-21-163.5t-66-120-114-73.5-163-28l-186 153-173-153q-94 9-166 44.5t-120 89.5-72 122-24 144z" horiz-adv-x="1330" unicode="&#xe58;"/><glyph d="M112 473v96q0 126 19 222.5t63 162.5 117 100 180 34q21 0 43-1.5t45.5-4.5 45.5-9 39-16q15-9 30-18.5t28-22.5 27.5-31 29.5-43l135 133q3 3 9 8t13 5h75q56 0 91.5 8.5t56 28 28 50 8.5 72.5h149q-3-36-10-71t-21-66-37.5-56.5-58.5-44-85-29-118-10.5h-17q-21 0-34-8.5t-27-22.5l-89-95 400-844h-153l-359 767q-24 49-46.5 86.5t-50.5 64-65 39.5q-35 13-88 13-48 0-90-19t-72-63-47-120.5-17-189.5v-124q0-35 4.5-74t13-77 24-72.5 40-61 57.5-42.5q34-15 78-15 15 0 28 .5t34 5.5l19-118q-32-4-73-7-43-3-78 1-68 9-115.5 34t-81 61.5-52.5 83.5-29 97-13 103-3 100z" horiz-adv-x="1345" unicode="&#xe59;"/><glyph d="M66 903q0 61 17 109.5t45 85.5 66 63.5 81 42.5 88.5 23.5 87.5 7.5h149v-115h-149q-117 0-172.5-53t-55.5-167q0-50 13.5-99.5t48.5-88.5 95.5-62.5 154.5-23.5q97 0 171.5 19t123.5 57.5 75 100 26 145.5v287h149v-1235h-149v684q-34-49-78.5-82t-95-53-104-28.5-106.5-8.5q-121 0-210.5 27.5t-150 79-90.5 123.5-30 161zM1276 0h147v1235h-147v-1235z" horiz-adv-x="1543" unicode="&#xe5a;"/><glyph d="M69 620q0 81 15.5 158.5t45.5 145 75 124 104 97 131 64 157 23.5q78 0 141-16t112.5-45.5 84.5-69.5 58.5-88.5 34-102.5 10.5-113h-144q0 67-18 121.5t-52.5 93-86 59-117.5 20.5q-92 0-164-35.5t-121.5-99.5-74.5-153-25-197q0-93 31-176t90.5-145 144-98.5 188.5-36.5q100 0 177.5 28t137.5 79.5 101.5 122 69 155.5 41.5 184q16 98 19 201 16 9 28.5 16.5t25 14.5 25 14.5 30.5 16.5q29-35 61.5-79.5t64-91.5 60-94 50.5-88q58 96 108 174.5t91 135.5q17-26 39-63t45-77 46-81.5 45-79.5q13 18 30.5 41.5t36.5 50 37 52.5 35 46h374q23-36 44-72 20-36 41-72h-432q-41-59-82.5-124t-80.5-135q-36 73-82 150.5t-96 153.5q-24-32-49.5-71t-52-84-52.5-95.5-48-108.5q-20 52-47.5 107t-58 108.5-62.5 104.5q-30 51-62 95-6-119-34-222.5t-72-190.5-103-156-131-116-154.5-72-171.5-25q-99 0-182.5 25t-151.5 68.5-120 103-86.5 127-53 143-18.5 150.5z" horiz-adv-x="2609" unicode="&#xe5b;"/><glyph horiz-adv-x="1171" unicode="&#x2000;"/><glyph horiz-adv-x="2343" unicode="&#x2001;"/><glyph horiz-adv-x="1171" unicode="&#x2002;"/><glyph horiz-adv-x="2343" unicode="&#x2003;"/><glyph horiz-adv-x="781" unicode="&#x2004;"/><glyph horiz-adv-x="585" unicode="&#x2005;"/><glyph horiz-adv-x="390" unicode="&#x2006;"/><glyph horiz-adv-x="390" unicode="&#x2007;"/><glyph horiz-adv-x="292" unicode="&#x2008;"/><glyph horiz-adv-x="468" unicode="&#x2009;"/><glyph horiz-adv-x="130" unicode="&#x200a;"/><glyph unicode="&#x200b;"/><glyph d="M94 457v128h676v-128h-676z" horiz-adv-x="864" unicode="&#x2010;"/><glyph d="M94 457v128h676v-128h-676z" horiz-adv-x="864" unicode="&#x2011;"/><glyph d="M94 457v128h676v-128h-676z" horiz-adv-x="864" unicode="&#x2012;"/><glyph d="M0 503v132h1155v-132h-1155z" horiz-adv-x="1155" unicode="&#x2013;"/><glyph d="M0 503v132h1421v-132h-1421z" horiz-adv-x="1422" unicode="&#x2014;"/><glyph d="M188 964v227q0 44 9.5 90t31 86 57.5 70q37 30 90 45v-106q-26-12-43.5-31t-27.5-43.5-13.5-52-3.5-55.5h88v-230h-188z" horiz-adv-x="571" unicode="&#x2018;"/><glyph d="M194 953v105q26 12 44 31t27.5 43.5 13 52.5 3.5 56h-88v229h188v-226q0-46-9.5-91.5t-31-85-57.5-70.5q-37-30-90-44z" horiz-adv-x="571" unicode="&#x2019;"/><glyph d="M123 964v227q0 44 9 90t31 86 57.5 70 89.5 45v-106q-26-12-43-31t-27.5-43.5-13.5-52-3-55.5h87v-230h-187zM442 964v227q0 44 10 90t30.5 86 57 70 89.5 45v-106q-26-12-44-31t-26.5-43.5-13-52-4.5-55.5h88v-230h-187z" horiz-adv-x="761" unicode="&#x201c;"/><glyph d="M132 953v105q27 12 44.5 31t26.5 43.5 13 52.5 4 56h-88v229h187v-226q0-46-9.5-91.5t-30-85-57.5-70-90-44.5zM451 953v105q27 12 44 31t27 43.5 13 52.5 3 56h-87v229h187v-226q0-46-9-91.5t-31-85-57-70-90-44.5z" horiz-adv-x="761" unicode="&#x201d;"/><glyph d="M91 606q0 56 20.5 103.5t56 83.5 84 56.5 104.5 20.5 103.5-20.5 83.5-56.5 57-84q20-47 20-103t-20.5-104.5-56.5-84-84-55.5q-47-21-103-21t-104.5 20.5-84 56-56 84-20.5 104.5z" horiz-adv-x="710" unicode="&#x2022;"/><glyph horiz-adv-x="468" unicode="&#x202f;"/><glyph horiz-adv-x="585" unicode="&#x205f;"/><glyph d="M44 559v88h121q-3 17-3 36v34.5 37.5t3 40h-121v94h134q20 121 73 226t137.5 183 201 123.5 266.5 45.5q70 0 137.5-13t131-38 118-63.5 96-90 69.5-116 37-142.5h-151q-20 82-61 144.5t-99 104.5-128.5 63.5-149.5 21.5q-118 0-207.5-37t-154.5-98-106-142.5-60-171.5h528v-94h-540q-3-20-3-40v-37.5t1-35.5 2-35h540v-88h-528q17-94 56-178t104-147 156-100 212-37q100 0 180.5 34t139.5 94 94 142q35 80 46 177h151q-15-135-63.5-241t-127.5-179.5-185-113-235-39.5q-152 0-270.5 45.5t-202 126-136.5 187.5q-53 105-72 229h-131z" horiz-adv-x="1531" unicode="&#x20ac;"/><glyph d="M165 1341v97h651v-97h-266v-735h-115v735h-270zM953 606v832h182l270-662 262 662h181v-832h-115l-3 714-295-714h-69l-299 714v-714h-114z" horiz-adv-x="2009" unicode="&#x2122;"/><glyph d="M307 597l135 67q-4-32-5.5-66t5.5-72zM406 332l61 141q18-29 41.5-54t54.5-46zM434 861l138-48q-66-31-102-93zM614 831l72 142 67-132q-33 6-69.5 3.5t-69.5-13.5zM620 347q33-9 62-9t68 12l-64-135zM804 816l163 45-64-144q-18 33-44.5 55.5t-54.5 43.5zM807 370q29 21 52 44 23 24 44 51l39-137zM928 529q13 34 14.5 67t-6.5 66l130-68z" horiz-adv-x="1372" unicode="&#x25cc;"/><glyph d="M0 0v1073h1073v-1073h-1073z" horiz-adv-x="1073" unicode="&#x25fc;"/><glyph d="M63 914q9 77 43.5 141t95 108.5 148.5 69.5 204 25q50 0 95-5.5t83-17.5q41 3 72.5 15.5t54.5 30.5 37.5 42 17.5 50h166q-4-26-18.5-54t-42.5-54.5-69.5-49.5-99.5-38q39-29 66.5-66.5t44.5-81.5 23.5-94 6.5-100q-2-47-14.5-107.5t-33-129.5-47.5-143-58.5-151.5-65.5-153.5-68-150h-198l-215 600h-159v104h274l203-589q26 61 52.5 126t51.5 131 47 129 38 123.5 26.5 113.5 13.5 97q3 63-12.5 118t-51 96.5-93.5 65-143 23.5q-143 0-220-58-77-60-89-166h-166z" horiz-adv-x="1103" unicode="&#xf700;"/><glyph d="M-1304 1461l54 107h802v-107h-856z" unicode="&#xf701;"/><glyph d="M-1304 1461l54 107h662v193h140v-300h-856z" unicode="&#xf702;"/><glyph d="M-1304 1461l54 107h459q-9 17-15 39-7 22-7 45 0 41 15.5 76.5t42 62 61 42.5 74.5 16q41 0 77-16t62.5-42.5 41-62 14.5-76.5-14.5-75.5-41-60-62.5-40.5-77-15h-684zM-714 1652q0-19 7-36t20.5-29.5 30.5-19.5 36-7 36 7 30 19.5 20.5 30.5 7.5 35q0 19-7.5 36t-20.5 30.5-30 20.5-36 7-36-7-30.5-20.5-20.5-30.5-7-36z" unicode="&#xf703;"/><glyph d="M-1319 1461l55 107h370v193h135v-193h174v193h137v-300h-871z" unicode="&#xf704;"/><glyph d="M-647 1461v343h138v-343h-138z" unicode="&#xf705;"/><glyph d="M-1080 1649v100h224v-183q86 0 143 16.5t94.5 42.5 57.5 59 32 65h147q-3-26-18-57.5t-39-64-60-62.5-84.5-53.5-109-37-135.5-13.5h-148v188h-104z" unicode="&#xf706;"/><glyph d="M-1226 1461q-6 62 9 109t40 78 57 47 63 16q32 0 58-9t45-23.5 31-35 17-44.5q5 24 17.5 44.5t31.5 35 42.5 23.5 50.5 9q29 0 54.5-9t46.5-28 35-48.5 19-68.5q24 3 49 17.5t45 39 31 57.5q11 34 11 78h138q0-41-11-77.5t-31-69-45-57.5-53.5-44-58.5-30q-30-10-57-10h-113q-3 25-6.5 49.5t-12.5 44-22.5 32-33.5 12.5q-19 0-33-11.5t-23-31.5-13-45q-5-23-5-50h-108q0 27-4.5 52t-13.5 44-22 30.5-31 11.5q-21 0-35.5-12.5t-22.5-32-11-44.5q-4-25-1-49h-124z" unicode="&#xf707;"/><glyph d="M-914 1623v100h182v159h144v-159h191v-100h-191v-162h-144v162h-182z" unicode="&#xf708;"/><glyph d="M-810 1461q9 71 39 122.5t78.5 86 116.5 53.5q70 19 156 23v-97q-105-7-169-55t-75-133h-146z" unicode="&#xf709;"/><glyph d="M-273 1461v343h138v-343h-138z" unicode="&#xf70a;"/><glyph d="M-767 1649v100h226v-183q85 0 142.5 16.5t95 42.5 57.5 59 31 65h147q-3-26-17.5-57.5t-38.5-64-60-62.5-85-53.5-110-37.5q-62-13-135-13h-148v188h-105z" unicode="&#xf70b;"/><glyph d="M-958 1461q-6 62 8 109t39.5 78 58 47 63.5 16q32 0 57.5-9t45-23.5 31-35 17.5-44.5q4 24 16.5 44.5t32 35 43 23.5 49.5 9q30 0 55.5-9t46-28 34.5-48.5 20-68.5q23 3 48 17.5t44.5 39 31 58 11.5 77.5h138q0-61-24-112.5t-61.5-90.5-83-62-86.5-23h-115q-3 25-6 49.5t-12 44-22 32-34 12.5q-19 0-33-11.5t-22.5-31.5-13.5-45q-4-23-4-50h-109q0 27-4.5 52t-13 44-22 30.5-30.5 11.5q-21 0-35.5-12.5t-23.5-32-12-44.5 0-49h-123z" unicode="&#xf70c;"/><glyph d="M-465 1623v100h186v159h144v-159h189v-100h-189v-162h-144v162h-186z" unicode="&#xf70d;"/><glyph d="M-417 1461q8 71 37.5 122.5t78 86 117.5 53.5 155 23v-97q-105-7-169-55t-75-133h-144z" unicode="&#xf70e;"/><glyph d="M51 882q12 47 34 93.5t54 88 74.5 78.5 98.5 64 123.5 42.5 149.5 15.5q100 0 175.5-19.5t132.5-55 95-83.5 61.5-106 34-122 10.5-131v-347q0-78 20.5-134.5t58.5-92.5 91-53 115-17 114.5 17 91 53 60.5 93 22 134v835h151v-810q0-103-27-186t-81.5-142.5-137.5-91-193-31.5-192.5 31.5-136 91-81 142.5-27.5 186v348q0 44-6.5 89t-22.5 85.5-43.5 76.5-67 61.5-93 42-124.5 16.5q-91 1-158.5-23t-114-63-72-86-34.5-90q29-15 47.5-38.5t29.5-53.5 14.5-64.5 3.5-75.5v-538h139v-112h-290v653q0 32-1.5 63t-11 59-29.5 54.5-57 52.5z" horiz-adv-x="1953" unicode="&#xf70f;"/><glyph d="M-882 1461v215h138v-108h853v-107h-991z" unicode="&#xf710;"/><glyph d="M-813 1638q0 41 14.5 77t40.5 62.5 60.5 41 74.5 14.5q41 0 77-14.5t62.5-41 41-62.5 14.5-77q0-40-14.5-74.5t-41-60.5-62.5-40.5-77-14.5q-40 0-74.5 14.5t-60.5 40.5-40.5 60.5-14.5 74.5zM-711 1638q0-18 7-34t19-28 28-19.5 34-7.5q20 0 37 7.5t29.5 19.5 20 28 7.5 34q0 41-26.5 67.5t-67.5 26.5q-18 0-34-7.5t-28-20-19-29.5-7-37z" unicode="&#xf711;"/><glyph d="M-1220 1686q0 65 22.5 109.5t61.5 74 90.5 43 107.5 13.5h557v-109l-545 1q-41 0-72-9.5t-50-27-28-42-9-53.5q0-23 6-46.5t19-42 32.5-29.5 45.5-11q22 0 43.5 8t39 23.5 30.5 38 19 50.5h91q11-54 45.5-87t87.5-33q20 0 35.5 9.5t27.5 27 18.5 41 6.5 51.5h125q0-50-14-93.5t-40.5-75-66-50-92.5-18.5q-33 0-59 7.5t-47.5 21-40 32.5-33.5 39q-30-42-75-71t-110-29q-59 0-101.5 21t-71 53-42.5 75-14 88z" unicode="&#xf712;"/><glyph d="M-588 1920v314h140v-314h-140z" unicode="&#xf713;"/><glyph d="M-988 2111v98h227v-183q85 0 142 16.5t94 42.5 57.5 59 30.5 65h149q-3-26-17.5-57.5t-39.5-64-60.5-62-84-53-109.5-37.5q-63-15-136-15h-147v191h-106z" unicode="&#xf714;"/><glyph d="M-1038 1920q-6 62 7.5 109t38.5 78.5 57 47 64.5 15.5 58.5-8 44-23.5 30-35.5 18-44q4 24 17.5 44t32.5 35.5 42.5 23.5 49.5 8q30 0 55.5-9t46-26.5 35.5-47 21-70.5q23 3 47.5 17.5t44 39.5 31.5 59 12 76h138q0-41-12-77.5t-31-68-44.5-58-54.5-45-58-28.5q-29-12-56-12h-114q-3 25-7.5 50t-12 44.5-21.5 32.5q-15 12-36 12-19 0-32-12.5t-22-31.5-12.5-44-3.5-51h-109q0 26-4.5 52t-13.5 45.5-23 30.5q-15 11-33 11-20 0-33.5-12.5t-22-32-11.5-44 0-50.5h-124z" unicode="&#xf715;"/><glyph d="M-776 2083v100h182v160h146v-160h189v-100h-189v-163h-146v163h-182z" unicode="&#xf716;"/><glyph d="M-594 1785q9 70 39 121.5t79.5 87 117 54.5 152.5 23v-95q-103-6-167-55-65-51-75-136h-146z" unicode="&#xf717;"/><glyph d="M-385-500h250v-403h-141v303h-109v100z" unicode="&#xf718;"/><glyph d="M-856-500h256v-126q0-91 40-136t123-45 120.5 45 37.5 136v126h144v-126q0-56-16.5-107t-51.5-88-92.5-59.5-141.5-22.5q-82 0-140 19.5t-95 57.5-53 95q-16 55-16 131h-115v100z" unicode="&#xf719;"/><glyph d="M-362-614q0 25 10.5 47.5t26.5 38.5 39 26.5 48 10.5 47-10.5 38-26.5 25.5-38.5 9.5-47.5-9.5-46.5-25.5-37.5-38-26.5-47-10.5-48 10.5-39 26.5-26.5 37.5-10.5 46.5z" unicode="&#xf71a;"/><glyph d="M60 1235h163l205-1003 283 837h124l262-837 144 599q9 35 16 71t8.5 70.5-3.5 66-23.5 56.5-52.5 42.5-86 23.5v80q58 4 105 16.5t82.5 36 59 60.5 32.5 88h184q-12-53-38-97t-62.5-77-82-53.5-92.5-25.5q50-19 78-55.5t39-81 7-92-16-90.5l-235-870h-123l-268 850-294-850h-123z" horiz-adv-x="1525" unicode="&#xf71d;"/><glyph d="M-885 1461q3 100 60 166 58 66 178 93 15 81 84 132 69 50 195 62v-99q-54-2-88-13.5t-53-32.5-25.5-54-6.5-77v-3h-16q-53 0-88.5-12t-58-34.5-32.5-55.5q-11-31-14-72h-135z"/><glyph d="M-797 1638q0 41 15 77t40 62.5 60 41 73 14.5q42 0 78.5-14.5t62.5-41 41-62.5 15-77q0-40-15-74.5t-41-60.5-62-40q-37-15-79-15-39 0-73.5 14.5t-59.5 40.5-40 60.5-15 74.5zM-695 1638q0-18 6.5-34t18-28 28-19.5 33.5-7.5q21 0 38.5 7.5t29.5 19.5 19.5 28 7.5 34q0 20-7.5 37t-19.5 29.5-29.5 20-38.5 7.5q-17 0-33.5-7.5t-28-20-18-29.5-6.5-37zM29 914q3 86 41.5 150.5t98 107 135 63 155.5 20.5q88 0 164.5-23.5t131.5-73.5 86.5-125 31.5-177v-856h-150v813q0 85-17.5 147.5t-51.5 102-83 59.5q-48 19-112 19-112 0-182.5-57.5t-83.5-169.5h-164z" horiz-adv-x="1008"/><glyph d="M-797 1638q0 41 15 77t40 62.5 60 41 73 14.5q42 0 78.5-14.5t62.5-41 41-62.5 15-77q0-40-15-74.5t-41-60.5-62-40q-37-15-79-15-39 0-73.5 14.5t-59.5 40.5-40 60.5-15 74.5zM-695 1638q0-18 6.5-34t18-28 28-19.5 33.5-7.5q21 0 38.5 7.5t29.5 19.5 19.5 28 7.5 34q0 20-7.5 37t-19.5 29.5-29.5 20-38.5 7.5q-17 0-33.5-7.5t-28-20-18-29.5-6.5-37zM29 914q3 86 41.5 150.5t98 107 135 63 155.5 20.5q88 0 164.5-23.5t131.5-73.5 86.5-125 31.5-177v-856h-150v813q0 85-17.5 147.5t-51.5 102-83 59.5q-48 19-112 19-112 0-182.5-57.5t-83.5-169.5h-164z" horiz-adv-x="1008"/><glyph d="M-951 1461l54 107h762v-107h-816z"/><glyph d="M-951 1461l54 107h624v193h138v-300h-816z"/><glyph d="M-951 1461l54 107h406q-9 17-15 39t-6 45q0 41 15 76.5t41.5 62 61.5 42.5 75 16q41 0 77-16t62.5-42.5 41.5-62 15-76.5-15-75.5-41.5-60-61.5-40.5-78-15h-632zM-412 1652q0-19 7.5-36t19.5-29.5 29.5-19.5 36.5-7 36 7 29.5 19.5 20 30.5 7.5 35q0 19-7.5 36t-20 30.5-29.5 20.5-36 7-36.5-7-29.5-20.5-19.5-30.5-7.5-36z"/><glyph d="M-951 1461l54 107h309v193h137v-193h181v193h135v-300h-816z"/><glyph d="M-1485 1461l55 107h1042v-107h-1097z"/><glyph d="M-1485 1461l55 107h904v193h138v-300h-1097z"/><glyph d="M-1485 1461l55 107h760q-9 17-16 39-6 22-6 45 0 41 15 76.5t41.5 62 61.5 42.5 74 16q41 0 77-16t62.5-42.5 41.5-62 15-76.5-15-75.5-41.5-60-62.5-40.5-77-15h-985zM-594 1652q0-19 7.5-36t20.5-29.5 30-19.5 36-7 36 7 30.5 19.5 20.5 30.5 7 35q0 19-7 36t-20.5 30.5-30.5 20.5-36 7-36-7-30-20.5-20.5-30.5-7.5-36z"/><glyph d="M-1485 1461l55 107h595v193h137v-193h175v193h135v-300h-1097z"/><glyph d="M-526 1920v314h138v-314h-138z"/><glyph d="M-882 2111v98h226v-183q86 0 143 16.5t94 42.5 57.5 59 29.5 65h148q-3-26-17-57.5t-39-64-61-62-83.5-53-109.5-38-135-14.5h-147v191h-106z"/><glyph d="M-1041 1920q-6 62 7.5 109t38.5 78.5 57 47 64.5 15.5 58.5-8 44-23.5 30-35.5 18-44q4 24 17.5 44t31.5 35.5 43 23.5q22 8 49 8 29 0 55.5-9t47-26.5 34.5-47 20-70.5q24 3 48 17.5t44.5 39.5 32.5 59 12 76h138q0-61-25-113.5t-63-90.5-83-61q-44-24-85-24h-114q-3 25-7.5 50t-12 44.5-21.5 32.5q-15 12-36 12-19 0-32-12.5t-22-31.5-12.5-44-3.5-51h-109q0 26-4.5 52t-14 45.5-23.5 30.5-32 11q-20 0-33.5-12.5t-22-32-11.5-44 0-50.5h-124z"/><glyph d="M-717 2083v100h191v160h138v-160h190v-100h-190v-163h-138v163h-191z"/><glyph d="M-1408 1461l56 107h1217v-107h-1273z"/><glyph d="M-1408 1461l56 107h1079v193h138v-300h-1273z"/><glyph d="M-1408 1461l56 107h861q-9 17-15 39t-6 45q0 41 15 76.5t41.5 62 61.5 42.5 75 16q41 0 77-16t62.5-42.5 41.5-62 15-76.5-15-75.5-41.5-60-61.5-40.5-78-15h-1089zM-412 1652q0-19 7.5-36t19.5-29.5 29.5-19.5 36.5-7 36 7 29.5 19.5 20 30.5 7.5 35q0 19-7.5 36t-20 30.5-29.5 20.5-36 7-36.5-7-29.5-20.5-19.5-30.5-7.5-36z"/><glyph d="M-1408 1461l56 107h764v193h137v-193h181v193h135v-300h-1273z"/><glyph d="M-273 1785v314h138v-314h-138z"/><glyph d="M-641 1976v98h226v-184q86 0 143 16.5t94 43 57.5 58.5 29.5 66h148q-3-26-17-58t-39-64-61-61.5-83.5-53-109.5-38-135-14.5h-147v191h-106z"/><glyph d="M-788 1785q-6 61 7.5 108t38.5 79 57 47 64.5 15 58-8 44-23.5 30.5-36 18-43.5q4 23 17 43.5t32.5 36 43 23.5 49.5 8q30 0 55.5-8.5t46-27 35.5-47 20-69.5q24 3 48.5 17.5t44 38.5 31.5 59 12 77h138q0-41-12-77.5t-31-68.5-44.5-58.5-54.5-44.5-58-29-56-11h-115q-2 25-6.5 50t-12 44.5-21.5 31.5q-15 12-36 12-19 0-32.5-12t-22-31-12.5-44-4-51h-108q0 26-4.5 51.5t-13.5 45-23 30.5q-15 11-33 11-20 0-33.5-12t-22.5-31.5-11.5-44 .5-50.5h-124z"/><glyph d="M-465 1948v98h186v160h144v-160h189v-98h-189v-163h-144v163h-186z"/><glyph d="M-588 1785v314h140v-314h-140z"/><glyph d="M-1000 1976v98h227v-184q85 0 142.5 16.5t94 43 57 58.5 31.5 66h147q-3-26-17-58t-39-64-60.5-61.5-84-53-109.5-38-136-14.5h-147v191h-106z"/><glyph d="M-1158 1785q-6 61 7 108t38 79 57.5 47 65 15 58-8 44-23.5 30-36 17.5-43.5q5 23 19 43.5t32 36 42.5 23.5 49.5 8q29 0 55-8.5t46.5-27 35-47 20.5-69.5q24 3 48 17.5t44 38.5 31.5 59 11.5 77h138q0-41-11.5-77.5t-30.5-68.5-45-58.5-54.5-44.5-57.5-29q-30-11-56-11h-115q-3 25-6.5 50t-11.5 44.5-22 31.5q-16 12-36 12t-33-12-22-31-12.5-44-3.5-51h-109q0 26-4.5 51.5t-13 45-22.5 30.5q-16 11-33 11-21 0-34-12t-22-31.5-12-44 0-50.5h-123z"/><glyph d="M-776 1948v98h182v160h146v-160h189v-98h-189v-163h-146v163h-182z"/><glyph d="M-614-159h249v-404h-141v304h-108v100z"/><glyph d="M-903-159h256v-126q0-91 39-137 38-45 123-45 82 0 119.5 45.5t37.5 136.5v126h144v-126q0-56-15.5-107.5t-50.5-89-92.5-59.5-142.5-22q-82 0-139.5 19t-94.5 57.5-53 95-16 132.5h-115v100z"/><glyph d="M-594-265q0 25 10.5 47t27.5 39 39.5 27.5 46.5 10.5q25 0 47-10.5t38.5-27.5 25.5-39 9-47-9-47-25.5-38-38-25.5-47.5-9.5q-25 0-47 9.5t-39 25.5-27.5 38-10.5 47z"/><glyph d="M-551-159h250v-404h-141v304h-109v100z"/><glyph d="M-1035-159h256v-126q0-91 39-136.5t123-45.5q82 0 118.5 45.5t36.5 136.5v126h146v-126q0-56-15.5-107.5t-51.5-89-93.5-59.5-140.5-22-140 19-94 57.5-53 95-16 132.5h-115v100z"/><glyph d="M-547-265q0 25 9.5 47t26.5 39 39 27.5 47 10.5 47-10.5 38.5-27.5 26-39 9.5-47-9.5-47-26-38-38.5-25.5-47-9.5-47 9.5-39 25.5-26.5 38-9.5 47z"/><glyph d="M-882 1461v215h138v-108h973v-107h-1111z"/><glyph d="M-588 1920v314h140v-314h-140z"/><glyph d="M-888 2111v98h226v-183q86 0 143 16.5t94 42.5 57.5 59 29.5 65h148q-3-26-16.5-57.5t-38.5-64-61.5-62-84-53-109.5-38-135-14.5h-147v191h-106z"/><glyph d="M-917 1920q-6 62 7 109t38 78.5 57.5 47 65 15.5 58-8 44-23.5 30-35.5 17.5-44q5 24 18 44t31.5 35.5 42.5 23.5q23 8 49 8 30 0 56.5-9t47-26.5 34.5-47 20-70.5q23 3 47.5 17.5t45 39.5 32 59 11.5 76h139q0-61-25-113.5t-63.5-90.5-83.5-61q-43-24-84-24h-115q-3 25-7.5 50t-11.5 44.5-21 32.5q-16 12-36 12-19 0-32.5-12.5t-22.5-31.5-12.5-44-3.5-51h-109q0 26-4.5 52t-14 45.5-23.5 30.5-31 11q-21 0-35-12.5t-22-32-11-44 0-50.5h-123z"/><glyph d="M-776 2083v100h182v160h146v-160h189v-100h-189v-163h-146v163h-182z"/><glyph d="M-676 1920v314h139v-314h-139z"/><glyph d="M-864 2083v100h182v160h145v-160h190v-100h-190v-163h-145v163h-182z"/><glyph d="M-642-159h250v-404h-143v304h-107v100z"/><glyph d="M-935-159h256v-126q0-91 39-136.5t123-45.5q82 0 118.5 45.5t36.5 136.5v126h146v-126q0-56-15.5-107.5t-51.5-89-93.5-59.5-140.5-22-141 19-94 57.5-53 95-17 132.5h-113v100z"/><glyph d="M-612-265q0 25 10.5 47t26.5 39 39 27.5 48 10.5 47-10.5 38-27.5 25.5-39 9.5-47-9.5-47-25.5-38-38-25.5-47-9.5-48 9.5-39 25.5-26.5 38-10.5 47z"/></font>
</defs>
</svg>
