<svg xmlns="http://www.w3.org/2000/svg"><defs><font horiz-adv-x="0"><font-face ascent="1638" descent="-410" units-per-em="2048"/><missing-glyph horiz-adv-x="515"/><glyph d="M78 0v234h1073v-234h-1073zM78 725v227h419v427h240v-427h414v-227h-414v-425h-240v425h-419z" horiz-adv-x="1232" unicode="&#x2b;&#x2d;"/><glyph d="M194 0v315h315v-315h-315zM867 0v315h314v-315h-314zM1542 0v315h317v-315h-317z" horiz-adv-x="2054" unicode="&#x2e;&#x2e;&#x2e;"/><glyph d="M86 0v243h1145v-243h-1145zM86 810v202l1145 515v-254l-800-364 800-361v-252z" horiz-adv-x="1327" unicode="&#x3c;&#x3d;"/><glyph d="M98 0h1145v243h-1145v-243zM98 296v252l799 361-799 364v254l1145-515v-202z" horiz-adv-x="1327" unicode="&#x3e;&#x3d;"/><glyph d="M98 619q0 90 23 173.5t65.5 155.5 102.5 132 133.5 101 157 65 175.5 24q89 0 171.5-24t155-65 132-101 101-132 65-155.5 23.5-173.5q0-91-23.5-174.5t-65-156-101-131.5-132-101.5-155-65.5-171.5-23q-92 0-175.5 23t-157 65.5-133.5 101.5-102.5 131.5-65.5 156-23 174.5zM303 625q0-63 15.5-120t45.5-107 71.5-91.5 91.5-72 108-46.5 120-16q60 0 117 16t106 46.5 90.5 72 70.5 91.5 45 107 16 120q0 91-35.5 172.5t-96 142-141 95.5-172.5 35q-95 0-177-35t-143.5-95.5-96.5-142-35-172.5zM406 625q0 69 28 131t75 109 111 75 135 28q69 0 130.5-28t108-75 74-109 27.5-131q0-71-27.5-135t-74-110.5-108-74-130.5-27.5q-71 0-135 27.5t-111 74-75 110.5-28 135zM494 1803h212l-24-370h-167zM592 625q0-34 12-64.5t34-53 51.5-34 65.5-11.5q32 0 60.5 11.5t49 34 32.5 53 12 64.5q0 32-12 60t-32.5 49.5-49 34-60.5 12.5q-36 0-65.5-12.5t-51.5-34-34-49.5-12-60zM807 1803h214l-21-370h-170z" horiz-adv-x="1500" unicode="&#xe4f;&#x22;"/><glyph d="M67 0v240h118v429q0 21-5 43t-17 43.5-32.5 42-52.5 38.5q14 53 37.5 106t59 100 83.5 88.5 111 72.5 141 49 172 18q113 0 199.5-21t151.5-56.5 111-85.5 74-108 40-123 12-133v-1177h-284q-15 26-38.5 51t-55 44-75.5 32.5-101 13.5q-50 0-98-11t-94-33.5-91-57-93-85.5v277q33 33 74.5 59.5t89.5 46.5 101 31q55 11 111 11 80 0 139.5-17t102.5-38v874q0 43-14.5 85t-46 76-84 55.5-131.5 22.5q-59 0-105.5-11t-80-29.5-53.5-40.5-29-43q20-18 34.5-37t24-43.5 14-56.5 4.5-76v-666h-424zM918-713q0 40 16 76t42 62 61 41.5 76 15.5q38 0 72.5-15.5t61-41.5 41-61.5 14.5-76.5q0-39-14.5-73t-41-60.5-61-41.5-72.5-15q-40 0-75.5 15t-61.5 41.5-42 60.5-16 73z" horiz-adv-x="1385" unicode="&#xe0e;&#xe3a;"/><glyph d="M67 0v240h118v429q0 21-5 43t-17 43.5-32.5 42-52.5 38.5q14 53 37.5 106t59 100 83.5 88.5 111 72.5 141 49 172 18q113 0 199.5-21t151.5-56.5 111-85.5 74-108 40-123 12-133v-1186h-302q-3 24-12 48.5t-21.5 45-29.5 33.5-37.5 13-36.5-13-25.5-33.5-15.5-45-6-48.5h-233q0 24-6 48.5t-18.5 45-29.5 35-40 14.5-41-14.5-29-35-17-45.5-6-48h-275q0 98 26.5 168.5t72.5 116.5 106.5 67 128.5 21q36 0 67.5-8t59-21 51.5-32.5 41-40.5q17 21 38.5 38t45.5 30.5 51.5 21 55.5 7.5q42 0 73-14.5t52-31.5v885q0 43-14.5 85t-46 76-84 55.5-131.5 22.5q-59 0-105.5-11t-80-29.5-53.5-40.5-29-43q20-18 34.5-37t24-43.5 14-56.5 4.5-76v-666h-424zM918-713q0 40 16 76t42 62 61 41.5 76 15.5q38 0 72.5-15.5t61-41.5 41-61.5 14.5-76.5q0-39-14.5-73t-41-60.5-61-41.5-72.5-15q-40 0-75.5 15t-61.5 41.5-42 60.5-16 73z" horiz-adv-x="1385" unicode="&#xe0f;&#xe3a;"/><glyph d="M67 0v240h118v429q0 21-5 43t-17 43.5-32.5 42-52.5 38.5q14 53 37.5 106t59 100 83.5 88.5 111 72.5 141 49 172 18q113 0 199.5-21t151.5-56.5 111-85.5 74-108 40-123 12-133v-1177h-284q-15 26-38.5 51t-55 44-75.5 32.5-101 13.5q-50 0-98-11t-94-33.5-91-57-93-85.5v277q33 33 74.5 59.5t89.5 46.5 101 31q55 11 111 11 80 0 139.5-17t102.5-38v874q0 43-14.5 85t-46 76-84 55.5-131.5 22.5q-59 0-105.5-11t-80-29.5-53.5-40.5-29-43q20-18 34.5-37t24-43.5 14-56.5 4.5-76v-666h-424zM850-536h420v-534h-281v312h-139v222z" horiz-adv-x="1385" unicode="&#xe0e;&#xe38;"/><glyph d="M67 0v240h118v429q0 21-5 43t-17 43.5-32.5 42-52.5 38.5q14 53 37.5 106t59 100 83.5 88.5 111 72.5 141 49 172 18q113 0 199.5-21t151.5-56.5 111-85.5 74-108 40-123 12-133v-1186h-302q-3 24-12 48.5t-21.5 45-29.5 33.5-37.5 13-36.5-13-25.5-33.5-15.5-45-6-48.5h-233q0 24-6 48.5t-18.5 45-29.5 35-40 14.5-41-14.5-29-35-17-45.5-6-48h-275q0 98 26.5 168.5t72.5 116.5 106.5 67 128.5 21q36 0 67.5-8t59-21 51.5-32.5 41-40.5q17 21 38.5 38t45.5 30.5 51.5 21 55.5 7.5q42 0 73-14.5t52-31.5v885q0 43-14.5 85t-46 76-84 55.5-131.5 22.5q-59 0-105.5-11t-80-29.5-53.5-40.5-29-43q20-18 34.5-37t24-43.5 14-56.5 4.5-76v-666h-424zM850-536h420v-534h-281v312h-139v222z" horiz-adv-x="1385" unicode="&#xe0f;&#xe38;"/><glyph d="M67 0v240h118v429q0 21-5 43t-17 43.5-32.5 42-52.5 38.5q14 53 37.5 106t59 100 83.5 88.5 111 72.5 141 49 172 18q113 0 199.5-21t151.5-56.5 111-85.5 74-108 40-123 12-133v-1177h-284q-15 26-38.5 51t-55 44-75.5 32.5-101 13.5q-50 0-98-11t-94-33.5-91-57-93-85.5v277q33 33 74.5 59.5t89.5 46.5 101 31q55 11 111 11 80 0 139.5-17t102.5-38v874q0 43-14.5 85t-46 76-84 55.5-131.5 22.5q-59 0-105.5-11t-80-29.5-53.5-40.5-29-43q20-18 34.5-37t24-43.5 14-56.5 4.5-76v-666h-424zM437-536h393v-195q0-47 18.5-71.5t60.5-24.5q80-2 80 96v195h281v-195q0-70-19.5-131.5t-61.5-107-111-73-169-27.5q-91 0-155 21.5t-108.5 60.5-68 93-29.5 119h-111v240z" horiz-adv-x="1385" unicode="&#xe0e;&#xe39;"/><glyph d="M67 0v240h118v429q0 21-5 43t-17 43.5-32.5 42-52.5 38.5q14 53 37.5 106t59 100 83.5 88.5 111 72.5 141 49 172 18q113 0 199.5-21t151.5-56.5 111-85.5 74-108 40-123 12-133v-1186h-302q-3 24-12 48.5t-21.5 45-29.5 33.5-37.5 13-36.5-13-25.5-33.5-15.5-45-6-48.5h-233q0 24-6 48.5t-18.5 45-29.5 35-40 14.5-41-14.5-29-35-17-45.5-6-48h-275q0 98 26.5 168.5t72.5 116.5 106.5 67 128.5 21q36 0 67.5-8t59-21 51.5-32.5 41-40.5q17 21 38.5 38t45.5 30.5 51.5 21 55.5 7.5q42 0 73-14.5t52-31.5v885q0 43-14.5 85t-46 76-84 55.5-131.5 22.5q-59 0-105.5-11t-80-29.5-53.5-40.5-29-43q20-18 34.5-37t24-43.5 14-56.5 4.5-76v-666h-424zM437-536h393v-195q0-47 18.5-71.5t60.5-24.5q80-2 80 96v195h281v-195q0-70-19.5-131.5t-61.5-107-111-73-169-27.5q-91 0-155 21.5t-108.5 60.5-68 93-29.5 119h-111v240z" horiz-adv-x="1385" unicode="&#xe0f;&#xe39;"/><glyph horiz-adv-x="515" unicode="&#x20;"/><glyph horiz-adv-x="515" unicode="&#x09;"/><glyph horiz-adv-x="515" unicode="&#xa0;"/><glyph d="M237 0v295h311v-295h-311zM237 977v473h314v-473l-51-570h-213z" horiz-adv-x="787" unicode="&#x21;"/><glyph d="M172 898v558h245v-558h-245zM521 898v558h246v-558h-246z" horiz-adv-x="936" unicode="&#x22;"/><glyph d="M83 382v237h223l31 211h-201v234h231l58 385h237l-55-385h157l56 385h240l-54-385h175v-234h-201l-34-211h176v-237h-210l-54-382h-242l53 382h-151l-59-382h-240l53 382h-189zM548 619h155l31 211h-155z" horiz-adv-x="1263" unicode="&#x23;"/><glyph d="M78 490h298q0-56 15.5-100t43-76.5 65-53 82.5-32.5v394l-37 11q-54 15-104 33t-97 41-86 53-68.5 71.5-45.5 94.5q-17 51-17 119t18 125.5 49 103.5 74 82.5 93 62 106.5 42 114.5 22.5v142h188v-148q88-13 168-48t139.5-92.5 94-139 34.5-188.5h-297q-3 45-13.5 79t-28 59-43 41.5-54.5 25.5v-344l66-18q27-5 67.5-17t87-31.5 93.5-49 85.5-74 62-106.5 23.5-143q0-92-31-171t-93-140-152.5-99.5-208.5-50.5v-177h-188v177q-68 8-132.5 26.5t-121 49.5-102 74-79 99-52 122.5-17.5 148.5zM423 1069q0-29 7.5-49t25.5-36 47-30q30-16 79-30v303q-30-6-59-17t-51-30.5-35.5-46.5-13.5-64zM770 225q34 6 67 19.5t60 34 44 51 17 71.5q0 36-14.5 62.5t-39.5 46.5-60 35q-34 17-74 29v-349z" horiz-adv-x="1333" unicode="&#x24;"/><glyph d="M148 1027q0 55 7.5 107.5t25 100 46 87.5 68 68 94 44 123.5 16q107 0 176.5-34t111-90 59-133 17.5-163q0-80-20.5-155.5t-63.5-134-112.5-93-167.5-34.5q-101 0-170.5 31t-112.5 87-62 131.5-19 164.5zM385 1030q0-35 4.5-74.5t17.5-74 37-57 65-22.5q40 0 64.5 22.5t38 56.5 17.5 74 4 75q0 33-3.5 73.5t-16 75.5-36 57.5-65.5 22.5q-40 0-64.5-22.5t-38.5-57.5-19-75.5-5-73.5zM432-30l912 1510h283l-911-1510h-284zM1178 398q0 83 18.5 160t60.5 135.5 113.5 94 174.5 35.5q107 0 178-33.5t112.5-90.5 57.5-133 16-162q0-81-19-156.5t-63.5-133.5-113.5-92q-70-34-168-34-101 0-170.5 32.5t-112 88-63.5 130.5-21 159zM1421 401q0-32 4.5-71.5t17-73.5 35.5-57.5 61-23.5q42 0 68.5 22t40 56 17.5 74 4 77q0 34-3.5 74t-17 74-37.5 57.5-66 23.5q-40 0-64.5-23.5t-37.5-57.5-17.5-74.5-4.5-76.5z" horiz-adv-x="2054" unicode="&#x25;"/><glyph d="M58 397q0 80 24.5 145t67 116 99 92.5 118.5 76.5q-30 36-54 71.5t-42.5 72.5-29 77.5-10.5 88.5q0 65 23.5 125t69.5 105 114 71 157 26q74 0 145-20t125-61.5 87.5-102 33.5-140.5q0-60-20-112.5t-52.5-98-76.5-84.5q-44-40-91-69 25-30 43.5-53t36.5-45 38-47q18-24 48-58 9 37 14 76 6 41 11 88h251q-8-72-17-126.5t-19.5-96.5-24.5-78-32-75l311-361h-327l-130 145q-36-41-82.5-72.5t-100-52-109.5-31-112-10.5q-107 0-184 22.5t-131.5 59.5-88 82-52 91.5-25 89.5-6.5 73zM324 400q0-45 19.5-80.5t51-59 73-37 83.5-13.5q79 0 140 29t105 88l-281 327q-38-24-73-49t-61-54.5-41.5-66.5-15.5-84zM491 1131q0-21 7.5-43t21-46 31-47 38.5-46q25 17 49.5 35.5t44.5 41.5 32.5 49 12.5 56q0 20-8 39.5t-23.5 34.5-38 23.5-51.5 8.5q-21 0-42.5-6.5t-37.5-19-26-33.5-10-47z" horiz-adv-x="1339" unicode="&#x26;"/><glyph d="M160 906v559h246v-559h-246z" horiz-adv-x="569" unicode="&#x27;"/><glyph d="M95 558q0 129 22 260t67 260.5 112.5 255 157.5 242.5h277q-87-142-150-272t-101.5-255-57.5-246.5-19-244.5q0-121 17.5-242.5t57.5-246.5 102-258q62-134 151-276h-280q-78 122-143 245.5t-112.5 250-74 257.5-26.5 270z" horiz-adv-x="682" unicode="&#x28;"/><glyph d="M-49-465q89 142 151 275.5t101.5 258.5 57 245.5 17.5 243.5-17.5 244.5-57.5 246.5-102.5 256-149.5 271h277q89-117 157-242.5t113-255 68-260.5 23-260q0-139-26.5-270t-74-257.5-114.5-249.5q-66-124-143-246h-280z" horiz-adv-x="682" unicode="&#x29;"/><glyph d="M49 1137l66 188 203-73v212h206v-212l198 73 77-185-213-77 127-175-165-115-125 176-120-179-176 112 128 181z" horiz-adv-x="842" unicode="&#x2a;"/><glyph d="M78 474v226h419v428h240v-428h414v-226h-414v-425h-240v425h-419z" horiz-adv-x="1232" unicode="&#x2b;"/><glyph d="M157 0v300h317v-276q0-65-18-126.5t-56.5-114-97.5-95.5-145-68v188q32 8 58 27.5t44.5 46 27.5 57.5 9 61h-139z" horiz-adv-x="630" unicode="&#x2c;"/><glyph d="M78 474v226h874v-226h-874z" horiz-adv-x="1030" unicode="&#x2d;"/><glyph d="M157 0v315h317v-315h-317z" horiz-adv-x="630" unicode="&#x2e;"/><glyph d="M-41-30l593 1509h306l-600-1509h-299z" horiz-adv-x="824" unicode="&#x2f;"/><glyph d="M41 725q0 59 3 122t10.5 126.5 24 125 43 116.5 66.5 102.5 94.5 81.5 127 53 164.5 19q125 0 213.5-34t148.5-90 95-131 52.5-158 22.5-169.5 5-163.5q0-83-5-171t-22.5-171-52.5-157.5-95-129.5-148-87q-89-33-214-33-93 0-165 18t-126.5 52-94.5 80-66.5 100.5-43 115.5-24 126-10.5 130-3 127zM348 725.5q0-44.5.5-98t8-107.5 21-103.5 38.5-88 63.5-62 94.5-23.5 96 23.5 65.5 62 40 88 20.5 103.5 8 107q1 54 1 98.5t-1.5 96-7.5 105-20.5 102-40 87-64.5 61.5q-41 23-97 23t-93-23-63-61.5-40-87-20.5-102-8-105-1.5-96z" horiz-adv-x="1151" unicode="&#x30;"/><glyph d="M121 922v263q80 3 149.5 16t124.5 41 92 78 55 130h251v-1450h-300v998q-42-20-84-33t-86.5-22-94.5-14-107-7z" horiz-adv-x="1151" unicode="&#x31;"/><glyph d="M24 0q9 98 31 177t53 142.5 71 113 84.5 91 91.5 76.5q48 33 95 66 84 55 145.5 97t100 82 58 81.5 19.5 94.5q0 42-16.5 76t-43 57.5-62 36-77.5 12.5q-56 0-96-28.5t-65-76-37-108.5-7-123h-301q-12 131 20.5 240.5t101 190.5 169 127 224.5 46q104 0 195.5-29.5t159.5-87.5 106.5-142 38.5-194q0-65-15.5-122.5t-42.5-106.5-63-90.5-76.5-77-84-65-83.5-56.5q-46-26-93.5-56t-90.5-59.5-77-59-54-59.5h669v-266h-1048z" horiz-adv-x="1151" unicode="&#x32;"/><glyph d="M27 488h302q3-127 59-190.5t166-63.5q53 0 96 13t74 39 48.5 62.5 17.5 82.5q0 49-17.5 86.5t-48.5 63.5-72.5 39-92.5 13h-36.5t-38.5-3v240h52q40 0 76 11t63.5 32 44 51.5 16.5 68.5q0 40-14.5 69t-38.5 47.5-58 27-74 8.5q-51 0-88-17t-59-48-33-77.5-11-105.5h-307q5 123 39 219t97 161 153 100 209 35q103 0 193.5-24.5t155.5-76.5 102-131q37-80 37-190 0-77-32-140.5t-86-113.5q91-48 135-135t44-207q0-71-20-134t-55-116.5-81-93.5q-47-43-103-69-63-30-137-39t-150-9q-119 0-216.5 30t-166.5 93.5-107 160.5q-37 98-37 231z" horiz-adv-x="1151" unicode="&#x33;"/><glyph d="M33 303v239l666 904h239v-879h188v-264h-188v-303h-293v303h-612zM360 567h285v391z" horiz-adv-x="1151" unicode="&#x34;"/><glyph d="M41 457h301q9-47 29-85.5t48-66.5 66.5-43.5 82.5-15.5q48 0 91 15.5t74 47 48.5 80.5 17.5 114q0 52-17.5 97t-50 77-78.5 50.5-102 18.5q-69 0-120.5-22t-101.5-70h-255l132 796h827v-248h-586l-44-270q19 18 49 32t65 24 68.5 14 56.5 4q98 0 184-29.5t148-91.5 98.5-157 36.5-225q0-65-16-128.5t-47-122-76.5-108-108-85-139.5-56.5-168-21q-100 0-188.5 30.5t-157.5 90.5-113.5 148.5-53.5 205.5z" horiz-adv-x="1151" unicode="&#x35;"/><glyph d="M38 685q0 101 12 198t38.5 184 71 161 108.5 127.5 150.5 84.5 198.5 31q193 0 309-103.5t151-306.5h-284q-17 85-63 132t-122 47q-47 0-85-17.5t-66.5-46.5-49.5-67.5-34-81.5-21-88q-6-45-9-85 21 27 53.5 51t72 42 81.5 28.5 80 10.5q119 0 209-38.5t151-105 92.5-157 31.5-194.5q0-57-11-118t-36-118-66.5-108-100.5-88.5-137.5-60-179.5-22.5q-118 0-204 31t-146.5 84.5-98.5 124.5-59.5 149.5-29 161.5-7.5 158zM366 480q0-51 15.5-97t45-80 71.5-53 95-19q52 0 93 20t68 54.5 42 79 15 95-13.5 96.5-40 80.5-67 56-97.5 21.5q-54 0-97-20.5t-71-56-43.5-81.5-15.5-96z" horiz-adv-x="1151" unicode="&#x36;"/><glyph d="M71 1174v276h1015v-230q-71-67-137.5-153t-125-184.5-108-208-85-222-55-227.5-19.5-225h-310q3 175 41.5 338.5t102 312 148 279.5 180.5 244h-647z" horiz-adv-x="1151" unicode="&#x37;"/><glyph d="M34 445q0 227 184 342-32 27-54 59t-36 67.5-20.5 74-6.5 76.5q0 101 38.5 176.5t102 126.5 148 77.5 175.5 26.5q86 0 155.5-16t123-44.5 92-67 63.5-84 36-95.5 11-100q0-83-28.5-153t-88.5-121q43-28 78.5-64t61.5-80.5 39.5-95 13.5-105.5q0-74-20-138t-55.5-116-85-92.5-109.5-68-128-40.5q-70-14-141-14-112 0-213 30t-175 89-117.5 146.5-43.5 203.5zM332 443q0-51 19-90t53-66 80-40 99-13q50 0 94.5 14.5t76.5 43.5 50.5 68.5 18.5 84.5q0 43-18 81t-50.5 66-77 43.5-97.5 15.5q-56 0-101-14.5t-78.5-41.5-51-66-17.5-86zM394 1054q0-40 14.5-71t40.5-52.5 61-33.5 73.5-12 70 12.5 53 35 33.5 53.5q12 29 12 67.5t-12.5 68-35.5 50.5-55.5 30.5-74.5 9.5q-38 0-70.5-9.5t-56.5-30.5-38.5-50.5-14.5-67.5z" horiz-adv-x="1151" unicode="&#x38;"/><glyph d="M38 955q0 57 12 118t37 118.5 65 108 99.5 89 138 60.5 178.5 22q119 0 205.5-31t147-84.5 98.5-124.5 59.5-149.5 28.5-161 7-159.5q0-101-11.5-198.5t-38.5-185-70.5-161.5-108.5-127-151-83-198-30q-95 0-173.5 25.5t-137 77-96 128.5-55.5 181h286q17-83 64-132t121-49q47 0 84.5 16.5t66.5 44.5 49 65 33.5 78.5 20 86 9.5 84.5q-59-65-130-92.5t-145-27.5q-119 0-210.5 37t-155 103.5-96.5 157-33 195.5zM342 968q0-50 13.5-96t40.5-81 67-55 96-20q54 0 97 19.5t72.5 54 44.5 80.5q14 48 14 98t-15.5 94.5-44 78-71.5 52.5-96.5 19-93.5-20-68-54-42-78.5-14-91.5z" horiz-adv-x="1151" unicode="&#x39;"/><glyph d="M157 0v315h317v-315h-317zM157 761v315h317v-315h-317z" horiz-adv-x="630" unicode="&#x3a;"/><glyph d="M157 0v300h317v-276q0-65-18-126.5t-56.5-114-97.5-95.5-145-68v188q32 8 58 27.5t44.5 46 27.5 57.5 9 61h-139zM157 761v315h317v-315h-317z" horiz-adv-x="630" unicode="&#x3b;"/><glyph d="M86 491v234l1145 515v-269l-800-364 800-361v-267z" horiz-adv-x="1327" unicode="&#x3c;"/><glyph d="M92 260v240h1048v-240h-1048zM92 669v240h1048v-240h-1048z" horiz-adv-x="1232" unicode="&#x3d;"/><glyph d="M98-21v267l799 361-799 364v269l1145-515v-234z" horiz-adv-x="1327" unicode="&#x3e;"/><glyph d="M73 929q-3 126 31.5 229t99.5 175.5 160 112.5 209 40q103 0 190.5-29.5t150.5-85 97-135.5q34-82 34-182 0-67-18-118t-46-92.5-63-73.5q-33-33-66-63-26-26-53.5-49t-49-49-34-57-12.5-74v-77h-275v95q3 63 21.5 112t46.5 89 62 72.5 67 62.5q23 22 48.5 48.5t46 57 34 63 10.5 68.5q-3 41-17 75t-38.5 57.5-58.5 36.5-77 13q-59 0-103-26t-71.5-70.5-40-103-12.5-122.5h-273zM408 0v295h314v-295h-314z" horiz-adv-x="1142" unicode="&#x3f;"/><glyph d="M110 752q0 106 28 203t80.5 181.5 125.5 153.5 162 117.5 191 75.5 212 27q99 0 192-22.5t174.5-62.5 149-96 116.5-127 75.5-154 26.5-175q0-86-25.5-157t-68-128.5-97.5-100.5-115.5-71-120-40.5-112.5-9.5q-44 3-79.5 20.5t-59.5 53.5q-44-33-99-56.5t-111-23.5q-62 0-115.5 23.5t-92 64-59 97-20.5 121.5q0 62 14.5 125t42 120 68 106 91 84.5 111 55.5 129.5 20q25 0 52-6t51.5-18.5 46.5-32.5q24-19 39-46l27 74h185l-165-529q-4-18-6.5-36t-1-32.5 7.5-23.5 21-9q40 0 83.5 26.5t80.5 73.5 61 109.5 24 136.5q0 114-42.5 200.5t-114 144.5-165 87-196.5 29q-83 0-158.5-21t-140.5-58.5-118.5-91.5-90.5-119.5-57-141-20-156.5q0-80 21.5-154t60-137.5 93-115.5 120.5-89 142.5-57.5 156.5-20.5q68 0 136 8t128 26.5 111 50.5q51 30 89 78h227q-59-86-137-150t-167.5-106.5-188-63.5-201.5-21q-114 0-218 26.5t-193.5 75.5-163.5 117-125.5 154-79.5 185-28 209zM669 675q0-30 9.5-54.5t26.5-43 39.5-28 48.5-9.5q33 0 64 15.5t57.5 42.5 49 61 38 71 23.5 74 8 69q0 24-8 46t-22 40.5-35 29.5-42 11q-38 0-72-14.5t-63.5-39.5-52-58-37-70-23.5-74-9-69z" horiz-adv-x="1764" unicode="&#x40;"/><glyph d="M0 0l564 1450h333l565-1450h-337l-125 346h-540l-123-346h-337zM548 585h364l-181 507z" horiz-adv-x="1460" unicode="&#x41;"/><glyph d="M136 0v1450h543q49 0 107-1.5t115.5-7 109.5-17.5 90-33q40-23 75-56t61.5-73 42.5-88.5 16-107.5q0-49-14-93t-38-82.5-56-69.5-69-53q62-15 109.5-49.5t77.5-81 46-101 16-110.5q0-83-34.5-160t-98.5-136-159.5-94.5-217.5-35.5h-722zM457 252h373q54 0 93.5 14.5t67 41 41 62.5 13.5 78q0 48-22.5 82t-58 55.5-81 32-93.5 10.5h-333v-376zM457 858h277q68 0 114 12t75 35 41.5 55 12.5 70q0 53-18.5 85.5t-52 50.5-78 24.5-94.5 6.5h-277v-339z" horiz-adv-x="1440" unicode="&#x42;"/><glyph d="M77 716q0 107 21.5 206t63.5 183.5 103 154 139 118.5 174.5 75.5 208.5 26.5q119 0 226-35.5t191-103.5 138-167q55-100 70-224h-308q-7 53-36 102t-71 84.5-96 56.5-114 21q-71 0-128-19.5t-100.5-53.5-74.5-81.5-50.5-102-28.5-116.5q-10-63-10-125 0-59 9.5-118t29-113 50.5-100 74.5-79.5 100.5-52.5 128-19q74 0 132 24.5t99.5 65 66.5 94 31 110.5h308q-12-125-63-229t-134.5-178-194.5-115.5-245-41.5q-112 0-208.5 27t-174.5 75.5-139 117.5-103 152.5-63.5 180-21.5 199.5z" horiz-adv-x="1497" unicode="&#x43;"/><glyph d="M136 0v1450h530q178 0 318.5-42.5t238-130 149.5-217.5q52-128 52-302 0-181-46-323t-139-238-235.5-146.5-337.5-50.5h-530zM454 252h227q26 0 67.5 4t89 20.5 95.5 49 87.5 89 62.5 139.5q24 85 24 204 0 97-23.5 177t-74.5 138-131 89.5-191 31.5h-233v-942z" horiz-adv-x="1478" unicode="&#x44;"/><glyph d="M136 0v1450h1095v-263h-777v-309h686v-256h-686v-364h780v-258h-1098z" horiz-adv-x="1284" unicode="&#x45;"/><glyph d="M136 0v1450h1045v-263h-727v-308h626v-257h-626v-622h-318z" horiz-adv-x="1209" unicode="&#x46;"/><glyph d="M73 719q0 107 22 206t64 183.5 105 154 143.5 119 179.5 77.5q97 27 212 27 76 0 149-15t139-42 123-68.5 100-97 71.5-123.5 37.5-151h-312q-13 54-40.5 97t-67.5 72-90.5 44-109.5 15q-72 0-130-19.5t-103-53.5-77-80.5-52-102-30-118-10-124.5q0-90 22-176.5t71-153 125-108.5q75-41 184-41 74 0 136.5 19t108 57.5 74 96.5 33.5 135h-327v254h622v-802h-206l-31 148q-41-53-90.5-87t-102.5-54-108.5-28.5-108.5-8.5q-114 0-212.5 27t-179 75-143.5 115.5-105 151-64 179.5q-22 98-22 201z" horiz-adv-x="1591" unicode="&#x47;"/><glyph d="M136 0v1450h318v-571h607v571h318v-1450h-318v622h-607v-622h-318z" horiz-adv-x="1515" unicode="&#x48;"/><glyph d="M157 0v1450h317v-1450h-317z" horiz-adv-x="630" unicode="&#x49;"/><glyph d="M15 456v98h294v-98q0-36 8.5-73.5t27-68.5 50-51 80.5-20q56 0 89.5 23.5t49.5 59 21 77.5q4 44 4 82v965h326v-981q0-47-6-101t-23-109-49-106.5-86.5-90-133-62.5-189.5-24q-92 0-175.5 27t-148 84-102 148-37.5 221z" horiz-adv-x="1101" unicode="&#x4a;"/><glyph d="M136 0v1450h329v-600l574 600h401l-561-565 592-885h-376l-438 663-192-197v-466h-329z" horiz-adv-x="1400" unicode="&#x4b;"/><glyph d="M136 0v1450h321v-1178h686v-272h-1007z" horiz-adv-x="1172" unicode="&#x4c;"/><glyph d="M136 0v1450h435l364-996h3l344 996h433v-1450h-303v1027h-6l-376-1027h-204l-381 1018h-2v-1018h-307z" horiz-adv-x="1851" unicode="&#x4d;"/><glyph d="M136 0v1450h318l625-972h3v972h306v-1450h-321l-622 971h-2v-971h-307z" horiz-adv-x="1524" unicode="&#x4e;"/><glyph d="M61 725q0 98 20 192.5t60.5 179 102 155.5 143 121.5 183.5 80 223 29.5q125 0 227.5-29.5t185-80 144.5-121.5 102.5-155.5 60.5-179 20-192.5q0-97-20-192t-60.5-178.5-102.5-154-144.5-120.5-185-78.5-227.5-28.5q-123 0-224 28.5t-182.5 78.5-143 120.5-102 154-60.5 178.5-20 192zM382 725q0-89 23-175.5t72.5-154.5 128-110 187.5-42q113 0 193 42t130 110 73 154.5 23 175.5q0 59-9.5 118.5t-32 112.5-55 99-79.5 81-107 54q-62 19-136 19t-132.5-19-104-54-79-81-54-99-31-112.5-10.5-118.5z" horiz-adv-x="1593" unicode="&#x4f;"/><glyph d="M136 0v1450h671q124 0 216.5-31t154.5-88.5 93-142 31-193.5q0-107-31-190t-93-139-156-84q-87-27-199-26h-16-353v-556h-318zM454 805h289 9q57 0 99 12 46 13 75.5 38.5t44.5 60.5q15 34 15 79 0 42-15 78.5t-44.5 61.5-75.5 38.5-108 13.5h-289v-382z" horiz-adv-x="1363" unicode="&#x50;"/><glyph d="M61 725q0 98 20 192.5t60.5 179 102 155.5 143 121.5 183.5 80 223 29.5q125 0 227.5-29.5t185-80 144.5-121.5 102.5-155.5 60.5-179 20-192.5q0-87-16-171.5t-48-160.5-80-142.5-113-120.5l226-269h-348l-121 143q-53-14-114-22.5t-126-8.5q-123 0-224 28.5t-182.5 78.5-143 120.5-102 154-60.5 178.5-20 192zM382 725q0-89 23-175.5t72.5-154.5 128-110 187.5-42h18t18 1l-190 222h356l90-108q32 36 56.5 78t40 89.5 23.5 97.5q7 52 7 102 0 59-9.5 118.5t-32 112.5-55 99-79.5 81-107 54q-62 19-136 19t-132.5-19-104-54-79-81-54-99-31-112.5-10.5-118.5z" horiz-adv-x="1593" unicode="&#x51;"/><glyph d="M139 0v1450h719q117 0 209-30t155-85.5 97-134 34-173.5q0-56-15.5-111.5t-49-103.5-87-83-129.5-50q38-14 73-38.5t62-56.5 49-72q23-41 35-86l65-237q17-65 41.5-112t44.5-77h-336q-17 27-37.5 72.5t-41.5 116.5l-56 209q-9 36-27 69t-46 57-68 38.5-93 14.5h-275v-577h-323zM462 829h311q50 0 97.5 9.5t83.5 31 58 57.5q21 35 21 88 0 36-11 67t-34 54.5-58.5 37-82.5 13.5h-385v-358z" horiz-adv-x="1466" unicode="&#x52;"/><glyph d="M59 506h317q0-72 25-126t69-89.5 102-53.5 122-18q30 0 62.5 3t64 11 61.5 21.5 53 33.5 37 48 14 65q0 39-18 66t-47.5 48-71 35-89 26.5-100.5 23-106 25.5q-83 22-160 52t-136.5 79-95 118.5-35.5 170.5q0 74 22.5 136t62.5 111 92.5 85 114 60.5 128 36.5 134.5 12q77 0 149.5-13.5t136-38.5 117-64 92-92.5 59-122.5 20.5-152h-314q-3 66-24.5 110t-57 71-83.5 38-106 11q-40 0-79.5-8t-72.5-27.5-53-51.5q-21-33-21-77 0-27 6-48t23.5-38 47.5-31.5 78-30 116-34.5q69-20 161-43 27-6 69-16.5t88.5-29 95-47.5 86-72.5 61-105 23.5-142.5q0-101-39.5-186t-117.5-147-193.5-98-266.5-36q-83 0-160.5 15t-147 46-127.5 77-100 105-65 134.5-23 164.5z" horiz-adv-x="1363" unicode="&#x53;"/><glyph d="M18 1174v276h1147v-276h-416v-1174h-321v1174h-410z" horiz-adv-x="1182" unicode="&#x54;"/><glyph d="M139 559v891h318v-891q0-74 18.5-134.5t57-102 100.5-63.5q60-22 145-22 80 0 136.5 22t92 63.5 52.5 101.5q17 61 17 135v891h318v-891q0-142-41.5-251.5t-120-183.5-192.5-111-262-37q-152 0-271 35.5t-200.5 108-124.5 182-43 257.5z" horiz-adv-x="1533" unicode="&#x55;"/><glyph d="M0 1450h346l320-1002 323 1002h339l-513-1450h-309z" horiz-adv-x="1327" unicode="&#x56;"/><glyph d="M12 1450h325l236-1003h3l265 1003h284l266-1003h3l235 1003h325l-384-1450h-330l-257 980-258-980h-328z" horiz-adv-x="1965" unicode="&#x57;"/><glyph d="M0 0l497 743-470 707h387l280-467 295 467h370l-477-707 506-743h-390l-304 490-318-490h-376z" horiz-adv-x="1394" unicode="&#x58;"/><glyph d="M3 1450h385l355-571 345 571h373l-564-861v-589h-324v589z" horiz-adv-x="1463" unicode="&#x59;"/><glyph d="M21 0v231l797 943h-697v276h1122v-238l-789-940h783v-272h-1216z" horiz-adv-x="1284" unicode="&#x5a;"/><glyph d="M139-465v2041h521v-260h-217v-1519h217v-262h-521z" horiz-adv-x="660" unicode="&#x5b;"/><glyph d="M-25 1479h306l589-1509h-300z" horiz-adv-x="824" unicode="&#x5c;"/><glyph d="M0-203h219v1519h-219v260h521v-2041h-521v262z" horiz-adv-x="660" unicode="&#x5d;"/><glyph d="M95 500l497 989h189l495-989h-249l-342 675-333-675h-257z" horiz-adv-x="1369" unicode="&#x5e;"/><glyph d="M0-98h1039v-202h-1039v202z" horiz-adv-x="1038" unicode="&#x5f;"/><glyph d="M78 1557h339l237-391h-220z" horiz-adv-x="742" unicode="&#x60;"/><glyph d="M52 296q0 68 20.5 121.5t56 93.5 83.5 69.5 103 49.5 113.5 31.5 115.5 17.5 110 7h34q34 0 64-1v34q0 48-15 82t-41.5 56-60.5 32.5-73 10.5q-22 0-52-4.5t-59-21-52-45-32-76.5h-290q12 68 39.5 120.5t65 91 86.5 64.5 102 41.5 111.5 23 117.5 7.5q91 0 171.5-20t140.5-63.5 95.5-113 35.5-170.5v-471q0-54 7-120 5-66 31-143h-281q-9 24-14 59.5t-9 67.5q-40-47-84-77.5t-91-48-94.5-24.5-98.5-7q-74 0-139 19.5t-113.5 59.5-76 102-27.5 145zM343 324q0-40 15-65t38-38.5 47.5-18.5 44.5-5h11q48 0 90 16 47 18 84 47t58 65 21 72v121h-20q-22 0-49-1-41-2-86.5-9.5t-91-20.5-81.5-35.5-58.5-53.5-22.5-74z" horiz-adv-x="1151" unicode="&#x61;"/><glyph d="M107 0v1480h296v-514q32 42 72 70t83 43.5 86 23 84 7.5q80 0 146-22t119-59 93-90.5 67-115.5 40-131.5 13-143.5-13-146.5-40-136.5-67-118.5-94-93-122-61-148-22.5q-50 0-96 7.5t-87.5 26-79 50.5-71.5 79v-133h-281zM394 542q0-67 11.5-130t41.5-111.5 78.5-77.5 122.5-29q68 0 117.5 30.5t81.5 80 47 111 15 123.5q0 68-13.5 130t-44 110-80 77-123.5 29-122-29-77.5-77-42-110-12.5-127z" horiz-adv-x="1258" unicode="&#x62;"/><glyph d="M49 524q0 121 32.5 226t100 183.5 169.5 124.5 241 46q98 0 185-26.5t155-81.5 111-140.5 55-207.5h-299q-13 104-58 157t-134 53q-74 0-123-28.5t-78.5-75.5-41.5-107.5-12-122.5q0-56 12-111t40-99.5 72.5-71 109.5-26.5q96 0 157 65t72 187h283q-9-114-47.5-206.5t-105-157-156.5-99.5-203-35q-133 0-233.5 41.5t-168 115.5-101.5 176q-34 100-34 221z" horiz-adv-x="1139" unicode="&#x63;"/><glyph d="M52 548q0 74 13 143.5t40 131.5 67 115.5 93 90.5 119 59 146 22q40 0 84.5-7.5t88-25 82.5-45.5q41-29 70-69v517h296v-1480h-281v136q-57-87-142.5-126.5t-191.5-39.5q-82 0-149 22.5t-121 61-94 93-67 118.5-40 136.5-13 146.5zM349 539q0-62 15-123.5t47-111 81.5-80 117.5-30.5q74 0 122.5 29t78.5 77.5 41.5 111.5 11.5 130q0 65-13 127t-43 110-78.5 77-119.5 29q-73 0-123-29t-80.5-77-44-110-13.5-130z" horiz-adv-x="1258" unicode="&#x64;"/><glyph d="M44 521q0 121 37 227.5t108 185 176 124.5q106 46 242 46 95 0 171.5-26t136-71 102.5-107 69-134q25-72 35-154 7-54 7-110 0-28-2-55h-777q3-44 19.5-90t46.5-83 74-61 102-24q91 0 151 35.5t81 114.5h284q-25-98-70-167.5t-111-114.5-149.5-67.5-185.5-22.5q-119 0-219.5 41.5t-173 115.5-113.5 175-41 222zM349 635h495q-6 52-24 96.5t-48.5 77-74 51.5-99.5 19q-47 0-84-12t-64-32.5-46-45.5-31-52.5-18-53.5-6-48z" horiz-adv-x="1185" unicode="&#x65;"/><glyph d="M24 864v212h136v121q0 73 23.5 129t68 94 109 58 148.5 20q27 0 67-7t87-27v-221q-19 6-40.5 10.5t-41 6-35.5 1.5h-25q-30 0-47-18t-17-55v-112h171v-212h-171v-864h-297v864h-136z" horiz-adv-x="648" unicode="&#x66;"/><glyph d="M52 548q0 74 14 143.5t40.5 131.5 66 114 92 89.5 116 59 140.5 21.5q52 0 97-7.5t84-25 74-46 68-70.5v118h284v-1058q0-46-7.5-101t-28-110.5-59-107-101.5-91-153.5-64-214.5-24.5q-53 0-107 9t-106 28.5-98 47.5-81.5 68-57.5 91.5-25 117.5h293q10-43 31.5-73t51-48.5 65-25.5 77.5-7q62 0 106.5 20.5t74 57.5 43 89 13.5 114v124q-34-50-72-79.5t-78-46-84.5-21-91.5-4.5q-124 0-212 44.5t-145 121.5-83 180.5-26 219.5zM349 555q0-62 12-123.5t40-110.5 74.5-78.5 116.5-29.5q64 0 110.5 26.5t77.5 69.5 47.5 99.5 16.5 115.5q0 68-13.5 131.5t-42.5 112.5-77 77-119 28q-64 0-110.5-26.5t-76-70-43-101.5-13.5-120z" horiz-adv-x="1232" unicode="&#x67;"/><glyph d="M107 0v1480h281v-533q38 45 77.5 76t81.5 49.5 85 26.5 90 8q119 0 194.5-32.5t119.5-91 62-140.5 18-183v-660h-298v607q0 133-42.5 199.5t-145.5 66.5q-59 0-102-17.5t-71-54.5-41-96.5-13-140.5v-564h-296z" horiz-adv-x="1218" unicode="&#x68;"/><glyph d="M121 0v1076h296v-1076h-296zM121 1206v274h296v-274h-296z" horiz-adv-x="538" unicode="&#x69;"/><glyph d="M-41-182q29-3 48.5-5t34-3 25-1h22.5q18 0 25 15.5t7 57.5v1194h298v-1218q0-80-21.5-138.5t-63-96-99-54.5-128.5-17q-30 0-70 3.5t-78 7.5v255zM121 1206v274h298v-274h-298z" horiz-adv-x="538" unicode="&#x6a;"/><glyph d="M107 0v1480h293v-740l349 336h385l-427-394 453-682h-330l-330 488-100-97v-391h-293z" horiz-adv-x="1087" unicode="&#x6b;"/><glyph d="M121 0v1480h293v-1480h-293z" horiz-adv-x="535" unicode="&#x6c;"/><glyph d="M107 0v1076h278v-141q56 88 142 128.5t192 40.5q51 0 97.5-12t85.5-37 70-63.5 49-91.5q18 41 51.5 78t77.5 65.5 96.5 44.5 109.5 16q86 0 158.5-20.5t124-67.5 81-120 29.5-177v-719h-293v616q0 53-7 99t-26.5 80.5-55 54.5-94.5 20q-53 0-90-26.5t-61-69.5-34.5-94.5-10.5-102.5v-577h-297v610q0 26-1 56t-6.5 59.5-16 56-30 46-47.5 31-69 11.5q-33 0-69-16t-67-50-52-89-21-135v-580h-294z" horiz-adv-x="1854" unicode="&#x6d;"/><glyph d="M107 0v1076h281v-148q41 59 89 94t95 54 91 25 81 6q104 0 174.5-32.5t114.5-88 63.5-132 19.5-164.5v-690h-296v607q0 266-172 266-52 0-96-19t-77.5-60.5-52-108-18.5-161.5v-524h-297z" horiz-adv-x="1221" unicode="&#x6e;"/><glyph d="M47 536q0 129 41.5 234.5t116.5 181 177.5 117 227 41.5 228-41.5 179-117 117-180.5 41.5-235q0-129-41.5-235t-117-181.5-179-116.5-228-41-227 41-177.5 116.5-116.5 181.5-41.5 235zM343 536q0-65 13.5-126.5t44.5-109.5 82-78q53-30 127-30 77 0 128.5 30t82.5 78 46 110q14 61 14 126t-15 127-47.5 110-84.5 78q-50 30-124 30-73 0-124-30t-82-78-46-110-15-127z" horiz-adv-x="1218" unicode="&#x6f;"/><glyph d="M107-403v1479h281v-136q62 89 145 128t189 39q82 0 149-22t121-62 94-93.5 67-118.5 40-137q13-73 13-147t-13-143-40-132-67-114.5-93-90-120-59.5q-65-21-145-21-40 0-83 7t-85 24-82 44q-40 26-75 68v-513h-296zM394 533q0-65 12.5-127.5t42-109.5 78.5-76q47-29 121-29 73 0 123 29t80.5 77 43.5 110q14 61 14 129 0 62-15 124t-47 111-81.5 80-117.5 31q-74 0-122.5-29.5t-78.5-77.5-41.5-111-11.5-131z" horiz-adv-x="1258" unicode="&#x70;"/><glyph d="M52 527q0 74 13 146.5t40 137.5 67 118.5 94 93.5 122 62 148 22q52 0 98.5-9t88.5-28 78.5-51.5 68.5-78.5v136h281v-1479h-296v515q-34-41-74.5-68.5t-82.5-44.5-84.5-24.5-83.5-7.5q-80 0-146 21t-119 59.5-93 90-67 114.5-40 133q-13 68-13 142zM349 536q0-68 13.5-129.5t44-109.5 80-77 123.5-29q72 0 120 29t78 76 43 109.5 13 127.5q0 68-11.5 131t-41.5 111-78.5 77.5-122.5 29.5q-68 0-117.5-31t-81.5-80-47-111-15-124z" horiz-adv-x="1258" unicode="&#x71;"/><glyph d="M107 0v1076h284v-147q29 39 67.5 71t85.5 54 101 33 116 11v-288q-19 1-36 1-79 0-135-18-70-22-111-65.5t-60-107.5-19-140v-480h-293z" horiz-adv-x="775" unicode="&#x72;"/><glyph d="M62 361h278q5-44 22.5-78t45-58 64.5-36.5 82-12.5q32 0 64.5 6t60.5 20 46 39 18 65q0 33-18.5 55t-56.5 39-96 32-137 33q-64 13-125 33t-108.5 54-77 83-29.5 120q0 68 18.5 119.5t50 90 74.5 64 94 41 106.5 22 113.5 6.5q87 0 165.5-17.5t139.5-59 99.5-108 46.5-164.5h-276q-6 71-54 108t-127 37q-25 0-52.5-4.5t-50.5-16.5-37.5-31-14.5-46q0-40 26.5-63t71-36 103.5-23.5 121-25.5q65-15 123.5-36t104-56 71-85.5 25.5-124.5q0-71-19-125.5t-52.5-96-80-71-100.5-47.5-114.5-25.5-121.5-7.5q-92 0-177.5 23t-153 71-108.5 122q-42 71-48 172z" horiz-adv-x="1092" unicode="&#x73;"/><glyph d="M33 864v212h136v280h296v-280h168v-212h-168v-537q0-41 7.5-56.5t24.5-15.5h24t26.5 1.5 35.5 2.5 50 4v-254q-38-5-78.5-8.5t-70.5-3.5q-71 0-129.5 18t-98.5 55-62 94.5-22 137.5l-3 562h-136z" horiz-adv-x="679" unicode="&#x74;"/><glyph d="M115 414v662h296v-644q0-53 11.5-96t33-72.5 54-45 73.5-15.5q65 0 111.5 21.5t75.5 60 43 88.5 14 107v596h298v-1076h-281v139q-39-47-83.5-79.5t-88.5-52.5-88.5-28.5-84.5-8.5q-110 0-183 32t-117.5 90.5-63.5 140.5q-20 81-20 181z" horiz-adv-x="1238" unicode="&#x75;"/><glyph d="M12 1076h315l228-715h3l226 715h301l-385-1076h-300z" horiz-adv-x="1096" unicode="&#x76;"/><glyph d="M12 1076h312l197-706h6l179 706h289l180-703h3l201 703h302l-353-1076h-274l-207 722h-3l-199-722h-275z" horiz-adv-x="1697" unicode="&#x77;"/><glyph d="M-12 0l373 567-349 509h331l190-292 189 292h320l-348-503 382-573h-321l-228 349-224-349h-315z" horiz-adv-x="1067" unicode="&#x78;"/><glyph d="M12 1076h312l249-770h3l242 770h304l-456-1252q-24-65-55.5-112.5t-77-78-104.5-43.5-139-13q-46 0-91 3t-92 9v235q44-5 88-9 34-3 68-3h18q40 4 67.5 29.5t41 59.5 13.5 72.5-12 70.5z" horiz-adv-x="1133" unicode="&#x79;"/><glyph d="M78 0v222l550 633h-524v221h888v-218l-555-636h569v-222h-928z" horiz-adv-x="1081" unicode="&#x7a;"/><glyph d="M92 417v271q35 0 65.5 14t53.5 38 36 56q13 33 13 68v376q0 80 27 143t70 106 94.5 65 99.5 22h183v-245h-139q-10 0-17.5-10t-11.5-25.5-6-35.5-2-40v-387q0-44-10.5-85t-26.5-75.5-36-63.5-40-51q24-18 44-42.5t35.5-58.5 24.5-79.5 9-105.5v-384q0-20 2-38.5t6-34 10.5-25 18.5-9.5h139v-246h-183q-49 0-100 21.5t-94 64-70 104.5-27 145v373q0 41-13 73.5t-36 55-53.5 34-65.5 11.5z" horiz-adv-x="775" unicode="&#x7b;"/><glyph d="M121-437v2065h273v-2065h-273z" horiz-adv-x="515" unicode="&#x7c;"/><glyph d="M41-219h141q10 0 17.5 9.5t11.5 25 6 34 2 38.5v384q0 60 9 105.5t23.5 79.5 35.5 58 43 43q-19 21-39 50.5t-35.5 64-26 75.5-10.5 85v387q0 20-2 40t-6 35.5-11.5 25.5-17.5 10h-141v245h184q49 0 100-22t94-65 69.5-106 26.5-143v-376q0-35 13.5-67.5t37-56.5 54-38 65.5-14v-271q-35 0-65.5-11.5t-54-34-37-55-13.5-73.5v-373q0-83-26.5-145t-69.5-104.5-95-64-99-21.5h-184v246z" horiz-adv-x="778" unicode="&#x7d;"/><glyph d="M92 388q-2 56 10 105.5t34 89.5 52.5 70.5 64.5 52 71 32.5 73 11q47 0 85.5-10.5t69.5-26.5 56-34.5 47.5-34 40-26 35.5-10.5q45 0 72 33 27 35 26 109h257q2-56-10.5-106t-35-89.5-52.5-70-65-52-71-32.5q-35-11-71-11-50 0-88.5 11t-69.5 28-56 35.5-46 35.5-40 27.5-38 10.5q-42 0-69.5-37t-25.5-111h-256z" horiz-adv-x="1175" unicode="&#x7e;"/><glyph d="M86 570q0 114 30.5 213t88.5 177.5 142 132.5q82 53 189 76v201h189v-201q80-10 147.5-39t120-81.5 87.5-129.5q36-75 51-182h-252q-21 83-58 135t-96 68v-709q33 12 59.5 35.5t47 54.5 34 71 22.5 85h246q-12-86-42.5-167.5t-80.5-148-122-111-164-56.5v-216h-189v219q-110 12-193.5 59.5t-140.5 123.5-86.5 176-29.5 214zM346 570q0-56 11.5-111t35-101.5 59.5-80.5 84-49v709q-51-18-87-54t-59-85-33.5-107.5-10.5-120.5z" horiz-adv-x="1209" unicode="&#xa2;"/><glyph d="M58 610v201h90q-25 49-31.5 107.5t-6.5 126.5 19 126.5 53 106.5 81.5 86 105 63.5 121.5 39 132 13.5q124 0 221.5-32.5t165.5-102 103.5-176 35.5-254.5h-287q-13 325-235 327-47 0-88-17t-70.5-45.5-47-65.5-17.5-78q0-65 16-120t46-105h328v-201h-247q5-18 9-38.5t4-40.5q0-37-5.5-72.5t-16-69.5-25.5-63.5-32-54.5h41q47 0 93-8t90.5-18.5 88-18 86.5-7.5q21 0 58 3t78.5 11 84.5 23.5 78 40.5v-250q-47-23-89.5-37t-83-21.5-80.5-10-81-2.5q-51 0-110 10.5t-118.5 24-117 23.5-110.5 10q-39 0-82.5-6.5t-88-17.5-85-26-70.5-30v249q48 6 87.5 29t68 57 44.5 79 15 96q0 32-8 66-9 34-23 70h-188z" horiz-adv-x="1238" unicode="&#xa3;"/><glyph d="M3 1450h385l325-586 316 586h373l-387-624h210v-201h-343l-15-36v-74h358v-207h-358v-308h-324v308h-351v207h351v74l-16 36h-335v201h202z" horiz-adv-x="1404" unicode="&#xa5;"/><glyph d="M49 731q0 107 28 206t79 183.5 121.5 154 156 119 184 77 203.5 27.5 203-27.5 184-77 157-119 121-154 77.5-183.5 27.5-206q0-109-27.5-210t-77.5-186-121-154-157-117.5-184-74-203-25.5-203.5 25.5-184 74-156 117.5-121.5 154-79 185-28 211zM243 731q0-130 43-241t119.5-191 183.5-126 232-46q80 0 155 21t139.5 59.5 117 92.5 89.5 121 57 145q21 79 21 165t-20.5 163.5-57.5 143.5-89.5 120-117 92-138.5 58-156 20q-84 0-159.5-20t-140-58-115.5-92-88-120-56-143.5-19-163.5zM406 731q0 96 30 177t85.5 138.5 134 90 174.5 32.5q73 0 136-20.5t112.5-62 83.5-105 50-148.5h-185q-6 36-23 67.5t-41.5 55.5-57.5 37-72 13q-56 0-99.5-20.5t-73.5-57-44.5-86-14.5-108.5q0-55 15.5-106t46-89.5 74.5-61.5 99-23q39 0 70.5 13.5t55.5 37 40 57 22 74.5h188q-18-85-52.5-151t-83.5-110.5-109.5-67.5-130.5-23q-97 0-176.5 34t-135.5 95-87 142-31 176z" horiz-adv-x="1639" unicode="&#xa9;"/><glyph d="M98 468v220l402 318v-275l-194-155 194-148v-283zM589 468v220l403 318v-275l-196-155 196-148v-283z" horiz-adv-x="1121" unicode="&#xab;"/><glyph d="M78 474v226h874v-226h-874z" horiz-adv-x="1030" unicode="&#xad;"/><glyph d="M49 731q0 107 28 206t79 183.5 121.5 154 156 119 184 77 203.5 27.5 203-27.5 184-77 157-119 121-154 77.5-183.5 27.5-206q0-109-27.5-210t-77.5-186-121-154-157-117.5-184-74-203-25.5-203.5 25.5-184 74-156 117.5-121.5 154-79 185-28 211zM243 731q0-130 43-241t119.5-191 183.5-126 232-46q80 0 155 21t139.5 59.5 117 92.5 89.5 121 57 145q21 79 21 165t-20.5 163.5-57.5 143.5-89.5 120-117 92-138.5 58-156 20q-84 0-159.5-20t-140-58-115.5-92-88-120-56-143.5-19-163.5zM506 323v823h392q65 0 115-18t82.5-50.5 49.5-77 17-97.5q0-42-12.5-76.5t-33.5-61-50-44-63-25.5q24-11 42-25t31-31.5 22-40 18-47.5l41-121q9-24 17.5-41t16.5-29l14-21q6-8 12-17h-200q-6 11-11.5 22.5t-10.5 24-10 27-14 34.5l-47 125q-15 39-45.5 62.5t-67.5 23.5h-121v-319h-184zM690 777h157-12q65 0 100.5 32t32.5 82q0 21-6 41.5t-18 35.5-32.5 25-47.5 10h-174v-226z" horiz-adv-x="1639" unicode="&#xae;"/><glyph d="M130 145v283l194 148-194 155v275l403-318v-220zM622 145v283l193 148-193 155v275l402-318v-220z" horiz-adv-x="1121" unicode="&#xbb;"/><glyph d="M112 1110v175q51 3 95.5 10t78.5 25 57 48.5 33 80.5h163v-907h-199v606q-25-10-50-16.5t-52.5-11-58.5-7.5-67-3zM417 0l841 1449h216l-841-1449h-216zM1048 182v164l426 560h157v-548h115v-176h-115v-182h-201v182h-382zM1264 358h166v218z" horiz-adv-x="1818" unicode="&#xbc;"/><glyph d="M112 1110v175q51 3 95.5 10t78.5 25 57 48.5 33 80.5h163v-907h-199v606q-25-10-50-16.5t-52.5-11-58.5-7.5-67-3zM358 0l839 1449h215l-839-1449h-215zM1076 0q6 95 30.5 160t61.5 111 83 78q48 33 99 62 47 27 84 50.5t61.5 47.5 37 50.5 12.5 59.5q0 23-9 43t-25 34-39 21q-25 8-51 5-33-3-55-19t-37-41.5-22.5-59.5-7.5-72h-201q0 80 24 149.5t66.5 118.5 104.5 77q60 28 137 28 65 0 125.5-19.5t105-56.5 71-89.5 26.5-118.5q0-68-26-118.5t-66.5-89-92.5-70.5q-52-33-102-63-35-20-70.5-44t-72.5-55h418v-179h-670z" horiz-adv-x="1818" unicode="&#xbd;"/><glyph d="M92 836h208q0-35 10-59.5t27.5-39.5 43.5-21.5 62-6.5q26 0 52 7.5t46 20.5 32.5 32.5 12.5 43.5q0 29-12.5 52.5t-32.5 39.5-45 24-53 8h-52v145h40q20 0 41.5 6.5t39.5 20 28.5 32.5 10.5 40q0 24-9 40t-24.5 26.5-35.5 15-42 4.5q-66 0-95.5-34t-29.5-96h-205q5 71 29.5 128.5t67 99 101 63 132.5 21.5q68 0 125.5-17t99.5-51 66-84q24-51 24-116 0-43-22.5-83.5t-57.5-73.5q58-32 88-87t30-119q0-72-28.5-127t-77.5-91-112.5-54.5-132-18.5-131 17-111.5 54-78.5 95.5-29.5 142.5zM494 0l841 1449h215l-840-1449h-216zM1048 182v164l426 560h157v-548h115v-176h-115v-182h-201v182h-382zM1264 358h166v218z" horiz-adv-x="1818" unicode="&#xbe;"/><glyph d="M78 210l356 376-356 379 174 160 343-367 345 367 173-160-355-379 355-376-173-161-345 365-343-365z" horiz-adv-x="1194" unicode="&#xd7;"/><glyph d="M78 471v232h1076v-232h-1076zM445 163q0 35 14.5 67.5t37 56.5 53 38.5 66 14.5 66.5-14.5 55-38.5 37-56.5 13-67.5q0-33-13-61.5t-37-51.5-54-36.5-64-13.5-66 12.5-55.5 35-38 52-14.5 63.5zM445 1012q0 36 14.5 67t37 54.5 53 37.5 66 14 66.5-14 55-37.5 37-54.5 13-67q0-34-13-64t-37-54-54-37-64-13-66 13-55.5 37-38 54-14.5 64z" horiz-adv-x="1232" unicode="&#xf7;"/><glyph d="M27 836q11 53 35 106t59.5 100 84.5 88.5 111 72.5 140.5 49 172.5 18q113 0 200.5-21t152.5-56.5 110-85.5 72.5-108 41-123 13.5-133v-743h-314v764q0 43-13.5 85t-46 76-85 55.5-131.5 22.5q-59 0-105.5-11t-80-29.5-53.5-40.5-27-43q39-35 57-89 19-56 19-124v-666h-307v669q0 21-4.5 43t-16 43.5-32.5 42-53 38.5z" horiz-adv-x="1333" unicode="&#xe01;"/><glyph d="M30 995v248h418l168-769 168 769h323l-294-1243h-396l-235 995h-152z" horiz-adv-x="1136" unicode="&#xe02;"/><glyph d="M21 1243h269q0-25 4.5-48.5t12-42 20.5-29 31-10.5 31.5 9.5 22 27.5 12.5 41q4 26 4 52h272q0-80-3-142t-9.5-112.5-18.5-90.5-29.5-74-43-65.5-57.5-64.5q-25-25-39.5-56t-22.5-64.5-10-68-2-65.5q0-48 11.5-84t33-60 52-37 66.5-13q34 0 62.5 9.5t49.5 31 32.5 55.5 11.5 81v820h311v-840q0-113-38.5-194.5t-102-134.5-148.5-78.5-178-25.5q-95 0-181 27.5t-152 81.5-105 135.5-39 188.5q0 74 3 134.5t17.5 111.5 46.5 95.5 91 88.5l28 22q12 11 27 22t30 23q-6-3-15.5-4.5t-19.5-3-18.5-3-13.5-1.5q-24 0-55.5 4.5t-65.5 18-66.5 37.5-59.5 63.5-43 95.5-16 136z" horiz-adv-x="1206" unicode="&#xe03;"/><glyph d="M115 0v734q0 68 12 134t38.5 126 70.5 110 108 87 150 58 197 21q110 0 195.5-21t148.5-58 106.5-87 69.5-110 38-126 12-134v-734h-309v758q0 43-14 86.5t-45.5 79-81.5 57.5-120 22q-71 0-122-22t-83.5-57.5-49-79-16.5-86.5v-116q34 34 72.5 60t82.5 44 95.5 26.5 110.5 8.5v-266q-97-3-165-28t-111-71-64-108-21-142v-166h-305z" horiz-adv-x="1376" unicode="&#xe04;"/><glyph d="M115 0v752q0 83 17 164.5t61 150 117 120.5 187 77l197-130 191 127q117-24 192.5-75t119-119.5 60-149.5 16.5-165v-752h-308v802q0 21-3 46t-7.5 49-13.5 45q-9 23-23 38l-160-104q-62-44-130 0l-163 101q-11-18-19-40t-12.5-46-7.5-46-3-43v-192q34 34 72.5 60t82.5 43 95.5 25.5 110.5 10.5v-267q-97-2-165-28t-111-71.5-64-108-21-141.5v-133h-308z" horiz-adv-x="1388" unicode="&#xe05;"/><glyph d="M44 1243h277q0-25 4-48.5t11-42 20.5-29 31.5-10.5 31 9.5 22 27.5 13 41q3 26 3 52h286v-245q0-55-15.5-101t-41.5-85-59.5-73.5-68.5-63.5q-27-21-44-38.5t-27-37-14.5-44.5-4.5-64q0-47 19-91.5t54.5-78.5 86.5-54.5 115-20.5q38 0 70 12.5t55 35.5 35 55.5 12 70.5v823h313v-798q0-103-22-190.5t-74-150.5-140-97-219-34q-51 0-97 12t-86.5 34-74.5 49.5-61 58.5v-127h-300v451q0 49 .5 87t5 69 14.5 57 27 50.5 44 48.5 67 52q42 30 68 50t40 41q-17-5-33.5-7t-34.5-2q-23 0-56 4.5t-67 17.5-66.5 37.5-59 63-42.5 93.5q-17 56-17 130z" horiz-adv-x="1342" unicode="&#xe06;"/><glyph d="M12 773h322l181-510q7-17 17-24.5t23-7.5 22 9 9 20v732h-169v251h477v-947q0-86-26.5-148t-72.5-101.5-109-57.5q-64-19-135-19-73 0-127 16.5t-93 49-67 77.5q-27 47-48 103z" horiz-adv-x="1009" unicode="&#xe07;"/><glyph d="M52 807q18 102 64.5 187t119 146.5 170 95.5 216.5 34q59 0 118-9t114.5-30.5 104.5-56 85-84.5 57-117 21-155q0-41-12-97t-33.5-123.5-49.5-141.5-60-152-66-155.5-65-148.5h-351l-164 457h-152v256h382l118-358q12 34 28 75t31 83 28.5 84 23.5 79 16 68.5 6 48.5q0 98-50 154t-154 56q-86 0-138-50t-72-146h-336z" horiz-adv-x="1223" unicode="&#xe08;"/><glyph d="M83 844q12 87 49.5 164.5t107 135.5 171 92 240.5 34q114 0 200.5-21t149.5-56.5 105-85.5 67.5-109.5 36-124.5 10.5-133v-740h-302v127q-33-34-75-62.5t-90.5-48.5-99.5-32q-52-11-102-11-128 0-212 34t-134.5 97-71.5 149.5-21 191.5v249h308v-271q0-40 13.5-71.5t38.5-54.5 60.5-35.5 80.5-12.5q75 0 130 23t91 63.5 54 95.5q18 54 18 120v213q0 41-12 84t-41.5 77-78.5 54.5-123 20.5q-65 0-111-13t-75.5-34-47.5-49q-17-28-23-60h-311z" horiz-adv-x="1333" unicode="&#xe09;"/><glyph d="M49 949v251q41 15 82 27t75 19.5 62 11 44 3.5q77 0 138-18t102-55 60.5-91.5 12.5-131.5v-9t-3-7q47 9 79.5 29.5t53.5 55.5 29.5 86.5 8.5 122.5h314q0-71-6-131.5t-23.5-109.5-48.5-88q-31-38-83-70 44-27 70-68.5t41-85 18.5-86 3.5-74.5v-127q0-74-18.5-135t-51-109.5-77-84.5-98-58.5-112.5-34-118-11.5q-62 0-123.5 12t-116.5 36.5-100.5 60.5-79 85-53 108.5-19.5 130.5v97q0 48 3 85t10.5 65 18 51 25.5 44.5 34 43.5 43 52q32 38 53 66t22 58q3 21-9.5 32.5t-33.5 11.5q-18 0-37-3t-45-10-62-19-85-28zM420 420q0-47 15-83.5t40-62 57.5-39 71.5-13.5q34 0 64.5 10.5t52.5 32.5 35.5 57.5 13.5 83.5v124q0 53-17 97.5t-47.5 75.5-73.5 49-96 21q-15-23-31-46-17-25-37-55-18-24-27-41.5t-13.5-35.5-4.5-37q-3-19-3-43v-95z" horiz-adv-x="1194" unicode="&#xe0a;"/><glyph d="M21 1243h269q0-25 4.5-48.5t12-42 20.5-29 31-10.5 31.5 9.5 22 27.5 12.5 41q4 26 4 52h272q0-92-6.5-161.5t-18.5-123.5q43 8 74 28t50 54 28 84.5 9 118.5h307q0-71-6-128.5t-22.5-105.5-48.5-88q-30-39-83-71 47-27 73.5-68.5t41.5-87.5 19.5-90.5 4.5-76.5v-124q0-74-18.5-135.5t-52-109.5-79.5-84-99-59.5-112-34-122-10.5q-93 0-181 27.5t-156 81.5-109.5 135.5-41.5 188.5q0 74 3 134.5t17.5 111.5 46.5 95.5 91 88.5q17 11 28 21 12 9 25.5 20t28.5 23q-6-3-15-4.5t-19.5-3-17.5-1.5h-12q-24 0-55.5 4.5t-65.5 18-66.5 37.5-59.5 63.5-43 95.5-16 136zM465 440q0-48 13-84t37.5-60 56.5-37 67-13q36 0 67 9.5t54 31 36.5 55.5 13.5 81v104q0 50-15 94.5t-41.5 79.5-64.5 56-82 24q-14-23-31-44-20-21-37-43-24-27-37.5-57t-22-64-11.5-68-3-65z" horiz-adv-x="1223" unicode="&#xe0b;"/><glyph d="M38 830q12 54 36 106.5t59.5 101 82.5 90 107 72.5 135 49 164 18q106 0 189-21t145-56.5 105-85.5 69.5-109.5 38.5-124.5 12-133v-186q0-66 16.5-120.5t46-95 72.5-63.5 99-23q29 0 53.5 8.5t41.5 29.5 26 55 9 81v820h314v-798q0-112-18-200t-62-148.5-119-92.5q-73-31-189-31-46 0-91 13.5t-84 35.5-72 50q-34 27-55 55v-127h-299v761q0 41-12.5 83.5t-41.5 75.5-76 54.5-118 23.5q-55 0-97.5-10t-72-27-48.5-39-28-46q78-74 78-213v-423h128v-240h-437v666q0 21-4.5 43t-16.5 43-32.5 41.5-53.5 36.5z" horiz-adv-x="1972" unicode="&#xe0c;"/><glyph d="M38 833q12 54 36 106.5t59.5 101 82.5 90 107 72.5 135 49 164 18q106 0 189-21t145-56.5 105-85.5 69.5-109.5 38.5-124.5 12-133v-192q0-98 35-151.5t97-53.5q56 0 99 27.5t73.5 74 44.5 106.5q15 59 15 124v568h314v-1015q0-126-31-237.5t-97.5-194.5-169-130.5-245.5-47.5q-92 0-175 26t-149 78.5-110 133.5q-44 79-55 188h298q6-41 25-73.5t45.5-54 58-32.5 59.5-11q68 0 114 22t73 58.5 39 80 12 87.5v76q-53-46-119.5-72.5t-146.5-26.5q-119 0-198 31t-127 91-69 148-21 202v191q0 43-12.5 85t-41.5 76-76 55.5-118 22.5q-51 0-91.5-10t-72.5-27-52.5-38.5-32.5-42.5q38-37 60-93 21-58 21-126v-423h128v-240h-437v666q0 21-4.5 43t-16.5 43.5-32.5 42-53.5 38.5z" horiz-adv-x="1972" unicode="&#xe0d;"/><glyph d="M67 0v240h118v429q0 21-5 43t-17 43.5-32.5 42-52.5 38.5q14 53 37.5 106t59 100 83.5 88.5 111 72.5 141 49 172 18q113 0 199.5-21t151.5-56.5 111-85.5 74-108 40-123 12-133v-1177h-284q-15 26-38.5 51t-55 44-75.5 32.5-101 13.5q-50 0-98-11t-94-33.5-91-57-93-85.5v277q33 33 74.5 59.5t89.5 46.5 101 31q55 11 111 11 80 0 139.5-17t102.5-38v874q0 43-14.5 85t-46 76-84 55.5-131.5 22.5q-59 0-105.5-11t-80-29.5-53.5-40.5-29-43q20-18 34.5-37t24-43.5 14-56.5 4.5-76v-666h-424z" horiz-adv-x="1385" unicode="&#xe0e;"/><glyph d="M67 0v240h118v429q0 21-5 43t-17 43.5-32.5 42-52.5 38.5q14 53 37.5 106t59 100 83.5 88.5 111 72.5 141 49 172 18q113 0 199.5-21t151.5-56.5 111-85.5 74-108 40-123 12-133v-1186h-302q-3 24-12 48.5t-21.5 45-29.5 33.5-37.5 13-36.5-13-25.5-33.5-15.5-45-6-48.5h-233q0 24-6 48.5t-18.5 45-29.5 35-40 14.5-41-14.5-29-35-17-45.5-6-48h-275q0 98 26.5 168.5t72.5 116.5 106.5 67 128.5 21q36 0 67.5-8t59-21 51.5-32.5 41-40.5q17 21 38.5 38t45.5 30.5 51.5 21 55.5 7.5q42 0 73-14.5t52-31.5v885q0 43-14.5 85t-46 76-84 55.5-131.5 22.5q-59 0-105.5-11t-80-29.5-53.5-40.5-29-43q20-18 34.5-37t24-43.5 14-56.5 4.5-76v-666h-424z" horiz-adv-x="1385" unicode="&#xe0f;"/><glyph d="M52 807q18 102 64.5 187t119 146.5 170 95.5 216.5 34q47 0 96-7 49-5 97-20 15 6 28.5 18t23 28 15 35.5 6.5 37.5h324q-1-40-10-84t-28.5-84-47.5-73-68-54q30-47 47-108.5t17-140.5q0-41-12-97t-33.5-123.5-49.5-141.5-60-152-66-155.5-65-148.5h-351l-164 457h-152v256h382l118-358q12 34 28 75t31 83 28.5 84 23.5 79 16 68.5 6 48.5q0 98-50 154t-154 56q-86 0-138-50t-72-146h-336zM110-480q0 73 11.5 126.5t33 90.5 49 59.5 57 34.5 58.5 16.5 54 4.5q46-3 86-22 38-19 62-52 9 13 22 27t29.5 24 34.5 16.5 35.5 6.5 34-6.5 31-16.5 26.5-21.5 21-23.5v115h266v-379h-245q0 30-4.5 55t-15 43-25.5 27-34 9-34.5-10.5-26-28.5-15.5-42q-5-26-5-53h-151q0 30-6 55t-15 43-23.5 27-32.5 9q-19 0-33.5-10.5t-24.5-28.5-15.5-41.5-5.5-53.5h-199z" horiz-adv-x="1218" unicode="&#xe10;"/><glyph d="M44 1243h277q0-25 4-48.5t11-42 20.5-29 31.5-10.5 31 9.5 22 27.5 13 41q3 26 3 52h259v-109q42 31 82 57t76 43.5 69.5 28 62.5 10.5q70 0 113.5-21t67.5-59.5 33-92.5q8-52 8-120v-980h-313v903 27t-1.5 25-6 18-13.5 7q-12 0-37-15t-57.5-41.5-72.5-63.5-82-82q-50-53-84-93t-56.5-77.5-31-78.5-8.5-92v-437h-311v414q0 48 1.5 83.5t6.5 65 14.5 53 24.5 49 38 53.5q21 28 54 63 39 45 68.5 74.5t46.5 50.5q-14-8-30.5-11.5t-25.5-3.5q-23 0-56 5t-67 19-66.5 38-59 64-43 94.5-16.5 131.5z" horiz-adv-x="1342" unicode="&#xe11;"/><glyph d="M115 0v755q0 86 21 167t70 151 127 121.5 191 75.5l192-127 193 124q109-25 186-76t124.5-119.5 68-149.5 20.5-167v-204q0-66 16.5-121.5t46-96 73.5-62.5q42-22 98-22 30 0 55 8.5t41.5 29.5 25 55 8.5 81v820h314v-798q0-112-17.5-200t-63.5-148.5-123-92-197-31.5q-41 0-83.5 12t-79.5 34-69.5 49.5-56.5 58.5v-127h-296v778q0 51-20.5 98.5t-67.5 84.5l-131-79q-29-16-62-18-35-3-71 18l-133 83q-47-37-69.5-86.5t-22.5-100.5v-384l166 167h-86v191h409v-185l-536-567h-261z" horiz-adv-x="2100" unicode="&#xe12;"/><glyph d="M38 833q12 54 36 106.5t59.5 101 82.5 90 107 72.5 135 49 164 18q106 0 189-21t145-56.5 105-85.5 69.5-109.5 38.5-124.5 12-133v-317q0-49 9-82t26.5-54 41.5-29.5 55-8.5q56 0 99 23t73.5 63.5 44.5 95.5q15 54 15 120v692h314v-1243h-302v127q-24-32-55-60.5t-66.5-49-76-32.5-83.5-12q-119 0-197.5 31.5t-124 92-65 148.5-19.5 200v319q0 41-12.5 83t-41.5 75.5-76 55-118 22.5q-51 0-91.5-10t-72.5-27-52.5-38.5-32.5-42.5q38-37 60-92 21-56 21-124v-426h128v-240h-437v669q0 21-4.5 43t-16.5 43-32.5 41.5-53.5 36.5z" horiz-adv-x="1972" unicode="&#xe13;"/><glyph d="M115 0v737q0 68 13.5 134t42.5 125 75.5 109.5 113 86.5 154.5 57q90 21 202 21 111 0 197.5-21t153.5-57 112.5-86.5 74.5-109.5 41.5-125 12.5-134v-737h-308v761q0 43-15.5 86.5t-49.5 77.5-88 56-131 22q-78 0-133.5-22t-91-56-52-77.5-16.5-86.5v-370l175 170h-89v191h409v-185l-542-567h-261z" horiz-adv-x="1423" unicode="&#xe14;"/><glyph d="M115 0v755q0 86 21 167t70 151 127 121.5 191 75.5l192-127 193 124q109-25 186-76t124.5-119.5 68-149.5 20.5-167v-755h-308v778q0 51-20.5 98.5t-67.5 84.5l-131-79q-29-16-62-18-35-3-71 18l-133 83q-47-37-69.5-86.5t-22.5-100.5v-387l175 170h-89v191h409v-185l-542-567h-261z" horiz-adv-x="1423" unicode="&#xe15;"/><glyph d="M27 836q11 53 35 106t59.5 100 84.5 88.5 111 72.5 140.5 49 172.5 18q113 0 200.5-21t152.5-56.5 110-85.5 72.5-108 41-123 13.5-133v-743h-314v764q0 43-13.5 85t-46 76-85 55.5-131.5 22.5q-59 0-105.5-11t-80-29.5-53.5-40.5-27-43q39-35 57-89 19-56 19-124v-426h127v-240h-434v669q0 21-4.5 43t-16 43.5-32.5 42-53 38.5z" horiz-adv-x="1333" unicode="&#xe16;"/><glyph d="M115 0v1243h296v-130q36 38 72 66.5t77 49 88.5 31 103.5 10.5q136 0 225-35t143.5-98 76.5-149q23-88 23-192v-796h-308v818q0 40-13.5 73t-37 55-59 35.5-80.5 13.5q-74 0-130-23t-93-64-56.5-95.5-19.5-121.5v-691h-308z" horiz-adv-x="1333" unicode="&#xe17;"/><glyph d="M112 376v246h308v-246q0-39 19.5-64.5t50.5-42.5 68-24.5 75-7.5q34 0 72 6t70.5 22 53.5 42.5 21 68.5q0 25-3 45t-13.5 38.5-30 34-51 32-79.5 32.5-115 37q-93 24-174.5 53.5t-141.5 69.5-95 96-35 132q2 59 22 106.5t55.5 83.5 82 60.5 100.5 40 113 22.5q57 8 116 8 111 0 207-23t167-75 113-135q40-84 43-202h-308q-5 50-26 85.5t-54 57-75.5 31-93.5 9.5q-32 0-59-5t-48.5-14.5-34-24.5-12.5-33q0-14 16.5-26t40-24 54.5-22.5 61-18.5 56.5-14.5 42.5-11.5q80-22 146-42.5t118.5-46.5 91.5-58 65-73.5 38.5-97 12.5-127.5q0-71-20-129t-56-102-85.5-76.5-109-53.5-125-30-134.5-9q-103 0-198 22.5t-166.5 70.5-114 124-42.5 183z" horiz-adv-x="1266" unicode="&#xe18;"/><glyph d="M115 482v761h305v-734q0-56 15-103.5t44.5-80.5 77-51.5 112.5-18.5q43 0 86.5 14.5t77.5 50 55 92 21 139.5v692h311v-1243h-299v160q-69-96-162-141.5t-208-45.5q-119 0-202 40t-134.5 109.5-75.5 162.5q-24 94-24 197z" horiz-adv-x="1333" unicode="&#xe19;"/><glyph d="M115 509v734h305v-755q0-44 12-88.5t41-80 75.5-57.5 117.5-22q70 0 116.5 22t74.5 57.5 40 80 12 88.5v755h311v-734q0-68-10.5-134.5t-36-126-65-109.5-102-87-145.5-58q-85-21-195-21-111 0-194.5 21t-145 58-102 87-64.5 109.5-34.5 126-10.5 134.5z" horiz-adv-x="1333" unicode="&#xe1a;"/><glyph d="M115 509v734h305v-755q0-44 12-88.5t41-80 75.5-57.5 117.5-22q70 0 116.5 22t74.5 57.5 40 80 12 88.5v1297h311v-1276q0-68-10.5-134.5t-36-126-65-109.5-102-87-145.5-58q-85-21-195-21-111 0-194.5 21t-145 58-102 87-64.5 109.5-34.5 126-10.5 134.5z" horiz-adv-x="1333" unicode="&#xe1b;"/><glyph d="M115 364v879h467v-254h-159v-578q0-88 19.5-129.5t51.5-41.5q25 0 40 17t23 47 10.5 70 2.5 88v213h288v-213q0-48 3-88t12-70 25.5-47 44.5-17q26 0 43 41.5t17 129.5v832h310v-879q0-101-24.5-175t-69-121-106.5-71-139-24q-83 0-149.5 27t-111.5 83q-41-50-104.5-80t-146.5-30q-79 0-143 24t-109.5 71-70 121-24.5 175z" horiz-adv-x="1426" unicode="&#xe1c;"/><glyph d="M115 364v879h467v-254h-159v-578q0-88 19.5-129.5t51.5-41.5q25 0 40 17t23 47 10.5 70 2.5 88v213h288v-213q0-48 3-88t12-70 25.5-47 44.5-17q26 0 43 41.5t17 129.5v1374h310v-1421q0-101-24.5-175t-69-121-106.5-71-139-24q-83 0-149.5 27t-111.5 83q-41-50-104.5-80t-146.5-30q-79 0-143 24t-109.5 71-70 121-24.5 175z" horiz-adv-x="1426" unicode="&#xe1d;"/><glyph d="M30 1243h334l151-704 204 704h227l202-698 151 698h335l-332-1243h-263l-209 709-205-709h-264z" horiz-adv-x="1663" unicode="&#xe1e;"/><glyph d="M30 1243h334l151-704 204 704h227l202-698 292 1240h333l-471-1785h-263l-209 709-205-709h-264z" horiz-adv-x="1663" unicode="&#xe1f;"/><glyph d="M67 0v240h118v429q0 21-5 43t-17 43.5-32.5 42-52.5 38.5q14 53 37.5 106t59 100 83.5 88.5 111 72.5 141 49 172 18q113 0 199.5-21t151.5-56.5 111-85.5 74-108 40-123 12-133v-743h-312v764q0 43-14.5 85t-46 76-84 55.5-131.5 22.5q-59 0-105.5-11t-80-29.5-53.5-40.5-29-43q20-18 34.5-37t24-43.5 14-56.5 4.5-76v-666h-424z" horiz-adv-x="1385" unicode="&#xe20;"/><glyph d="M115 0v1243h308v-692q0-83 21.5-139.5t56.5-92 77-50.5q41-14 85-14 65 0 113 18.5t78.5 51.5 44 80.5 13.5 103.5v734h308v-761q0-103-24.5-196.5t-77-163-135.5-109.5-202-40q-115 0-207 46-94 46-163 141v-160h-296z" horiz-adv-x="1333" unicode="&#xe21;"/><glyph d="M95 400q0 91 29 161 30 69 95 108-31 25-54.5 55.5t-39 63-23 65-7.5 65.5q0 65 16 113.5t45 85 66.5 61 79 38.5 85.5 21q45 6 84 6h214v-257h-176q-28 0-48.5-7.5t-34-18.5-20.5-26q-6-16-6-31 0-24 8-43t23.5-34.5 37.5-25.5 52-13h164v-232h-152q-25-1-48-7t-41-21-28-43-10-76q0-44 20.5-76.5t54.5-56 77-35.5 87-12q51 0 93.5 15t74 46 49 79.5 17.5 116.5v758h306v-798q0-116-42-205t-116-149.5-171.5-90.5-210.5-30q-68 0-136 10.5t-128.5 34-114 59.5-91 83-59 108-21.5 135z" horiz-adv-x="1299" unicode="&#xe22;"/><glyph d="M62 420h286q4-50 22-90t46-66.5 65.5-41.5 82.5-15q32 0 67 6t63 24 46.5 46.5 18.5 73.5q0 38-19 64t-58.5 45-98.5 35.5-139 37.5q-65 15-127 38.5t-111 62-79.5 94.5-30.5 139q0 79 18.5 139t51 102.5 77 72.5 96.5 47.5 109 24.5q55 8 114 8 89 0 170-21t143-68 101-123.5 48-188.5h-283q-5 83-55 125t-130 42q-26 0-53.5-6t-50.5-18.5-39-34-16-53.5q0-46 28-72t74-42.5 105-28 124-26.5q67-18 127-43t105.5-65 72.5-99q27-57 27-142 0-80-19.5-144.5t-54-112-82-80.5-103-54-117.5-30-125-9q-94 0-181.5 27t-155.5 81.5-111 139-49 199.5z" horiz-adv-x="1127" unicode="&#xe23;"/><glyph d="M27 836q11 53 35 106t59.5 100 84.5 88.5 111 72.5 140.5 49 172.5 18q113 0 200.5-21t152.5-56.5 110-85.5 72.5-108 41-123 13.5-133v-1146h-314v1167q0 43-13.5 85t-46 76-85 55.5-131.5 22.5q-59 0-105.5-11t-80-29.5-53.5-40.5-27-43q39-35 57-89 19-56 19-124v-426h127v-240h-434v669q0 21-4.5 43t-16 43.5-32.5 42-53 38.5z" horiz-adv-x="1332" unicode="&#xe24;"/><glyph d="M78 329q0 82 28.5 146.5t79.5 112.5 120.5 81 152.5 52 176 26.5 191 7.5q15 0 28-1 13-2 28-2v106q0 48-19 80.5t-50.5 51.5-68.5 27.5-72 8.5q-47 0-88.5-13.5t-72.5-41.5-51-72-23-106h-316q3 92 25.5 163t61 124.5 90 89 113 58.5 132 32.5 145.5 9.5q59 0 119-8t115.5-26.5 103.5-51.5 84.5-78.5 57-109.5 20.5-146v-850h-306v521h-31-31q-53 0-106.5-3t-101.5-10.5-89-19-71-30-47-44.5-17-62q0-38 17-63.5t44.5-40 60-20.5 66.5-6q32 0 76 6t97 21v-237q-62-18-115.5-27t-106.5-9q-92 0-172.5 20t-142 64-98 110.5-36.5 158.5z" horiz-adv-x="1302" unicode="&#xe25;"/><glyph d="M67 0v240h118v429q0 21-5 43t-17 43.5-32.5 42-52.5 38.5q14 53 37.5 106t59 100 83.5 88.5 111 72.5 141 49 172 18q113 0 199.5-21t151.5-56.5 111-85.5 74-108 40-123 12-133v-1146h-312v1167q0 43-14.5 85t-46 76-84 55.5-131.5 22.5q-59 0-105.5-11t-80-29.5-53.5-40.5-29-43q20-18 34.5-37t24-43.5 14-56.5 4.5-76v-666h-424z" horiz-adv-x="1385" unicode="&#xe26;"/><glyph d="M70 468h318q6-58 23.5-101.5t42-72 55.5-41.5 67-13q50 0 90.5 22t69 69.5 43 119 14.5 171.5q0 97-14.5 169.5t-43 121-68 71-91.5 22.5q-36 0-67-14.5t-55.5-42.5-42-71-23.5-100h-318q8 109 48 200t106 156 155 102 197 37q139 0 240.5-47.5t168-132.5 99-205 32.5-266q0-147-32.5-267t-99-205-169-131-239.5-46q-108 0-197 35.5t-155 101.5-106 157-48 201z" horiz-adv-x="1188" unicode="&#xe27;"/><glyph d="M115 0v734q0 68 12 134t38.5 126 69.5 110 107 87 149.5 58 196.5 21q74 0 137-10.5t115-28.5q18 9 32 24.5t22.5 34 13 39.5 4.5 39h313q0-42-11.5-84t-33.5-80-53-69-70-53q57-73 80.5-163t23.5-185v-734h-309v758q0 43-15 86.5t-47 79-82 57.5-120 22q-71 0-121-22t-83-57.5-48.5-79-15.5-86.5v-116q34 34 72.5 60t82.5 44 95.5 26.5 110.5 8.5v-266q-97-3-165-28t-111-71-64-108-21-142v-166h-305z" horiz-adv-x="1376" unicode="&#xe28;"/><glyph d="M115 509v734h308v-755q0-44 13.5-88.5t44.5-80 83-57.5 127-22q77 0 126.5 22t79 57.5 42.5 80 13 88.5v73h-379v324h271v-95h108v453h312v-453h109v-229h-109v-52q0-68-11-134.5t-37-126-69-109.5-106.5-87-150-58-199.5-21q-115 0-202.5 21t-152 58-106.5 87-68 109.5-36.5 126-10.5 134.5z" horiz-adv-x="1382" unicode="&#xe29;"/><glyph d="M78 329q0 82 28.5 146.5t79.5 112.5 120.5 81 152.5 52 176 26.5 191 7.5q15 0 28-1 13-2 28-2v106q0 48-19 80.5t-50.5 51.5-68.5 27.5-72 8.5q-47 0-88.5-13.5t-72.5-41.5-51-72-23-106h-316q3 92 25.5 163t61 124.5 90 89 113 58.5 132 32.5 145.5 9.5q56 0 114-8 59-7 113-25 17 12 29 27t21 32.5 13 36.5q5 20 5 35h311q0-42-10.5-83.5t-33-79-53.5-69.5-69-53q29-44 44.5-101.5t15.5-131.5v-850h-306v521h-31-31q-53 0-106.5-3t-101.5-10.5-89-19-71-30-47-44.5-17-62q0-38 17-63.5t44.5-40 60-20.5 66.5-6q32 0 76 6t97 21v-237q-62-18-115.5-27t-106.5-9q-92 0-172.5 20t-142 64-98 110.5-36.5 158.5z" horiz-adv-x="1302" unicode="&#xe2a;"/><glyph d="M115 0v1243h308v-346l394 346h423l-260-228q56-22 96.5-55.5t68-77.5 40-102 12.5-132v-648h-309v633q0 83-27.5 130.5t-83.5 74.5l-354-310v-528h-308z" horiz-adv-x="1305" unicode="&#xe2b;"/><glyph d="M30 1243h340l136-746 203 551h215l213-568 75 338q10 51 13 88.5t-8.5 63-42.5 38.5-92 16v225q56 0 102.5 10.5t81.5 32 56.5 54.5 27.5 81h345q-9-65-35-117t-60-92-72-66.5-73-41.5q21-30 38.5-64.5t28-71 12-74-9.5-73.5l-245-827h-234l-230 628-220-628h-240z" horiz-adv-x="1623" unicode="&#xe2c;"/><glyph d="M67 813q25 102 72 186t120 145 167.5 95 215.5 34q160 0 270.5-50.5t179-138.5 99.5-207 31-258q0-86-14-167.5t-43.5-154-75.5-131.5-110-102-147-67-187-24q-105 0-188.5 24t-147 66-108 102-73.5 131-42 153-13 170v87h572v-252h-248q11-47 35-86t55.5-68 71-44.5 86.5-15.5q62 0 110.5 25t81.5 74 51 119 18 161q0 186-65 283.5t-199 97.5q-44 0-84.5-13t-73.5-37.5-55.5-59.5-34.5-77h-327z" horiz-adv-x="1284" unicode="&#xe2d;"/><glyph d="M67 813q25 102 72 186t120 145 167.5 95 215.5 34q68 0 129-10.5t111-28.5q18 9 31 24.5t22 34 13 38 4 37.5h312q0-42-12-85t-33.5-80-53-68.5-70.5-52.5q65-89 96-208t31-255q0-86-14-167.5t-43.5-154-75.5-131.5-110-102-147-67-187-24q-105 0-188.5 24t-147 66-108 102-73.5 131-42 153-13 170v87h572v-252h-248q11-47 35-86t55.5-68 71-44.5 86.5-15.5q62 0 110.5 25t81.5 74 51 119 18 161q0 186-65 283.5t-199 97.5q-44 0-84.5-13t-73.5-37.5-55.5-59.5-34.5-77h-327z" horiz-adv-x="1284" unicode="&#xe2e;"/><glyph d="M118 870q0 71 18.5 126t50.5 96.5 75 69.5 91 45.5 100 26.5 102 9h223v-254h-223q-62 0-92-34-29-31-29-88 0-26 9.5-54.5t33-50.5 62-35.5 97.5-13.5q137 0 209 47 73 45 73 149v334h307v-1243h-307v512q-57-30-126.5-47t-146.5-17q-130 0-229 30.5t-165 85.5-99.5 133.5-33.5 172.5z" horiz-adv-x="1339" unicode="&#xe2f;"/><glyph d="M118 179v312h255v-91h302v-221h-557zM118 793v317h255v-92h302v-225h-557z" horiz-adv-x="772" unicode="&#xe30;"/><glyph d="M-815 1418v343h273v-106h591v-237h-864z" unicode="&#xe31;"/><glyph d="M27 807q0 112 41.5 198.5t108 145 152 89 177.5 30.5q98 0 184-26t148.5-78.5 99-134 36.5-190.5v-841h-311v799q0 107-40 155.5t-117 48.5q-68 0-111-48.5t-49-147.5h-319z" horiz-adv-x="1087" unicode="&#xe32;"/><glyph d="M-536 1646q0 55 20 102t55 82 82 55.5 100.5 20.5 100-20.5 82-55.5 57-82 21.5-102q0-54-21.5-101t-57-81-82.5-55q-46-21-99.5-21t-100.5 21-82 55-55 81-20 101zM-373 1646q0-18 7.5-35t20.5-30.5 31-21.5 36-8q19 0 36 8t30.5 21.5 21.5 30.5 8 35q0 19-8 37t-21.5 31-31 21-35.5 8-36-8-31-21-20.5-31-7.5-37zM27 807h319q6 97 49 146.5t111 49.5q77 0 117-48 40-49 40-156v-799h311v841q0 109-36.5 190.5t-99 134-148.5 78.5-184 26q-92 0-177.5-30.5t-152-89-108-145-41.5-198.5z" horiz-adv-x="1087" unicode="&#xe33;"/><glyph d="M-1246 1418l121 237h1007v-237h-1128z" unicode="&#xe34;"/><glyph d="M-1246 1418l121 237h714v191h293v-428h-1128z" unicode="&#xe35;"/><glyph d="M-1246 1418l121 237h577v9q0 47 18 90t49 74 72.5 48.5 90.5 17.5q47 0 89.5-18.5t73.5-50 48.5-74.5 17.5-90q0-54-17.5-97.5t-48.5-76-73.5-51-89.5-18.5h-928zM-400 1664q0-17 6-31t17-24.5 27-17 32-6.5q18 0 32 6.5t25.5 17 17.5 25.5 6 30q0 17-6 32t-17.5 26-26.5 17.5-31 6.5q-18 0-33-6.5t-26-17.5-17-26-6-32z" unicode="&#xe36;"/><glyph d="M-1246 1418l121 237h425v191h243v-191h96v191h243v-428h-1128z" unicode="&#xe37;"/><glyph d="M-536-148h421v-534h-282v312h-139v222z" unicode="&#xe38;"/><glyph d="M-949-148h394v-195q0-48 18.5-72.5t59.5-24.5q80-1 80 97v195h282v-195q0-70-19.5-131.5t-61.5-107.5-111-73-170-27q-90 0-154.5 21.5t-108.5 60.5-68 93-28 119h-113v240z" unicode="&#xe39;"/><glyph d="M-462-287q0 40 16.5 74.5t42.5 61.5 61.5 41.5 75.5 14.5q38 0 73-14.5t60.5-41.5 41.5-62.5 16-74-16-74-41.5-60.5-60.5-41.5-73-16.5q-40 0-75.5 16.5t-61.5 41.5-42.5 60.5-16.5 74.5z" unicode="&#xe3a;"/><glyph unicode="&#xe3e;"/><glyph d="M136 0v1450h494v184h188v-187q39-1 78-4.5t76-10.5 70-17q32-9 59-24 40-23 76.5-56t64.5-73 44-88.5 16-107.5q0-49-11.5-92t-32.5-79.5-50.5-66.5-64.5-52q50-24 91.5-58t71-77 46-93.5 16.5-104.5q0-55-15-110t-44.5-103.5-72.5-90-100-72.5-127-49q-68-18-151-18h-40v-213h-188v213h-494zM457 252h173v376h-173v-376zM457 858h173v339h-173v-339zM818 252h12q54 0 93.5 14.5t67 41 41 63 13.5 77.5q0 45-19.5 76.5t-50.5 54-72 33.5q-42 13-85 16v-376zM818 864q89 15 128.5 58t39.5 108q0 42-13.5 70.5t-35.5 47-52.5 29-66.5 13.5v-326z" horiz-adv-x="1440" unicode="&#xe3f;"/><glyph d="M127 0v1243h313v-1243h-313z" horiz-adv-x="566" unicode="&#xe40;"/><glyph d="M115 0v1243h313v-1243h-313zM598 0v1243h311v-1243h-311z" horiz-adv-x="1024" unicode="&#xe41;"/><glyph d="M-33 1625l60 221h648l106-245h-396q16-13 29.5-33.5t23-44.5 14.5-50 5-49v-1184h125v-240h-434v1458q0 34-13.5 64.5t-37 53-56.5 36.5q-32 13-74 13z" horiz-adv-x="630" unicode="&#xe42;"/><glyph d="M-104 1480q0 107 34 185t89 130 124.5 77 143.5 25q65 0 127.5-14.5t110.5-48 77-85.5q28-50 28-124 0-25-5.5-48t-16-43.5-24.5-40-29-38.5q-18-24-35-47t-30-49-22-56-11-66v-994h129v-243h-435v1237q0 40 12 75t29.5 66.5 38.5 59 41 54.5q30 35 51 64 20 31 20 57 0 6-3 15.5t-8.5 18-17.5 14-33 5.5q-28 0-51.5-14.5t-40.5-39.5-27.5-59.5-10.5-72.5h-255z" horiz-adv-x="630" unicode="&#xe43;"/><glyph d="M-176 1601l106 245h649l60-221q-41 0-74.5-13.5t-57-36-37-53-13.5-64.5v-1206h125v-252h-434v1424q0 23 6 49t15.5 50 22.5 44q15 20 30 34h-398z" horiz-adv-x="630" unicode="&#xe44;"/><glyph d="M27 807q0 112 41.5 198.5t108 145 152 89 177.5 30.5q98 0 184-26t148.5-78.5 99-134 36.5-190.5v-1244h-311v1202q0 107-40 155.5t-117 48.5q-68 0-111-48.5t-49-147.5h-319z" horiz-adv-x="1087" unicode="&#xe45;"/><glyph d="M104 755q-9 92 7 173t64 148 132 112.5 211 63.5l115-112 101 109q93-7 160-31t113.5-59.5 74-82 43-99.5 19.5-111.5 4-119.5v-1146h-312v1170 54t-2 61-8 55-19 37l-110-104q-12-12-27.5-20.5t-36.5-8.5q-23 0-39.5 8.5t-26.5 20.5l-110 104q-13-12-22-34t-15-49-8-55.5-1-54.5q0-17 4.5-38t15-39.5 26-31 40.5-12.5h85v-249h-85q-40 0-83.5 9t-85 27-80 45-69.5 65-51 87q-18 49-24 108z" horiz-adv-x="1266" unicode="&#xe46;"/><glyph d="M-1048 1723q0 78 28 135t76.5 94 109.5 55 128 18h617v-203h-596q-42 0-65-11t-34.5-26.5-14.5-32.5-3-29q0-9 1.5-21.5t8-24 18.5-20 31-8.5q36 0 51.5 22t12.5 72h194q-3-50 13-72t48.5-22 40.5 23q7 24 1 71h216q12-85-3.5-144.5t-49-95-79.5-50.5q-45-16-99-16-29 0-57 8t-50.5 21-41.5 30-33 34q-14-19-35.5-36t-47-29.5-53.5-20-58-7.5q-53 0-93 13.5t-71 36.5-51.5 52.5-34 60.5-19.5 63q-6 33-6 60z" unicode="&#xe47;"/><glyph d="M-403 1967v413h288v-413h-288z" unicode="&#xe48;"/><glyph d="M-731 2167v201h343v-186q49 5 89.5 21.5t69 41.5 44.5 56 16 67h252q0-77-32-149.5t-95.5-128.5-159-89.5-224.5-33.5h-197v200h-106z" unicode="&#xe49;"/><glyph d="M-761 1964q-6 92 10.5 159t47 111.5 71 66 87.5 21.5q42 0 77.5-20t61.5-52q27 32 63.5 52t82.5 20q26 0 52.5-8t49.5-24.5 41-39.5 27-52q10 13 19 32.5t16.5 41 12 45.5 4.5 48h217q0-62-21.5-128.5t-57-123.5-83.5-98-101-51h-153v49.5t-4.5 54-16 43-32.5 17.5q-15 0-25.5-10t-15.5-25-7-33.5-2-36.5h-125q0 15-2 33.5t-7.5 35-15.5 26.5-28 10q-22 0-33-17.5t-15.5-43-5.5-53.5-1-50h-188z" unicode="&#xe4a;"/><glyph d="M-579 2125v215h179v155h279v-155h179v-215h-179v-158h-279v158h-179z" unicode="&#xe4b;"/><glyph d="M-586 1843q0 100 40 179.5t109.5 134 165.5 83.5 210 30v-219q-56 0-98-14.5t-71.5-43-44.5-67-15-83.5h-296z" unicode="&#xe4c;"/><glyph d="M-536 1646q0 55 20 102t55 82 82 55.5 100.5 20.5 100-20.5 82-55.5 57-82 21.5-102q0-54-21.5-101t-57-81-82.5-55q-46-21-99.5-21t-100.5 21-82 55-55 81-20 101zM-373 1646q0-18 7.5-35t20.5-30.5 31-21.5 36-8q19 0 36 8t30.5 21.5 21.5 30.5 8 35q0 19-8 37t-21.5 31-31 21-35.5 8-36-8-31-21-20.5-31-7.5-37z" unicode="&#xe4d;"/><glyph d="M-654 1415q0 68 12 128.5t40 108 72.5 81.5 109.5 49q12 44 41.5 79.5t76.5 62.5 115.5 41.5 156.5 17.5v-228q-50 0-83.5-6t-52-17.5-25-31-6.5-48.5v-70h-78q-36 0-59-11t-36-33-18.5-53.5-5.5-69.5h-260z" unicode="&#xe4e;"/><glyph d="M98 619q0 90 23 173.5t65.5 155.5 102.5 132 133.5 101 157 65 175.5 24q89 0 171.5-24t155-65 132-101 101-132 65-155.5 23.5-173.5q0-91-23.5-174.5t-65-156-101-131.5-132-101.5-155-65.5-171.5-23q-92 0-175.5 23t-157 65.5-133.5 101.5-102.5 131.5-65.5 156-23 174.5zM303 625q0-63 15.5-120t45.5-107 71.5-91.5 91.5-72 108-46.5 120-16q60 0 117 16t106 46.5 90.5 72 70.5 91.5 45 107 16 120q0 91-35.5 172.5t-96 142-141 95.5-172.5 35q-95 0-177-35t-143.5-95.5-96.5-142-35-172.5zM406 625q0 69 28 131t75 109 111 75 135 28q69 0 130.5-28t108-75 74-109 27.5-131q0-71-27.5-135t-74-110.5-108-74-130.5-27.5q-71 0-135 27.5t-111 74-75 110.5-28 135zM592 625q0-34 12-64.5t34-53 51.5-34 65.5-11.5q32 0 60.5 11.5t49 34 32.5 53 12 64.5q0 32-12 60t-32.5 49.5-49 34-60.5 12.5q-36 0-65.5-12.5t-51.5-34-34-49.5-12-60z" horiz-adv-x="1500" unicode="&#xe4f;"/><glyph d="M115 570q0 118 41.5 216.5t118.5 168 189 108.5q113 38 252 38t248.5-38.5 187.5-108 119.5-168 41.5-216.5q0-113-21.5-201t-61-154.5-94-112.5-120.5-74.5-143-41.5-157-13q-83 0-159.5 13t-143.5 41.5-121.5 75-94 112.5-61 154-21.5 201zM411 530q0-65 22.5-120t62.5-95 96-62 124-22 123 22 94 62 60.5 95 21.5 120q0 84-24.5 144t-65 97-95 55-114.5 18q-59 0-115-18t-97.5-55-67-96-25.5-145z" horiz-adv-x="1426" unicode="&#xe50;"/><glyph d="M12 188l201 164q42-44 92-70.5t105-40 111-16.5 107-3q85 0 152 23t112 68 69.5 109.5 24.5 147.5q0 62-18.5 114.5t-55 89.5-92 57.5-129.5 20.5q-58 0-106.5-10t-84-29.5-56.5-49-21-69.5q0-34 16.5-60.5t53.5-43.5 97-21q61-4 147 7v-224q-27-9-54-14t-52.5-8.5-45.5-4.5q-23-1-34-1-89 0-167.5 25t-138 71-93.5 111q-34 64-34 144 0 77 22.5 139t62.5 109.5 94 81.5 117 56 133 32.5 141 10.5q126 0 237-29.5t192.5-94 129-165 47.5-242.5q0-133-44.5-243.5t-130.5-189-209-121.5-277-43q-68 0-142 5.5t-152.5 27-160.5 63.5-166 116z" horiz-adv-x="1408" unicode="&#xe51;"/><glyph d="M27 986l48 260q80 0 147.5-20.5t115-63 73.5-105.5q26-65 26-151v-432q0-48 28.5-90t83.5-74 133.5-51 175.5-19q92 0 159.5 17t112.5 45 68.5 64.5 23.5 73.5v309q0 29-11 52-12 22-30 35l-181-145-167 142q-13-12-22-31t-9-44v-45q0-23 1-41.5t4.5-32 13.5-20.5q11-6 29-6h96v-243h-119q-77 0-129.5 18.5t-88 49-54.5 70.5-28 81-9.5 82.5.5 74.5q3 68 28 126.5t69.5 103.5 108 77.5 146.5 47.5l130-112 140 109q82-10 152-40.5t121-76.5 79.5-103.5 28.5-122.5v-281q0-86-20.5-155.5t-59-124.5-92-95-117-66-136.5-38.5-150-12.5h-165q-153 0-273 37t-203 103.5-126 161.5-43 210v376q0 62-25 89t-84 27z" horiz-adv-x="1633" unicode="&#xe52;"/><glyph d="M115 497v76q0 129 33 222t93.5 156.5 147.5 100.5q88 37 200 49l130-112 136 109q119-6 205-43t142-94.5 83.5-131.5 27.5-157v-672h-304v688q0 27-7 53t-20.5 46-31.5 32.5-38 13.5l-199-161-183 158q-19-6-39-20.5t-36.5-42.5-26.5-71q-11-42-11-104v-92q0-50 1.5-91.5t7.5-72 21-51 43-30 72-9.5q42 0 107 12v-243q-24-6-53.5-12t-61.5-9-63-4.5-54 1.5q-80 10-135.5 39t-91 70.5-55 92-28.5 102-10.5 104-1.5 98.5z" horiz-adv-x="1423" unicode="&#xe53;"/><glyph d="M115 480v115q0 124 42.5 216t120 152.5 188.5 89.5 250 29h261q31 0 49.5 12t30.5 33 15.5 51 3.5 65h309q0-50-6.5-100.5t-23.5-97.5-45-88.5-72.5-72-106.5-48.5-145-18h-292q-62 0-113-12.5t-87.5-37-56.5-60.5-20-83v-137q0-47 13.5-88.5t43-72.5 74-49 106.5-18q-24 30-37 64t-13 76q0 17 1.5 45.5t13 59.5 37 60.5 71.5 53 115.5 38.5 169.5 15v-244q-38 0-60.5-4t-35.5-11-17.5-18.5-4.5-24.5q0-24 8-44.5t23-34.5 35.5-22.5 45.5-8.5h319v-260h-689q-103 0-181.5 20.5t-136.5 57.5-96 84.5-62 101-34.5 108-10.5 108.5z" horiz-adv-x="1423" unicode="&#xe54;"/><glyph d="M115 480v115q0 95 25.5 170.5t72 133 114 96 153.5 59.5v16q0 49 19 93.5t54 77 80 52.5q48 20 98 20 53 0 99-18.5t79.5-50.5 53.5-74 23-88q26 0 44 12.5t28.5 34.5 14 50.5 3.5 63.5h309q0-50-6.5-100.5t-23.5-97.5-45-88.5-72.5-72-106.5-48.5-145-18h-292q-62 0-113-12.5t-87.5-37-56.5-60.5-20-83v-137q0-47 13.5-88.5t43-72.5 74-49 106.5-18q-24 30-37 64t-13 76q0 17 1.5 45.5t13 59.5 37 60.5 71.5 53 115.5 38.5 169.5 15v-244q-38 0-60.5-4t-35.5-11-17.5-18.5-4.5-24.5q0-24 8-44.5t23-34.5 35.5-22.5 45.5-8.5h319v-260h-689q-103 0-181.5 20.5t-136.5 57.5-96 84.5-62 101-34.5 108-10.5 108.5zM648 1073q0-15 7-29.5t18-26 25.5-17 32.5-5.5 32.5 5.5 25 17 17.5 25.5 7 30q0 18-7 32t-17.5 26-25.5 17q-14 6-32 6t-32.5-5.5-25.5-17.5-18-26-7-32z" horiz-adv-x="1423" unicode="&#xe55;"/><glyph d="M33 1067l242 136 122-185q74 37 164 55.5t194 24.5q111 3 197.5-16t151-54 109-84.5 71.5-108.5 39-125 10-134v-76q-5-69-23.5-135t-53-125-84.5-106.5-116-81.5-149.5-52-184.5-15q-114 3-208 32.5t-160.5 80-103.5 118.5-37 148q0 81 27.5 141t78.5 98.5 123.5 57 161.5 18.5h99v-242h-90q-30 0-50.5-6t-31-17-14.5-26q-5-12-5-30 0-24 16.5-44.5t44.5-36 69.5-25 91.5-9.5q56-2 109.5 14.5t94 49 65 81.5 24.5 112v70q0 139-64.5 202.5t-195.5 63.5q-58 0-116.5-6.5t-119-23-124.5-45-132-73.5z" horiz-adv-x="1448" unicode="&#xe56;"/><glyph d="M115 494v82q0 118 30 209t86 156 138 106q82 42 189 57l127-109 133 103q122-16 198-59t120.5-109 61.5-152.5 17-191.5v-89q-3-47-8-105t-26-117q30 12 53.5 38.5t40 62 23.5 77 7 83.5v370q0 86 25.5 150t69.5 106.5 109.5 63 145.5 20.5l48-234q-29 0-50-10t-34-29.5-19-46-6-56.5v-315q0-114-40.5-211t-117.5-170-185-122-245-64l-193 139q47 42 70.5 88.5t34.5 94.5 11 95.5v88.5 110q0 47-4 82.5t-14 62.5-22.5 46-27.5 29l-182-145-176 151q-15-12-31-31t-28-48-19.5-67.5-7.5-85.5v-98q0-20 1.5-47t4.5-55 9-54.5 16.5-47.5 26.5-34 40-13q15 0 52 1.5t90 12.5l3-242q-21-5-47.5-10t-57-9.5-60.5-5-58 3.5q-77 15-129.5 46t-88 71-56.5 87.5-31.5 97.5-13.5 99-3 93z" horiz-adv-x="1718" unicode="&#xe57;"/><glyph d="M115 408v184q0 115 35.5 205.5t105.5 154 173.5 97 239.5 33.5h265q29 0 48.5 12t30.5 33 15.5 51 4.5 65h306q0-50-6.5-100.5t-22.5-98.5-44.5-90-73-73-106.5-49.5-143-18.5h-295q-62 0-105-16.5t-71-42.5-41.5-60-13.5-69v-217q0-26 9-50t24-43.5 34-34 37-20.5l185 154 194-156q19 2 36 9.5t29 23 19.5 40 7.5 60.5q0 15-1.5 29.5t-6 26.5-12 21-20.5 12q-18 4-44 4.5t-61 .5v240h102q77-4 132.5-20.5t92.5-41 60.5-55.5 36-66.5 16.5-74 4-76.5q0-94-27.5-168.5t-84-128-140-81.5-195.5-28l-135 110-127-113q-116 9-202.5 45.5t-145.5 94-89 131.5q-30 73-30 155z" horiz-adv-x="1394" unicode="&#xe58;"/><glyph d="M115 482v88q0 130 21.5 228.5t71.5 165 132 100.5q80 34 202 34 20 0 47-.5t52-3 50-7.5 46-14q27-12 49-29t41-38l55 61q9 9 25.5 20t41.5 11h90q27 0 44.5 9t27 27.5 13.5 46 4 62.5h275q0-50-4.5-97.5t-17.5-89.5-38.5-78.5-67.5-62.5-103-40q-62-14-145-14-15 0-21-6l-45-45 398-810h-320l-348 709q-32 59-68 93-37 34-84 34-27 0-48.5-12.5t-37.5-41.5-26-78.5-10-124.5v-111q0-33 6-71.5t18-71 32.5-53 56.5-20.5q13 0 48 3t79 11l46-251q-21-5-52.5-10t-65.5-9.5-67.5-7.5-60.5 0q-78 9-134.5 35.5t-94 65-60.5 86-35 99.5-15 105-3 103z" horiz-adv-x="1440" unicode="&#xe59;"/><glyph d="M118 870q0-94 33.5-172.5t99.5-133.5 165-85.5 229-30.5q77 0 146.5 17t126.5 47v-512h307v1243h-307v-334q0-104-72.5-150t-209.5-46q-59 0-97.5 13.5t-62 35.5-33.5 50q-9 29-9 55 0 57 29.5 89.5t91.5 32.5h223v254h-223q-50 0-102-9t-100-26.5-91-45.5-75-69.5-50.5-96.5-18.5-126zM1379 0v1243h305v-1243h-305z" horiz-adv-x="1802" unicode="&#xe5a;"/><glyph d="M121 642q0 74 16.5 149.5t47.5 146.5 78.5 134 109.5 109.5 139 73.5 170 27q89 0 158.5-22.5t123.5-61 92.5-91.5 63-117 35.5-132 11-139l-284-3q0 135-44 202-43 68-135 74-71-2-123.5-31.5t-87.5-79-52-114.5-17-139q0-73 27-140.5t75.5-117.5 116.5-81q65-31 148-31 82 0 149 26.5t119.5 74.5 92 114 65.5 144.5 38.5 165.5 12.5 178l197 106q66-74 124-145 58-72 96-132 21 31 45.5 68t49 73.5 48 71 44.5 61.5q25-35 51-73t51-74 45.5-68 35.5-59q21 30 42 59 20 27 38 51h463l194-293h-544q-18-24-39-55t-45-71-53-93.5-65-121.5q-50 101-94 182-45 82-80 141-39-67-89-173-50-108-101-256-50 142-95 239.5t-79 158.5q-18-89-55-166.5t-89-144-117-120-139-90.5-156-56q-84-19-170-19-106 0-195.5 26.5t-163 75-129.5 114-94.5 141-58 158-19.5 165.5z" horiz-adv-x="2884" unicode="&#xe5b;"/><glyph horiz-adv-x="1247" unicode="&#x2000;"/><glyph horiz-adv-x="2495" unicode="&#x2001;"/><glyph horiz-adv-x="1247" unicode="&#x2002;"/><glyph horiz-adv-x="2495" unicode="&#x2003;"/><glyph horiz-adv-x="831" unicode="&#x2004;"/><glyph horiz-adv-x="623" unicode="&#x2005;"/><glyph horiz-adv-x="415" unicode="&#x2006;"/><glyph horiz-adv-x="415" unicode="&#x2007;"/><glyph horiz-adv-x="311" unicode="&#x2008;"/><glyph horiz-adv-x="499" unicode="&#x2009;"/><glyph horiz-adv-x="138" unicode="&#x200a;"/><glyph unicode="&#x200b;"/><glyph d="M78 474v226h874v-226h-874z" horiz-adv-x="1030" unicode="&#x2010;"/><glyph d="M78 474v226h874v-226h-874z" horiz-adv-x="1030" unicode="&#x2011;"/><glyph d="M78 474v226h874v-226h-874z" horiz-adv-x="1030" unicode="&#x2012;"/><glyph d="M0 468v238h1251v-238h-1251z" horiz-adv-x="1249" unicode="&#x2013;"/><glyph d="M0 468v238h1578v-238h-1578z" horiz-adv-x="1579" unicode="&#x2014;"/><glyph d="M157 915v273q0 66 17 128.5t53 113.5 93 84.5 137 39.5v-161q-37-3-58.5-24t-32.5-48-14-57-3-52h108v-297h-300z" horiz-adv-x="630" unicode="&#x2018;"/><glyph d="M173 866v161q36 3 58 24t33 47.5 14 56 3 53.5h-108v296h301v-273q0-65-17-128.5t-53.5-114.5-93.5-84.5-137-37.5z" horiz-adv-x="630" unicode="&#x2019;"/><glyph d="M149 915v273q0 66 17.5 128.5t53 113.5 93 84.5 137.5 39.5v-161q-37-3-58.5-24t-33.5-48-15-57-3-52h110v-297h-301zM589 915v273q0 66 16.5 128.5t52.5 113.5 93 84.5 137 39.5v-161q-37-3-58.5-24t-32.5-48-15-57-4-52h110v-297h-299z" horiz-adv-x="1064" unicode="&#x201c;"/><glyph d="M176 866v161q36 3 58 24t33 47.5 14 56 3 53.5h-108v296h301v-273q0-65-17-128.5t-53.5-114.5-93.5-84.5-137-37.5zM616 866v161q35 3 57.5 24t32.5 47.5 14 56 4 53.5h-108v296h299v-273q0-65-16.5-128.5t-53.5-114.5-93-84.5-136-37.5z" horiz-adv-x="1064" unicode="&#x201d;"/><glyph d="M55 636q0 48 14 94t37.5 85.5 58.5 73 77 58 89.5 38 99.5 13.5q78 0 147.5-30t121.5-80 82.5-115.5 30.5-136.5q0-77-30.5-143.5t-82.5-115-121.5-78.5-147.5-30q-52 0-99.5 13.5t-89.5 37-77 57.5-58.5 74-37.5 87.5-14 97.5z" horiz-adv-x="865" unicode="&#x2022;"/><glyph horiz-adv-x="499" unicode="&#x202f;"/><glyph horiz-adv-x="623" unicode="&#x205f;"/><glyph d="M24 482v193h177v44 51h-177v192h207q29 114 87 209.5t144 165 200 108 253 38.5q121 0 227.5-32t191-96 142-163.5 81.5-235.5h-321q-22 74-56 123t-77 77.5-92 40.5-99 12q-71 0-127.5-18.5t-100-51-75.5-78.5-53-99h365v-192h-406v-36-59h406v-193h-362q21-53 53.5-97.5t77-75.5 101-48.5 124.5-17.5q74 0 133 20.5t99.5 58.5 65 90.5 30.5 115.5h314q-12-130-61.5-233.5t-133-174.5-200.5-109-262-38q-142 0-254.5 37t-195.5 104.5-139 161.5-83 206h-204z" horiz-adv-x="1651" unicode="&#x20ac;"/><glyph d="M124 1265v185h696v-185h-243v-691h-210v691h-243zM910 574v876h270l217-538 213 538h273v-876h-212v512l-206-512h-136l-210 509v-509h-209z" horiz-adv-x="2024" unicode="&#x2122;"/><glyph d="M321 598l119 56q-5-26-6.5-56t6.5-59zM420 337l51 117q16-25 34.5-45.5t42.5-35.5zM443 858l121-43q-33-16-55-34-21-17-35-41zM630 847l61 118 55-115q-30 5-61 3.5t-55-6.5zM636 337q27-7 51-7 23 2 56 10l-52-115zM827 818l134 40-52-121q-17 25-38 45t-44 36zM830 370q25 15 44.5 34t34.5 41l34-111zM946 542q9 25 9.5 52.5t-6.5 56.5l112-56z" horiz-adv-x="1382" unicode="&#x25cc;"/><glyph d="M0 0v1077h1077v-1077h-1077z" horiz-adv-x="1075" unicode="&#x25fc;"/><glyph d="M52 807q18 102 64.5 187t119 146.5 170 95.5 216.5 34q47 0 96-7 49-5 97-20 15 6 28.5 18t23 28 15 35.5 6.5 37.5h324q-1-40-10-84t-28.5-84-47.5-73-68-54q30-47 47-108.5t17-140.5q0-41-12-97t-33.5-123.5-49.5-141.5-60-152-66-155.5-65-148.5h-351l-164 457h-152v256h382l118-358q12 34 28 75t31 83 28.5 84 23.5 79 16 68.5 6 48.5q0 98-50 154t-154 56q-86 0-138-50t-72-146h-336z" horiz-adv-x="1218" unicode="&#xf700;"/><glyph d="M-1430 1418l122 237h787v-237h-909z" unicode="&#xf701;"/><glyph d="M-1430 1418l122 237h493v191h294v-428h-909z" unicode="&#xf702;"/><glyph d="M-1430 1418l122 237h350v9q0 47 18.5 90t50 74 72.5 48.5 88.5 17.5 90.5-18.5 74-50 49-74.5 18-90q0-54-18-97.5t-49-76-74-51-90-18.5h-702zM-810 1664q0-17 7-31t18-24.5 26-16.5q13-7 31-7t32.5 6.5 25.5 17 18 25.5 7 30q0 17-7 32t-18 26-25.5 17.5-32.5 6.5-32-6.5-25-17.5-18-26-7-32z" unicode="&#xf703;"/><glyph d="M-1430 1418l122 237h216v191h237v-191h97v191h237v-428h-909z" unicode="&#xf704;"/><glyph d="M-873 1421v413h297v-413h-297z" unicode="&#xf705;"/><glyph d="M-1200 1622v200h318v-185q47 0 85.5 15.5t66 41.5 43 59 15.5 69h227q0-77-29-149.5t-88.5-128-148-89.5-207.5-34h-186v201h-96z" unicode="&#xf706;"/><glyph d="M-1296 1421q-6 92 7 160t41 112.5 66.5 66.5 80.5 22q38 0 70-21 31-21 54-52 30 33 64 53t72 20q27 0 52-8t46-23.5 37-39.5 24-53q9 13 17 32t14.5 40.5 10.5 46 4 48.5h202q0-42-8-85.5t-24-86.5-38.5-81.5-49-69.5-57.5-52q-31-23-64-29h-140v46.5t-4.5 51-16 40.5-31.5 17q-15 0-24.5-6.5t-15-20-7-31-1.5-38.5h-109q0 21-1.5 38.5t-7.5 30-15 20-21 7.5q-20 0-32-15.5t-17-39-6-50.5-1-50h-171z" unicode="&#xf707;"/><glyph d="M-1119 1573v206h173v148h267v-148h173v-206h-173v-152h-267v152h-173z" unicode="&#xf708;"/><glyph d="M-1027 1421q0 100 38.5 180t108.5 135 166.5 83 210.5 31v-219q-56 0-99-15t-72-43-44.5-66.5-15.5-85.5h-293z" unicode="&#xf709;"/><glyph d="M-411 1421v413h296v-413h-296z" unicode="&#xf70a;"/><glyph d="M-864 1622v200h343v-185q47 0 88.5 15.5t72.5 41.5 49 59 18 69h241q0-77-31.5-149.5t-94.5-128-158.5-89.5-224.5-34h-197v201h-106z" unicode="&#xf70b;"/><glyph d="M-1079 1421q-6 92 12.5 159t53.5 111 80 66 92 22q48 0 89.5-23.5t69.5-54.5q29 32 71.5 55t95.5 23q33 0 64-8t56-23.5 44-39.5 30-53q10 14 19 32.5t16.5 40 12 46 4.5 48.5h228q0-62-22.5-128t-59.5-123.5-87-97.5-105-52h-176q0 23-1 50.5t-6 51.5-17 40-36 16q-19 0-30-9t-18.5-23-9-31.5-1.5-35.5h-131q0 18-3 35.5t-10 31.5-18.5 23-29.5 9q-21 0-34.5-14.5t-19-37.5-8.5-51.5-3-54.5h-212z" unicode="&#xf70c;"/><glyph d="M-586 1579v215h180v155h279v-155h179v-215h-179v-158h-279v158h-180z" unicode="&#xf70d;"/><glyph d="M-586 1421q0 100 40 180t109.5 135 165.5 83 210 31v-219q-56 0-98-15t-71.5-43-44.5-66.5-15-85.5h-296z" unicode="&#xf70e;"/><glyph d="M38 833q12 54 36 106.5t59.5 101 82.5 90 107 72.5 135 49 164 18q106 0 189-21t145-56.5 105-85.5 69.5-109.5 38.5-124.5 12-133v-317q0-47 15.5-82t41.5-59 59-36q35-12 70.5-12t67.5 10.5 56.5 34 39 59 14.5 85.5v820h314v-837q0-74-19.5-136.5t-53.5-110.5-79.5-84.5-100.5-59-115.5-34-122.5-11.5q-66 0-128 12t-116.5 37-101.5 61.5-80 84.5-52.5 108.5-19.5 132.5v358q0 41-12.5 83t-41.5 75.5-76 55-118 22.5q-51 0-91.5-10t-72.5-27-52.5-38.5-32.5-42.5q38-37 60-92 21-56 21-124v-426h128v-240h-437v669q0 21-4.5 43t-16.5 43-32.5 41.5-53.5 36.5z" horiz-adv-x="1972" unicode="&#xf70f;"/><glyph d="M-949 1418v343h274v-106h799v-237h-1073z" unicode="&#xf710;"/><glyph d="M-1048 1646q0 55 19.5 102t55 82 82.5 55.5 101 20.5q51 0 98-20.5t83-55.5 57.5-82 21.5-102q0-54-21.5-101t-57.5-81-83.5-55-97.5-21q-54 0-101 21t-82.5 55-55 81-19.5 101zM-885 1646q0-18 7.5-35t20.5-30.5 30-21.5q19-8 37-8 19 0 36 8t30.5 21.5 21.5 30.5 8 35q0 19-8 37t-21.5 31-31.5 21-35.5 8-35.5-8-31-21-20.5-31-7.5-37z" unicode="&#xf711;"/><glyph d="M-1353 1735q0 77 28.5 131.5t74 90 105 53.5 121.5 18h587v-197h-569q-39 0-61-11t-34-26-15-31.5-3-27.5q0-9 3-21t9-24 17-20.5 29-8.5q32 0 48 21 15 23 13 70h185q-3-47 12.5-69t44.5-22q30 0 39 23 9 24 0 68h207q10-84-4-141t-46.5-92-77-49.5-94.5-14.5q-30 0-55 8t-45.5 20.5-38.5 29.5q-18 14-30 32-15-18-35.5-34t-44-28.5-50.5-20-55-7.5q-50 0-89.5 13t-69 35.5-49.5 51.5-32.5 60-18.5 62-6 58z" unicode="&#xf712;"/><glyph d="M-810 1967v413h289v-413h-289z" unicode="&#xf713;"/><glyph d="M-1045 2167v201h342v-186q47 0 89.5 14.5t73.5 39.5 48.5 59.5 17.5 72.5h240q0-77-31-149.5t-94.5-128.5-159-89.5-224.5-33.5h-197v200h-105z" unicode="&#xf714;"/><glyph d="M-1151 1964q-6 92 10 159t45.5 111.5 71 66 87.5 21.5q42 0 77-20 37-20 64-52 26 32 61.5 52t83.5 20q26 0 53-8t49-24.5 40-39.5 27-52q10 13 19.5 32.5t17 41 11 45.5 3.5 48h218q0-62-21-128.5t-57-123.5-84-98-102-51h-151v49.5t-5 54-16 43-32 17.5q-15 0-25-10t-16-25-7.5-33.5-1.5-36.5h-126q0 15-2 33.5t-7.5 35-15.5 26.5q-9 10-27 10-22 0-34-17.5t-16-43-5-53.5-1-50h-186z" unicode="&#xf715;"/><glyph d="M-983 2125v215h181v155h278v-155h178v-215h-178v-158h-278v158h-181z" unicode="&#xf716;"/><glyph d="M-824 1828q0 100 39 179.5t108.5 134 166 83 210.5 31.5v-220q-57 0-99-14.5t-71.5-42.5-44.5-66.5-15-84.5h-294z" unicode="&#xf717;"/><glyph d="M-536-536h421v-534h-282v312h-139v222z" unicode="&#xf718;"/><glyph d="M-949-536h394v-195q0-47 18.5-71.5t59.5-24.5q80-2 80 96v195h282v-195q0-70-19.5-131.5t-61.5-107-111-73-170-27.5q-90 0-154.5 21.5t-108.5 60.5-68 93-28 119h-113v240z" unicode="&#xf719;"/><glyph d="M-468-713q0 40 16.5 76t42.5 62 60.5 41.5 76.5 15.5q38 0 72-15.5t61-41.5 41.5-61.5 14.5-76.5q0-39-14.5-73t-41.5-60.5-61-41.5-72-15q-40 0-75.5 15t-61.5 41.5-42.5 60.5-16.5 73z" unicode="&#xf71a;"/><glyph d="M30 1243h340l136-746 203 551h215l213-568 75 338q10 51 13 88.5t-8.5 63-42.5 38.5-92 16v225q56 0 102.5 10.5t81.5 32 56.5 54.5 27.5 81h345q-9-65-35-117t-60-92-72-66.5-73-41.5q21-30 38.5-64.5t28-71 12-74-9.5-73.5l-245-827h-234l-230 628-220-628h-240z" horiz-adv-x="1623" unicode="&#xf71d;"/><glyph d="M-1128 1415q0 68 12 128.5t40 108 72.5 81.5 109.5 49q12 44 41.5 79.5t77.5 62.5 115.5 41.5 156.5 17.5v-228q-51 0-83.5-6t-51-17.5-25-31-6.5-48.5v-70h-80q-35 0-57.5-11t-35.5-33-19-53.5-6-69.5h-261z"/><glyph d="M-1048 1646q0 55 19.5 102t55 82 82.5 55.5 101 20.5q51 0 98-20.5t83-55.5 57.5-82 21.5-102q0-54-21.5-101t-57.5-81-83.5-55-97.5-21q-54 0-101 21t-82.5 55-55 81-19.5 101zM-885 1646q0-18 7.5-35t20.5-30.5 30-21.5q19-8 37-8 19 0 36 8t30.5 21.5 21.5 30.5 8 35q0 19-8 37t-21.5 31-31.5 21-35.5 8-35.5-8-31-21-20.5-31-7.5-37zM27 807h319q6 97 49 146.5t111 49.5q77 0 117-48 40-49 40-156v-799h311v841q0 109-36.5 190.5t-99 134-148.5 78.5-184 26q-92 0-177.5-30.5t-152-89-108-145-41.5-198.5z" horiz-adv-x="1087"/><glyph d="M-1048 1646q0 55 19.5 102t55 82 82.5 55.5 101 20.5q51 0 98-20.5t83-55.5 57.5-82 21.5-102q0-54-21.5-101t-57.5-81-83.5-55-97.5-21q-54 0-101 21t-82.5 55-55 81-19.5 101zM-885 1646q0-18 7.5-35t20.5-30.5 30-21.5q19-8 37-8 19 0 36 8t30.5 21.5 21.5 30.5 8 35q0 19-8 37t-21.5 31-31.5 21-35.5 8-35.5-8-31-21-20.5-31-7.5-37zM27 807h319q6 97 49 146.5t111 49.5q77 0 117-48 40-49 40-156v-799h311v841q0 109-36.5 190.5t-99 134-148.5 78.5-184 26q-92 0-177.5-30.5t-152-89-108-145-41.5-198.5z" horiz-adv-x="1087"/><glyph d="M-1064 1418l121 237h825v-237h-946z"/><glyph d="M-1064 1418l121 237h532v191h293v-428h-946z"/><glyph d="M-1064 1418l121 237h395v9q0 47 18 90t49 74 72.5 48.5 90.5 17.5q47 0 89.5-18.5t73.5-50 48.5-74.5 17.5-90q0-54-17.5-97.5t-48.5-76-73.5-51-89.5-18.5h-746zM-400 1664q0-17 6-31t17-24.5 27-17 32-6.5q18 0 32 6.5t25.5 17 17.5 25.5 6 30q0 17-6 32t-17.5 26-26.5 17.5-31 6.5q-18 0-33-6.5t-26-17.5-17-26-6-32z"/><glyph d="M-1064 1418l121 237h243v191h243v-191h96v191h243v-428h-946z"/><glyph d="M-1643 1418l122 237h1036v-237h-1158z"/><glyph d="M-1643 1418l122 237h743v191h293v-428h-1158z"/><glyph d="M-1643 1418l122 237h633v9q0 47 18 90t49 74 73 49q44 17 91 17t88.5-18.5 72.5-50 49.5-74.5 18.5-90q0-54-18.5-97.5t-49.5-76-72.5-51-88.5-18.5h-986zM-740 1664q0-17 6.5-31t18-24.5 26-17 32.5-6.5 32.5 6.5 25 17 17 25.5 6.5 30q0 17-6.5 32t-17 26-25.5 18q-14 6-32 6t-32.5-6.5-26-17.5-18-26-6.5-32z"/><glyph d="M-1643 1418l122 237h454v191h243v-191h96v191h243v-428h-1158z"/><glyph d="M-773 1967v431h288v-431h-288z"/><glyph d="M-1015 2167v201h343v-186q50 0 91.5 16t72.5 41 48 59 17 70h240q0-77-31.5-149.5t-95.5-128.5-158.5-89.5-224.5-33.5h-196v200h-106z"/><glyph d="M-1122 1964q-6 92 10.5 159t46 111.5 71 66 87.5 21.5q41 0 77-20 37-20 63-52 27 32 62.5 52t82.5 20q27 0 53.5-8t49-24.5 40-39.5 26.5-52q10 13 20 32.5t17.5 41 11 45.5 3.5 48h217q0-62-20.5-128.5t-56.5-123.5-84.5-98-101.5-51h-151v49.5t-5 54-16 43-32 17.5q-15 0-25.5-10t-16.5-25-7.5-33.5-1.5-36.5h-125q0 15-2.5 33.5t-7.5 35-15 26.5q-9 10-27 10-22 0-34-17.5t-16.5-43-5-53.5-.5-50h-187z"/><glyph d="M-946 2125v215h179v155h279v-155h179v-215h-179v-158h-279v158h-179z"/><glyph d="M-1566 1418l122 237h1326v-237h-1448z"/><glyph d="M-1566 1418l122 237h1033v191h293v-428h-1448z"/><glyph d="M-1566 1418l122 237h899v9q0 47 18 90t49 74 72.5 48.5 90.5 17.5q47 0 89-18.5t73.5-50 49-74.5 17.5-90q0-54-17.5-97.5t-49-76-73.5-51-89-18.5h-1251zM-397 1664q0-17 6-31t18-24.5 26.5-17 31.5-6.5q18 0 32 6.5t25.5 17 17.5 25.5 6 30q0 17-6 32t-17.5 26-26.5 17.5-31 6.5q-18 0-32-6.5t-26-17.5-18-26-6-32z"/><glyph d="M-1566 1418l122 237h747v191h243v-191h96v191h243v-428h-1451z"/><glyph d="M-403 1846v430h288v-430h-288z"/><glyph d="M-731 2045v202h343v-187q51 0 93.5 16.5t75.5 41.5 52 59 19 70h231q0-77-32-149.5t-95.5-129-159-89.5-224.5-33h-197v199h-106z"/><glyph d="M-851 1843q-6 91 9.5 158.5t46.5 112 72 66 87 21.5q41 0 76.5-20t62.5-53q26 33 63 53t82 20q26 0 53.5-8.5t50.5-24.5 41-39 26-53q11 14 20 33t15.5 40.5 11 46 4.5 48.5h219q0-62-21.5-129t-58-124-83.5-97.5-101-50.5h-152q0 20-1 49t-5 54-16 43-33 18q-15 0-24.5-10.5t-14.5-25-7.5-33-2.5-36.5h-125q0 15-1.5 33.5t-7.5 34.5-16.5 26.5-28.5 10.5q-22 0-33-18t-15.5-43-4.5-53v-50h-188z"/><glyph d="M-579 2004v215h179v155h279v-155h179v-215h-179v-158h-279v158h-179z"/><glyph d="M-802 1846v430h287v-430h-287z"/><glyph d="M-1045 2045v202h342v-187q50 0 92.5 16.5t72.5 41.5 47 59 17 70h240q0-77-31-149.5t-94.5-129-159-89.5-224.5-33h-197v199h-105z"/><glyph d="M-1151 1846q-6 91 10 158.5t45.5 112 71 66 87.5 21.5q42 0 77-20 37-20 64-53 26 33 61.5 53t83.5 20q26 0 53-8.5t49-24.5 40-39 27-53q10 14 19.5 33t17 40.5 11 46 3.5 48.5h218q0-63-21-129.5t-57-123.5-84-97.5-102-50.5h-151v49t-5 54-16 43-32 18q-15 0-25-10.5t-16-25-7.5-33-1.5-36.5h-126q0 15-2 33.5t-7.5 34.5-15.5 26q-9 11-27 11-22 0-34-18t-16-43-5-53-1-50h-186z"/><glyph d="M-977 2004v215h181v155h278v-155h178v-215h-178v-158h-278v158h-181z"/><glyph d="M-755-148h421v-534h-282v312h-139v222z"/><glyph d="M-998-148h394v-195q0-48 19.5-72.5t60.5-24.5q80-1 79 97v195h282v-195q0-70-19-131.5t-62-107.5-112-73q-67-27-168-27-89 0-155.5 21.5t-109.5 60.5-66.5 93-29.5 119h-113v240z"/><glyph d="M-691-287q0 40 15.5 74.5t42 61.5 61.5 41.5 75 14.5q38 0 73-14.5t61-41.5 41.5-62.5 15.5-74-15.5-74-41.5-60.5-61-41.5-73-16.5q-40 0-75 16.5t-61.5 41.5-42 60.5-15.5 74.5z"/><glyph d="M-719-148h423v-534h-283v312h-140v222z"/><glyph d="M-1185-148h395v-195q0-48 18-72 17-25 59-25 80-1 80 97v195h281v-195q0-70-18.5-131.5t-61-107.5-112-73-169.5-27q-89 0-154 21.5t-109.5 60.5-68.5 93-28 119h-112v240z"/><glyph d="M-691-287q0 40 15.5 74.5t42 61.5 61.5 41.5 75 14.5q38 0 73-14.5t61-41.5 41.5-62.5 15.5-74-15.5-74-41.5-60.5-61-41.5-73-16.5q-40 0-75 16.5t-61.5 41.5-42 60.5-15.5 74.5z"/><glyph d="M-949 1418v343h274v-106h950v-237h-1224z"/><glyph d="M-802 1967v431h287v-431h-287z"/><glyph d="M-1045 2167v201h342v-186q49 0 92 16t76 41 51.5 59 18.5 70h231q0-77-31-149.5t-94.5-128.5-159-89.5-224.5-33.5h-197v200h-105z"/><glyph d="M-1151 1964q-6 92 10 159t45.5 111.5 71 66 87.5 21.5q42 0 77-20 37-20 64-52 26 32 61.5 52t83.5 20q26 0 53-8t49-24.5 40-39.5 27-52q10 13 19.5 32.5t17 41 11 45.5 3.5 48h218q0-62-21-128.5t-57-123.5-84-98-102-51h-151v49.5t-5 54-16 43-32 17.5q-15 0-25-10t-16-25-7.5-33.5-1.5-36.5h-126q0 15-2 33.5t-7.5 35-15.5 26.5q-9 10-27 10-22 0-34-17.5t-16-43-5-53.5-1-50h-186z"/><glyph d="M-977 2125v215h181v155h278v-155h178v-215h-178v-158h-278v158h-181z"/><glyph d="M-906 1982v413h287v-413h-287z"/><glyph d="M-1077 2125v215h177v155h278v-155h181v-215h-181v-158h-278v158h-177z"/><glyph d="M-743-148h420v-534h-281v312h-139v222z"/><glyph d="M-1023-148h394v-195q0-48 18.5-72.5t59.5-24.5q80-1 80 97v195h282v-195q0-70-19.5-131.5t-61.5-107.5-111-73-170-27q-90 0-154.5 21.5t-108.5 60.5-68 93-28 119h-113v240z"/><glyph d="M-719-287q0 40 14.5 74.5t41.5 61.5 62.5 41.5 75.5 14.5q38 0 73-14.5t60.5-41.5 41.5-62.5 16-74-16-74-41.5-60.5-60.5-41.5-73-16.5q-40 0-75.5 16.5t-62.5 41.5-41.5 60.5-14.5 74.5z"/></font>
</defs>
</svg>
